<svg width="297" height="94" viewBox="0 0 297 94" fill="none" xmlns="http://www.w3.org/2000/svg">
<g clip-path="url(#clip0_862:1380)">
<path d="M71.0258 91.9888H0.384746V74.7133L13.3099 64.5673C20.1083 59.2096 26.0673 54.5268 31.0192 50.6597C35.7403 46.9683 39.3561 43.6285 41.7621 40.6403C43.9358 38.1258 45.159 34.922 45.2172 31.5912C45.2172 28.3217 44.1682 25.9663 42.007 24.3492C39.9462 22.7553 37.424 21.8814 34.824 21.8601C32.0613 21.8518 29.3932 22.871 27.3333 24.7218C25.1651 26.585 24.0669 29.5803 24.0669 33.6303V34.6849H0.0210361V33.6303C-0.0836332 28.5082 0.92857 23.4251 2.98655 18.7383C4.83854 14.6576 7.58607 11.0518 11.0228 8.19153C14.4103 5.42105 18.291 3.3237 22.4582 2.01121C26.7282 0.659873 31.1797 -0.0231073 35.6562 -0.0137632C41.6716 -0.0964782 47.6299 1.16682 53.0996 3.68463C58.0973 5.98647 62.3964 9.58266 65.5563 14.1048C68.7041 18.7672 70.3319 24.2982 70.2143 29.9319C70.2637 35.3513 68.8315 40.6802 66.0738 45.3371C62.9575 50.3558 59.0559 54.836 54.5195 58.6049C50.323 62.226 45.2871 66.0931 39.6009 70.1149H71.0746L71.0258 91.9888ZM2.48299 89.8794H68.9275V72.2102H32.8446L35.6422 70.2836C41.6951 66.158 47.5314 61.7201 53.1276 56.9877C57.4877 53.3667 61.2382 49.0622 64.2345 44.2402C66.7977 39.9105 68.1284 34.9561 68.0813 29.9178C68.1969 24.7136 66.6984 19.6024 63.7937 15.2931C60.8438 11.0759 56.8322 7.72245 52.1695 5.57596C46.9812 3.18445 41.3284 1.98357 35.6212 2.06039C31.3511 2.047 27.1045 2.69684 23.0318 3.98692C19.1168 5.22059 15.4712 7.19152 12.2888 9.79465C9.08949 12.4632 6.53715 15.8296 4.82594 19.6383C3.02947 23.7159 2.09129 28.123 2.07028 32.5826H21.9268C22.1156 28.4061 23.4515 25.2281 25.9064 23.1258C28.3497 20.9536 31.4993 19.7555 34.761 19.7578C37.798 19.7841 40.7441 20.8034 43.154 22.6617C45.8537 24.6585 47.2176 27.6678 47.2176 31.5982C47.167 35.4156 45.7745 39.0918 43.2868 41.9762C40.7829 45.0629 37.0551 48.5503 32.2082 52.3331C27.3612 56.1159 21.3042 60.876 14.4989 66.2337L2.38498 75.7539L2.48299 89.8794Z" fill="#D0A452"/>
<path d="M119.229 93.2191C113.368 93.3208 107.562 92.0725 102.255 89.57C97.3649 87.1849 93.0518 83.756 89.6162 79.5224C86.079 75.1187 83.4064 70.0794 81.7407 64.6726C79.9262 58.8266 79.0227 52.7335 79.0621 46.6096C79.0216 40.4856 79.9252 34.3924 81.7407 28.5466C83.4064 23.1377 86.0789 18.0961 89.6162 13.6898C93.0518 9.45623 97.3649 6.02728 102.255 3.64223C107.562 1.14209 113.369 -0.103711 119.229 0.000139144C125.09 -0.101719 130.896 1.14399 136.204 3.64223C141.092 6.02756 145.403 9.45655 148.836 13.6898C152.373 18.0974 155.047 23.1385 156.718 28.5466C158.53 34.393 159.432 40.4861 159.39 46.6096C159.431 52.7331 158.53 58.8261 156.718 64.6726C155.046 70.078 152.371 75.1164 148.836 79.5224C145.405 83.7576 141.093 87.187 136.204 89.57C130.897 92.0706 125.09 93.3188 119.229 93.2191ZM119.229 2.10948C113.678 2.0041 108.176 3.17529 103.143 5.53365C98.5274 7.78957 94.4558 11.0286 91.2109 15.0257C87.8415 19.2267 85.295 24.0318 83.7061 29.1865C81.96 34.8261 81.0918 40.7032 81.1323 46.6096C81.0924 52.5136 81.9606 58.3884 83.7061 64.0257C85.2934 69.181 87.8401 73.9864 91.2109 78.1865C94.452 82.1875 98.5245 85.4272 103.143 87.6786C108.175 90.0393 113.677 91.2129 119.229 91.1098C124.782 91.2139 130.284 90.0403 135.316 87.6786C139.934 85.4272 144.007 82.1875 147.248 78.1865C150.619 73.9864 153.166 69.181 154.753 64.0257C156.497 58.3881 157.366 52.5135 157.327 46.6096C157.366 40.7033 156.498 34.8264 154.753 29.1865C153.164 24.0318 150.617 19.2267 147.248 15.0257C144.003 11.0286 139.932 7.78957 135.316 5.53365C130.284 3.1741 124.781 2.00285 119.229 2.10948ZM119.229 73.0748C114.334 73.0748 110.305 70.7827 107.214 66.2687C104.206 61.8743 102.674 55.2579 102.674 46.5815C102.674 37.9051 104.206 31.2255 107.221 26.8943C110.319 22.4576 114.355 20.2077 119.229 20.2077C124.104 20.2077 128.14 22.4576 131.238 26.8873C134.337 31.3169 135.778 37.8277 135.778 46.5745C135.778 55.3212 134.253 61.8391 131.238 66.2617C128.147 70.7827 124.104 73.0748 119.229 73.0748ZM119.229 22.3662C115.033 22.3662 111.655 24.2575 108.934 28.1528C106.213 32.0481 104.773 38.3128 104.773 46.6096C104.773 54.9063 106.171 61.0375 108.969 65.0663C111.767 69.0952 115.054 70.9655 119.258 70.9655C123.461 70.9655 126.825 69.0389 129.539 65.0663C132.253 61.0937 133.735 54.822 133.735 46.6096C133.735 38.3972 132.337 32.1113 129.539 28.1528C126.741 24.1943 123.433 22.3803 119.229 22.3803V22.3662Z" fill="#D0A452"/>
<path d="M208.398 91.9894H183.408V32.0488H166.118V16.0529L169.378 15.1178C174.854 13.7116 179.316 11.9819 182.667 10.0062C186.227 7.87018 189.501 5.28514 192.41 2.31405L193.556 1.16797H208.391L208.398 91.9894ZM185.506 89.88H206.3V3.30547H194.41L193.885 3.83984C190.857 6.92245 187.455 9.60848 183.758 11.8343C179.417 14.2301 174.772 16.0207 169.951 17.1568L168.238 17.649V29.9465H185.527L185.506 89.88Z" fill="#D0A452"/>
<path d="M244.915 93.2189C240.758 93.1574 236.609 92.8333 232.493 92.2486L231.584 92.129V69.7489L232.766 69.8965C235.277 70.2129 237.494 70.452 239.34 70.5996C241.187 70.7473 242.949 70.8317 244.677 70.8317C251.671 70.8317 257.637 69.1442 262.442 65.8044C266.052 63.3133 268.716 59.6646 269.996 55.4546C269.625 55.8272 269.24 56.2069 268.821 56.5936C266.785 58.4195 264.43 59.8499 261.875 60.8123C258.514 62.0281 254.956 62.6027 251.384 62.5068C245.005 62.5068 239.543 61.1005 235.137 58.2881C230.871 55.6245 227.42 51.8289 225.163 47.3195C222.967 42.9334 221.827 38.0901 221.834 33.1799C221.843 29.0873 222.617 25.0328 224.114 21.2269C225.669 17.2566 227.964 13.6218 230.877 10.5185C234.069 7.17491 237.935 4.55482 242.215 2.83341C247.264 0.861816 252.648 -0.0937553 258.064 0.0209466C264.617 0.0209466 270.422 1.16004 275.311 3.41001C280.024 5.52551 284.19 8.70082 287.488 12.6911C290.691 16.6284 293.124 21.1399 294.657 25.987C296.243 30.9878 297.043 36.2068 297.028 41.4556C297.001 47.6921 295.957 53.882 293.937 59.7787C291.86 65.8923 288.66 71.5592 284.502 76.4847C280.045 81.6782 274.508 85.8236 268.282 88.6275C261.701 91.672 253.853 93.2189 244.915 93.2189ZM233.682 90.2729C237.406 90.7804 241.157 91.0598 244.915 91.1095C253.545 91.1095 261.099 89.6259 267.373 86.708C273.32 84.0284 278.61 80.0707 282.872 75.1137C286.86 70.392 289.931 64.9587 291.922 59.0967C293.871 53.4179 294.878 47.4556 294.902 41.4485C294.919 36.4143 294.152 31.4085 292.629 26.6128C291.177 22.0185 288.875 17.7412 285.844 14.0059C282.742 10.2685 278.83 7.29351 274.409 5.30839C269.8 3.19904 264.288 2.10926 258.036 2.10926C252.895 2.004 247.784 2.91164 242.991 4.78105C238.988 6.38616 235.372 8.83396 232.388 11.9599C229.65 14.8639 227.494 18.2702 226.037 21.9933C224.653 25.5587 223.941 29.3524 223.939 33.1799C223.932 37.7628 224.996 42.2833 227.044 46.3774C229.137 50.5413 232.329 54.0465 236.27 56.5093C240.333 59.1038 245.418 60.4185 251.391 60.4185C254.708 60.5163 258.015 59.9918 261.141 58.8717C263.454 58.004 265.588 56.7144 267.436 55.0678C268.836 53.8165 270.08 52.4001 271.143 50.8492L273.737 46.8203L273.038 51.5734C272.045 58.5553 268.884 63.9412 263.652 67.5763C258.42 71.2114 252.112 72.9762 244.691 72.9762C242.907 72.9762 241.047 72.8918 239.172 72.7371C237.592 72.5965 235.752 72.4067 233.696 72.1536L233.682 90.2729ZM257.791 45.8641C253.266 45.8641 249.803 44.4227 247.502 41.5751C245.32 38.9982 244.116 35.7276 244.103 32.3432C244.102 28.9182 245.306 25.6032 247.502 22.9847C249.803 20.1722 253.273 18.6957 257.791 18.6957C262.309 18.6957 265.778 20.1019 268.086 22.9847C270.282 25.6032 271.486 28.9182 271.485 32.3432C271.47 35.7291 270.266 39.0009 268.086 41.5821C265.785 44.4227 262.316 45.8641 257.791 45.8641ZM257.791 20.8051C253.874 20.8051 251.041 21.9582 249.125 24.3206C247.227 26.5598 246.19 29.4084 246.201 32.3502C246.219 35.2487 247.254 38.0479 249.125 40.2533C251.041 42.6157 253.874 43.7688 257.791 43.7688C261.708 43.7688 264.547 42.6227 266.464 40.2533C268.335 38.0479 269.37 35.2487 269.387 32.3502C269.384 29.4111 268.348 26.5676 266.464 24.3206C264.547 21.9582 261.708 20.8051 257.791 20.8051Z" fill="#D0A452"/>
</g>
<defs>
<clipPath id="clip0_862:1380">
<rect width="297" height="93.219" fill="white"/>
</clipPath>
</defs>
</svg>
