<svg width="333" height="95" viewBox="0 0 333 95" fill="none" xmlns="http://www.w3.org/2000/svg">
<g clip-path="url(#clip0_862:1387)">
<path d="M72.7653 93.7741H0.393888V76.1756L13.6357 65.8287C20.6005 60.3686 26.7054 55.5964 31.7786 51.6553C35.8073 48.6616 39.4979 45.2378 42.7848 41.4445C45.0252 38.8896 46.2937 35.6271 46.3676 32.2298C46.3676 28.8907 45.2927 26.4974 43.0786 24.8422C40.9648 23.2173 38.3784 22.3267 35.7124 22.3056C32.8801 22.2936 30.1446 23.3357 28.0382 25.2291C25.8169 27.1208 24.692 30.1732 24.692 34.3006V35.3754H0.0641289V34.3006C-0.0461696 29.0834 0.988603 23.9055 3.09529 19.1313C4.98877 14.9704 7.80421 11.2948 11.3284 8.38306C14.7985 5.55739 18.7742 3.41746 23.0439 2.0774C27.4185 0.700248 31.979 0.00413085 36.5652 0.0136534C42.7279 -0.0706419 48.8322 1.2168 54.4359 3.7827C59.5558 6.12882 63.9601 9.79375 67.1977 14.402C70.4218 19.1539 72.0893 24.7903 71.9698 30.5315C72.0212 36.0545 70.5538 41.4854 67.7279 46.231C64.5395 51.3466 60.5444 55.9127 55.8977 59.7524C51.5984 63.4498 46.4392 67.3837 40.6065 71.4824H72.8512L72.7653 93.7741ZM2.54353 91.6244H70.6156V73.6177H33.6488L36.515 71.6543C42.7151 67.4484 48.6943 62.9257 54.4287 58.1043C58.8991 54.4177 62.7419 50.0304 65.8075 45.1133C68.4342 40.7012 69.7975 35.6518 69.7485 30.5172C69.8657 25.2148 68.3335 20.0069 65.3633 15.6129C62.3383 11.3149 58.226 7.89766 53.447 5.71035C48.1316 3.27315 42.3405 2.04932 36.4935 2.12761C32.1188 2.11443 27.7683 2.77667 23.5956 4.09095C19.5848 5.34819 15.8498 7.35678 12.5896 10.0096C9.31186 12.7291 6.697 16.1599 4.94387 20.0413C3.10517 24.1975 2.14409 28.6883 2.12071 33.2329H22.4634C22.6569 28.9838 24.0328 25.7379 26.5479 23.5954C29.0481 21.3816 32.2727 20.1605 35.6122 20.1631C38.7384 20.1806 41.7732 21.2197 44.2538 23.1223C47.0125 25.1573 48.417 28.2243 48.417 32.237C48.3614 36.1257 46.9324 39.8694 44.3827 42.8061C41.8175 45.9517 37.9982 49.5058 33.0325 53.3608C28.0669 57.2159 21.8617 62.0669 14.8968 67.5342L2.47898 77.2289L2.54353 91.6244Z" fill="#D0A452"/>
<path d="M122.143 95.0001C116.139 95.1024 110.191 93.833 104.752 91.2885C99.741 88.8575 95.3218 85.3603 91.8042 81.0418C88.1804 76.5539 85.4424 71.4184 83.7359 65.9084C81.8787 59.9504 80.9555 53.7407 80.9988 47.5001C80.955 41.2595 81.8783 35.0499 83.7359 29.092C85.444 23.5804 88.1818 18.4429 91.8042 13.9514C95.324 9.63701 99.7428 6.14254 104.752 3.71193C110.19 1.16402 116.139 -0.10558 122.143 0.00025375C128.147 -0.103551 134.095 1.16596 139.534 3.71193C144.543 6.14254 148.962 9.63701 152.482 13.9514C156.104 18.4429 158.842 23.5804 160.55 29.092C162.407 35.0501 163.33 41.2596 163.287 47.5001C163.33 53.7406 162.407 59.9503 160.55 65.9084C158.838 71.4159 156.1 76.5504 152.482 81.0418C148.964 85.3603 144.545 88.8575 139.534 91.2885C134.095 93.833 128.147 95.1024 122.143 95.0001ZM122.143 2.1499C116.455 2.04195 110.817 3.23802 105.662 5.64657C100.936 7.94264 96.7668 11.2413 93.4452 15.3128C89.9947 19.595 87.386 24.4917 85.7566 29.7442C83.9648 35.4909 83.0753 41.4807 83.1198 47.5001C83.0758 53.5195 83.9653 59.5093 85.7566 65.2562C87.3844 70.5071 89.9933 75.4018 93.4452 79.6804C96.7646 83.756 100.934 87.0574 105.662 89.3538C110.817 91.7624 116.455 92.9584 122.143 92.8505C127.831 92.9584 133.469 91.7624 138.624 89.3538C143.352 87.0574 147.521 83.756 150.841 79.6804C154.293 75.4018 156.902 70.5071 158.529 65.2562C160.32 59.5092 161.21 53.5195 161.166 47.5001C161.21 41.4807 160.321 35.491 158.529 29.7442C156.9 24.4917 154.291 19.595 150.841 15.3128C147.519 11.2413 143.35 7.94264 138.624 5.64657C133.469 3.23802 127.831 2.04195 122.143 2.1499ZM122.143 74.4711C117.127 74.4711 113.007 72.1424 109.833 67.535C106.752 63.0565 105.189 56.3138 105.189 47.4716C105.189 38.6294 106.752 31.8222 109.84 27.4082C113.014 22.8868 117.149 20.5939 122.143 20.5939C127.137 20.5939 131.272 22.8868 134.446 27.4082C137.534 31.8078 139.104 38.5506 139.104 47.4716C139.104 56.3926 137.534 63.0279 134.453 67.535C131.272 72.1137 127.137 74.4711 122.143 74.4711ZM122.143 22.7935C117.844 22.7935 114.383 24.721 111.603 28.6907C108.822 32.6604 107.303 39.0448 107.303 47.5001C107.303 55.9554 108.736 62.2037 111.603 66.3167C114.469 70.4297 117.837 72.3214 122.143 72.3214C126.449 72.3214 129.896 70.358 132.683 66.3167C135.471 62.2753 136.983 55.8694 136.983 47.5001C136.983 39.1308 135.55 32.7249 132.683 28.6907C129.817 24.6565 126.449 22.7935 122.143 22.7935Z" fill="#D0A452"/>
<path d="M242.458 93.7741H170.087V76.1756L183.329 65.8287C190.294 60.3686 196.399 55.5964 201.472 51.6553C205.501 48.6616 209.191 45.2378 212.478 41.4445C214.706 38.8846 215.961 35.6226 216.025 32.2298C216.025 28.8907 214.943 26.4974 212.736 24.8422C210.622 23.2173 208.036 22.3267 205.37 22.3056C202.538 22.2936 199.802 23.3357 197.696 25.2291C195.474 27.1208 194.349 30.1732 194.349 34.3006V35.3754H169.722V34.3006C169.611 29.0834 170.646 23.9055 172.753 19.1313C174.646 14.9704 177.462 11.2948 180.986 8.38307C184.456 5.55739 188.432 3.41746 192.701 2.0774C197.076 0.700248 201.636 0.00413085 206.223 0.0136534C212.385 -0.0706419 218.49 1.2168 224.093 3.78271C229.213 6.12882 233.618 9.79375 236.855 14.402C240.081 19.1608 241.746 24.8053 241.62 30.553C241.671 36.0761 240.204 41.5069 237.378 46.2525C234.19 51.3681 230.195 55.9342 225.548 59.7739C221.249 63.4713 216.089 67.405 210.257 71.5037H242.501L242.458 93.7741ZM172.237 91.6244H240.309V73.6177H203.342L206.208 71.6543C212.408 67.4484 218.388 62.9257 224.122 58.1043C228.592 54.4177 232.435 50.0304 235.501 45.1133C238.131 40.7145 239.504 35.6782 239.47 30.553C239.588 25.2507 238.055 20.0427 235.085 15.6488C232.06 11.3508 227.948 7.93335 223.169 5.74604C217.854 3.30883 212.063 2.08501 206.216 2.1633C201.841 2.15012 197.49 2.81253 193.318 4.12681C189.307 5.38405 185.572 7.39247 182.311 10.0453C179.034 12.7648 176.419 16.1956 174.666 20.077C172.827 24.2331 171.866 28.7241 171.843 33.2688H192.178C192.372 29.0196 193.747 25.7737 196.263 23.6312C198.763 21.4174 201.988 20.1964 205.327 20.1989C208.453 20.2164 211.488 21.2556 213.968 23.1582C216.727 25.1932 218.132 28.26 218.132 32.2727C218.076 36.1613 216.647 39.9051 214.098 42.8418C211.532 45.9874 207.713 49.5415 202.747 53.3965C197.782 57.2515 191.576 62.1026 184.611 67.5699L172.194 77.2648L172.237 91.6244Z" fill="#D0A452"/>
<path d="M291.836 95.0001C285.832 95.1024 279.884 93.833 274.445 91.2885C269.434 88.8575 265.015 85.3603 261.497 81.0418C257.873 76.5539 255.135 71.4184 253.429 65.9084C251.572 59.9504 250.648 53.7407 250.692 47.5001C250.648 41.2595 251.571 35.0499 253.429 29.092C255.137 23.5804 257.875 18.4429 261.497 13.9514C265.017 9.63701 269.436 6.14254 274.445 3.71193C279.883 1.16402 285.832 -0.10558 291.836 0.00025375C297.84 -0.103551 303.788 1.16596 309.227 3.71193C314.236 6.14254 318.655 9.63701 322.175 13.9514C325.792 18.4464 328.529 23.5829 330.243 29.092C332.099 35.0501 333.023 41.2596 332.98 47.5001C333.023 53.7406 332.099 59.9503 330.243 65.9084C328.53 71.4159 325.793 76.5504 322.175 81.0418C318.657 85.3603 314.238 88.8575 309.227 91.2885C303.788 93.8323 297.84 95.1017 291.836 95.0001ZM291.836 2.1499C286.148 2.04195 280.51 3.23802 275.355 5.64657C270.642 7.94701 266.485 11.2454 263.174 15.3128C259.724 19.595 257.115 24.4917 255.486 29.7442C253.694 35.4909 252.804 41.4807 252.848 47.5001C252.805 53.5195 253.694 59.5093 255.486 65.2562C257.113 70.5071 259.722 75.4018 263.174 79.6804C266.483 83.7519 270.64 87.0531 275.355 89.3538C280.51 91.7624 286.148 92.9584 291.836 92.8505C297.524 92.9584 303.162 91.7624 308.317 89.3538C313.045 87.0574 317.214 83.756 320.534 79.6804C323.985 75.4018 326.595 70.5071 328.222 65.2562C330.013 59.5092 330.903 53.5195 330.859 47.5001C330.903 41.4807 330.014 35.491 328.222 29.7442C326.593 24.4917 323.984 19.595 320.534 15.3128C317.212 11.2413 313.043 7.94264 308.317 5.64657C303.162 3.23802 297.524 2.04195 291.836 2.1499ZM291.836 74.4711C286.82 74.4711 282.7 72.1424 279.526 67.535C276.444 63.0565 274.882 56.3138 274.882 47.4716C274.882 38.6294 276.444 31.8222 279.533 27.4082C282.707 22.8868 286.842 20.5939 291.836 20.5939C296.83 20.5939 300.965 22.8868 304.139 27.4082C307.227 31.8078 308.789 38.5506 308.789 47.4716C308.789 56.3926 307.227 63.0279 304.146 67.535C300.972 72.1137 296.83 74.4711 291.836 74.4711ZM291.836 22.7935C287.537 22.7935 284.076 24.721 281.296 28.6907C278.515 32.6604 277.032 39.0448 277.032 47.5001C277.032 55.9554 278.465 62.2037 281.296 66.3167C284.126 70.4297 287.53 72.3214 291.836 72.3214C296.142 72.3214 299.589 70.358 302.376 66.3167C305.164 62.2753 306.64 55.8694 306.64 47.5001C306.64 39.1308 305.207 32.7249 302.376 28.6907C299.546 24.6565 296.142 22.7935 291.836 22.7935Z" fill="#D0A452"/>
</g>
<defs>
<clipPath id="clip0_862:1387">
<rect width="332.987" height="95" fill="white"/>
</clipPath>
</defs>
</svg>
