<svg width="295" height="141" viewBox="0 0 295 141" fill="none" xmlns="http://www.w3.org/2000/svg">
<path d="M58.8891 65.7281H8.04449V53.3713L17.3475 46.126C22.2306 42.305 26.5197 38.9609 30.094 36.1943C33.492 33.5583 36.0946 31.1733 37.8263 29.0344C39.3905 27.2405 40.2711 24.9543 40.3133 22.5773C40.3133 20.2425 39.5581 18.5605 38.0026 17.4057C36.5197 16.266 34.7045 15.6402 32.8325 15.6232C30.8434 15.6186 28.9229 16.3483 27.441 17.6717C25.8804 18.9973 25.0901 21.1363 25.0901 24.0334V24.7866H7.78271V24.0334C7.70688 20.3756 8.43545 16.7456 9.91717 13.3988C11.2488 10.484 13.2266 7.90871 15.7014 5.86725C18.1406 3.88917 20.9335 2.39 23.9322 1.44884C27.0056 0.483838 30.2095 -0.00394843 33.4315 0.00272426C37.7611 -0.0563435 42.0497 0.845797 45.9866 2.64379C49.5827 4.28921 52.6766 6.85703 54.9524 10.085C57.2175 13.4148 58.3892 17.3644 58.3052 21.3873C58.3413 25.2575 57.3103 29.063 55.3249 32.3884C53.0834 35.9733 50.2749 39.173 47.0086 41.8631C43.9881 44.454 40.3636 47.2104 36.2709 50.0825H58.9244L58.8891 65.7281ZM9.55473 64.2218H57.3789V51.5988H31.4078L33.4215 50.2281C37.7782 47.2804 41.9789 44.1096 46.0068 40.7284C49.1461 38.1437 51.8457 35.0695 54.001 31.6252C55.8464 28.5335 56.8043 24.9953 56.7698 21.3974C56.8524 17.6811 55.7738 14.0313 53.6838 10.9536C51.5599 7.94076 48.6705 5.54578 45.3121 4.01452C41.5797 2.30616 37.5126 1.44855 33.4063 1.50401C30.3329 1.49445 27.2763 1.9585 24.3449 2.87976C21.5271 3.76074 18.9031 5.16821 16.6126 7.02714C14.3103 8.93324 12.4735 11.3371 11.2412 14.0566C9.94818 16.9685 9.2728 20.1157 9.25767 23.3004H23.5496C23.6855 20.3179 24.647 18.0483 26.414 16.542C28.1738 14.9928 30.44 14.1377 32.7872 14.137C34.9818 14.1503 37.1119 14.8785 38.8533 16.2106C40.7965 17.6416 41.7782 19.7906 41.7782 22.5974C41.7391 25.3228 40.7372 27.9472 38.9489 30.0084C36.5661 32.7533 33.8926 35.2331 30.9749 37.4044C27.4007 40.171 23.1116 43.51 18.2285 47.331L9.50938 54.1244L9.55473 64.2218Z" fill="#D0A452"/>
<path d="M93.5837 66.581C89.3655 66.6551 85.1862 65.7654 81.3659 63.98C77.8452 62.2766 74.7406 59.8261 72.2693 56.8C69.7225 53.6559 67.7988 50.057 66.6009 46.1955C65.2941 42.021 64.6437 37.6697 64.6728 33.2965C64.644 28.9234 65.2945 24.5721 66.6009 20.3975C67.801 16.537 69.7245 12.9385 72.2693 9.79305C74.7406 6.76697 77.8452 4.31636 81.3659 2.61296C85.1862 0.827577 89.3655 -0.0620642 93.5837 0.0120961C97.8018 -0.0606421 101.981 0.828932 105.802 2.61296C109.321 4.31643 112.424 6.76708 114.893 9.79305C117.438 12.9394 119.363 16.5375 120.567 20.3975C121.871 24.5725 122.52 28.9236 122.49 33.2965C122.52 37.6694 121.871 42.0205 120.567 46.1955C119.365 50.0564 117.44 53.6549 114.893 56.8C112.424 59.826 109.321 62.2765 105.802 63.98C101.981 65.764 97.8018 66.6537 93.5837 66.581V66.581ZM93.5837 1.51841C89.5873 1.44276 85.6266 2.281 82.0053 3.96873C78.6811 5.57642 75.75 7.88996 73.4171 10.7471C70.9921 13.7453 69.159 17.1749 68.0154 20.8544C66.7594 24.8819 66.1345 29.0788 66.1629 33.2965C66.1341 37.5143 66.759 41.7112 68.0154 45.7387C69.159 49.4196 70.992 52.851 73.4171 55.851C75.7515 58.7053 78.6824 61.0169 82.0053 62.6243C85.6266 64.3121 89.5873 65.1503 93.5837 65.0747C97.5803 65.1515 101.541 64.3132 105.162 62.6243C108.485 61.0169 111.416 58.7053 113.75 55.851C116.176 52.851 118.008 49.4196 119.152 45.7387C120.408 41.711 121.033 37.5143 121.005 33.2965C121.033 29.0788 120.408 24.882 119.152 20.8544C118.008 17.1749 116.176 13.7453 113.75 10.7471C111.418 7.88996 108.486 5.57642 105.162 3.96873C101.541 2.27981 97.5803 1.44151 93.5837 1.51841ZM93.5837 52.2007C90.0599 52.2007 87.1602 50.5638 84.9352 47.3353C82.7705 44.1972 81.668 39.4774 81.668 33.2764C81.668 27.0755 82.7705 22.3155 84.9402 19.2175C87.1703 16.0493 90.075 14.4425 93.5837 14.4425C97.0925 14.4425 99.9973 16.0493 102.227 19.2175C104.397 22.3005 105.495 27.0252 105.495 33.2764C105.495 39.5276 104.397 44.1771 102.227 47.3353C100.002 50.5638 97.0925 52.2007 93.5837 52.2007ZM93.5837 15.984C90.5633 15.984 88.1318 17.3397 86.1735 20.1163C84.2153 22.893 83.1782 27.3767 83.1782 33.2965C83.1782 39.2163 84.1851 43.5997 86.1987 46.4818C88.2124 49.3638 90.5784 50.6944 93.6039 50.6944C96.6294 50.6944 99.0508 49.3136 101.004 46.4818C102.957 43.6499 104.025 39.1611 104.025 33.2965C104.025 27.432 103.018 22.9432 101.004 20.1163C98.9904 17.2895 96.6092 15.984 93.5837 15.984Z" fill="#D0A452"/>
<path d="M178.107 65.7281H127.262V53.3713L136.56 46.126C141.443 42.305 145.737 38.9609 149.312 36.1943C152.71 33.5583 155.312 31.1733 157.044 29.0344C158.608 27.2405 159.489 24.9543 159.531 22.5773C159.531 20.2425 158.776 18.5605 157.22 17.4057C155.737 16.266 153.922 15.6402 152.05 15.6232C150.061 15.6186 148.141 16.3483 146.659 17.6717C145.098 18.9973 144.308 21.1363 144.308 24.0334V24.7866H127V24.0334C126.925 20.3756 127.653 16.7456 129.135 13.3988C130.464 10.4827 132.443 7.90699 134.919 5.86725C137.358 3.88917 140.151 2.39 143.15 1.44884C146.223 0.483838 149.427 -0.00394843 152.649 0.00272426C156.979 -0.0563435 161.267 0.845797 165.204 2.64379C168.8 4.28921 171.894 6.85703 174.17 10.085C176.435 13.4148 177.607 17.3644 177.523 21.3873C177.559 25.2581 176.526 29.0641 174.538 32.3884C172.299 35.9743 169.493 39.1742 166.226 41.8631C163.206 44.454 159.581 47.2104 155.488 50.0825H178.142L178.107 65.7281ZM128.773 64.2218H176.597V51.5988H150.626L152.639 50.2281C156.996 47.2804 161.197 44.1096 165.225 40.7284C168.364 38.1437 171.063 35.0695 173.219 31.6252C175.064 28.5335 176.022 24.9953 175.988 21.3974C176.07 17.6811 174.992 14.0313 172.902 10.9536C170.778 7.94076 167.888 5.54578 164.53 4.01452C160.798 2.30616 156.73 1.44855 152.624 1.50401C149.551 1.49445 146.494 1.9585 143.563 2.87976C140.745 3.76074 138.121 5.16821 135.83 7.02714C133.526 8.93139 131.689 11.3358 130.459 14.0566C129.166 16.9685 128.491 20.1157 128.475 23.3004H142.767C142.903 20.3179 143.865 18.0483 145.632 16.542C147.392 14.9928 149.658 14.1377 152.005 14.137C154.2 14.1503 156.33 14.8785 158.071 16.2106C160.014 17.6416 160.996 19.7906 160.996 22.5974C160.957 25.3228 159.955 27.9472 158.167 30.0084C155.784 32.7533 153.11 35.2331 150.193 37.4044C146.618 40.171 142.329 43.51 137.446 47.331L128.727 54.1244L128.773 64.2218Z" fill="#D0A452"/>
<path d="M235.112 65.7281H184.267V53.3713L193.565 46.126C198.448 42.305 202.742 38.9609 206.317 36.1943C209.715 33.5583 212.317 31.1733 214.049 29.0344C215.613 27.2405 216.494 24.9543 216.536 22.5773C216.536 20.2425 215.781 18.5605 214.225 17.4057C212.742 16.266 210.927 15.6402 209.055 15.6232C207.066 15.6186 205.146 16.3483 203.664 17.6717C202.103 18.9973 201.313 21.1363 201.313 24.0334V24.7866H184.005V24.0334C183.93 20.3756 184.658 16.7456 186.14 13.3988C187.469 10.4827 189.447 7.90699 191.924 5.86725C194.363 3.88917 197.156 2.39 200.155 1.44884C203.228 0.483838 206.432 -0.00394843 209.654 0.00272426C213.984 -0.0563435 218.272 0.845797 222.209 2.64379C225.805 4.28921 228.899 6.85703 231.175 10.085C233.44 13.4148 234.612 17.3644 234.528 21.3873C234.564 25.2581 233.531 29.0641 231.543 32.3884C229.304 35.9743 226.497 39.1742 223.231 41.8631C220.211 44.454 216.586 47.2104 212.493 50.0825H235.147L235.112 65.7281ZM185.777 64.2218H233.602V51.5988H207.63L209.644 50.2281C214.001 47.2804 218.202 44.1096 222.229 40.7284C225.369 38.1437 228.068 35.0695 230.224 31.6252C232.069 28.5335 233.027 24.9953 232.992 21.3974C233.075 17.6811 231.996 14.0313 229.906 10.9536C227.783 7.94076 224.893 5.54578 221.535 4.01452C217.802 2.30616 213.735 1.44855 209.629 1.50401C206.556 1.49445 203.499 1.9585 200.568 2.87976C197.75 3.76074 195.126 5.16821 192.835 7.02714C190.531 8.93139 188.694 11.3358 187.464 14.0566C186.171 16.9685 185.495 20.1157 185.48 23.3004H199.772C199.908 20.3179 200.87 18.0483 202.637 16.542C204.396 14.9928 206.663 14.1377 209.01 14.137C211.204 14.1503 213.335 14.8785 215.076 16.2106C217.019 17.6416 218.001 19.7906 218.001 22.5974C217.962 25.3228 216.96 27.9472 215.172 30.0084C212.789 32.7533 210.115 35.2331 207.197 37.4044C203.623 40.171 199.334 43.51 194.451 47.331L185.732 54.1244L185.777 64.2218Z" fill="#D0A452"/>
<path d="M116.871 140.137H66.0268V127.8L75.3298 120.555C80.2381 116.719 84.5272 113.375 88.0763 110.623C91.4793 107.987 94.082 105.602 95.8087 103.468C97.3857 101.678 98.2773 99.3887 98.3258 97.006C98.3258 94.6712 97.5706 92.9892 96.0151 91.8344C94.5301 90.6958 92.713 90.0717 90.84 90.0569C88.8527 90.0494 86.9334 90.7775 85.4535 92.1004C83.8929 93.431 83.0976 95.57 83.0976 98.4621V99.2153H65.7952V98.4621C65.7208 94.805 66.4475 91.1757 67.9247 87.8276C69.2594 84.9133 71.2387 82.3383 73.7139 80.2961C76.1514 78.3166 78.9449 76.8187 81.9447 75.8826C85.018 74.9172 88.222 74.4294 91.4441 74.4364C95.7722 74.3759 100.06 75.2782 103.994 77.0775C107.593 78.7184 110.688 81.2871 112.96 84.5187C115.23 87.8466 116.403 91.7971 116.318 95.8211C116.352 99.6916 115.319 103.497 113.332 106.822C111.093 110.407 108.286 113.607 105.021 116.297C102.001 118.883 98.3761 121.644 94.2834 124.516H116.937L116.871 140.137ZM67.537 138.63H115.361V126.012H89.3902L91.4039 124.637C95.7604 121.69 99.9611 118.521 103.989 115.142C107.129 112.556 109.83 109.482 111.988 106.039C113.833 102.947 114.791 99.4089 114.757 95.811C114.84 92.0947 113.762 88.4446 111.671 85.3672C109.547 82.3544 106.658 79.9594 103.299 78.4281C99.5671 76.7198 95.5001 75.8622 91.3938 75.9176C88.3203 75.9077 85.2637 76.3717 82.3324 77.2934C79.5146 78.1744 76.8904 79.5818 74.5999 81.4408C72.2939 83.3445 70.4549 85.7489 69.2235 88.4702C67.9322 91.3825 67.2587 94.5297 67.2451 97.714H81.537C81.6729 94.7315 82.6344 92.462 84.4013 90.9607C86.1584 89.4103 88.4236 88.5548 90.7696 88.5556C92.9659 88.5679 95.0979 89.2961 96.8406 90.6293C98.7838 92.0552 99.7655 94.2042 99.7655 97.011C99.729 99.737 98.7269 102.362 96.9364 104.422C95.1342 106.626 92.4509 109.112 88.9572 111.818C85.4636 114.524 81.1241 117.909 76.2158 121.75L67.4918 128.543L67.537 138.63Z" fill="#D0A452"/>
<path d="M237.726 140.137H186.881V127.8L196.184 120.555C201.093 116.718 205.382 113.374 208.931 110.623C212.334 107.987 214.937 105.602 216.663 103.468C218.229 101.673 219.111 99.3849 219.155 97.0058C219.155 94.671 218.4 92.9891 216.845 91.8343C215.359 90.6957 213.542 90.0716 211.669 90.0568C209.682 90.0483 207.762 90.7765 206.283 92.1003C204.717 93.4308 203.927 95.5699 203.927 98.462V99.2152H186.625V98.462C186.548 94.8046 187.275 91.1748 188.754 87.8275C190.087 84.9121 192.067 82.3369 194.543 80.2959C196.98 78.3151 199.774 76.8171 202.774 75.8824C205.846 74.9171 209.048 74.4293 212.268 74.4363C216.598 74.3773 220.887 75.2794 224.824 77.0774C228.423 78.7183 231.518 81.287 233.789 84.5186C236.055 87.8481 237.227 91.7979 237.142 95.8209C237.178 99.691 236.147 103.496 234.162 106.822C231.922 110.407 229.116 113.607 225.851 116.297C222.83 118.883 219.206 121.644 215.113 124.516H237.766L237.726 140.137ZM188.392 138.63H236.216V126.012H210.245L212.258 124.637C216.615 121.69 220.816 118.521 224.844 115.142C227.984 112.556 230.685 109.482 232.843 106.039C234.684 102.945 235.64 99.408 235.607 95.8109C235.689 92.0954 234.613 88.446 232.526 85.3671C230.401 82.3554 227.512 79.9607 224.154 78.428C220.42 76.7191 216.351 75.8615 212.243 75.9175C209.17 75.9083 206.113 76.3723 203.182 77.2933C200.365 78.1754 197.741 79.5827 195.45 81.4406C193.147 83.3462 191.31 85.7503 190.078 88.4701C188.785 91.3818 188.111 94.5294 188.1 97.7139H202.392C202.528 94.7314 203.489 92.4619 205.256 90.9606C207.013 89.4102 209.278 88.5546 211.624 88.5555C213.82 88.5678 215.952 89.2959 217.695 90.6291C219.633 92.0551 220.62 94.2041 220.62 97.0109C220.584 99.7368 219.581 102.362 217.791 104.422C215.989 106.626 213.306 109.112 209.812 111.818C206.318 114.524 201.979 117.908 197.07 121.749L188.346 128.543L188.392 138.63Z" fill="#D0A452"/>
<path d="M151.562 140.995C147.344 141.066 143.165 140.177 139.344 138.394C135.821 136.685 132.714 134.23 130.242 131.199C127.696 128.053 125.771 124.455 124.568 120.594C123.266 116.419 122.618 112.068 122.645 107.695C122.617 103.323 123.266 98.9718 124.568 94.7964C125.773 90.9397 127.698 87.3451 130.242 84.202C132.712 81.1779 135.815 78.7291 139.334 77.0271C143.154 75.243 147.333 74.3533 151.551 74.4261C155.771 74.3526 159.952 75.2423 163.774 77.0271C167.291 78.7317 170.394 81.1801 172.866 84.202C175.412 87.3496 177.337 90.9495 178.539 94.8115C179.841 98.9871 180.49 103.338 180.462 107.711C180.49 112.083 179.841 116.434 178.539 120.61C177.337 124.47 175.412 128.068 172.866 131.214C170.393 134.236 167.291 136.686 163.774 138.394C159.954 140.175 155.778 141.065 151.562 140.995V140.995ZM151.562 75.9324C147.574 75.8601 143.623 76.6965 140.008 78.3777C136.686 79.9887 133.756 82.3017 131.42 85.1561C128.995 88.1561 127.162 91.5874 126.018 95.2684C124.762 99.2957 124.137 103.493 124.166 107.711C124.137 111.927 124.762 116.122 126.018 120.148C127.161 123.829 128.994 127.261 131.42 130.26C133.753 133.117 136.684 135.431 140.008 137.038C143.621 138.723 147.573 139.562 151.562 139.489C155.558 139.565 159.519 138.727 163.14 137.038C166.464 135.431 169.395 133.117 171.728 130.26C174.147 127.261 175.973 123.831 177.11 120.153C178.365 116.127 178.99 111.932 178.962 107.716C178.991 103.498 178.366 99.3009 177.11 95.2734C175.966 91.5924 174.133 88.1611 171.708 85.1611C169.373 82.3067 166.442 79.9937 163.12 78.3827C159.504 76.6999 155.551 75.8618 151.562 75.9324V75.9324ZM151.562 126.61C148.038 126.61 145.143 124.973 142.918 121.749C140.748 118.611 139.651 113.886 139.651 107.69C139.651 101.494 140.753 96.7245 142.923 93.6315C145.148 90.4633 148.058 88.8565 151.562 88.8565C155.065 88.8565 157.975 90.4633 160.205 93.6315C162.375 96.7144 163.477 101.439 163.477 107.69C163.477 113.942 162.38 118.591 160.21 121.749C157.98 124.973 155.075 126.61 151.562 126.61ZM151.562 90.398C148.541 90.398 146.115 91.7487 144.156 94.5303C142.198 97.312 141.161 101.786 141.161 107.711C141.161 113.635 142.168 118.014 144.181 120.891C146.195 123.768 148.556 125.103 151.582 125.103C154.607 125.103 157.029 123.728 158.987 120.896C160.945 118.064 162.007 113.575 162.007 107.711C162.007 101.846 161 97.3572 159.012 94.5303C157.023 91.7035 154.592 90.398 151.562 90.398V90.398Z" fill="#D0A452"/>
<path d="M268.983 140.994C264.495 141.065 260.043 140.18 255.925 138.398C252.233 136.806 249.052 134.23 246.732 130.952C244.425 127.559 243.183 123.559 243.163 119.459V118.686H259.801L259.947 119.248C260.252 120.528 260.744 121.756 261.407 122.893C262.052 123.899 262.925 124.74 263.954 125.349C265.057 126.037 266.607 126.388 268.57 126.388C271.591 126.388 273.72 125.555 275.16 123.832C276.567 122.24 277.344 120.191 277.345 118.068C277.336 115.951 276.574 113.905 275.195 112.294C273.791 110.577 271.671 109.743 268.741 109.743C266.844 109.743 265.354 110.09 264.311 110.778C263.099 111.634 262.107 112.764 261.417 114.077L261.2 114.453H243.581L249.828 75.2891H290.796V91.0049H261.925L260.37 100.455C260.908 99.934 261.484 99.4523 262.091 99.0134C263.398 98.1449 264.833 97.4875 266.345 97.0653C268.443 96.487 270.613 96.2163 272.789 96.2619C277.486 96.2619 281.548 97.2963 284.871 99.3298C288.065 101.249 290.675 103.998 292.422 107.283C294.13 110.503 295.015 114.094 294.999 117.737C294.99 120.611 294.449 123.459 293.404 126.137C292.311 128.955 290.649 131.518 288.521 133.669C286.203 135.994 283.428 137.816 280.37 139.021C276.739 140.408 272.871 141.079 268.983 140.994V140.994ZM244.704 120.192C244.843 123.733 245.975 127.163 247.971 130.094C250.134 133.142 253.094 135.541 256.529 137.028C260.453 138.719 264.694 139.557 268.968 139.488C272.65 139.564 276.312 138.928 279.751 137.615C282.618 136.485 285.22 134.776 287.393 132.594C289.369 130.585 290.911 128.192 291.924 125.565C292.906 123.058 293.418 120.393 293.434 117.702C293.449 114.304 292.625 110.955 291.033 107.951C289.397 104.901 286.961 102.351 283.985 100.575C280.914 98.6921 277.123 97.7332 272.708 97.7332C270.681 97.6895 268.658 97.9381 266.703 98.4712C265.348 98.8449 264.062 99.4313 262.892 100.208C261.906 100.919 261.015 101.75 260.239 102.684L260.012 102.955H258.341L260.566 89.4634H289.205V76.7603H251.036L245.267 112.912H260.259C261.043 111.551 262.119 110.38 263.41 109.482C264.699 108.634 266.471 108.202 268.671 108.202C272.044 108.202 274.606 109.246 276.298 111.305C277.899 113.183 278.78 115.568 278.784 118.033C278.781 120.504 277.887 122.892 276.267 124.761C274.551 126.82 271.943 127.859 268.52 127.859C266.27 127.859 264.447 127.433 263.098 126.589C261.875 125.856 260.841 124.849 260.078 123.647C259.43 122.546 258.932 121.364 258.598 120.132L244.704 120.192Z" fill="#D0A452"/>
<path d="M6.85647 113.773C5.80609 113.799 4.7665 113.557 3.836 113.07C2.98977 112.607 2.25862 111.96 1.6965 111.177C1.11913 110.372 0.686565 109.474 0.417932 108.521C0.137346 107.542 -0.00335635 106.527 6.0773e-05 105.509C-0.00295483 104.49 0.137739 103.476 0.417932 102.496C0.688087 101.544 1.12053 100.645 1.6965 99.8398C2.25881 99.0585 2.99 98.4133 3.836 97.9518C4.76524 97.4613 5.80542 97.2174 6.85647 97.2438C7.54127 97.228 8.22334 97.3352 8.87012 97.5602C9.35654 97.7312 9.81734 97.9676 10.2395 98.2631C10.6271 98.5536 10.9771 98.8909 11.2815 99.2673H11.5181V96.4757H7.78784V93.0212H11.5181V90.6211H17.2369V93.0212H19.5274V96.4757H17.2369V113.437H11.5181V111.694H11.2815C10.9761 112.07 10.6263 112.407 10.2395 112.699C9.81968 112.998 9.35831 113.235 8.87012 113.402C8.22682 113.645 7.54465 113.771 6.85647 113.773ZM8.74931 109.254C9.35095 109.275 9.93974 109.077 10.4056 108.697C10.8594 108.323 11.2066 107.836 11.4124 107.286C11.6318 106.726 11.7446 106.13 11.7447 105.529C11.7441 104.927 11.6314 104.331 11.4124 103.771C11.2051 103.222 10.8582 102.736 10.4056 102.36C9.93725 101.985 9.34978 101.789 8.74931 101.808C8.15016 101.788 7.56376 101.984 7.0981 102.36C6.64733 102.737 6.30074 103.223 6.09128 103.771C5.87227 104.331 5.75965 104.927 5.75907 105.529C5.75918 106.13 5.87182 106.726 6.09128 107.286C6.29933 107.835 6.64616 108.321 7.0981 108.697C7.56358 109.073 8.15053 109.268 8.74931 109.244V109.254Z" fill="black"/>
<path d="M29.4894 113.774C28.1856 113.803 26.8893 113.569 25.6785 113.086C24.6622 112.665 23.7525 112.023 23.0155 111.208C22.3217 110.43 21.7895 109.522 21.4498 108.537C21.1122 107.556 20.942 106.526 20.9464 105.489C20.9525 104.478 21.1225 103.474 21.4498 102.517C21.7783 101.543 22.291 100.641 22.96 99.8605C23.6765 99.0465 24.5656 98.4017 25.5627 97.9726C26.7488 97.4753 28.0269 97.2339 29.3131 97.2645C30.7513 97.2391 32.1715 97.5851 33.4361 98.2688C34.6206 98.9333 35.5834 99.9302 36.2048 101.136C36.9073 102.548 37.2529 104.109 37.2117 105.685V106.975H26.7105C26.7657 107.648 27.0457 108.283 27.5058 108.778C27.7641 109.047 28.0782 109.255 28.4261 109.39C28.7741 109.524 29.1472 109.581 29.5195 109.556C30.0455 109.591 30.5704 109.473 31.0297 109.215C31.404 108.946 31.7051 108.589 31.9057 108.175H37.1412C36.9695 108.854 36.7282 109.514 36.4213 110.144C36.0886 110.761 35.6625 111.323 35.1578 111.81C34.5168 112.418 33.7648 112.897 32.9427 113.221C31.8392 113.63 30.6657 113.818 29.4894 113.774V113.774ZM23.0155 95.7633L27.078 90.9933H31.503L35.5655 95.7633H31.3218L29.3081 93.3332L27.2592 95.7633H23.0155ZM26.6601 103.797H31.7447C31.7612 103.456 31.705 103.116 31.5801 102.798C31.4551 102.48 31.2641 102.193 31.0197 101.954C30.5093 101.524 29.8545 101.304 29.1873 101.337C28.5663 101.329 27.9628 101.543 27.4857 101.939C27.2228 102.174 27.0133 102.462 26.8709 102.784C26.7286 103.106 26.6567 103.455 26.6601 103.807V103.797ZM37.4634 91.8519L33.4613 91.8218L35.777 86.4492H40.8916L37.4634 91.8519Z" fill="black"/>
<path d="M39.6582 113.476V97.5548H45.3769V99.8042H45.5279C45.7812 99.4061 46.0674 99.0299 46.3837 98.6795C46.7808 98.2577 47.2561 97.9167 47.7832 97.6753C48.4755 97.3717 49.2274 97.2275 49.9832 97.2535C51.0823 97.1931 52.1695 97.5045 53.0691 98.1372C53.8062 98.7117 54.3648 99.4831 54.68 100.362C54.9928 101.223 55.1547 102.132 55.1583 103.048V113.466H49.4395V104.188C49.442 103.621 49.287 103.065 48.9915 102.581C48.8204 102.33 48.5848 102.129 48.3094 102C48.0339 101.871 47.7287 101.819 47.4258 101.848C47.1143 101.813 46.7992 101.864 46.515 101.996C46.2308 102.128 45.9887 102.336 45.8149 102.596C45.5287 103.078 45.3774 103.627 45.3769 104.188V113.466L39.6582 113.476Z" fill="black"/>
</svg>
