<svg width="324" height="104" viewBox="0 0 324 104" fill="none" xmlns="http://www.w3.org/2000/svg">
<g clip-path="url(#clip0_862:1393)">
<path d="M79.659 102.667H0.431419V83.362L14.9277 72.0427C22.5367 66.0732 29.2201 60.8489 34.7896 56.5266C40.0845 52.4084 44.1399 48.6823 46.8383 45.3406C49.2757 42.5381 50.6478 38.9663 50.7136 35.2528C50.7136 31.6051 49.5369 28.9775 47.113 27.1733C44.8023 25.3928 41.9738 24.415 39.0568 24.3885C35.9573 24.3813 32.9648 25.5212 30.6556 27.5888C28.2239 29.6597 26.9924 33.0016 26.9924 37.5277V38.7044H0.0234987V37.5277C-0.094657 31.8132 1.04061 26.142 3.34948 20.9133C5.42447 16.3595 8.5063 12.3362 12.3626 9.14684C16.1634 6.05649 20.5154 3.71434 25.1881 2.24399C29.9772 0.736365 34.9695 -0.0256998 39.9903 -0.0152752C46.7368 -0.107556 53.4193 1.30185 59.554 4.11084C65.1575 6.68147 69.9785 10.6932 73.5247 15.7362C77.0542 20.9383 78.88 27.1087 78.7492 33.3938C78.8054 39.44 77.1988 45.3854 74.1052 50.5806C70.6123 56.1814 66.2361 61.1801 61.1464 65.3829C56.4398 69.4306 50.792 73.737 44.4146 78.224H79.714L79.659 102.667ZM2.78471 100.314H77.3058V80.593H36.8368L39.9746 78.4515C46.7634 73.8463 53.3091 68.8925 59.5854 63.6101C64.4771 59.572 68.6838 54.7693 72.0422 49.3882C74.9178 44.5581 76.4103 39.0305 76.3566 33.4095C76.4853 27.6036 74.8047 21.9014 71.548 17.0932C68.2384 12.3863 63.7361 8.6446 58.5029 6.25233C52.687 3.58336 46.3495 2.24353 39.951 2.33017C35.1618 2.31523 30.3991 3.04022 25.8312 4.4795C21.4405 5.85585 17.3516 8.05473 13.7825 10.9589C10.1951 13.9368 7.33281 17.6924 5.41264 21.941C3.3978 26.4902 2.3454 31.4071 2.32183 36.3825H24.592C24.8038 31.723 26.302 28.1772 29.0553 25.8239C31.7975 23.4036 35.3287 22.0677 38.9862 22.0666C42.4059 22.0874 45.7251 23.225 48.4386 25.3062C51.4665 27.5418 52.9962 30.8992 52.9962 35.2842C52.9354 39.5422 51.3742 43.6422 48.5876 46.8624C44.8746 51.1508 40.7087 55.0249 36.1623 58.4171C30.5929 62.7393 23.9095 67.9558 16.3005 73.9253L2.71405 84.5387L2.78471 100.314Z" fill="#D0A452"/>
<path d="M133.722 104.001C127.149 104.117 120.637 102.727 114.684 99.9374C109.198 97.2762 104.36 93.4478 100.509 88.7202C96.5407 83.8081 93.5431 78.1856 91.6765 72.1529C89.6403 65.631 88.6267 58.8331 88.6721 52.0009C88.6272 45.1687 89.6408 38.3708 91.6765 31.8489C93.5465 25.8175 96.5437 20.1956 100.509 15.2816C104.36 10.5539 109.198 6.72536 114.684 4.06414C120.637 1.27485 127.149 -0.115027 133.722 0.000832888C140.295 -0.112806 146.807 1.27697 152.76 4.06414C158.244 6.72546 163.079 10.5541 166.927 15.2816C170.892 20.1971 173.892 25.8184 175.768 31.8489C177.8 38.3714 178.811 45.1691 178.764 52.0009C178.811 58.8326 177.8 65.6303 175.768 72.1529C173.895 78.1847 170.895 83.8066 166.927 88.7202C163.079 93.4476 158.244 97.2761 152.76 99.9374C146.807 102.725 140.295 104.115 133.722 104.001ZM133.722 2.35413C127.495 2.23595 121.323 3.54553 115.68 6.18226C110.5 8.69393 105.933 12.3084 102.298 16.7721C98.519 21.4561 95.6627 26.8142 93.8807 32.5626C91.9235 38.8548 90.9498 45.4115 90.994 52.0009C90.9492 58.5903 91.9229 65.1471 93.8807 71.4391C95.6626 77.1899 98.5189 82.5506 102.298 87.2375C105.935 91.6967 110.502 95.3081 115.68 97.8195C121.323 100.456 127.495 101.766 133.722 101.648C139.95 101.768 146.122 100.458 151.764 97.8195C156.942 95.3081 161.509 91.6967 165.146 87.2375C168.925 82.5506 171.781 77.1899 173.563 71.4391C175.52 65.1468 176.494 58.5902 176.45 52.0009C176.494 45.4115 175.52 38.8549 173.563 32.5626C171.781 26.8142 168.925 21.4561 165.146 16.7721C161.511 12.3084 156.944 8.69393 151.764 6.18226C146.122 3.54367 139.95 2.234 133.722 2.35413ZM133.722 81.5347C128.231 81.5347 123.713 78.9774 120.246 73.9336C116.872 69.0309 115.155 61.6572 115.155 51.9695C115.155 42.2817 116.872 34.8453 120.253 30.0054C123.728 25.0556 128.255 22.5454 133.722 22.5454C139.189 22.5454 143.716 25.0556 147.191 30.0054C150.572 34.8218 152.282 42.2033 152.282 51.9695C152.282 61.7356 150.572 68.9995 147.191 73.9336C143.724 78.9774 139.189 81.5347 133.722 81.5347ZM133.722 24.9537C129.015 24.9537 125.227 27.0716 122.175 31.4095C119.124 35.7474 117.508 42.7524 117.508 52.0009C117.508 61.2493 119.077 68.0974 122.214 72.6001C125.352 77.1027 129.039 79.1814 133.753 79.1814C138.468 79.1814 142.241 77.0243 145.285 72.6001C148.328 68.1759 149.991 61.163 149.991 52.0009C149.991 42.8387 148.422 35.8259 145.285 31.4095C142.147 26.9932 138.436 24.9537 133.722 24.9537Z" fill="#D0A452"/>
<path d="M265.428 102.667H186.201V83.362L200.689 72.0427C208.298 66.0732 214.989 60.8489 220.559 56.5266C225.854 52.4084 229.909 48.6823 232.608 45.3406C235.045 42.5381 236.417 38.9663 236.483 35.2528C236.483 31.6051 235.306 28.9775 232.882 27.1733C230.572 25.3928 227.743 24.415 224.826 24.3885C221.727 24.3813 218.734 25.5212 216.425 27.5888C213.993 29.6597 212.761 33.0016 212.761 37.5277V38.7044H185.793V37.5277C185.675 31.8132 186.81 26.142 189.119 20.9133C191.19 16.3575 194.273 12.3335 198.132 9.14684C201.933 6.05649 206.284 3.71434 210.957 2.24399C215.746 0.736365 220.739 -0.0256998 225.76 -0.0152752C232.506 -0.107556 239.189 1.30185 245.323 4.11084C250.927 6.68147 255.748 10.6932 259.294 15.7362C262.824 20.9383 264.649 27.1087 264.518 33.3938C264.575 39.4411 262.965 45.3871 259.867 50.5806C256.379 56.1829 252.005 61.1821 246.916 65.3829C242.209 69.4306 236.561 73.737 230.184 78.224H265.483L265.428 102.667ZM188.554 100.314H263.075V80.593H222.606L225.744 78.4515C232.533 73.8463 239.078 68.8925 245.355 63.6101C250.246 59.572 254.453 54.7693 257.812 49.3882C260.687 44.5581 262.18 39.0305 262.126 33.4095C262.255 27.6036 260.574 21.9014 257.317 17.0932C254.008 12.3863 249.505 8.6446 244.272 6.25233C238.456 3.58336 232.119 2.24353 225.72 2.33017C220.931 2.31523 216.168 3.04022 211.601 4.4795C207.21 5.85585 203.121 8.05473 199.552 10.9589C195.961 13.9339 193.098 17.6903 191.182 21.941C189.167 26.4902 188.115 31.4071 188.091 36.3825H210.361C210.573 31.723 212.071 28.1772 214.825 25.8239C217.567 23.4036 221.098 22.0677 224.755 22.0666C228.175 22.0874 231.494 23.225 234.208 25.3062C237.236 27.5418 238.766 30.8992 238.766 35.2842C238.705 39.5422 237.143 43.6422 234.357 46.8624C230.644 51.1508 226.478 55.0249 221.931 58.4171C216.362 62.7393 209.679 67.9558 202.07 73.9253L188.483 84.5387L188.554 100.314Z" fill="#D0A452"/>
<path d="M323.743 102.667H295.707V35.7942H276.348V17.9405L280.011 16.8971C286.145 15.3283 291.15 13.4064 294.915 11.1943C298.908 8.80976 302.582 5.92892 305.85 2.62052L307.129 1.3418H323.774L323.743 102.667ZM298.061 100.314H321.39V3.69509H308.054L307.466 4.28342C304.059 7.73631 300.226 10.7414 296.06 13.2261C292.138 15.5794 286.898 17.5403 280.576 19.1719L278.654 19.7212V33.4409H298.045L298.061 100.314Z" fill="#D0A452"/>
</g>
<defs>
<clipPath id="clip0_862:1393">
<rect width="323.735" height="104" fill="white"/>
</clipPath>
</defs>
</svg>
