<svg width="421" height="247" viewBox="0 0 421 247" fill="none" xmlns="http://www.w3.org/2000/svg">
<path d="M189.719 243.158H1.11757V198.424L35.5978 171.704C53.97 157.409 70.0048 144.979 83.2581 134.761C96.0235 124.922 105.793 115.92 112.293 108.012C118.592 100.351 121.784 92.0999 121.784 83.495C121.784 74.5366 118.856 68.0381 112.82 63.6412C106.681 59.1523 100.015 56.8618 93.0127 56.8618C85.4198 56.8618 78.4662 59.4864 72.3519 64.6581C66.3304 69.7523 63.2756 77.9118 63.2756 88.9186V90.9233H0.15625V88.904C0.15625 74.0282 2.81085 60.8181 8.0468 49.6806C13.2828 38.5431 20.495 29.173 29.464 21.8997C38.504 14.6002 48.8606 9.07372 59.9818 5.61481C71.3935 2.04344 83.2917 0.238616 95.2574 0.263935C112.38 0.263935 128.059 3.54702 141.859 10.0116C155.659 16.4762 166.882 25.7301 175.075 37.439C183.268 49.1479 187.47 63.1908 187.47 79.0352C187.47 93.7706 183.756 107.407 176.432 119.561C169.18 131.59 158.782 143.381 145.519 154.615C133.666 164.654 119.515 175.384 103.387 186.575H189.719V243.158ZM5.17263 239.101H185.625V190.609H90.2752L95.6917 186.924C113.947 174.498 129.811 162.596 142.854 151.545C155.781 140.597 165.892 129.14 172.918 117.489C179.857 105.973 183.38 93.0345 183.38 79.04C183.38 64.0286 179.477 50.8137 171.708 39.7489C163.94 28.684 153.292 19.8562 140.097 13.6725C126.902 7.48876 111.756 4.31211 95.2378 4.31211C83.691 4.2868 72.2092 6.02798 61.1969 9.47418C50.5659 12.7788 40.6648 18.0587 32.0209 25.0327C23.5351 31.9186 16.7034 40.7851 11.7212 51.39C6.97324 61.5058 4.45531 73.4373 4.22596 86.8895H59.2157C59.5914 75.6552 63.1194 67.147 69.6876 61.5783C76.5631 55.7674 84.4048 52.8136 92.9932 52.8136C100.889 52.8136 108.364 55.3607 115.22 60.3774C122.267 65.5345 125.839 73.3114 125.839 83.4998C125.839 93.0636 122.335 102.167 115.43 110.574C108.735 118.714 98.7464 127.929 85.737 137.957C72.4885 148.175 56.4586 160.6 38.0864 174.895L5.17263 200.405V239.101Z" fill="#D0A452"/>
<path d="M323.424 246.364C305.886 246.364 290.378 243.357 277.33 237.425C264.281 231.493 253.331 223.266 244.831 212.985C236.28 202.601 229.787 190.706 225.693 177.926C221.442 164.703 219.302 150.902 219.349 137.023C219.419 120.539 222.221 104.179 227.644 88.5988C233.191 72.4479 241.755 57.4789 252.887 44.4749C264.15 31.2552 278.75 20.4662 296.268 12.4182C313.786 4.37013 334.818 0.288086 358.729 0.288086C367.756 0.288086 378.965 1.15478 392.052 2.85446L393.824 3.08216V60.9488L391.535 60.663C384.738 59.8253 378.848 59.1813 373.968 58.76C369.088 58.3387 364.209 58.1305 359.383 58.1305C340.425 58.1305 324.19 62.6726 311.117 71.6262C300.333 79.0205 293.106 89.4317 289.578 102.651C291.166 100.918 292.955 99.1423 294.946 97.3248C299.713 92.923 305.92 89.1993 313.391 86.2551C320.862 83.311 330.299 81.8146 341.42 81.8146C358.631 81.8146 373.256 85.5626 384.879 92.9521C396.503 100.342 405.374 110.041 411.279 121.774C417.132 133.316 420.173 146.061 420.155 158.983C420.123 169.759 418.063 180.434 414.08 190.459C409.932 200.915 403.803 210.485 396.025 218.651C388.041 227.111 377.872 233.919 365.77 238.883C353.668 243.846 339.434 246.364 323.424 246.364ZM358.724 4.33626C335.389 4.33626 314.948 8.29251 297.966 16.0888C280.985 23.885 266.858 34.3204 256.001 47.0801C245.198 59.6996 236.886 74.2247 231.499 89.8965C226.224 105.057 223.497 120.975 223.428 137.013C223.383 150.472 225.461 163.856 229.587 176.677C233.522 188.973 239.768 200.418 247.993 210.409C256.103 220.21 266.536 228.06 279.038 233.74C291.54 239.42 306.491 242.316 323.443 242.316C338.927 242.316 352.649 239.895 364.223 235.144C375.798 230.394 385.46 223.92 393.043 215.886C400.466 208.094 406.316 198.963 410.278 188.986C414.08 179.433 416.048 169.259 416.08 158.988C416.096 146.693 413.201 134.566 407.629 123.585C402.046 112.511 393.653 103.349 382.678 96.3611C371.704 89.3736 357.836 85.8532 341.415 85.8532C330.812 85.8532 321.896 87.2527 314.889 90.008C307.882 92.7633 302.109 96.2208 297.713 100.279C293.316 104.337 289.856 108.23 287.607 111.678L282.571 119.426L283.883 110.312C286.518 91.9788 294.907 77.8681 308.809 68.3286C322.57 58.9004 339.59 54.1161 359.387 54.1161C364.316 54.1161 369.342 54.3341 374.324 54.765C378.687 55.1427 383.869 55.6899 389.764 56.4017V6.61701C377.594 5.08681 367.166 4.31203 358.724 4.31203V4.33626ZM324.078 196.686C312.366 196.686 303.31 192.957 297.156 185.607C291.096 178.372 288.021 170.169 288.021 161.225C288.021 152.509 291.096 144.407 297.156 137.168C303.314 129.812 312.371 126.084 324.078 126.084C335.999 126.084 345.114 129.817 351.17 137.178C357.114 144.441 360.129 152.514 360.129 161.225C360.129 170.159 357.114 178.353 351.17 185.592C345.109 192.928 336.018 196.662 324.068 196.662L324.078 196.686ZM324.078 130.127C313.494 130.127 305.715 133.275 300.294 139.749C294.873 146.223 292.096 153.472 292.096 161.225C292.096 169.2 294.853 176.532 300.289 183.016C305.725 189.5 313.464 192.638 324.078 192.638C334.872 192.638 342.699 189.495 347.988 183.03C353.278 176.566 356.035 169.196 356.035 161.24C356.035 153.492 353.327 146.228 347.988 139.749C342.762 133.338 334.706 130.103 324.068 130.103L324.078 130.127Z" fill="#D0A452"/>
</svg>
