<svg width="338" height="113" viewBox="0 0 338 113" fill="none" xmlns="http://www.w3.org/2000/svg">
<path d="M57.8371 55.6259H27V13.7598H38.5717V45.48H57.8371V55.6259ZM27.9717 54.6533H56.8612V46.4527H37.6001V14.7324H27.9717V54.6533Z" fill="#D0A452"/>
<path d="M81.6425 69.9989C80.0346 69.9989 78.7168 69.4524 77.7236 68.3786C76.7676 67.3445 76.2365 65.9875 76.2365 64.5785C76.2365 63.1695 76.7676 61.8124 77.7236 60.7783C78.7146 59.7239 80.0324 59.1903 81.6382 59.1903C82.3542 59.1739 83.0659 59.306 83.7284 59.5782C84.391 59.8504 84.9901 60.2568 85.4883 60.7719C86.4792 61.7908 87.0336 63.1565 87.0336 64.5785C87.0336 66.0004 86.4792 67.3662 85.4883 68.3851C84.9947 68.9072 84.3978 69.3204 83.7355 69.5983C83.0733 69.8762 82.3604 70.0126 81.6425 69.9989V69.9989ZM81.6425 60.1629C80.2968 60.1629 79.2456 60.5825 78.433 61.454C77.6478 62.3093 77.212 63.4286 77.212 64.5903C77.212 65.752 77.6478 66.8713 78.433 67.7266C79.2456 68.6067 80.2947 69.0349 81.6382 69.0349C82.227 69.0515 82.8127 68.9426 83.3563 68.7156C83.9 68.4885 84.3893 68.1485 84.7918 67.718C85.6064 66.8806 86.0623 65.7581 86.0623 64.5892C86.0623 63.4204 85.6064 62.2978 84.7918 61.4605C84.3867 61.0353 83.8972 60.6997 83.3549 60.4751C82.8125 60.2506 82.2293 60.142 81.6425 60.1564V60.1629ZM81.6425 56.1842C78.0547 56.1842 74.8667 55.5644 72.1667 54.3443C69.5778 53.2058 67.2628 51.5247 65.3781 49.4145C63.5916 47.3847 62.2057 45.0342 61.2937 42.4877C59.4535 37.4283 59.4535 31.8817 61.2937 26.8224C62.2106 24.2922 63.6012 21.9602 65.3909 19.9515C67.2825 17.8574 69.5954 16.1875 72.1775 15.0518C74.8796 13.8317 78.0676 13.212 81.6533 13.212C85.2389 13.212 88.4247 13.8317 91.1269 15.0518C93.7062 16.1918 96.0197 17.8576 97.9199 19.9429C99.7245 21.9467 101.117 24.2864 102.019 26.8288C103.822 31.8924 103.822 37.424 102.019 42.4877C101.117 45.043 99.7254 47.3974 97.922 49.4188C96.023 51.5239 93.7007 53.2032 91.1075 54.3465C88.4161 55.558 85.2368 56.1777 81.6425 56.1777V56.1842ZM81.6425 14.1846C78.203 14.1846 75.1419 14.7742 72.5666 15.9384C70.1089 17.0156 67.9068 18.601 66.1046 20.5906C64.3971 22.5082 63.0707 24.7343 62.1965 27.1494C61.3212 29.5482 60.873 32.0819 60.8723 34.6356C60.8755 37.199 61.3236 39.7423 62.1965 42.152C63.0709 44.5839 64.3969 46.8283 66.1046 48.7668C67.8961 50.7707 70.0949 52.3679 72.5537 53.4513C75.1333 54.6155 78.1815 55.2051 81.6296 55.2051C85.0777 55.2051 88.1302 54.6155 90.7034 53.4513C93.1725 52.3645 95.3842 50.7673 97.1933 48.7646C98.9124 46.8373 100.239 44.5925 101.099 42.1564C101.953 39.7375 102.39 37.1905 102.389 34.6249C102.391 32.0726 101.955 29.5388 101.099 27.1344C100.239 24.7152 98.9116 22.4889 97.1933 20.582C95.378 18.5927 93.1675 17.0051 90.7034 15.9211C88.141 14.7677 85.0884 14.1782 81.6425 14.1782V14.1846ZM81.6425 46.7333C79.2994 46.7333 77.3066 46.1351 75.7201 44.9516C74.1452 43.7794 72.9178 42.2012 72.1689 40.3853C71.3954 38.5696 70.9968 36.616 70.9973 34.6421C70.9962 32.6772 71.3948 30.7325 72.1689 28.9268C72.9231 27.1194 74.1499 25.5488 75.7201 24.38C77.3088 23.1986 79.2994 22.5983 81.6425 22.5983C84.0179 22.5983 86.0278 23.1986 87.6165 24.38C89.1862 25.5463 90.4135 27.1138 91.1699 28.9182C91.9428 30.7242 92.3407 32.6687 92.3393 34.6335C92.3388 36.6071 91.9411 38.5604 91.1699 40.3768C90.4194 42.1923 89.1914 43.7703 87.6165 44.943C86.03 46.1286 84.0201 46.7269 81.6425 46.7269V46.7333ZM81.6425 23.5795C79.5143 23.5795 77.7172 24.1132 76.3006 25.1697C74.8697 26.2329 73.7513 27.6623 73.0631 29.3077C72.3396 30.9928 71.9673 32.808 71.969 34.6421C71.969 36.4858 72.3412 38.3105 73.0631 40.0067C73.7462 41.6639 74.8649 43.105 76.3006 44.1769C77.715 45.2313 79.5122 45.7649 81.6425 45.7649C83.8051 45.7649 85.6216 45.2313 87.0382 44.1769C88.4726 43.1056 89.5912 41.6662 90.2756 40.0109C90.9955 38.3142 91.3669 36.4898 91.3676 34.6464C91.3685 32.8126 90.997 30.9977 90.2756 29.312C89.5866 27.6671 88.4684 26.2379 87.0382 25.174C85.6194 24.1067 83.8051 23.5731 81.6425 23.5731V23.5795ZM94.2289 10.9246H85.1658L81.6941 6.72202L78.1686 10.9246H69.1142L77.3904 1.16602H85.9548L94.2289 10.9246ZM85.6302 9.95193H92.1351L85.5076 2.1386H77.8354L71.208 9.95193H77.7129L81.6941 5.20281L85.6302 9.95193Z" fill="#D0A452"/>
<path d="M142.633 55.6259H131.059V23.9057H118.694V13.7598H154.996V23.9057H142.633V55.6259ZM132.033 54.6533H141.661V22.9331H154.026V14.7324H119.666V22.9331H132.031L132.033 54.6533Z" fill="#D0A452"/>
<path d="M194.756 55.6259H182.024L175.123 40.8149H170.839V55.6259H159.27V13.7598H177.757C180.863 13.7598 183.638 14.2762 186.007 15.2919C188.29 16.2279 190.247 17.8178 191.631 19.8624C192.966 21.8701 193.643 24.3683 193.643 27.2884C193.643 30.1353 192.976 32.5948 191.659 34.6046C190.425 36.4794 188.708 37.9851 186.689 38.9621L194.756 55.6259ZM182.643 54.6533H193.206L185.377 38.4887L185.833 38.2843C187.875 37.3915 189.615 35.9268 190.844 34.0667C192.054 32.2226 192.667 29.9416 192.667 27.2884C192.667 24.562 192.046 22.2466 190.818 20.4025C189.536 18.5172 187.729 17.0512 185.62 16.187C183.374 15.223 180.725 14.7346 177.752 14.7346H160.241V54.6554H169.867V39.8444H175.738L182.643 54.6533ZM177.585 32.3603H169.867V22.875H177.585C179.16 22.875 180.47 23.2731 181.474 24.0563C182.512 24.8697 183.041 26.0662 183.041 27.6176C183.041 29.1239 182.514 30.316 181.478 31.1466C180.442 31.9772 179.165 32.3603 177.585 32.3603V32.3603ZM170.839 31.3876H177.585C178.939 31.3876 180.044 31.0519 180.872 30.3892C181.699 29.7264 182.069 28.8377 182.069 27.6198C182.069 26.3674 181.678 25.4529 180.876 24.8224C180.074 24.1919 178.941 23.8476 177.585 23.8476H170.839V31.3876Z" fill="#D0A452"/>
<path d="M211.745 55.625H200.176V13.7588H211.745V55.625ZM201.148 54.6523H210.778V14.7315H201.148V54.6523ZM202.106 10.9206L195.197 0H205.784L210.451 10.8582L202.106 10.9206ZM196.962 0.972634L202.639 9.94363L208.979 9.89629L205.144 0.972634H196.962Z" fill="#D0A452"/>
<path d="M253.703 55.6259H243.082L242.935 55.4107L228.859 35.1404V55.6259H217.399V13.7598H227.918L228.062 13.9749L242.25 35.3449V13.7598H253.712L253.703 55.6259ZM243.6 54.6533H252.742V14.7324H243.223V38.5683L227.406 14.7324H218.377V54.6533H227.894V32.0354L243.6 54.6533Z" fill="#D0A452"/>
<path d="M294.993 55.6245H283.424V39.1565H270.926V55.6245H259.36V13.7584H270.932V29.1139H283.43V13.752H295L294.993 55.6245ZM284.395 54.6519H294.024V14.731H284.395V30.093H269.954V14.731H260.326V54.6519H269.954V38.1839H284.395V54.6519Z" fill="#D0A452"/>
<path d="M15.8936 96.2217C15.8936 98.6631 15.3369 100.621 14.2236 102.096C13.1201 103.561 11.626 104.293 9.74121 104.293C8.13965 104.293 6.8457 103.736 5.85938 102.623V110.094H1.62598V88.1504H5.55176L5.69824 89.7031C6.72363 88.4727 8.06152 87.8574 9.71191 87.8574C11.665 87.8574 13.1836 88.5801 14.2676 90.0254C15.3516 91.4707 15.8936 93.4629 15.8936 96.002V96.2217ZM11.6602 95.9141C11.6602 94.4395 11.3965 93.3018 10.8691 92.501C10.3516 91.7002 9.59473 91.2998 8.59863 91.2998C7.27051 91.2998 6.35742 91.8076 5.85938 92.8232V99.3125C6.37695 100.357 7.2998 100.88 8.62793 100.88C10.6494 100.88 11.6602 99.2246 11.6602 95.9141ZM22.6611 89.8789C23.7842 88.5312 25.1953 87.8574 26.8945 87.8574C30.332 87.8574 32.0752 89.8545 32.124 93.8486V104H27.8906V93.9658C27.8906 93.0576 27.6953 92.3887 27.3047 91.959C26.9141 91.5195 26.2646 91.2998 25.3564 91.2998C24.1162 91.2998 23.2178 91.7783 22.6611 92.7354V104H18.4277V81.5H22.6611V89.8789ZM44.502 104C44.3066 103.619 44.165 103.146 44.0771 102.579C43.0518 103.722 41.7188 104.293 40.0781 104.293C38.5254 104.293 37.2363 103.844 36.2109 102.945C35.1953 102.047 34.6875 100.914 34.6875 99.5469C34.6875 97.8672 35.3076 96.5781 36.5479 95.6797C37.7979 94.7812 39.5996 94.3271 41.9531 94.3174H43.9014V93.4092C43.9014 92.6768 43.7109 92.0908 43.3301 91.6514C42.959 91.2119 42.3682 90.9922 41.5576 90.9922C40.8447 90.9922 40.2832 91.1631 39.873 91.5049C39.4727 91.8467 39.2725 92.3154 39.2725 92.9111H35.0391C35.0391 91.9932 35.3223 91.1436 35.8887 90.3623C36.4551 89.5811 37.2559 88.9707 38.291 88.5312C39.3262 88.082 40.4883 87.8574 41.7773 87.8574C43.7305 87.8574 45.2783 88.3506 46.4209 89.3369C47.5732 90.3135 48.1494 91.6904 48.1494 93.4678V100.338C48.1592 101.842 48.3691 102.979 48.7793 103.751V104H44.502ZM41.001 101.056C41.626 101.056 42.2021 100.919 42.7295 100.646C43.2568 100.362 43.6475 99.9863 43.9014 99.5176V96.793H42.3193C40.2002 96.793 39.0723 97.5254 38.9355 98.9902L38.9209 99.2393C38.9209 99.7666 39.1064 100.201 39.4775 100.543C39.8486 100.885 40.3564 101.056 41.001 101.056ZM42.6123 81.5H47.2266L43.1689 86.041H39.7266L42.6123 81.5ZM56.4697 84.2539V88.1504H59.1797V91.2559H56.4697V99.166C56.4697 99.752 56.582 100.172 56.8066 100.426C57.0312 100.68 57.4609 100.807 58.0957 100.807C58.5645 100.807 58.9795 100.772 59.3408 100.704V103.912C58.5107 104.166 57.6562 104.293 56.7773 104.293C53.8086 104.293 52.2949 102.794 52.2363 99.7959V91.2559H49.9219V88.1504H52.2363V84.2539H56.4697ZM74.0771 84.2539V88.1504H76.7871V91.2559H74.0771V99.166C74.0771 99.752 74.1895 100.172 74.4141 100.426C74.6387 100.68 75.0684 100.807 75.7031 100.807C76.1719 100.807 76.5869 100.772 76.9482 100.704V103.912C76.1182 104.166 75.2637 104.293 74.3848 104.293C71.416 104.293 69.9023 102.794 69.8438 99.7959V91.2559H67.5293V88.1504H69.8438V84.2539H74.0771ZM88.0518 92.1201C87.4756 92.042 86.9678 92.0029 86.5283 92.0029C84.9268 92.0029 83.877 92.5449 83.3789 93.6289V104H79.1455V88.1504H83.1445L83.2617 90.04C84.1113 88.585 85.2881 87.8574 86.792 87.8574C87.2607 87.8574 87.7002 87.9209 88.1104 88.0479L88.0518 92.1201ZM94.5703 104H90.3223V88.1504H94.5703V104ZM90.0732 84.0488C90.0732 83.4141 90.2832 82.8916 90.7031 82.4814C91.1328 82.0713 91.7139 81.8662 92.4463 81.8662C93.1689 81.8662 93.7451 82.0713 94.1748 82.4814C94.6045 82.8916 94.8193 83.4141 94.8193 84.0488C94.8193 84.6934 94.5996 85.2207 94.1602 85.6309C93.7305 86.041 93.1592 86.2461 92.4463 86.2461C91.7334 86.2461 91.1572 86.041 90.7178 85.6309C90.2881 85.2207 90.0732 84.6934 90.0732 84.0488ZM105.366 104.293C103.042 104.293 101.147 103.58 99.6826 102.154C98.2275 100.729 97.5 98.8291 97.5 96.4561V96.0459C97.5 94.4541 97.8076 93.0332 98.4229 91.7832C99.0381 90.5234 99.9072 89.5566 101.03 88.8828C102.163 88.1992 103.452 87.8574 104.897 87.8574C107.065 87.8574 108.77 88.541 110.01 89.9082C111.26 91.2754 111.885 93.2139 111.885 95.7236V97.4521H101.792C101.929 98.4873 102.339 99.3174 103.022 99.9424C103.716 100.567 104.59 100.88 105.645 100.88C107.275 100.88 108.55 100.289 109.468 99.1074L111.548 101.437C110.913 102.335 110.054 103.038 108.97 103.546C107.886 104.044 106.685 104.293 105.366 104.293ZM104.883 91.2852C104.043 91.2852 103.359 91.5684 102.832 92.1348C102.314 92.7012 101.982 93.5117 101.836 94.5664H107.725V94.2295C107.705 93.292 107.451 92.5693 106.963 92.0615C106.475 91.5439 105.781 91.2852 104.883 91.2852ZM109.746 86.1289H106.714L104.385 84.166L102.041 86.1289H99.0088L103.11 82.7598H105.659L109.746 86.1289ZM108.384 84.2686L108.193 82.5986C108.799 82.5693 109.233 82.4961 109.497 82.3789C109.771 82.252 109.907 82.0615 109.907 81.8076C109.907 81.2217 109.316 80.9287 108.135 80.9287L108.223 79.2734C109.639 79.2734 110.703 79.4883 111.416 79.918C112.129 80.3379 112.485 80.9238 112.485 81.6758C112.485 82.1445 112.319 82.5449 111.987 82.877C111.665 83.1992 111.216 83.3945 110.64 83.4629L110.625 84.2686H108.384ZM118.198 88.1504L118.33 89.9814C119.463 88.5654 120.981 87.8574 122.886 87.8574C124.565 87.8574 125.815 88.3506 126.636 89.3369C127.456 90.3232 127.876 91.7979 127.896 93.7607V104H123.662V93.8633C123.662 92.9648 123.467 92.3154 123.076 91.915C122.686 91.5049 122.036 91.2998 121.128 91.2998C119.937 91.2998 119.043 91.8076 118.447 92.8232V104H114.214V88.1504H118.198ZM137.93 95.958C137.93 93.4873 138.481 91.5195 139.585 90.0547C140.698 88.5898 142.217 87.8574 144.141 87.8574C145.684 87.8574 146.958 88.4336 147.964 89.5859V81.5H152.212V104H148.389L148.184 102.315C147.129 103.634 145.771 104.293 144.111 104.293C142.246 104.293 140.747 103.561 139.614 102.096C138.491 100.621 137.93 98.5752 137.93 95.958ZM142.163 96.2656C142.163 97.75 142.422 98.8877 142.939 99.6787C143.457 100.47 144.209 100.865 145.195 100.865C146.504 100.865 147.427 100.313 147.964 99.21V92.9551C147.437 91.8516 146.523 91.2998 145.225 91.2998C143.184 91.2998 142.163 92.9551 142.163 96.2656ZM154.834 95.9287C154.834 94.3564 155.137 92.9551 155.742 91.7246C156.348 90.4941 157.217 89.542 158.35 88.8682C159.492 88.1943 160.815 87.8574 162.319 87.8574C164.458 87.8574 166.201 88.5117 167.549 89.8203C168.906 91.1289 169.663 92.9062 169.819 95.1523L169.849 96.2363C169.849 98.668 169.17 100.621 167.812 102.096C166.455 103.561 164.634 104.293 162.349 104.293C160.063 104.293 158.237 103.561 156.87 102.096C155.513 100.631 154.834 98.6387 154.834 96.1191V95.9287ZM159.067 96.2363C159.067 97.7402 159.351 98.8926 159.917 99.6934C160.483 100.484 161.294 100.88 162.349 100.88C163.374 100.88 164.175 100.489 164.751 99.708C165.327 98.917 165.615 97.6572 165.615 95.9287C165.615 94.4541 165.327 93.3115 164.751 92.501C164.175 91.6904 163.364 91.2852 162.319 91.2852C161.284 91.2852 160.483 91.6904 159.917 92.501C159.351 93.3018 159.067 94.5469 159.067 96.2363ZM181.641 104C181.445 103.619 181.304 103.146 181.216 102.579C180.19 103.722 178.857 104.293 177.217 104.293C175.664 104.293 174.375 103.844 173.35 102.945C172.334 102.047 171.826 100.914 171.826 99.5469C171.826 97.8672 172.446 96.5781 173.687 95.6797C174.937 94.7812 176.738 94.3271 179.092 94.3174H181.04V93.4092C181.04 92.6768 180.85 92.0908 180.469 91.6514C180.098 91.2119 179.507 90.9922 178.696 90.9922C177.983 90.9922 177.422 91.1631 177.012 91.5049C176.611 91.8467 176.411 92.3154 176.411 92.9111H172.178C172.178 91.9932 172.461 91.1436 173.027 90.3623C173.594 89.5811 174.395 88.9707 175.43 88.5312C176.465 88.082 177.627 87.8574 178.916 87.8574C180.869 87.8574 182.417 88.3506 183.56 89.3369C184.712 90.3135 185.288 91.6904 185.288 93.4678V100.338C185.298 101.842 185.508 102.979 185.918 103.751V104H181.641ZM178.14 101.056C178.765 101.056 179.341 100.919 179.868 100.646C180.396 100.362 180.786 99.9863 181.04 99.5176V96.793H179.458C177.339 96.793 176.211 97.5254 176.074 98.9902L176.06 99.2393C176.06 99.7666 176.245 100.201 176.616 100.543C176.987 100.885 177.495 101.056 178.14 101.056ZM192.437 88.1504L192.568 89.9814C193.701 88.5654 195.22 87.8574 197.124 87.8574C198.804 87.8574 200.054 88.3506 200.874 89.3369C201.694 90.3232 202.114 91.7979 202.134 93.7607V104H197.9V93.8633C197.9 92.9648 197.705 92.3154 197.314 91.915C196.924 91.5049 196.274 91.2998 195.366 91.2998C194.175 91.2998 193.281 91.8076 192.686 92.8232V104H188.452V88.1504H192.437ZM209.487 89.8789C210.61 88.5312 212.021 87.8574 213.721 87.8574C217.158 87.8574 218.901 89.8545 218.95 93.8486V104H214.717V93.9658C214.717 93.0576 214.521 92.3887 214.131 91.959C213.74 91.5195 213.091 91.2998 212.183 91.2998C210.942 91.2998 210.044 91.7783 209.487 92.7354V104H205.254V81.5H209.487V89.8789ZM233.511 88.1504L233.643 89.9814C234.775 88.5654 236.294 87.8574 238.198 87.8574C239.878 87.8574 241.128 88.3506 241.948 89.3369C242.769 90.3232 243.188 91.7979 243.208 93.7607V104H238.975V93.8633C238.975 92.9648 238.779 92.3154 238.389 91.915C237.998 91.5049 237.349 91.2998 236.44 91.2998C235.249 91.2998 234.355 91.8076 233.76 92.8232V104H229.526V88.1504H233.511ZM245.815 95.958C245.815 93.5264 246.392 91.5684 247.544 90.084C248.706 88.5996 250.269 87.8574 252.231 87.8574C253.97 87.8574 255.322 88.4531 256.289 89.6445L256.465 88.1504H260.303V103.473C260.303 104.859 259.985 106.065 259.351 107.091C258.726 108.116 257.842 108.897 256.699 109.435C255.557 109.972 254.219 110.24 252.686 110.24C251.523 110.24 250.391 110.006 249.287 109.537C248.184 109.078 247.349 108.482 246.782 107.75L248.657 105.172C249.712 106.354 250.991 106.944 252.495 106.944C253.618 106.944 254.492 106.642 255.117 106.036C255.742 105.44 256.055 104.591 256.055 103.487V102.638C255.078 103.741 253.794 104.293 252.202 104.293C250.298 104.293 248.755 103.551 247.573 102.066C246.401 100.572 245.815 98.5947 245.815 96.1338V95.958ZM250.049 96.2656C250.049 97.7012 250.337 98.8291 250.913 99.6494C251.489 100.46 252.28 100.865 253.286 100.865C254.575 100.865 255.498 100.382 256.055 99.415V92.75C255.488 91.7832 254.575 91.2998 253.315 91.2998C252.3 91.2998 251.499 91.7148 250.913 92.5449C250.337 93.375 250.049 94.6152 250.049 96.2656ZM267.7 89.8789C268.823 88.5312 270.234 87.8574 271.934 87.8574C275.371 87.8574 277.114 89.8545 277.163 93.8486V104H272.93V93.9658C272.93 93.0576 272.734 92.3887 272.344 91.959C271.953 91.5195 271.304 91.2998 270.396 91.2998C269.155 91.2998 268.257 91.7783 267.7 92.7354V104H263.467V81.5H267.7V89.8789ZM284.824 104H280.576V88.1504H284.824V104ZM280.327 84.0488C280.327 83.4141 280.537 82.8916 280.957 82.4814C281.387 82.0713 281.968 81.8662 282.7 81.8662C283.423 81.8662 283.999 82.0713 284.429 82.4814C284.858 82.8916 285.073 83.4141 285.073 84.0488C285.073 84.6934 284.854 85.2207 284.414 85.6309C283.984 86.041 283.413 86.2461 282.7 86.2461C281.987 86.2461 281.411 86.041 280.972 85.6309C280.542 85.2207 280.327 84.6934 280.327 84.0488ZM295.62 104.293C293.296 104.293 291.401 103.58 289.937 102.154C288.481 100.729 287.754 98.8291 287.754 96.4561V96.0459C287.754 94.4541 288.062 93.0332 288.677 91.7832C289.292 90.5234 290.161 89.5566 291.284 88.8828C292.417 88.1992 293.706 87.8574 295.151 87.8574C297.319 87.8574 299.023 88.541 300.264 89.9082C301.514 91.2754 302.139 93.2139 302.139 95.7236V97.4521H292.046C292.183 98.4873 292.593 99.3174 293.276 99.9424C293.97 100.567 294.844 100.88 295.898 100.88C297.529 100.88 298.804 100.289 299.722 99.1074L301.802 101.437C301.167 102.335 300.308 103.038 299.224 103.546C298.14 104.044 296.938 104.293 295.62 104.293ZM295.137 91.2852C294.297 91.2852 293.613 91.5684 293.086 92.1348C292.568 92.7012 292.236 93.5117 292.09 94.5664H297.979V94.2295C297.959 93.292 297.705 92.5693 297.217 92.0615C296.729 91.5439 296.035 91.2852 295.137 91.2852ZM300.293 85.6016V85.7773H296.924L294.668 83.6533L292.412 85.7773H289.102V85.543L293.438 81.5H295.898L300.293 85.6016ZM292.661 107.428C292.661 106.842 292.881 106.358 293.32 105.978C293.76 105.597 294.326 105.406 295.02 105.406C295.723 105.406 296.294 105.597 296.733 105.978C297.173 106.358 297.393 106.842 297.393 107.428C297.393 108.004 297.173 108.487 296.733 108.878C296.304 109.269 295.732 109.464 295.02 109.464C294.307 109.464 293.735 109.269 293.306 108.878C292.876 108.487 292.661 108.004 292.661 107.428ZM318.823 96.2217C318.823 98.6631 318.267 100.621 317.153 102.096C316.05 103.561 314.556 104.293 312.671 104.293C311.069 104.293 309.775 103.736 308.789 102.623V110.094H304.556V88.1504H308.481L308.628 89.7031C309.653 88.4727 310.991 87.8574 312.642 87.8574C314.595 87.8574 316.113 88.5801 317.197 90.0254C318.281 91.4707 318.823 93.4629 318.823 96.002V96.2217ZM314.59 95.9141C314.59 94.4395 314.326 93.3018 313.799 92.501C313.281 91.7002 312.524 91.2998 311.528 91.2998C310.2 91.2998 309.287 91.8076 308.789 92.8232V99.3125C309.307 100.357 310.229 100.88 311.558 100.88C313.579 100.88 314.59 99.2246 314.59 95.9141Z" fill="black"/>
</svg>
