<svg width="794" height="249" viewBox="0 0 794 249" fill="none" xmlns="http://www.w3.org/2000/svg">
<g id="Frame" clip-path="url(#clip0_938:741)">
<path id="Vector" d="M574.59 179.397C572.627 179.391 570.666 179.267 568.717 179.026V165.075C570.206 165.199 571.607 165.261 572.91 165.261C575.002 165.311 577.091 165.061 579.112 164.519C580.861 163.957 582.383 162.849 583.453 161.359L565.833 111.988H583.36L592.874 141.744L602.009 111.988H619.542L602.852 158.014C601.424 162.223 599.414 166.213 596.88 169.868C594.678 172.984 591.68 175.456 588.197 177.028C584.646 178.587 580.11 179.376 574.59 179.397Z" fill="#D0A452"/>
<path id="Vector_2" d="M630.866 249.007C621.563 249.007 613.941 245.915 608.186 239.849C602.431 233.782 599.503 226.35 599.503 217.748C599.503 209.147 602.418 201.714 608.186 195.641C613.954 189.569 621.576 186.483 630.866 186.483C639.716 186.483 647.233 189.575 653.193 195.635C658.968 201.555 662.199 209.487 662.199 217.745C662.199 226.003 658.968 233.935 653.193 239.855C647.239 245.927 639.716 249.007 630.866 249.007ZM630.866 187.72C621.929 187.72 614.599 190.67 609.079 196.489C603.559 202.308 600.75 209.474 600.75 217.748C600.75 226.022 603.553 233.177 609.079 239.002C614.605 244.827 621.929 247.776 630.866 247.776C639.375 247.776 646.594 244.82 652.331 238.995C657.879 233.306 660.983 225.684 660.983 217.748C660.983 209.813 657.879 202.19 652.331 196.501C646.594 190.67 639.369 187.72 630.866 187.72ZM662.545 169.787H599.516V159.065C599.516 149.653 601.469 141.484 605.314 134.8C609.082 128.224 613.869 122.284 619.498 117.201C625.08 112.217 630.618 107.598 636.051 103.473C641.094 99.7142 645.72 95.4291 649.85 90.6911C653.571 86.3625 655.432 81.5146 655.432 76.2584C655.432 70.3839 653.081 65.2762 648.442 61.0651C643.803 56.854 637.434 54.7021 629.564 54.7021C622.357 54.6162 615.383 57.2389 610.028 62.0482C604.527 66.9025 601.736 74.7559 601.736 85.3858V86.0041H540.958V85.3858C540.958 66.006 545.342 49.8168 553.982 37.2762C562.378 24.9433 574.081 15.2112 587.757 9.18979C601.623 3.07142 616.628 -0.0597513 631.79 0.000863521C647.915 0.000863521 662.8 3.14831 676.034 9.35676C689.269 15.5652 699.955 24.3521 707.825 35.4767C715.695 46.6012 719.714 59.7849 719.714 74.6258C719.714 85.3237 717.761 94.519 713.922 101.97C710.293 109.117 705.436 115.573 699.57 121.047C694.144 126.063 688.386 130.709 682.335 134.954C677.239 138.425 672.454 142.329 668.034 146.623C664.356 150.29 662.489 154.476 662.489 159.065L662.545 169.787ZM600.75 168.551H661.311V159.058C661.311 154.111 663.296 149.653 667.215 145.745C671.687 141.401 676.528 137.451 681.684 133.94C687.688 129.728 693.4 125.116 698.783 120.138C704.545 114.76 709.316 108.416 712.88 101.395C716.601 94.1293 718.53 85.1198 718.53 74.6198C718.53 60.0386 714.61 47.1085 706.876 36.1756C699.142 25.2428 688.593 16.5856 675.563 10.4637C662.533 4.34179 647.81 1.23127 631.846 1.23127C616.846 1.16629 602.002 4.25976 588.284 10.3091C574.819 16.2364 563.295 25.8187 555.03 37.9625C546.62 50.1692 542.316 65.9069 542.223 84.7611H600.52C600.632 74.0756 603.559 66.1233 609.203 61.1207C614.78 56.1063 622.048 53.3727 629.558 53.4653C637.744 53.4653 644.374 55.7099 649.267 60.1436C654.16 64.5773 656.66 70.0378 656.66 76.2524C656.66 81.8177 654.688 86.9378 650.793 91.4828C646.605 96.2969 641.912 100.65 636.795 104.469C631.393 108.568 625.849 113.163 620.329 118.128C614.791 123.126 610.085 128.971 606.387 135.443C602.666 141.942 600.75 149.9 600.75 159.096V168.551Z" fill="#CCCCCC"/>
<path id="Vector_3" d="M26.668 162.162C22.9469 162.162 19.8894 161.685 17.5327 160.721C15.4253 159.942 13.5366 158.669 12.0254 157.011C10.7785 155.585 9.82781 153.927 9.22838 152.132C8.70172 150.548 8.35839 148.908 8.20506 147.246C8.08103 145.734 8.01902 144.478 8.01902 143.481V125.907H0V111.956H8.01902V99.873H25.7377V111.956H35.3382V125.907H25.7377V142.825C25.6682 144.358 26.1647 145.863 27.1332 147.055C28.0696 148.143 29.7752 148.681 32.2621 148.681C33.458 148.656 34.6475 148.5 35.8096 148.217V161.234C32.7925 161.789 29.7353 162.099 26.668 162.162Z" fill="#D0A452"/>
<path id="Vector_4" d="M44.6658 161.234V90.5723H62.3784V118.931H62.8497C63.6253 117.69 64.5139 116.522 65.5041 115.443C66.736 114.141 68.2106 113.091 69.8454 112.351C71.9935 111.416 74.3247 110.972 76.6675 111.053C80.7028 111.053 83.8885 111.966 86.2245 113.792C88.5042 115.566 90.226 117.955 91.186 120.675C92.167 123.341 92.6728 126.158 92.6807 128.998V161.258H74.9681V132.529C74.9759 130.782 74.4925 129.068 73.5727 127.582C72.6362 126.061 71.0238 125.3 68.7229 125.3C66.2979 125.3 64.6358 126.079 63.7304 127.625C62.8432 129.123 62.3763 130.832 62.3784 132.572V161.302L44.6658 161.234Z" fill="#D0A452"/>
<path id="Vector_5" d="M121.873 111.029C123.999 110.979 126.116 111.31 128.124 112.006C129.632 112.537 131.059 113.272 132.366 114.189C133.565 115.105 134.644 116.166 135.579 117.349H136.336V111.957H154.048V161.235H136.336V155.843H135.585C134.651 157.025 133.571 158.087 132.373 159.003C131.067 159.922 129.639 160.657 128.131 161.185C126.122 161.882 124.005 162.213 121.879 162.162C118.62 162.244 115.394 161.492 112.508 159.98C109.89 158.547 107.628 156.546 105.891 154.124C104.097 151.632 102.755 148.847 101.928 145.893C100.183 139.817 100.183 133.375 101.928 127.299C102.755 124.345 104.097 121.559 105.891 119.068C107.631 116.649 109.892 114.648 112.508 113.212C115.392 111.701 118.616 110.949 121.873 111.029ZM127.746 125.066C125.884 125.004 124.063 125.615 122.617 126.785C121.225 127.954 120.157 129.459 119.516 131.157C118.152 134.656 118.152 138.536 119.516 142.035C120.157 143.733 121.225 145.238 122.617 146.406C124.093 147.522 125.894 148.126 127.746 148.126C129.598 148.126 131.399 147.522 132.875 146.406C134.267 145.237 135.334 143.732 135.976 142.035C137.34 138.536 137.34 134.656 135.976 131.157C135.334 129.46 134.267 127.954 132.875 126.785C131.43 125.613 129.608 125.002 127.746 125.066Z" fill="#D0A452"/>
<path id="Vector_6" d="M163.835 161.234V111.956H181.553V118.375H182.112C183.378 116.241 185.136 114.439 187.241 113.119C189.415 111.729 192.15 111.033 195.446 111.029C199.167 111.029 202.088 111.88 204.209 113.582C206.224 115.156 207.799 117.223 208.78 119.581H209.059C209.96 118.223 210.999 116.961 212.16 115.815C213.597 114.397 215.277 113.247 217.121 112.42C219.353 111.443 221.773 110.968 224.21 111.029C227.563 111.029 230.267 111.773 232.322 113.261C234.291 114.667 235.84 116.58 236.806 118.795C237.748 120.886 238.24 123.151 238.251 125.443V161.24H220.532V131.12C220.57 129.632 220.11 128.174 219.224 126.976C218.355 125.832 216.985 125.257 215.124 125.257C213.264 125.257 212.023 125.832 211.161 126.976C210.307 128.186 209.871 129.641 209.921 131.12V161.24H192.183V131.12C192.224 129.631 191.764 128.173 190.875 126.976C190.007 125.832 188.636 125.257 186.775 125.257C184.915 125.257 183.674 125.832 182.812 126.976C181.958 128.186 181.523 129.641 181.572 131.12V161.24L163.835 161.234Z" fill="#D0A452"/>
<path id="Vector_7" d="M295.407 181.134C290.557 181.134 286.563 180.544 283.425 179.365C280.703 178.431 278.197 176.958 276.057 175.037C274.459 173.568 273.147 171.818 272.187 169.873C271.312 167.914 270.686 165.854 270.327 163.739H287.394C288.026 164.989 288.973 166.055 290.142 166.831C291.233 167.511 292.887 167.851 295.103 167.851C297.96 167.851 300.234 167.016 301.925 165.347C303.616 163.677 304.456 161.203 304.443 157.926V152.905H303.699C302.47 154.75 300.866 156.317 298.992 157.506C296.784 159.027 293.846 159.785 290.179 159.781C286.907 159.855 283.664 159.156 280.715 157.741C278.072 156.427 275.762 154.535 273.955 152.206C272.136 149.855 270.762 147.194 269.899 144.353C268.096 138.538 268.096 132.316 269.899 126.501C270.762 123.657 272.136 120.994 273.955 118.641C275.76 116.312 278.071 114.422 280.715 113.113C283.662 111.693 286.906 110.991 290.179 111.066C293.842 111.066 296.794 111.841 299.035 113.391C301.276 114.941 302.831 116.458 303.699 117.942H304.443V111.994H322.162V157.926C322.157 160.798 321.636 163.647 320.624 166.336C319.575 169.134 317.955 171.684 315.867 173.825C313.523 176.185 310.691 178.008 307.569 179.167C304.187 180.478 300.133 181.134 295.407 181.134ZM295.686 146.171C297.57 146.241 299.424 145.687 300.958 144.594C302.347 143.537 303.419 142.122 304.059 140.501C305.43 137.181 305.43 133.456 304.059 130.136C303.418 128.541 302.345 127.156 300.958 126.136C299.413 125.069 297.564 124.531 295.686 124.602C293.841 124.54 292.025 125.079 290.514 126.136C289.111 127.158 288.013 128.54 287.339 130.136C286.631 131.773 286.266 133.537 286.266 135.319C286.266 137.101 286.631 138.864 287.339 140.501C288.014 142.122 289.11 143.535 290.514 144.594C292.014 145.679 293.834 146.233 295.686 146.171Z" fill="#D0A452"/>
<path id="Vector_8" d="M341.568 107.047C340.232 107.092 338.902 106.864 337.658 106.377C336.414 105.89 335.284 105.154 334.336 104.215C333.439 103.323 332.726 102.263 332.24 101.096C331.754 99.9286 331.504 98.6769 331.504 97.4131C331.504 96.1492 331.754 94.8979 332.24 93.7306C332.726 92.5633 333.439 91.5031 334.336 90.611C335.291 89.6836 336.423 88.9586 337.666 88.4793C338.909 88 340.236 87.7765 341.568 87.8222C342.905 87.7793 344.237 88.0039 345.485 88.4829C346.734 88.9619 347.873 89.6854 348.836 90.611C349.748 91.4954 350.472 92.5532 350.967 93.7215C351.461 94.8898 351.716 96.1449 351.716 97.4131C351.716 98.6812 351.461 99.9366 350.967 101.105C350.472 102.273 349.748 103.331 348.836 104.215C347.88 105.153 346.742 105.887 345.493 106.374C344.244 106.86 342.908 107.09 341.568 107.047ZM332.705 161.254V111.976H350.424V161.254H332.705Z" fill="#D0A452"/>
<path id="Vector_9" d="M381.849 111.029C383.973 110.978 386.088 111.309 388.094 112.006C389.603 112.534 391.03 113.269 392.336 114.189C393.536 115.106 394.617 116.168 395.555 117.349H396.299V111.957H414.018V161.235H396.299V155.843H395.574C394.635 157.024 393.554 158.085 392.355 159.002C391.05 159.925 389.622 160.659 388.113 161.185C386.107 161.882 383.991 162.213 381.867 162.162C378.608 162.245 375.382 161.493 372.496 159.98C369.876 158.547 367.613 156.546 365.873 154.123C364.079 151.632 362.738 148.846 361.91 145.893C360.165 139.817 360.165 133.375 361.91 127.299C362.738 124.345 364.079 121.559 365.873 119.068C367.616 116.649 369.879 114.648 372.496 113.212C375.376 111.701 378.596 110.95 381.849 111.029ZM387.722 125.066C385.86 125.002 384.038 125.613 382.593 126.785C381.198 127.951 380.13 129.458 379.492 131.157C378.12 134.654 378.12 138.538 379.492 142.034C380.13 143.734 381.198 145.24 382.593 146.406C384.069 147.522 385.87 148.125 387.722 148.125C389.574 148.125 391.375 147.522 392.851 146.406C394.243 145.238 395.311 143.732 395.952 142.034C397.316 138.536 397.316 134.655 395.952 131.157C395.311 129.459 394.243 127.954 392.851 126.785C391.406 125.614 389.584 125.003 387.722 125.066Z" fill="#D0A452"/>
<path id="Vector_10" d="M477.891 162.161C475.767 162.212 473.652 161.881 471.646 161.184C470.136 160.658 468.708 159.924 467.404 159.001C466.201 158.088 465.12 157.026 464.185 155.842H463.441V161.234H445.722V90.5723H463.441V117.348H464.185C465.12 116.164 466.201 115.102 467.404 114.188C468.709 113.268 470.137 112.533 471.646 112.005C473.652 111.308 475.767 110.977 477.891 111.028C481.15 110.947 484.376 111.699 487.262 113.211C489.878 114.649 492.141 116.649 493.886 119.067C495.675 121.561 497.016 124.346 497.849 127.297C499.585 133.375 499.585 139.815 497.849 145.892C497.016 148.843 495.675 151.628 493.886 154.122C492.144 156.543 489.881 158.545 487.262 159.979C484.376 161.491 481.15 162.242 477.891 162.161ZM472.018 148.124C473.895 148.204 475.736 147.592 477.19 146.405C478.553 145.224 479.596 143.721 480.223 142.033C481.587 138.535 481.587 134.654 480.223 131.156C479.596 129.469 478.553 127.965 477.19 126.784C475.706 125.669 473.898 125.066 472.04 125.066C470.181 125.066 468.373 125.669 466.889 126.784C465.494 127.95 464.426 129.457 463.788 131.156C462.415 134.653 462.415 138.537 463.788 142.033C464.426 143.733 465.494 145.239 466.889 146.405C468.334 147.578 470.156 148.189 472.018 148.124Z" fill="#D0A452"/>
<path id="Vector_11" d="M528.337 111.028C530.463 110.977 532.58 111.308 534.588 112.005C536.096 112.536 537.523 113.27 538.831 114.188C540.03 115.105 541.111 116.167 542.049 117.348H542.794V111.956H560.543V161.234H542.825V155.842H542.08C541.133 157.02 540.044 158.077 538.837 158.989C537.531 159.909 536.103 160.643 534.595 161.172C532.586 161.868 530.469 162.199 528.343 162.149C525.084 162.23 521.858 161.479 518.972 159.966C516.355 158.532 514.094 156.531 512.355 154.11C510.561 151.619 509.22 148.833 508.392 145.879C506.647 139.803 506.647 133.361 508.392 127.285C509.22 124.332 510.561 121.546 512.355 119.055C514.106 116.646 516.373 114.656 518.991 113.229C521.868 111.715 525.084 110.957 528.337 111.028ZM514.724 106.471L527.314 88.8965H541.02L553.61 106.471H540.462L534.216 96.9848L527.872 106.471H514.724ZM534.216 125.065C532.354 125.001 530.532 125.612 529.087 126.784C527.693 127.95 526.624 129.457 525.986 131.156C524.614 134.653 524.614 138.537 525.986 142.033C526.624 143.733 527.693 145.239 529.087 146.405C530.563 147.521 532.364 148.124 534.216 148.124C536.068 148.124 537.869 147.521 539.345 146.405C540.736 145.235 541.803 143.73 542.446 142.033C543.81 138.535 543.81 134.654 542.446 131.156C541.803 129.459 540.736 127.954 539.345 126.784C537.899 125.614 536.078 125.003 534.216 125.065Z" fill="#D0A452"/>
<path id="Vector_12" d="M673.417 181.134C668.575 181.134 664.581 180.544 661.435 179.365C658.714 178.432 656.209 176.96 654.073 175.037C652.475 173.568 651.163 171.817 650.203 169.873C649.325 167.915 648.7 165.854 648.343 163.739H665.404C666.038 164.99 666.987 166.055 668.158 166.831C669.245 167.511 670.899 167.851 673.119 167.851C675.981 167.851 678.255 167.016 679.941 165.346C681.628 163.677 682.468 161.203 682.459 157.926V152.905H681.715C680.483 154.75 678.878 156.317 677.002 157.506C674.794 159.027 671.856 159.785 668.189 159.781C664.917 159.854 661.674 159.155 658.725 157.741C656.083 156.425 653.773 154.534 651.965 152.206C650.146 149.855 648.772 147.194 647.909 144.353C646.106 138.538 646.106 132.316 647.909 126.5C648.772 123.657 650.146 120.994 651.965 118.641C653.771 116.314 656.082 114.424 658.725 113.113C661.673 111.693 664.916 110.992 668.189 111.066C671.86 111.066 674.815 111.841 677.051 113.391C679.288 114.941 680.843 116.458 681.715 117.942H682.459V111.993H700.178V157.926C700.173 160.798 699.652 163.647 698.64 166.336C697.59 169.133 695.97 171.682 693.883 173.825C691.539 176.185 688.707 178.008 685.585 179.167C682.207 180.478 678.151 181.134 673.417 181.134ZM673.702 146.171C675.584 146.241 677.436 145.686 678.968 144.594C680.356 143.537 681.428 142.121 682.069 140.5C683.433 137.18 683.433 133.457 682.069 130.136C681.427 128.542 680.353 127.157 678.968 126.136C677.425 125.071 675.578 124.533 673.702 124.602C671.855 124.541 670.038 125.079 668.524 126.136C667.124 127.159 666.029 128.542 665.355 130.136C664.647 131.773 664.282 133.536 664.282 135.319C664.282 137.101 664.647 138.864 665.355 140.5C666.028 142.121 667.122 143.534 668.524 144.594C670.03 145.68 671.857 146.235 673.715 146.171H673.702Z" fill="#D0A452"/>
<path id="Vector_13" d="M719.59 107.047C718.256 107.092 716.926 106.864 715.683 106.377C714.441 105.89 713.311 105.154 712.365 104.215C711.466 103.324 710.752 102.264 710.265 101.097C709.778 99.9293 709.527 98.6774 709.527 97.413C709.527 96.1487 709.778 94.897 710.265 93.7297C710.752 92.5623 711.466 91.5023 712.365 90.6109C713.318 89.6838 714.45 88.9588 715.691 88.4795C716.933 88.0002 718.259 87.7766 719.59 87.8222C720.928 87.7798 722.261 88.0045 723.51 88.4835C724.759 88.9624 725.9 89.6858 726.865 90.6109C727.776 91.4954 728.501 92.5532 728.995 93.7215C729.49 94.8898 729.745 96.1449 729.745 97.413C729.745 98.6812 729.49 99.9365 728.995 101.105C728.501 102.273 727.776 103.331 726.865 104.215C725.907 105.153 724.769 105.888 723.519 106.375C722.268 106.862 720.932 107.09 719.59 107.047ZM710.734 161.254V111.976H728.446V161.254H710.734Z" fill="#D0A452"/>
<path id="Vector_14" d="M765.279 162.162C759.623 162.162 754.775 160.985 750.736 158.631C746.847 156.433 743.649 153.197 741.501 149.288C739.42 145.379 738.332 141.021 738.332 136.596C738.332 132.17 739.42 127.812 741.501 123.903C743.65 119.995 746.848 116.76 750.736 114.56C754.771 112.206 759.619 111.029 765.279 111.029H776.566C779.047 111.029 780.288 109.792 780.288 107.319V100.059H793.994V108.147C793.994 114.529 791.166 118.155 785.51 119.025C787.684 121.331 789.371 124.05 790.471 127.02C791.627 130.081 792.212 133.328 792.195 136.599C792.236 141.028 791.145 145.395 789.026 149.288C786.889 153.188 783.71 156.422 779.841 158.631C775.872 160.985 771.018 162.162 765.279 162.162ZM759.22 105.544L748.59 88.8047H764.442L771.624 105.451L759.22 105.544ZM765.279 148.032C766.591 148.079 767.895 147.803 769.074 147.227C770.254 146.651 771.272 145.793 772.039 144.73C773.653 142.322 774.514 139.492 774.514 136.596C774.514 133.7 773.653 130.869 772.039 128.461C771.24 127.432 770.215 126.6 769.043 126.028C767.872 125.455 766.584 125.157 765.279 125.157C763.974 125.157 762.687 125.455 761.515 126.028C760.343 126.6 759.318 127.432 758.519 128.461C756.909 130.87 756.051 133.701 756.051 136.596C756.051 139.491 756.909 142.321 758.519 144.73C759.286 145.793 760.305 146.65 761.484 147.226C762.663 147.802 763.967 148.079 765.279 148.032Z" fill="#D0A452"/>
<g id="Play Button">
<g id="icon-park-outline:click-tap">
<g id="Group">
<g id="Group_2">
<path id="Vector_15" d="M280.25 203.5V195.25C280.25 194.653 280.487 194.081 280.909 193.659C281.331 193.237 281.903 193 282.5 193C283.097 193 283.669 193.237 284.091 193.659C284.513 194.081 284.75 194.653 284.75 195.25V203.5" stroke="white" stroke-width="3" stroke-linecap="round" stroke-linejoin="round"/>
<path id="Vector_16" d="M298.25 202.75V207.625C298.25 212.388 294.388 216.25 289.625 216.25H288.875C284.112 216.25 280.25 212.388 280.25 207.625V202.75" stroke="white" stroke-width="3" stroke-linecap="round" stroke-linejoin="round"/>
<path id="Vector_17" d="M284.75 205.75V202C284.75 201.403 284.987 200.831 285.409 200.409C285.831 199.987 286.403 199.75 287 199.75C287.597 199.75 288.169 199.987 288.591 200.409C289.013 200.831 289.25 201.403 289.25 202V205.75" stroke="white" stroke-width="3" stroke-linecap="round" stroke-linejoin="round"/>
<path id="Vector_18" d="M289.25 205.75V202C289.25 201.403 289.487 200.831 289.909 200.409C290.331 199.987 290.903 199.75 291.5 199.75C292.097 199.75 292.669 199.987 293.091 200.409C293.513 200.831 293.75 201.403 293.75 202V205.75" stroke="white" stroke-width="3" stroke-linecap="round" stroke-linejoin="round"/>
<path id="Vector_19" d="M293.75 205.75V202C293.75 201.403 293.987 200.831 294.409 200.409C294.831 199.987 295.403 199.75 296 199.75C296.597 199.75 297.169 199.987 297.591 200.409C298.013 200.831 298.25 201.403 298.25 202V205.75" stroke="white" stroke-width="3" stroke-linecap="round" stroke-linejoin="round"/>
</g>
<path id="Vector_20" d="M290 195.25C290.002 193.645 289.487 192.081 288.532 190.791C287.835 189.847 286.926 189.08 285.878 188.552C284.83 188.024 283.673 187.749 282.5 187.75C281.327 187.749 280.17 188.024 279.122 188.552C278.074 189.08 277.165 189.847 276.469 190.791C275.513 192.081 274.998 193.645 275 195.25" stroke="white" stroke-width="3" stroke-linecap="round"/>
</g>
</g>
<g id="Rectangle 19" filter="url(#filter0_d_938:741)">
<rect x="44" y="184" width="225" height="50" rx="25" fill="url(#paint0_linear_938:741)"/>
</g>
<path id="T&#195;&#180;i mu&#225;&#187;&#145;n tham gia" d="M95.968 215V203.228H91.81V201.68H101.89V203.228H97.732V215H95.968ZM104.042 204.074L106.22 201.068H107.678L109.856 204.074H108.308L106.94 202.148L105.59 204.074H104.042ZM106.958 215.18C105.938 215.18 105.08 214.946 104.384 214.478C103.688 213.998 103.16 213.38 102.8 212.624C102.44 211.868 102.26 211.07 102.26 210.23C102.26 209.378 102.44 208.58 102.8 207.836C103.16 207.08 103.688 206.468 104.384 206C105.08 205.52 105.938 205.28 106.958 205.28C107.978 205.28 108.836 205.52 109.532 206C110.228 206.468 110.756 207.08 111.116 207.836C111.476 208.58 111.656 209.378 111.656 210.23C111.656 211.07 111.476 211.868 111.116 212.624C110.756 213.38 110.228 213.998 109.532 214.478C108.836 214.946 107.978 215.18 106.958 215.18ZM106.958 213.686C107.606 213.686 108.146 213.524 108.578 213.2C109.022 212.864 109.352 212.432 109.568 211.904C109.796 211.376 109.91 210.818 109.91 210.23C109.91 209.63 109.796 209.072 109.568 208.556C109.352 208.028 109.022 207.602 108.578 207.278C108.146 206.942 107.606 206.774 106.958 206.774C106.322 206.774 105.782 206.942 105.338 207.278C104.894 207.602 104.558 208.028 104.33 208.556C104.114 209.072 104.006 209.63 104.006 210.23C104.006 210.818 104.114 211.376 104.33 211.904C104.558 212.432 104.894 212.864 105.338 213.2C105.782 213.524 106.322 213.686 106.958 213.686ZM115.208 203.642C114.884 203.642 114.614 203.534 114.398 203.318C114.194 203.102 114.092 202.844 114.092 202.544C114.092 202.232 114.194 201.968 114.398 201.752C114.614 201.536 114.884 201.428 115.208 201.428C115.52 201.428 115.784 201.536 116 201.752C116.216 201.968 116.324 202.232 116.324 202.544C116.324 202.844 116.216 203.102 116 203.318C115.784 203.534 115.52 203.642 115.208 203.642ZM114.362 215V205.46H116.072V215H114.362ZM122.987 215V205.46H124.697V206.846H124.769C124.865 206.666 125.015 206.456 125.219 206.216C125.423 205.964 125.699 205.748 126.047 205.568C126.407 205.376 126.857 205.28 127.397 205.28C128.105 205.28 128.699 205.454 129.179 205.802C129.671 206.138 130.037 206.594 130.277 207.17H130.295C130.559 206.642 130.931 206.198 131.411 205.838C131.903 205.466 132.539 205.28 133.319 205.28C134.351 205.28 135.143 205.634 135.695 206.342C136.259 207.038 136.541 207.938 136.541 209.042V215H134.831V209.132C134.831 208.424 134.663 207.854 134.327 207.422C133.991 206.978 133.505 206.756 132.869 206.756C132.317 206.756 131.873 206.906 131.537 207.206C131.213 207.506 130.979 207.878 130.835 208.322C130.691 208.766 130.619 209.21 130.619 209.654V215H128.909V209.132C128.909 208.424 128.741 207.854 128.405 207.422C128.081 206.978 127.595 206.756 126.947 206.756C126.395 206.756 125.951 206.906 125.615 207.206C125.291 207.506 125.057 207.884 124.913 208.34C124.769 208.784 124.697 209.222 124.697 209.654V215H122.987ZM142.167 215.18C141.219 215.18 140.463 214.886 139.899 214.298C139.335 213.71 139.053 212.894 139.053 211.85V205.46H140.763V211.76C140.763 212.384 140.931 212.864 141.267 213.2C141.615 213.536 142.071 213.704 142.635 213.704C143.211 213.704 143.673 213.554 144.021 213.254C144.369 212.954 144.621 212.57 144.777 212.102C144.933 211.634 145.011 211.154 145.011 210.662V205.46H146.721V215H145.011V213.632H144.903C144.831 213.776 144.693 213.974 144.489 214.226C144.285 214.466 143.997 214.688 143.625 214.892C143.253 215.084 142.767 215.18 142.167 215.18ZM157.312 201.77L155.854 201.752L157.402 198.512H159.166L157.312 201.77ZM150.94 204.074L153.118 201.428H154.576L156.754 204.074H155.206L153.838 202.418L152.488 204.074H150.94ZM153.856 215.18C152.836 215.18 151.978 214.946 151.282 214.478C150.586 213.998 150.058 213.38 149.698 212.624C149.338 211.868 149.158 211.07 149.158 210.23C149.158 209.378 149.338 208.58 149.698 207.836C150.058 207.08 150.586 206.468 151.282 206C151.978 205.52 152.836 205.28 153.856 205.28C154.876 205.28 155.734 205.52 156.43 206C157.126 206.468 157.654 207.08 158.014 207.836C158.374 208.58 158.554 209.378 158.554 210.23C158.554 211.07 158.374 211.868 158.014 212.624C157.654 213.38 157.126 213.998 156.43 214.478C155.734 214.946 154.876 215.18 153.856 215.18ZM153.856 213.686C154.504 213.686 155.044 213.524 155.476 213.2C155.92 212.864 156.25 212.432 156.466 211.904C156.694 211.376 156.808 210.818 156.808 210.23C156.808 209.63 156.694 209.072 156.466 208.556C156.25 208.028 155.92 207.602 155.476 207.278C155.044 206.942 154.504 206.774 153.856 206.774C153.22 206.774 152.68 206.942 152.236 207.278C151.792 207.602 151.456 208.028 151.228 208.556C151.012 209.072 150.904 209.63 150.904 210.23C150.904 210.818 151.012 211.376 151.228 211.904C151.456 212.432 151.792 212.864 152.236 213.2C152.68 213.524 153.22 213.686 153.856 213.686ZM160.99 215V205.46H162.7V206.846H162.808C162.892 206.702 163.03 206.504 163.222 206.252C163.426 206 163.714 205.778 164.086 205.586C164.458 205.382 164.926 205.28 165.49 205.28C166.186 205.28 166.78 205.442 167.272 205.766C167.764 206.078 168.136 206.504 168.388 207.044C168.652 207.584 168.784 208.19 168.784 208.862V215H167.074V208.97C167.074 208.334 166.894 207.806 166.534 207.386C166.186 206.966 165.676 206.756 165.004 206.756C164.464 206.756 164.026 206.894 163.69 207.17C163.354 207.434 163.102 207.788 162.934 208.232C162.778 208.664 162.7 209.126 162.7 209.618V215H160.99ZM179.507 215.18C178.523 215.18 177.779 214.928 177.275 214.424C176.783 213.92 176.537 213.212 176.537 212.3V206.864H174.827V205.46H176.537V203.066H178.247V205.46H180.569V206.864H178.247V212.3C178.247 212.78 178.379 213.134 178.643 213.362C178.907 213.578 179.291 213.686 179.795 213.686C180.059 213.686 180.311 213.668 180.551 213.632C180.791 213.596 180.911 213.578 180.911 213.578V215.036C180.911 215.036 180.773 215.06 180.497 215.108C180.221 215.156 179.891 215.18 179.507 215.18ZM183.336 215V201.32H185.046V206.846H185.154C185.238 206.702 185.376 206.504 185.568 206.252C185.772 206 186.06 205.778 186.432 205.586C186.804 205.382 187.272 205.28 187.836 205.28C188.532 205.28 189.126 205.442 189.618 205.766C190.11 206.078 190.482 206.504 190.734 207.044C190.998 207.584 191.13 208.19 191.13 208.862V215H189.42V208.97C189.42 208.334 189.24 207.806 188.88 207.386C188.532 206.966 188.022 206.756 187.35 206.756C186.81 206.756 186.372 206.894 186.036 207.17C185.7 207.434 185.448 207.788 185.28 208.232C185.124 208.664 185.046 209.126 185.046 209.618V215H183.336ZM197.791 205.28C198.391 205.28 198.895 205.376 199.303 205.568C199.711 205.76 200.041 205.988 200.293 206.252C200.545 206.504 200.737 206.744 200.869 206.972H200.977V205.46H202.687V215H200.977V213.488H200.869C200.737 213.716 200.545 213.962 200.293 214.226C200.041 214.49 199.711 214.718 199.303 214.91C198.895 215.09 198.391 215.18 197.791 215.18C197.071 215.18 196.441 215.042 195.901 214.766C195.361 214.478 194.911 214.1 194.551 213.632C194.191 213.152 193.921 212.618 193.741 212.03C193.561 211.442 193.471 210.842 193.471 210.23C193.471 209.618 193.561 209.018 193.741 208.43C193.921 207.842 194.191 207.314 194.551 206.846C194.911 206.366 195.361 205.988 195.901 205.712C196.441 205.424 197.071 205.28 197.791 205.28ZM198.079 206.738C197.443 206.738 196.909 206.912 196.477 207.26C196.045 207.596 195.721 208.028 195.505 208.556C195.301 209.084 195.199 209.642 195.199 210.23C195.199 210.806 195.301 211.364 195.505 211.904C195.721 212.432 196.045 212.87 196.477 213.218C196.909 213.554 197.443 213.722 198.079 213.722C198.715 213.722 199.243 213.554 199.663 213.218C200.095 212.87 200.413 212.432 200.617 211.904C200.833 211.364 200.941 210.806 200.941 210.23C200.941 209.642 200.833 209.084 200.617 208.556C200.413 208.028 200.095 207.596 199.663 207.26C199.243 206.912 198.715 206.738 198.079 206.738ZM205.199 215V205.46H206.909V206.846H206.981C207.077 206.666 207.227 206.456 207.431 206.216C207.635 205.964 207.911 205.748 208.259 205.568C208.619 205.376 209.069 205.28 209.609 205.28C210.317 205.28 210.911 205.454 211.391 205.802C211.883 206.138 212.249 206.594 212.489 207.17H212.507C212.771 206.642 213.143 206.198 213.623 205.838C214.115 205.466 214.751 205.28 215.531 205.28C216.563 205.28 217.355 205.634 217.907 206.342C218.471 207.038 218.753 207.938 218.753 209.042V215H217.043V209.132C217.043 208.424 216.875 207.854 216.539 207.422C216.203 206.978 215.717 206.756 215.081 206.756C214.529 206.756 214.085 206.906 213.749 207.206C213.425 207.506 213.191 207.878 213.047 208.322C212.903 208.766 212.831 209.21 212.831 209.654V215H211.121V209.132C211.121 208.424 210.953 207.854 210.617 207.422C210.293 206.978 209.807 206.756 209.159 206.756C208.607 206.756 208.163 206.906 207.827 207.206C207.503 207.506 207.269 207.884 207.125 208.34C206.981 208.784 206.909 209.222 206.909 209.654V215H205.199ZM230.004 218.78C229.212 218.78 228.552 218.672 228.024 218.456C227.496 218.252 227.07 217.988 226.746 217.664C226.434 217.352 226.2 217.04 226.044 216.728C225.888 216.416 225.786 216.152 225.738 215.936C225.69 215.732 225.666 215.63 225.666 215.63H227.376C227.376 215.63 227.406 215.714 227.466 215.882C227.526 216.05 227.64 216.242 227.808 216.458C227.988 216.674 228.252 216.866 228.6 217.034C228.948 217.202 229.416 217.286 230.004 217.286C230.7 217.286 231.246 217.148 231.642 216.872C232.038 216.608 232.32 216.26 232.488 215.828C232.668 215.396 232.758 214.94 232.758 214.46V213.362H232.668C232.548 213.566 232.356 213.8 232.092 214.064C231.84 214.316 231.504 214.538 231.084 214.73C230.664 214.91 230.148 215 229.536 215C228.816 215 228.186 214.862 227.646 214.586C227.106 214.31 226.656 213.938 226.296 213.47C225.948 213.002 225.684 212.48 225.504 211.904C225.324 211.328 225.234 210.74 225.234 210.14C225.234 209.54 225.324 208.952 225.504 208.376C225.684 207.8 225.948 207.278 226.296 206.81C226.656 206.342 227.106 205.97 227.646 205.694C228.186 205.418 228.816 205.28 229.536 205.28C230.148 205.28 230.664 205.376 231.084 205.568C231.504 205.748 231.84 205.964 232.092 206.216C232.356 206.468 232.548 206.702 232.668 206.918H232.758V205.46H234.468V214.442C234.468 215.774 234.078 216.83 233.298 217.61C232.53 218.39 231.432 218.78 230.004 218.78ZM229.86 213.542C230.496 213.542 231.024 213.38 231.444 213.056C231.876 212.72 232.194 212.294 232.398 211.778C232.614 211.262 232.722 210.716 232.722 210.14C232.722 209.564 232.614 209.018 232.398 208.502C232.194 207.974 231.876 207.548 231.444 207.224C231.024 206.9 230.496 206.738 229.86 206.738C229.224 206.738 228.69 206.9 228.258 207.224C227.826 207.548 227.502 207.974 227.286 208.502C227.082 209.018 226.98 209.564 226.98 210.14C226.98 210.716 227.082 211.262 227.286 211.778C227.502 212.294 227.826 212.72 228.258 213.056C228.69 213.38 229.224 213.542 229.86 213.542ZM238.097 203.642C237.773 203.642 237.503 203.534 237.287 203.318C237.083 203.102 236.981 202.844 236.981 202.544C236.981 202.232 237.083 201.968 237.287 201.752C237.503 201.536 237.773 201.428 238.097 201.428C238.409 201.428 238.673 201.536 238.889 201.752C239.105 201.968 239.213 202.232 239.213 202.544C239.213 202.844 239.105 203.102 238.889 203.318C238.673 203.534 238.409 203.642 238.097 203.642ZM237.251 215V205.46H238.961V215H237.251ZM245.867 205.28C246.467 205.28 246.971 205.376 247.379 205.568C247.787 205.76 248.117 205.988 248.369 206.252C248.621 206.504 248.813 206.744 248.945 206.972H249.053V205.46H250.763V215H249.053V213.488H248.945C248.813 213.716 248.621 213.962 248.369 214.226C248.117 214.49 247.787 214.718 247.379 214.91C246.971 215.09 246.467 215.18 245.867 215.18C245.147 215.18 244.517 215.042 243.977 214.766C243.437 214.478 242.987 214.1 242.627 213.632C242.267 213.152 241.997 212.618 241.817 212.03C241.637 211.442 241.547 210.842 241.547 210.23C241.547 209.618 241.637 209.018 241.817 208.43C241.997 207.842 242.267 207.314 242.627 206.846C242.987 206.366 243.437 205.988 243.977 205.712C244.517 205.424 245.147 205.28 245.867 205.28ZM246.155 206.738C245.519 206.738 244.985 206.912 244.553 207.26C244.121 207.596 243.797 208.028 243.581 208.556C243.377 209.084 243.275 209.642 243.275 210.23C243.275 210.806 243.377 211.364 243.581 211.904C243.797 212.432 244.121 212.87 244.553 213.218C244.985 213.554 245.519 213.722 246.155 213.722C246.791 213.722 247.319 213.554 247.739 213.218C248.171 212.87 248.489 212.432 248.693 211.904C248.909 211.364 249.017 210.806 249.017 210.23C249.017 209.642 248.909 209.084 248.693 208.556C248.489 208.028 248.171 207.596 247.739 207.26C247.319 206.912 246.791 206.738 246.155 206.738Z" fill="white"/>
<g id="Group 55">
<g id="icon-park-outline:click-tap_2">
<g id="Group_3">
<g id="Group_4">
<path id="Vector_21" d="M64.25 210.5V202.25C64.25 201.653 64.4871 201.081 64.909 200.659C65.331 200.237 65.9033 200 66.5 200C67.0967 200 67.669 200.237 68.091 200.659C68.5129 201.081 68.75 201.653 68.75 202.25V210.5" stroke="white" stroke-width="3" stroke-linecap="round" stroke-linejoin="round"/>
<path id="Vector_22" d="M82.25 209.75V214.625C82.25 219.388 78.3882 223.25 73.625 223.25H72.875C68.1118 223.25 64.25 219.388 64.25 214.625V209.75" stroke="white" stroke-width="3" stroke-linecap="round" stroke-linejoin="round"/>
<path id="Vector_23" d="M68.75 212.75V209C68.75 208.403 68.9871 207.831 69.409 207.409C69.831 206.987 70.4033 206.75 71 206.75C71.5967 206.75 72.169 206.987 72.591 207.409C73.0129 207.831 73.25 208.403 73.25 209V212.75" stroke="white" stroke-width="3" stroke-linecap="round" stroke-linejoin="round"/>
<path id="Vector_24" d="M73.25 212.75V209C73.25 208.403 73.4871 207.831 73.909 207.409C74.331 206.987 74.9033 206.75 75.5 206.75C76.0967 206.75 76.669 206.987 77.091 207.409C77.5129 207.831 77.75 208.403 77.75 209V212.75" stroke="white" stroke-width="3" stroke-linecap="round" stroke-linejoin="round"/>
<path id="Vector_25" d="M77.75 212.75V209C77.75 208.403 77.9871 207.831 78.409 207.409C78.831 206.987 79.4033 206.75 80 206.75C80.5967 206.75 81.169 206.987 81.591 207.409C82.0129 207.831 82.25 208.403 82.25 209V212.75" stroke="white" stroke-width="3" stroke-linecap="round" stroke-linejoin="round"/>
</g>
<path id="Vector_26" d="M74 202.25C74.0019 200.645 73.487 199.081 72.5315 197.791C71.8346 196.847 70.9257 196.08 69.8781 195.552C68.8304 195.024 67.6733 194.749 66.5 194.75C65.3267 194.749 64.1696 195.024 63.1219 195.552C62.0743 196.08 61.1654 196.847 60.4685 197.791C59.513 199.081 58.9981 200.645 59 202.25" stroke="white" stroke-width="3" stroke-linecap="round"/>
</g>
</g>
</g>
</g>
<path id="T&#225;&#186;&#161;i sao" d="M109.65 58.1763H97.9141V90H88.4878V58.1763H76.9668V50.8984H109.65V58.1763ZM125.092 90C124.77 89.4092 124.483 88.5409 124.232 87.395C122.567 89.4897 120.24 90.5371 117.25 90.5371C114.511 90.5371 112.183 89.7135 110.268 88.0664C108.352 86.4014 107.394 84.3156 107.394 81.8091C107.394 78.658 108.558 76.2769 110.885 74.6655C113.213 73.0542 116.597 72.2485 121.037 72.2485H123.83V70.7178C123.83 68.0501 122.675 66.7163 120.365 66.7163C118.217 66.7163 117.143 67.7726 117.143 69.8853H108.092C108.092 67.0744 109.283 64.7917 111.664 63.0371C114.063 61.2826 117.116 60.4053 120.822 60.4053C124.528 60.4053 127.455 61.3094 129.604 63.1177C131.752 64.9259 132.853 67.4056 132.907 70.5566V83.4204C132.943 86.0881 133.354 88.1291 134.142 89.5435V90H125.092ZM119.425 84.0918C120.553 84.0918 121.484 83.8501 122.218 83.3667C122.97 82.8833 123.507 82.3372 123.83 81.7285V77.0825H121.198C118.047 77.0825 116.471 78.4969 116.471 81.3257C116.471 82.1493 116.749 82.8206 117.304 83.3398C117.859 83.8411 118.566 84.0918 119.425 84.0918ZM113.598 95.5859C113.598 94.4222 114.072 93.4644 115.021 92.7124C115.988 91.9604 117.187 91.5845 118.62 91.5845C120.052 91.5845 121.243 91.9604 122.191 92.7124C123.158 93.4644 123.642 94.4222 123.642 95.5859C123.642 96.7497 123.158 97.7075 122.191 98.4595C121.243 99.2114 120.052 99.5874 118.62 99.5874C117.187 99.5874 115.988 99.2114 115.021 98.4595C114.072 97.7075 113.598 96.7497 113.598 95.5859ZM147.489 90H138.412V60.9424H147.489V90ZM137.875 53.4497C137.875 52.1606 138.34 51.1043 139.271 50.2808C140.202 49.4572 141.411 49.0454 142.897 49.0454C144.383 49.0454 145.591 49.4572 146.522 50.2808C147.453 51.1043 147.919 52.1606 147.919 53.4497C147.919 54.7388 147.453 55.7951 146.522 56.6187C145.591 57.4422 144.383 57.854 142.897 57.854C141.411 57.854 140.202 57.4422 139.271 56.6187C138.34 55.7951 137.875 54.7388 137.875 53.4497ZM181.999 81.8359C181.999 81.0661 181.596 80.4484 180.79 79.9829C179.984 79.5174 178.454 79.034 176.198 78.5327C173.942 78.0314 172.08 77.3779 170.612 76.5723C169.144 75.7487 168.025 74.755 167.255 73.5913C166.485 72.4276 166.1 71.0938 166.1 69.5898C166.1 66.9222 167.201 64.729 169.403 63.0103C171.605 61.2736 174.488 60.4053 178.051 60.4053C181.882 60.4053 184.962 61.2736 187.289 63.0103C189.617 64.7469 190.78 67.0296 190.78 69.8584H181.703C181.703 67.5309 180.477 66.3672 178.024 66.3672C177.075 66.3672 176.278 66.6357 175.634 67.1729C174.989 67.6921 174.667 68.3455 174.667 69.1333C174.667 69.939 175.061 70.5924 175.849 71.0938C176.636 71.5951 177.89 72.0068 179.608 72.3291C181.345 72.6514 182.867 73.0363 184.174 73.4839C188.542 74.9878 190.727 77.6823 190.727 81.5674C190.727 84.2171 189.545 86.3745 187.182 88.0396C184.836 89.7046 181.793 90.5371 178.051 90.5371C175.562 90.5371 173.342 90.0895 171.391 89.1943C169.439 88.2992 167.917 87.0817 166.825 85.542C165.733 84.0023 165.187 82.382 165.187 80.6812H173.646C173.682 82.0239 174.13 83.0086 174.989 83.6353C175.849 84.244 176.95 84.5483 178.292 84.5483C179.528 84.5483 180.45 84.2977 181.059 83.7964C181.685 83.2951 181.999 82.6416 181.999 81.8359ZM211.352 90C211.029 89.4092 210.743 88.5409 210.492 87.395C208.827 89.4897 206.5 90.5371 203.51 90.5371C200.771 90.5371 198.443 89.7135 196.527 88.0664C194.612 86.4014 193.654 84.3156 193.654 81.8091C193.654 78.658 194.818 76.2769 197.145 74.6655C199.472 73.0542 202.856 72.2485 207.296 72.2485H210.089V70.7178C210.089 68.0501 208.935 66.7163 206.625 66.7163C204.477 66.7163 203.402 67.7726 203.402 69.8853H194.352C194.352 67.0744 195.543 64.7917 197.924 63.0371C200.323 61.2826 203.375 60.4053 207.082 60.4053C210.788 60.4053 213.715 61.3094 215.863 63.1177C218.012 64.9259 219.113 67.4056 219.167 70.5566V83.4204C219.202 86.0881 219.614 88.1291 220.402 89.5435V90H211.352ZM205.685 84.0918C206.813 84.0918 207.744 83.8501 208.478 83.3667C209.23 82.8833 209.767 82.3372 210.089 81.7285V77.0825H207.458C204.306 77.0825 202.731 78.4969 202.731 81.3257C202.731 82.1493 203.008 82.8206 203.563 83.3398C204.118 83.8411 204.826 84.0918 205.685 84.0918ZM223.061 75.2026C223.061 72.3022 223.625 69.7241 224.752 67.4683C225.88 65.1945 227.501 63.4489 229.613 62.2314C231.726 61.014 234.206 60.4053 237.052 60.4053C241.403 60.4053 244.831 61.757 247.338 64.4604C249.844 67.146 251.098 70.8073 251.098 75.4443V75.7666C251.098 80.2962 249.835 83.8949 247.311 86.5625C244.805 89.2122 241.403 90.5371 237.106 90.5371C232.97 90.5371 229.649 89.3018 227.143 86.8311C224.636 84.3424 223.284 80.9766 223.087 76.7334L223.061 75.2026ZM232.111 75.7666C232.111 78.4521 232.532 80.4215 233.373 81.6748C234.215 82.9281 235.459 83.5547 237.106 83.5547C240.329 83.5547 241.976 81.075 242.047 76.1157V75.2026C242.047 69.9927 240.382 67.3877 237.052 67.3877C234.027 67.3877 232.388 69.6346 232.138 74.1284L232.111 75.7666Z" fill="black"/>
<path id="l&#225;&#186;&#161;i c&#195;&#179; l&#225;&#187;&#163;i" d="M344.085 235H335.008V193.75H344.085V235ZM366.053 235C365.73 234.409 365.444 233.541 365.193 232.395C363.528 234.49 361.201 235.537 358.211 235.537C355.472 235.537 353.144 234.714 351.229 233.066C349.313 231.401 348.355 229.316 348.355 226.809C348.355 223.658 349.519 221.277 351.846 219.666C354.174 218.054 357.557 217.249 361.998 217.249H364.791V215.718C364.791 213.05 363.636 211.716 361.326 211.716C359.178 211.716 358.104 212.773 358.104 214.885H349.053C349.053 212.074 350.244 209.792 352.625 208.037C355.024 206.283 358.077 205.405 361.783 205.405C365.489 205.405 368.416 206.309 370.564 208.118C372.713 209.926 373.814 212.406 373.868 215.557V228.42C373.903 231.088 374.315 233.129 375.103 234.543V235H366.053ZM360.386 229.092C361.514 229.092 362.445 228.85 363.179 228.367C363.931 227.883 364.468 227.337 364.791 226.729V222.083H362.159C359.008 222.083 357.432 223.497 357.432 226.326C357.432 227.149 357.71 227.821 358.265 228.34C358.82 228.841 359.527 229.092 360.386 229.092ZM354.559 240.586C354.559 239.422 355.033 238.464 355.982 237.712C356.949 236.96 358.148 236.584 359.581 236.584C361.013 236.584 362.203 236.96 363.152 237.712C364.119 238.464 364.603 239.422 364.603 240.586C364.603 241.75 364.119 242.708 363.152 243.459C362.203 244.211 361.013 244.587 359.581 244.587C358.148 244.587 356.949 244.211 355.982 243.459C355.033 242.708 354.559 241.75 354.559 240.586ZM388.45 235H379.373V205.942H388.45V235ZM378.836 198.45C378.836 197.161 379.301 196.104 380.232 195.281C381.163 194.457 382.372 194.045 383.858 194.045C385.344 194.045 386.552 194.457 387.483 195.281C388.414 196.104 388.88 197.161 388.88 198.45C388.88 199.739 388.414 200.795 387.483 201.619C386.552 202.442 385.344 202.854 383.858 202.854C382.372 202.854 381.163 202.442 380.232 201.619C379.301 200.795 378.836 199.739 378.836 198.45ZM420.032 228.555C421.303 228.555 422.288 228.215 422.986 227.534C423.685 226.836 424.025 225.869 424.007 224.634H432.493C432.493 227.821 431.347 230.435 429.056 232.476C426.782 234.517 423.846 235.537 420.247 235.537C416.022 235.537 412.692 234.212 410.257 231.562C407.822 228.913 406.604 225.243 406.604 220.552V220.176C406.604 217.24 407.142 214.653 408.216 212.415C409.308 210.159 410.875 208.431 412.916 207.231C414.957 206.014 417.374 205.405 420.167 205.405C423.944 205.405 426.943 206.453 429.163 208.547C431.383 210.642 432.493 213.48 432.493 217.061H424.007C424.007 215.557 423.64 214.402 422.906 213.596C422.172 212.791 421.187 212.388 419.952 212.388C417.606 212.388 416.237 213.883 415.843 216.873C415.717 217.821 415.655 219.128 415.655 220.793C415.655 223.712 416.004 225.735 416.702 226.863C417.4 227.991 418.51 228.555 420.032 228.555ZM435.179 220.203C435.179 217.302 435.743 214.724 436.871 212.468C437.999 210.194 439.619 208.449 441.731 207.231C443.844 206.014 446.324 205.405 449.17 205.405C453.521 205.405 456.95 206.757 459.456 209.46C461.963 212.146 463.216 215.807 463.216 220.444V220.767C463.216 225.296 461.954 228.895 459.429 231.562C456.923 234.212 453.521 235.537 449.224 235.537C445.088 235.537 441.767 234.302 439.261 231.831C436.754 229.342 435.403 225.977 435.206 221.733L435.179 220.203ZM444.229 220.767C444.229 223.452 444.65 225.422 445.491 226.675C446.333 227.928 447.577 228.555 449.224 228.555C452.447 228.555 454.094 226.075 454.166 221.116V220.203C454.166 214.993 452.5 212.388 449.17 212.388C446.145 212.388 444.507 214.635 444.256 219.128L444.229 220.767ZM450.406 193.75H459.966L452.5 202.183H445.115L450.406 193.75ZM490.447 235H481.37V193.75H490.447V235ZM494.852 220.203C494.852 217.302 495.416 214.724 496.543 212.468C497.671 210.194 499.283 208.449 501.377 207.231C503.49 206.014 505.979 205.405 508.843 205.405C513.248 205.405 516.694 206.766 519.183 209.487C520.293 208.449 520.848 206.417 520.848 203.391H525.789C525.789 208.046 524.312 211.17 521.358 212.764C522.378 214.984 522.889 217.651 522.889 220.767C522.889 225.296 521.626 228.895 519.102 231.562C516.596 234.212 513.194 235.537 508.897 235.537C504.743 235.537 501.413 234.302 498.907 231.831C496.418 229.342 495.075 225.977 494.878 221.733L494.852 220.203ZM503.902 220.767C503.902 223.452 504.323 225.422 505.164 226.675C506.006 227.928 507.25 228.555 508.897 228.555C512.12 228.555 513.767 226.075 513.838 221.116V220.203C513.838 214.993 512.173 212.388 508.843 212.388C505.818 212.388 504.179 214.635 503.929 219.128L503.902 220.767ZM503.956 241.418C503.956 240.255 504.43 239.297 505.379 238.545C506.346 237.793 507.545 237.417 508.978 237.417C510.41 237.417 511.6 237.793 512.549 238.545C513.516 239.297 514 240.255 514 241.418C514 242.582 513.516 243.54 512.549 244.292C511.6 245.044 510.41 245.42 508.978 245.42C507.545 245.42 506.346 245.044 505.379 244.292C504.43 243.54 503.956 242.582 503.956 241.418ZM537.767 235H528.689V205.942H537.767V235ZM528.152 198.45C528.152 197.161 528.618 196.104 529.549 195.281C530.48 194.457 531.688 194.045 533.174 194.045C534.66 194.045 535.869 194.457 536.8 195.281C537.731 196.104 538.196 197.161 538.196 198.45C538.196 199.739 537.731 200.795 536.8 201.619C535.869 202.442 534.66 202.854 533.174 202.854C531.688 202.854 530.48 202.442 529.549 201.619C528.618 200.795 528.152 199.739 528.152 198.45Z" fill="black"/>
</g>
<defs>
<filter id="filter0_d_938:741" x="24" y="168" width="265" height="90" filterUnits="userSpaceOnUse" color-interpolation-filters="sRGB">
<feFlood flood-opacity="0" result="BackgroundImageFix"/>
<feColorMatrix in="SourceAlpha" type="matrix" values="0 0 0 0 0 0 0 0 0 0 0 0 0 0 0 0 0 0 127 0" result="hardAlpha"/>
<feOffset dy="4"/>
<feGaussianBlur stdDeviation="10"/>
<feColorMatrix type="matrix" values="0 0 0 0 1 0 0 0 0 1 0 0 0 0 1 0 0 0 0.5 0"/>
<feBlend mode="normal" in2="BackgroundImageFix" result="effect1_dropShadow_938:741"/>
<feBlend mode="normal" in="SourceGraphic" in2="effect1_dropShadow_938:741" result="shape"/>
</filter>
<linearGradient id="paint0_linear_938:741" x1="257.3" y1="234" x2="57.9528" y2="188.942" gradientUnits="userSpaceOnUse">
<stop stop-color="#2A40CC"/>
<stop offset="1" stop-color="#071F91"/>
</linearGradient>
<clipPath id="clip0_938:741">
<rect width="794" height="249" fill="white"/>
</clipPath>
</defs>
</svg>
