<svg width="802" height="338" viewBox="0 0 802 338" fill="none" xmlns="http://www.w3.org/2000/svg">
<path opacity="0.89" d="M55.0757 229.736H40.5908V204.502H19.1333V229.736H4.56543V169.307H19.1333V193.296H40.5908V169.307H55.0757V229.736ZM85.415 230.566C78.5254 230.566 72.95 228.519 68.689 224.424C64.4279 220.301 62.2974 214.947 62.2974 208.362V207.2C62.2974 202.607 63.1413 198.553 64.8291 195.039C66.5446 191.525 69.0348 188.813 72.2998 186.904C75.5648 184.967 79.4385 183.999 83.9209 183.999C90.2295 183.999 95.21 185.964 98.8623 189.893C102.515 193.794 104.341 199.245 104.341 206.245V211.682H76.5332C77.0312 214.2 78.1242 216.178 79.812 217.617C81.4998 219.056 83.6857 219.775 86.3696 219.775C90.7967 219.775 94.2554 218.226 96.7456 215.127L103.137 222.681C101.394 225.088 98.9176 227.011 95.708 228.45C92.526 229.861 89.0951 230.566 85.415 230.566ZM83.8379 194.79C79.7428 194.79 77.3079 197.502 76.5332 202.925H90.6445V201.846C90.6999 199.604 90.1326 197.875 88.9429 196.658C87.7531 195.413 86.0514 194.79 83.8379 194.79ZM99.5264 177.607V178.147H88.4863L81.8872 172.502L75.2881 178.147H64.4971V177.441L77.9028 165.945H85.9131L99.5264 177.607ZM75.7031 239.282C75.7031 237.484 76.4364 236.003 77.9028 234.841C79.397 233.679 81.2508 233.098 83.4644 233.098C85.6779 233.098 87.5179 233.679 88.9844 234.841C90.4785 236.003 91.2256 237.484 91.2256 239.282C91.2256 241.081 90.4785 242.561 88.9844 243.723C87.5179 244.885 85.6779 245.466 83.4644 245.466C81.2508 245.466 79.397 244.885 77.9028 243.723C76.4364 242.561 75.7031 241.081 75.7031 239.282ZM154.685 217.119C154.685 215.929 154.062 214.975 152.817 214.255C151.572 213.536 149.207 212.789 145.72 212.014C142.234 211.239 139.356 210.229 137.087 208.984C134.819 207.712 133.089 206.176 131.899 204.377C130.71 202.579 130.115 200.518 130.115 198.193C130.115 194.071 131.816 190.681 135.22 188.025C138.623 185.341 143.078 183.999 148.584 183.999C154.505 183.999 159.264 185.341 162.861 188.025C166.458 190.709 168.257 194.237 168.257 198.608H154.229C154.229 195.011 152.333 193.213 148.542 193.213C147.076 193.213 145.845 193.628 144.849 194.458C143.853 195.26 143.354 196.27 143.354 197.488C143.354 198.733 143.963 199.743 145.181 200.518C146.398 201.292 148.335 201.929 150.991 202.427C153.675 202.925 156.027 203.52 158.047 204.211C164.798 206.536 168.174 210.7 168.174 216.704C168.174 220.799 166.348 224.133 162.695 226.707C159.071 229.28 154.367 230.566 148.584 230.566C144.738 230.566 141.307 229.875 138.291 228.491C135.275 227.108 132.923 225.226 131.235 222.847C129.548 220.467 128.704 217.963 128.704 215.334H141.777C141.833 217.41 142.524 218.931 143.853 219.9C145.181 220.841 146.882 221.311 148.958 221.311C150.867 221.311 152.292 220.924 153.232 220.149C154.201 219.374 154.685 218.364 154.685 217.119ZM189.507 229.736H175.479V184.829H189.507V229.736ZM174.648 173.25C174.648 171.257 175.368 169.625 176.807 168.352C178.245 167.079 180.113 166.443 182.41 166.443C184.706 166.443 186.574 167.079 188.013 168.352C189.451 169.625 190.171 171.257 190.171 173.25C190.171 175.242 189.451 176.874 188.013 178.147C186.574 179.42 184.706 180.056 182.41 180.056C180.113 180.056 178.245 179.42 176.807 178.147C175.368 176.874 174.648 175.242 174.648 173.25ZM211.006 184.829L211.462 190.1C214.561 186.033 218.836 183.999 224.287 183.999C228.963 183.999 232.45 185.396 234.746 188.191C237.07 190.986 238.274 195.191 238.357 200.808V229.736H224.329V201.389C224.329 199.12 223.872 197.46 222.959 196.409C222.046 195.33 220.386 194.79 217.979 194.79C215.239 194.79 213.206 195.869 211.877 198.027V229.736H197.891V184.829H211.006ZM259.814 189.644C262.803 185.881 266.621 183.999 271.27 183.999C276.222 183.999 279.958 185.465 282.476 188.398C284.993 191.331 286.28 195.662 286.335 201.389V229.736H272.307V201.721C272.307 199.342 271.823 197.598 270.854 196.492C269.886 195.357 268.24 194.79 265.916 194.79C263.038 194.79 261.004 195.703 259.814 197.529V229.736H245.828V165.986H259.814V189.644ZM331.575 173.665V184.829H338.962V194.541H331.575V215.085C331.575 216.773 331.879 217.949 332.488 218.613C333.097 219.277 334.3 219.609 336.099 219.609C337.482 219.609 338.644 219.526 339.585 219.36V229.363C337.067 230.165 334.438 230.566 331.699 230.566C326.885 230.566 323.329 229.432 321.033 227.163C318.736 224.894 317.588 221.449 317.588 216.829V194.541H311.86V184.829H317.588V173.665H331.575ZM358.179 189.644C361.167 185.881 364.985 183.999 369.634 183.999C374.587 183.999 378.322 185.465 380.84 188.398C383.358 191.331 384.644 195.662 384.7 201.389V229.736H370.671V201.721C370.671 199.342 370.187 197.598 369.219 196.492C368.25 195.357 366.604 194.79 364.28 194.79C361.402 194.79 359.368 195.703 358.179 197.529V229.736H344.192V165.986H358.179V189.644ZM417.778 229.736C417.28 228.823 416.838 227.481 416.45 225.71C413.877 228.948 410.28 230.566 405.659 230.566C401.426 230.566 397.829 229.294 394.868 226.748C391.908 224.175 390.427 220.951 390.427 217.078C390.427 212.208 392.226 208.528 395.823 206.038C399.42 203.547 404.649 202.302 411.511 202.302H415.828V199.937C415.828 195.814 414.043 193.752 410.474 193.752C407.153 193.752 405.493 195.385 405.493 198.65H391.506C391.506 194.306 393.346 190.778 397.026 188.066C400.734 185.355 405.452 183.999 411.179 183.999C416.907 183.999 421.431 185.396 424.751 188.191C428.071 190.986 429.773 194.818 429.856 199.688V219.568C429.911 223.691 430.548 226.845 431.765 229.031V229.736H417.778ZM409.021 220.605C410.764 220.605 412.203 220.232 413.337 219.485C414.5 218.738 415.33 217.894 415.828 216.953V209.773H411.76C406.89 209.773 404.456 211.959 404.456 216.331C404.456 217.603 404.884 218.641 405.742 219.443C406.6 220.218 407.693 220.605 409.021 220.605ZM412.507 165.986H427.283L415.745 179.019H404.331L412.507 165.986ZM452.393 229.736H438.364V184.829H452.393V229.736ZM437.534 173.25C437.534 171.257 438.254 169.625 439.692 168.352C441.131 167.079 442.999 166.443 445.295 166.443C447.592 166.443 449.46 167.079 450.898 168.352C452.337 169.625 453.057 171.257 453.057 173.25C453.057 175.242 452.337 176.874 450.898 178.147C449.46 179.42 447.592 180.056 445.295 180.056C442.999 180.056 441.131 179.42 439.692 178.147C438.254 176.874 437.534 175.242 437.534 173.25ZM27.4341 307.119C27.4341 305.929 26.8115 304.975 25.5664 304.255C24.3213 303.536 21.9556 302.789 18.4692 302.014C14.9829 301.239 12.1053 300.229 9.83643 298.984C7.56755 297.712 5.83822 296.176 4.64844 294.377C3.45866 292.579 2.86377 290.518 2.86377 288.193C2.86377 284.071 4.56543 280.681 7.96875 278.025C11.3721 275.341 15.8268 273.999 21.333 273.999C27.2542 273.999 32.0133 275.341 35.6104 278.025C39.2074 280.709 41.0059 284.237 41.0059 288.608H26.9775C26.9775 285.011 25.0822 283.213 21.2915 283.213C19.825 283.213 18.5938 283.628 17.5977 284.458C16.6016 285.26 16.1035 286.27 16.1035 287.488C16.1035 288.733 16.7122 289.743 17.9297 290.518C19.1471 291.292 21.084 291.929 23.7402 292.427C26.4242 292.925 28.776 293.52 30.7959 294.211C37.5472 296.536 40.9229 300.7 40.9229 306.704C40.9229 310.799 39.0967 314.133 35.4443 316.707C31.8197 319.28 27.1159 320.566 21.333 320.566C17.487 320.566 14.056 319.875 11.04 318.491C8.02409 317.108 5.6722 315.226 3.98438 312.847C2.29655 310.467 1.45264 307.963 1.45264 305.334H14.5264C14.5817 307.41 15.2734 308.931 16.6016 309.9C17.9297 310.841 19.6313 311.311 21.7065 311.311C23.6157 311.311 25.0407 310.924 25.9814 310.149C26.9499 309.374 27.4341 308.364 27.4341 307.119ZM72.7979 319.736C72.2998 318.823 71.8571 317.481 71.4697 315.71C68.8965 318.948 65.2995 320.566 60.6787 320.566C56.4453 320.566 52.8483 319.294 49.8877 316.748C46.9271 314.175 45.4468 310.951 45.4468 307.078C45.4468 302.208 47.2453 298.528 50.8423 296.038C54.4393 293.547 59.6688 292.302 66.5308 292.302H70.8472V289.937C70.8472 285.814 69.0625 283.752 65.4932 283.752C62.1729 283.752 60.5127 285.385 60.5127 288.65H46.5259C46.5259 284.306 48.3659 280.778 52.0459 278.066C55.7536 275.355 60.4712 273.999 66.1987 273.999C71.9263 273.999 76.4502 275.396 79.7705 278.191C83.0908 280.986 84.7925 284.818 84.8755 289.688V309.568C84.9308 313.691 85.5672 316.845 86.7847 319.031V319.736H72.7979ZM64.0405 310.605C65.7837 310.605 67.2225 310.232 68.3569 309.485C69.519 308.738 70.3491 307.894 70.8472 306.953V299.773H66.7798C61.91 299.773 59.4751 301.959 59.4751 306.331C59.4751 307.603 59.904 308.641 60.7617 309.443C61.6195 310.218 62.7124 310.605 64.0405 310.605ZM60.3052 267.109L59.3921 261.88C63.1828 261.714 65.0781 260.842 65.0781 259.265C65.0781 257.439 63.2104 256.526 59.4751 256.526L59.7656 250.508C65.5208 250.508 69.8649 251.227 72.7979 252.666C75.7308 254.105 77.1973 256.111 77.1973 258.684C77.1973 260.234 76.6439 261.534 75.5371 262.585C74.4303 263.609 72.9085 264.259 70.9717 264.536V267.109H60.3052ZM105.503 274.829L105.959 280.1C109.058 276.033 113.333 273.999 118.784 273.999C123.46 273.999 126.947 275.396 129.243 278.191C131.567 280.986 132.771 285.191 132.854 290.808V319.736H118.826V291.389C118.826 289.12 118.369 287.46 117.456 286.409C116.543 285.33 114.883 284.79 112.476 284.79C109.736 284.79 107.703 285.869 106.375 288.027V319.736H92.3877V274.829H105.503ZM203.494 297.615C203.494 304.587 201.917 310.163 198.762 314.341C195.636 318.491 191.402 320.566 186.062 320.566C181.939 320.566 178.55 319.058 175.894 316.042V337.002H161.907V274.829H174.98L175.396 278.979C178.079 275.659 181.607 273.999 185.979 273.999C191.513 273.999 195.815 276.047 198.887 280.142C201.958 284.209 203.494 289.812 203.494 296.951V297.615ZM189.507 296.743C189.507 288.774 187.183 284.79 182.534 284.79C179.214 284.79 177 285.98 175.894 288.359V306.04C177.111 308.53 179.352 309.775 182.617 309.775C187.072 309.775 189.368 305.929 189.507 298.237V296.743ZM223.374 279.644C226.362 275.881 230.181 273.999 234.829 273.999C239.782 273.999 243.517 275.465 246.035 278.398C248.553 281.331 249.84 285.662 249.895 291.389V319.736H235.867V291.721C235.867 289.342 235.382 287.598 234.414 286.492C233.446 285.357 231.799 284.79 229.475 284.79C226.597 284.79 224.564 285.703 223.374 287.529V319.736H209.387V255.986H223.374V279.644ZM282.974 319.736C282.476 318.823 282.033 317.481 281.646 315.71C279.072 318.948 275.475 320.566 270.854 320.566C266.621 320.566 263.024 319.294 260.063 316.748C257.103 314.175 255.623 310.951 255.623 307.078C255.623 302.208 257.421 298.528 261.018 296.038C264.615 293.547 269.845 292.302 276.707 292.302H281.023V289.937C281.023 285.814 279.238 283.752 275.669 283.752C272.349 283.752 270.688 285.385 270.688 288.65H256.702C256.702 284.306 258.542 280.778 262.222 278.066C265.929 275.355 270.647 273.999 276.375 273.999C282.102 273.999 286.626 275.396 289.946 278.191C293.267 280.986 294.968 284.818 295.051 289.688V309.568C295.107 313.691 295.743 316.845 296.96 319.031V319.736H282.974ZM274.216 310.605C275.959 310.605 277.398 310.232 278.533 309.485C279.695 308.738 280.525 307.894 281.023 306.953V299.773H276.956C272.086 299.773 269.651 301.959 269.651 306.331C269.651 307.603 270.08 308.641 270.938 309.443C271.795 310.218 272.888 310.605 274.216 310.605ZM290.818 269.143H281.646L275.835 264.329L270.024 269.143H260.769L272.515 260.095H279.155L290.818 269.143ZM286.917 264.038L286.086 259.639C289.268 259.473 290.859 258.753 290.859 257.48C290.859 256.54 290.431 255.917 289.573 255.613C288.715 255.281 287.581 255.115 286.169 255.115L286.46 250.134C290.666 250.134 293.834 250.729 295.964 251.919C298.095 253.109 299.16 254.783 299.16 256.941C299.16 258.241 298.69 259.334 297.749 260.22C296.836 261.105 295.577 261.659 293.972 261.88L294.014 264.038H286.917ZM316.052 274.829L316.509 280.1C319.691 276.033 323.966 273.999 329.333 273.999C335.006 273.999 338.838 276.254 340.83 280.764C343.874 276.254 348.273 273.999 354.028 273.999C363.132 273.999 367.808 279.505 368.057 290.518V319.736H354.028V291.389C354.028 289.093 353.641 287.419 352.866 286.367C352.091 285.316 350.68 284.79 348.633 284.79C345.866 284.79 343.805 286.021 342.449 288.484L342.49 289.065V319.736H328.462V291.472C328.462 289.12 328.088 287.419 327.341 286.367C326.594 285.316 325.169 284.79 323.066 284.79C320.382 284.79 318.335 286.021 316.924 288.484V319.736H302.937V274.829H316.052ZM416.201 309.775C418.166 309.775 419.688 309.25 420.767 308.198C421.846 307.119 422.371 305.625 422.344 303.716H435.459C435.459 308.641 433.688 312.681 430.146 315.835C426.632 318.989 422.095 320.566 416.533 320.566C410.003 320.566 404.857 318.519 401.094 314.424C397.331 310.329 395.449 304.657 395.449 297.407V296.826C395.449 292.288 396.279 288.29 397.939 284.832C399.627 281.345 402.048 278.675 405.203 276.821C408.357 274.94 412.092 273.999 416.409 273.999C422.247 273.999 426.882 275.618 430.312 278.855C433.743 282.092 435.459 286.478 435.459 292.012H422.344C422.344 289.688 421.777 287.903 420.642 286.658C419.508 285.413 417.986 284.79 416.077 284.79C412.452 284.79 410.335 287.1 409.727 291.721C409.533 293.188 409.436 295.208 409.436 297.781C409.436 302.291 409.976 305.417 411.055 307.161C412.134 308.904 413.849 309.775 416.201 309.775ZM439.609 296.868C439.609 292.385 440.481 288.401 442.224 284.915C443.967 281.401 446.471 278.703 449.736 276.821C453.001 274.94 456.833 273.999 461.233 273.999C467.957 273.999 473.255 276.088 477.129 280.266C481.003 284.417 482.939 290.075 482.939 297.241V297.739C482.939 304.74 480.989 310.301 477.087 314.424C473.214 318.519 467.957 320.566 461.316 320.566C454.924 320.566 449.792 318.657 445.918 314.839C442.044 310.993 439.955 305.791 439.651 299.233L439.609 296.868ZM453.596 297.739C453.596 301.89 454.246 304.933 455.547 306.87C456.847 308.807 458.77 309.775 461.316 309.775C466.296 309.775 468.842 305.943 468.953 298.279V296.868C468.953 288.816 466.379 284.79 461.233 284.79C456.557 284.79 454.025 288.263 453.638 295.208L453.596 297.739ZM478.997 267.649V268.188H467.957L461.357 262.544L454.758 268.188H443.967V267.483L457.373 255.986H465.383L478.997 267.649ZM501.948 274.829L502.405 280.1C505.504 276.033 509.779 273.999 515.229 273.999C519.906 273.999 523.392 275.396 525.688 278.191C528.013 280.986 529.216 285.191 529.299 290.808V319.736H515.271V291.389C515.271 289.12 514.814 287.46 513.901 286.409C512.988 285.33 511.328 284.79 508.921 284.79C506.182 284.79 504.148 285.869 502.82 288.027V319.736H488.833V274.829H501.948ZM535.442 296.951C535.442 292.413 536.189 288.401 537.683 284.915C539.177 281.428 541.322 278.744 544.116 276.863C546.911 274.954 550.162 273.999 553.87 273.999C558.546 273.999 562.198 275.576 564.827 278.73L565.325 274.829H578.025V318.035C578.025 321.991 577.098 325.422 575.244 328.328C573.418 331.261 570.762 333.502 567.275 335.051C563.789 336.628 559.749 337.417 555.156 337.417C551.864 337.417 548.668 336.794 545.569 335.549C542.498 334.304 540.146 332.686 538.513 330.693L544.365 322.476C546.966 325.547 550.397 327.083 554.658 327.083C560.856 327.083 563.955 323.901 563.955 317.537V316.125C561.271 319.086 557.882 320.566 553.787 320.566C548.308 320.566 543.881 318.477 540.505 314.299C537.13 310.094 535.442 304.477 535.442 297.449V296.951ZM549.47 297.822C549.47 301.502 550.162 304.421 551.545 306.58C552.929 308.71 554.866 309.775 557.356 309.775C560.372 309.775 562.572 308.765 563.955 306.746V287.861C562.599 285.814 560.427 284.79 557.439 284.79C554.949 284.79 552.998 285.911 551.587 288.152C550.176 290.365 549.47 293.589 549.47 297.822ZM619.985 274.829L620.442 280.1C623.541 276.033 627.816 273.999 633.267 273.999C637.943 273.999 641.429 275.396 643.726 278.191C646.05 280.986 647.253 285.191 647.336 290.808V319.736H633.308V291.389C633.308 289.12 632.852 287.46 631.938 286.409C631.025 285.33 629.365 284.79 626.958 284.79C624.219 284.79 622.185 285.869 620.857 288.027V319.736H606.87V274.829H619.985ZM653.479 296.951C653.479 292.413 654.226 288.401 655.72 284.915C657.214 281.428 659.359 278.744 662.153 276.863C664.948 274.954 668.199 273.999 671.907 273.999C676.583 273.999 680.235 275.576 682.864 278.73L683.362 274.829H696.062V318.035C696.062 321.991 695.135 325.422 693.281 328.328C691.455 331.261 688.799 333.502 685.312 335.051C681.826 336.628 677.786 337.417 673.193 337.417C669.901 337.417 666.705 336.794 663.606 335.549C660.535 334.304 658.183 332.686 656.55 330.693L662.402 322.476C665.003 325.547 668.434 327.083 672.695 327.083C678.893 327.083 681.992 323.901 681.992 317.537V316.125C679.308 319.086 675.919 320.566 671.824 320.566C666.345 320.566 661.918 318.477 658.542 314.299C655.167 310.094 653.479 304.477 653.479 297.449V296.951ZM667.507 297.822C667.507 301.502 668.199 304.421 669.583 306.58C670.966 308.71 672.903 309.775 675.393 309.775C678.409 309.775 680.609 308.765 681.992 306.746V287.861C680.636 285.814 678.464 284.79 675.476 284.79C672.986 284.79 671.035 285.911 669.624 288.152C668.213 290.365 667.507 293.589 667.507 297.822ZM717.686 279.644C720.674 275.881 724.492 273.999 729.141 273.999C734.093 273.999 737.829 275.465 740.347 278.398C742.865 281.331 744.151 285.662 744.207 291.389V319.736H730.178V291.721C730.178 289.342 729.694 287.598 728.726 286.492C727.757 285.357 726.111 284.79 723.787 284.79C720.909 284.79 718.875 285.703 717.686 287.529V319.736H703.699V255.986H717.686V279.644ZM773.716 320.566C766.826 320.566 761.251 318.519 756.99 314.424C752.729 310.301 750.598 304.947 750.598 298.362V297.2C750.598 292.607 751.442 288.553 753.13 285.039C754.845 281.525 757.336 278.813 760.601 276.904C763.866 274.967 767.739 273.999 772.222 273.999C778.53 273.999 783.511 275.964 787.163 279.893C790.815 283.794 792.642 289.245 792.642 296.245V301.682H764.834C765.332 304.2 766.425 306.178 768.113 307.617C769.801 309.056 771.986 309.775 774.67 309.775C779.097 309.775 782.556 308.226 785.046 305.127L791.438 312.681C789.695 315.088 787.218 317.011 784.009 318.45C780.827 319.861 777.396 320.566 773.716 320.566ZM772.139 284.79C768.044 284.79 765.609 287.502 764.834 292.925H778.945V291.846C779.001 289.604 778.433 287.875 777.244 286.658C776.054 285.413 774.352 284.79 772.139 284.79ZM787.827 267.607V268.147H776.787L770.188 262.502L763.589 268.147H752.798V267.441L766.204 255.945H774.214L787.827 267.607ZM764.004 329.282C764.004 327.484 764.737 326.003 766.204 324.841C767.698 323.679 769.552 323.098 771.765 323.098C773.979 323.098 775.819 323.679 777.285 324.841C778.779 326.003 779.526 327.484 779.526 329.282C779.526 331.081 778.779 332.561 777.285 333.723C775.819 334.885 773.979 335.466 771.765 335.466C769.552 335.466 767.698 334.885 766.204 333.723C764.737 332.561 764.004 331.081 764.004 329.282Z" fill="black"/>
<path d="M570.719 242.895H382.118V198.161L416.598 171.44C434.97 157.146 451.005 144.715 464.258 134.498C477.024 124.658 486.793 115.656 493.293 107.748C499.592 100.088 502.784 91.8363 502.784 83.2313C502.784 74.2729 499.856 67.7744 493.82 63.3775C487.681 58.8886 481.015 56.5981 474.013 56.5981C466.42 56.5981 459.466 59.2228 453.352 64.3944C447.33 69.4886 444.276 77.6481 444.276 88.6549V90.6596H381.156V88.6403C381.156 73.7645 383.811 60.5544 389.047 49.4169C394.283 38.2794 401.495 28.9093 410.464 21.6361C419.504 14.3365 429.861 8.81005 440.982 5.35113C452.393 1.77977 464.292 -0.0250554 476.257 0.000262709C493.38 0.000262709 509.059 3.28335 522.859 9.74795C536.659 16.2125 547.882 25.4664 556.075 37.1753C564.268 48.8843 568.47 62.9272 568.47 78.7715C568.47 93.5069 564.756 107.143 557.432 119.297C550.18 131.326 539.782 143.117 526.519 154.352C514.666 164.39 500.515 175.121 484.387 186.311H570.719V242.895ZM386.173 238.837H566.625V190.345H471.275L476.692 186.66C494.947 174.235 510.811 162.332 523.854 151.282C536.781 140.333 546.892 128.876 553.918 117.225C560.857 105.71 564.38 92.7709 564.38 78.7763C564.38 63.7649 560.477 50.5501 552.708 39.4852C544.94 28.4203 534.292 19.5926 521.097 13.4088C507.902 7.22509 492.756 4.04844 476.238 4.04844C464.691 4.02313 453.209 5.76431 442.197 9.21051C431.566 12.5151 421.665 17.795 413.021 24.7691C404.535 31.655 397.703 40.5215 392.721 51.1263C387.973 61.2421 385.455 73.1737 385.226 86.6258H440.216C440.591 75.3915 444.119 66.8834 450.688 61.3146C457.563 55.5037 465.405 52.55 473.993 52.55C481.889 52.55 489.364 55.097 496.22 60.1137C503.267 65.2709 506.839 73.0478 506.839 83.2362C506.839 92.7999 503.335 101.904 496.43 110.31C489.735 118.45 479.746 127.665 466.737 137.694C453.489 147.911 437.459 160.337 419.086 174.632L386.173 200.141V238.837Z" fill="#D0A452"/>
<path d="M704.423 246.099C686.886 246.099 671.378 243.092 658.329 237.16C645.281 231.228 634.331 223.001 625.83 212.721C617.28 202.337 610.786 190.441 606.692 177.662C602.442 164.439 600.302 150.637 600.348 136.758C600.418 120.274 603.221 103.915 608.644 88.3341C614.191 72.1833 622.754 57.2142 633.887 44.2103C645.149 30.9906 659.749 20.2016 677.268 12.1535C694.786 4.10548 715.818 0.0234375 739.728 0.0234375C748.756 0.0234375 759.964 0.890132 773.052 2.58981L774.823 2.81751V60.6841L772.535 60.3984C765.737 59.5606 759.847 58.9166 754.968 58.4954C750.088 58.0741 745.208 57.8658 740.382 57.8658C721.424 57.8658 705.189 62.4079 692.117 71.3615C681.332 78.7558 674.106 89.167 670.577 102.387C672.165 100.653 673.954 98.8776 675.945 97.0601C680.713 92.6584 686.92 88.9347 694.391 85.9905C701.861 83.0463 711.299 81.5499 722.42 81.5499C739.631 81.5499 754.255 85.2979 765.879 92.6874C777.502 100.077 786.374 109.776 792.278 121.509C798.132 133.052 801.172 145.797 801.154 158.718C801.123 169.494 799.062 180.169 795.079 190.194C790.932 200.65 784.803 210.22 777.024 218.386C769.041 226.846 758.871 233.654 746.77 238.618C734.668 243.581 720.434 246.099 704.423 246.099ZM739.723 4.07161C716.388 4.07161 695.947 8.02786 678.966 15.8241C661.984 23.6204 647.857 34.0557 637 46.8154C626.197 59.4349 617.885 73.9601 612.499 89.6319C607.223 104.792 604.496 120.71 604.428 136.748C604.383 150.208 606.461 163.591 610.586 176.413C614.522 188.708 620.767 200.154 628.992 210.145C637.103 219.946 647.535 227.795 660.037 233.475C672.539 239.155 687.491 242.051 704.443 242.051C719.926 242.051 733.648 239.63 745.223 234.88C756.798 230.129 766.459 223.655 774.043 215.621C781.466 207.829 787.316 198.698 791.278 188.722C795.079 179.169 797.047 168.994 797.08 158.723C797.095 146.428 794.2 134.302 788.628 123.32C783.046 112.246 774.652 103.084 763.678 96.0965C752.703 89.1089 738.835 85.5885 722.415 85.5885C711.811 85.5885 702.896 86.988 695.889 89.7433C688.881 92.4987 683.109 95.9561 678.712 100.014C674.315 104.072 670.856 107.965 668.606 111.413L663.57 119.161L664.883 110.047C667.518 91.7142 675.906 77.6034 689.809 68.0639C703.569 58.6358 720.59 53.8515 740.387 53.8515C745.316 53.8515 750.342 54.0694 755.324 54.5004C759.686 54.8781 764.869 55.4252 770.763 56.137V6.35236C758.593 4.82217 748.165 4.04738 739.723 4.04738V4.07161ZM705.077 196.421C693.366 196.421 684.309 192.693 678.156 185.342C672.095 178.107 669.021 169.904 669.021 160.96C669.021 152.244 672.095 144.143 678.156 136.903C684.314 129.548 693.371 125.819 705.077 125.819C716.998 125.819 726.114 129.553 732.17 136.913C738.113 144.177 741.129 152.249 741.129 160.96C741.129 169.895 738.113 178.088 732.17 185.327C726.109 192.664 717.018 196.397 705.067 196.397L705.077 196.421ZM705.077 129.863C694.493 129.863 686.715 133.01 681.293 139.484C675.872 145.959 673.095 153.208 673.095 160.96C673.095 168.936 675.853 176.267 681.289 182.751C686.725 189.235 694.464 192.373 705.077 192.373C715.871 192.373 723.698 189.23 728.988 182.766C734.278 176.301 737.035 168.931 737.035 160.975C737.035 153.227 734.326 145.964 728.988 139.484C723.762 133.073 715.705 129.838 705.067 129.838L705.077 129.863Z" fill="#D0A452"/>
</svg>
