<svg width="307" height="156" viewBox="0 0 307 156" fill="none" xmlns="http://www.w3.org/2000/svg">
<path d="M214.074 97.9579H138.386V79.917L152.223 69.1408C159.596 63.3759 166.031 58.3627 171.35 54.2421C176.473 50.2738 180.393 46.6433 183.002 43.4542C185.53 40.3647 186.81 37.037 186.81 33.5666C186.81 29.9538 185.635 27.333 183.213 25.5597C180.749 23.7494 178.074 22.8257 175.264 22.8257C172.217 22.8257 169.427 23.8842 166.973 25.9699C164.556 28.0243 163.33 31.315 163.33 35.7539V36.5624H138V35.7481C138 29.7487 139.065 24.4212 141.167 19.9295C143.268 15.4378 146.162 11.6589 149.762 8.72568C153.389 5.78183 157.546 3.55304 162.009 2.15808C166.588 0.717768 171.363 -0.0101047 176.165 0.000105949C183.037 0.000105949 189.329 1.32415 194.867 3.93128C200.405 6.53842 204.909 10.2704 208.197 14.9926C211.485 19.7147 213.171 25.3781 213.171 31.768C213.171 37.7107 211.681 43.2101 208.741 48.1119C205.831 52.9629 201.658 57.7183 196.336 62.249C191.579 66.2974 185.9 70.625 179.428 75.1382H214.074V97.9579ZM140.013 96.3214H212.431V76.765H174.166L176.339 75.2788C183.665 70.2676 190.032 65.4674 195.266 61.0109C200.454 56.5953 204.511 51.9748 207.331 47.2761C210.116 42.6321 211.53 37.4139 211.53 31.77C211.53 25.716 209.963 20.3865 206.846 15.9241C203.728 11.4617 199.455 7.90156 194.16 5.40769C188.865 2.91383 182.786 1.63271 176.157 1.63271C171.523 1.6225 166.916 2.32471 162.496 3.71454C158.23 5.04726 154.257 7.1766 150.788 9.98921C147.382 12.7662 144.641 16.342 142.641 20.6189C140.736 24.6985 139.725 29.5105 139.633 34.9356H161.701C161.852 30.4049 163.268 26.9736 165.904 24.7278C168.663 22.3843 171.81 21.1931 175.256 21.1931C178.425 21.1931 181.425 22.2203 184.176 24.2435C187.004 26.3233 188.438 29.4597 188.438 33.5686C188.438 37.4256 187.032 41.0971 184.261 44.4873C181.574 47.7702 177.565 51.4865 172.344 55.531C167.028 59.6516 160.595 64.6628 153.222 70.4278L140.013 80.7157V96.3214Z" fill="#D0A452"/>
<path d="M268.168 99C261.16 99 254.963 97.7902 249.749 95.4037C244.534 93.0172 240.159 89.7073 236.762 85.5713C233.345 81.3937 230.75 76.6079 229.114 71.4665C227.416 66.1467 226.561 60.5942 226.579 55.0104C226.607 48.3788 227.727 41.7969 229.894 35.5287C232.111 29.031 235.533 23.0087 239.981 17.777C244.482 12.4585 250.316 8.11797 257.316 4.88012C264.316 1.64227 272.721 0 282.275 0C285.883 0 290.362 0.348684 295.591 1.03249L296.299 1.1241V24.4047L295.385 24.2897C292.669 23.9527 290.315 23.6936 288.365 23.5241C286.415 23.3546 284.465 23.2708 282.537 23.2708C274.961 23.2708 268.474 25.0982 263.25 28.7004C258.941 31.6752 256.053 35.8638 254.643 41.1823C255.277 40.4848 255.992 39.7705 256.788 39.0393C258.693 37.2684 261.173 35.7703 264.159 34.5858C267.144 33.4013 270.915 32.7993 275.359 32.7993C282.236 32.7993 288.08 34.3072 292.725 37.2801C297.37 40.253 300.915 44.1552 303.274 48.8756C305.613 53.5192 306.828 58.6468 306.821 63.8453C306.809 68.1806 305.985 72.4754 304.393 76.5084C302.736 80.7151 300.287 84.5653 297.179 87.8506C293.989 91.2541 289.925 93.9932 285.089 95.9901C280.253 97.987 274.565 99 268.168 99ZM282.273 1.62864C272.949 1.62864 264.781 3.2203 257.995 6.35685C251.209 9.4934 245.564 13.6917 241.225 18.8251C236.909 23.9021 233.587 29.7458 231.435 36.0508C229.327 42.1499 228.237 48.554 228.21 55.0065C228.192 60.4213 229.022 65.8056 230.67 70.9639C232.243 75.9107 234.739 80.5154 238.026 84.5349C241.266 88.4779 245.435 91.6359 250.431 93.9211C255.427 96.2063 261.401 97.3713 268.175 97.3713C274.363 97.3713 279.846 96.3973 284.471 94.4861C289.096 92.575 292.957 89.9703 295.987 86.7382C298.954 83.6033 301.291 79.9297 302.875 75.9162C304.394 72.0728 305.18 67.9795 305.193 63.8473C305.199 58.9009 304.042 54.0221 301.816 49.6042C299.585 45.1488 296.231 41.4628 291.846 38.6516C287.46 35.8404 281.919 34.4241 275.357 34.4241C271.12 34.4241 267.557 34.9871 264.757 36.0956C261.957 37.2042 259.65 38.5951 257.893 40.2277C256.137 41.8603 254.754 43.4266 253.855 44.8137L251.843 47.9308L252.367 44.2643C253.42 36.8885 256.772 31.2116 262.328 27.3737C267.826 23.5806 274.628 21.6558 282.539 21.6558C284.508 21.6558 286.516 21.7435 288.507 21.9169C290.251 22.0688 292.321 22.289 294.677 22.5753V2.54622C289.814 1.9306 285.647 1.61889 282.273 1.61889V1.62864ZM268.429 79.0137C263.749 79.0137 260.13 77.5137 257.671 74.5564C255.249 71.6458 254.021 68.3456 254.021 64.7473C254.021 61.2406 255.249 57.9813 257.671 55.0688C260.132 52.1096 263.751 50.6095 268.429 50.6095C273.193 50.6095 276.835 52.1115 279.255 55.0727C281.63 57.995 282.835 61.2426 282.835 64.7473C282.835 68.3417 281.63 71.638 279.255 74.5505C276.833 77.502 273.2 79.004 268.425 79.004L268.429 79.0137ZM268.429 52.2362C264.199 52.2362 261.091 53.5025 258.925 56.1072C256.759 58.7119 255.649 61.6283 255.649 64.7473C255.649 67.9559 256.751 70.9055 258.923 73.5141C261.095 76.1227 264.188 77.3851 268.429 77.3851C272.742 77.3851 275.87 76.1207 277.984 73.5199C280.097 70.9191 281.199 67.954 281.199 64.7532C281.199 61.6361 280.117 58.7139 277.984 56.1072C275.895 53.5278 272.676 52.2264 268.425 52.2264L268.429 52.2362Z" fill="#D0A452"/>
<path opacity="0.89" d="M20.5469 92H15.8594V82.25H6.71875V92H2.03125V69.25H6.71875V78.4688H15.8594V69.25H20.5469V92ZM32.1406 92.3125C29.6615 92.3125 27.6406 91.5521 26.0781 90.0312C24.526 88.5104 23.75 86.4844 23.75 83.9531V83.5156C23.75 81.8177 24.0781 80.3021 24.7344 78.9688C25.3906 77.625 26.3177 76.5938 27.5156 75.875C28.724 75.1458 30.099 74.7812 31.6406 74.7812C33.9531 74.7812 35.7708 75.5104 37.0938 76.9688C38.4271 78.4271 39.0938 80.4948 39.0938 83.1719V85.0156H28.3281C28.474 86.1198 28.9115 87.0052 29.6406 87.6719C30.3802 88.3385 31.3125 88.6719 32.4375 88.6719C34.1771 88.6719 35.5365 88.0417 36.5156 86.7812L38.7344 89.2656C38.0573 90.224 37.1406 90.974 35.9844 91.5156C34.8281 92.0469 33.5469 92.3125 32.1406 92.3125ZM31.625 78.4375C30.7292 78.4375 30 78.7396 29.4375 79.3438C28.8854 79.9479 28.5312 80.8125 28.375 81.9375H34.6562V81.5781C34.6354 80.5781 34.3646 79.8073 33.8438 79.2656C33.3229 78.7135 32.5833 78.4375 31.625 78.4375ZM37.125 72.375V72.5625H33.5312L31.125 70.2969L28.7188 72.5625H25.1875V72.3125L29.8125 68H32.4375L37.125 72.375ZM28.9844 95.6562C28.9844 95.0312 29.2188 94.5156 29.6875 94.1094C30.1562 93.7031 30.7604 93.5 31.5 93.5C32.25 93.5 32.8594 93.7031 33.3281 94.1094C33.7969 94.5156 34.0312 95.0312 34.0312 95.6562C34.0312 96.2708 33.7969 96.7865 33.3281 97.2031C32.8698 97.6198 32.2604 97.8281 31.5 97.8281C30.7396 97.8281 30.1302 97.6198 29.6719 97.2031C29.2135 96.7865 28.9844 96.2708 28.9844 95.6562ZM58.7969 87.3281C58.7969 86.776 58.5208 86.3438 57.9688 86.0312C57.4271 85.7083 56.5521 85.4219 55.3438 85.1719C51.3229 84.3281 49.3125 82.6198 49.3125 80.0469C49.3125 78.5469 49.9323 77.2969 51.1719 76.2969C52.4219 75.2865 54.0521 74.7812 56.0625 74.7812C58.2083 74.7812 59.9219 75.2865 61.2031 76.2969C62.4948 77.3073 63.1406 78.6198 63.1406 80.2344H58.625C58.625 79.5885 58.4167 79.0573 58 78.6406C57.5833 78.2135 56.9323 78 56.0469 78C55.2865 78 54.6979 78.1719 54.2812 78.5156C53.8646 78.8594 53.6562 79.2969 53.6562 79.8281C53.6562 80.3281 53.8906 80.7344 54.3594 81.0469C54.8385 81.349 55.6406 81.6146 56.7656 81.8438C57.8906 82.0625 58.8385 82.3125 59.6094 82.5938C61.9948 83.4688 63.1875 84.9844 63.1875 87.1406C63.1875 88.6823 62.526 89.9323 61.2031 90.8906C59.8802 91.8385 58.1719 92.3125 56.0781 92.3125C54.6615 92.3125 53.401 92.0625 52.2969 91.5625C51.2031 91.0521 50.3438 90.3594 49.7188 89.4844C49.0938 88.599 48.7812 87.6458 48.7812 86.625H53.0625C53.1042 87.4271 53.401 88.0417 53.9531 88.4688C54.5052 88.8958 55.2448 89.1094 56.1719 89.1094C57.0365 89.1094 57.6875 88.9479 58.125 88.625C58.5729 88.2917 58.7969 87.8594 58.7969 87.3281ZM70.875 92H66.3438V75.0938H70.875V92ZM66.0781 70.7188C66.0781 70.0417 66.3021 69.4844 66.75 69.0469C67.2083 68.6094 67.8281 68.3906 68.6094 68.3906C69.3802 68.3906 69.9948 68.6094 70.4531 69.0469C70.9115 69.4844 71.1406 70.0417 71.1406 70.7188C71.1406 71.4062 70.9062 71.9688 70.4375 72.4062C69.9792 72.8438 69.3698 73.0625 68.6094 73.0625C67.849 73.0625 67.2344 72.8438 66.7656 72.4062C66.3073 71.9688 66.0781 71.4062 66.0781 70.7188ZM78.7656 75.0938L78.9062 77.0469C80.1146 75.5365 81.7344 74.7812 83.7656 74.7812C85.5573 74.7812 86.8906 75.3073 87.7656 76.3594C88.6406 77.4115 89.0885 78.9844 89.1094 81.0781V92H84.5938V81.1875C84.5938 80.2292 84.3854 79.5365 83.9688 79.1094C83.5521 78.6719 82.8594 78.4531 81.8906 78.4531C80.6198 78.4531 79.6667 78.9948 79.0312 80.0781V92H74.5156V75.0938H78.7656ZM96.9531 76.9375C98.151 75.5 99.6562 74.7812 101.469 74.7812C105.135 74.7812 106.995 76.9115 107.047 81.1719V92H102.531V81.2969C102.531 80.3281 102.323 79.6146 101.906 79.1562C101.49 78.6875 100.797 78.4531 99.8281 78.4531C98.5052 78.4531 97.5469 78.9635 96.9531 79.9844V92H92.4375V68H96.9531V76.9375ZM123.828 70.9375V75.0938H126.719V78.4062H123.828V86.8438C123.828 87.4688 123.948 87.9167 124.188 88.1875C124.427 88.4583 124.885 88.5938 125.562 88.5938C126.062 88.5938 126.505 88.5573 126.891 88.4844V91.9062C126.005 92.1771 125.094 92.3125 124.156 92.3125C120.99 92.3125 119.375 90.7135 119.312 87.5156V78.4062H116.844V75.0938H119.312V70.9375H123.828ZM133.641 76.9375C134.839 75.5 136.344 74.7812 138.156 74.7812C141.823 74.7812 143.682 76.9115 143.734 81.1719V92H139.219V81.2969C139.219 80.3281 139.01 79.6146 138.594 79.1562C138.177 78.6875 137.484 78.4531 136.516 78.4531C135.193 78.4531 134.234 78.9635 133.641 79.9844V92H129.125V68H133.641V76.9375ZM156.938 92C156.729 91.5938 156.578 91.0885 156.484 90.4844C155.391 91.7031 153.969 92.3125 152.219 92.3125C150.562 92.3125 149.188 91.8333 148.094 90.875C147.01 89.9167 146.469 88.7083 146.469 87.25C146.469 85.4583 147.13 84.0833 148.453 83.125C149.786 82.1667 151.708 81.6823 154.219 81.6719H156.297V80.7031C156.297 79.9219 156.094 79.2969 155.688 78.8281C155.292 78.3594 154.661 78.125 153.797 78.125C153.036 78.125 152.438 78.3073 152 78.6719C151.573 79.0365 151.359 79.5365 151.359 80.1719H146.844C146.844 79.1927 147.146 78.2865 147.75 77.4531C148.354 76.6198 149.208 75.9688 150.312 75.5C151.417 75.0208 152.656 74.7812 154.031 74.7812C156.115 74.7812 157.766 75.3073 158.984 76.3594C160.214 77.401 160.828 78.8698 160.828 80.7656V88.0938C160.839 89.6979 161.062 90.9115 161.5 91.7344V92H156.938ZM153.203 88.8594C153.87 88.8594 154.484 88.7135 155.047 88.4219C155.609 88.1198 156.026 87.7188 156.297 87.2188V84.3125H154.609C152.349 84.3125 151.146 85.0938 151 86.6562L150.984 86.9219C150.984 87.4844 151.182 87.9479 151.578 88.3125C151.974 88.6771 152.516 88.8594 153.203 88.8594ZM154.922 68H159.844L155.516 72.8438H151.844L154.922 68ZM169.062 92H164.531V75.0938H169.062V92ZM164.266 70.7188C164.266 70.0417 164.49 69.4844 164.938 69.0469C165.396 68.6094 166.016 68.3906 166.797 68.3906C167.568 68.3906 168.182 68.6094 168.641 69.0469C169.099 69.4844 169.328 70.0417 169.328 70.7188C169.328 71.4062 169.094 71.9688 168.625 72.4062C168.167 72.8438 167.557 73.0625 166.797 73.0625C166.036 73.0625 165.422 72.8438 164.953 72.4062C164.495 71.9688 164.266 71.4062 164.266 70.7188ZM10.8906 137.328C10.8906 136.776 10.6146 136.344 10.0625 136.031C9.52083 135.708 8.64583 135.422 7.4375 135.172C3.41667 134.328 1.40625 132.62 1.40625 130.047C1.40625 128.547 2.02604 127.297 3.26562 126.297C4.51562 125.286 6.14583 124.781 8.15625 124.781C10.3021 124.781 12.0156 125.286 13.2969 126.297C14.5885 127.307 15.2344 128.62 15.2344 130.234H10.7188C10.7188 129.589 10.5104 129.057 10.0938 128.641C9.67708 128.214 9.02604 128 8.14062 128C7.38021 128 6.79167 128.172 6.375 128.516C5.95833 128.859 5.75 129.297 5.75 129.828C5.75 130.328 5.98438 130.734 6.45312 131.047C6.93229 131.349 7.73438 131.615 8.85938 131.844C9.98438 132.062 10.9323 132.312 11.7031 132.594C14.0885 133.469 15.2812 134.984 15.2812 137.141C15.2812 138.682 14.6198 139.932 13.2969 140.891C11.974 141.839 10.2656 142.312 8.17188 142.312C6.75521 142.312 5.49479 142.062 4.39062 141.562C3.29688 141.052 2.4375 140.359 1.8125 139.484C1.1875 138.599 0.875 137.646 0.875 136.625H5.15625C5.19792 137.427 5.49479 138.042 6.04688 138.469C6.59896 138.896 7.33854 139.109 8.26562 139.109C9.13021 139.109 9.78125 138.948 10.2188 138.625C10.6667 138.292 10.8906 137.859 10.8906 137.328ZM28 142C27.7917 141.594 27.6406 141.089 27.5469 140.484C26.4531 141.703 25.0312 142.312 23.2812 142.312C21.625 142.312 20.25 141.833 19.1562 140.875C18.0729 139.917 17.5312 138.708 17.5312 137.25C17.5312 135.458 18.1927 134.083 19.5156 133.125C20.849 132.167 22.7708 131.682 25.2812 131.672H27.3594V130.703C27.3594 129.922 27.1562 129.297 26.75 128.828C26.3542 128.359 25.724 128.125 24.8594 128.125C24.099 128.125 23.5 128.307 23.0625 128.672C22.6354 129.036 22.4219 129.536 22.4219 130.172H17.9062C17.9062 129.193 18.2083 128.286 18.8125 127.453C19.4167 126.62 20.2708 125.969 21.375 125.5C22.4792 125.021 23.7188 124.781 25.0938 124.781C27.1771 124.781 28.8281 125.307 30.0469 126.359C31.276 127.401 31.8906 128.87 31.8906 130.766V138.094C31.901 139.698 32.125 140.911 32.5625 141.734V142H28ZM24.2656 138.859C24.9323 138.859 25.5469 138.714 26.1094 138.422C26.6719 138.12 27.0885 137.719 27.3594 137.219V134.312H25.6719C23.4115 134.312 22.2083 135.094 22.0625 136.656L22.0469 136.922C22.0469 137.484 22.2448 137.948 22.6406 138.312C23.0365 138.677 23.5781 138.859 24.2656 138.859ZM23.375 122.219L23.1406 120.125C23.901 120.083 24.4479 119.99 24.7812 119.844C25.125 119.688 25.2969 119.443 25.2969 119.109C25.2969 118.391 24.5573 118.031 23.0781 118.031L23.1875 115.922C25.1458 115.922 26.6198 116.193 27.6094 116.734C28.6094 117.276 29.1094 118.021 29.1094 118.969C29.1094 119.583 28.8958 120.089 28.4688 120.484C28.0417 120.87 27.474 121.115 26.7656 121.219V122.219H23.375ZM39.5156 125.094L39.6562 127.047C40.8646 125.536 42.4844 124.781 44.5156 124.781C46.3073 124.781 47.6406 125.307 48.5156 126.359C49.3906 127.411 49.8385 128.984 49.8594 131.078V142H45.3438V131.188C45.3438 130.229 45.1354 129.536 44.7188 129.109C44.3021 128.672 43.6094 128.453 42.6406 128.453C41.3698 128.453 40.4167 128.995 39.7812 130.078V142H35.2656V125.094H39.5156ZM76.4844 133.703C76.4844 136.307 75.8906 138.396 74.7031 139.969C73.526 141.531 71.9323 142.312 69.9219 142.312C68.2135 142.312 66.8333 141.719 65.7812 140.531V148.5H61.2656V125.094H65.4531L65.6094 126.75C66.7031 125.438 68.1302 124.781 69.8906 124.781C71.974 124.781 73.5938 125.552 74.75 127.094C75.9062 128.635 76.4844 130.76 76.4844 133.469V133.703ZM71.9688 133.375C71.9688 131.802 71.6875 130.589 71.125 129.734C70.5729 128.88 69.7656 128.453 68.7031 128.453C67.2865 128.453 66.3125 128.995 65.7812 130.078V137C66.3333 138.115 67.3177 138.672 68.7344 138.672C70.8906 138.672 71.9688 136.906 71.9688 133.375ZM83.7031 126.938C84.901 125.5 86.4062 124.781 88.2188 124.781C91.8854 124.781 93.7448 126.911 93.7969 131.172V142H89.2812V131.297C89.2812 130.328 89.0729 129.615 88.6562 129.156C88.2396 128.688 87.5469 128.453 86.5781 128.453C85.2552 128.453 84.2969 128.964 83.7031 129.984V142H79.1875V118H83.7031V126.938ZM107 142C106.792 141.594 106.641 141.089 106.547 140.484C105.453 141.703 104.031 142.312 102.281 142.312C100.625 142.312 99.25 141.833 98.1562 140.875C97.0729 139.917 96.5312 138.708 96.5312 137.25C96.5312 135.458 97.1927 134.083 98.5156 133.125C99.849 132.167 101.771 131.682 104.281 131.672H106.359V130.703C106.359 129.922 106.156 129.297 105.75 128.828C105.354 128.359 104.724 128.125 103.859 128.125C103.099 128.125 102.5 128.307 102.062 128.672C101.635 129.036 101.422 129.536 101.422 130.172H96.9062C96.9062 129.193 97.2083 128.286 97.8125 127.453C98.4167 126.62 99.2708 125.969 100.375 125.5C101.479 125.021 102.719 124.781 104.094 124.781C106.177 124.781 107.828 125.307 109.047 126.359C110.276 127.401 110.891 128.87 110.891 130.766V138.094C110.901 139.698 111.125 140.911 111.562 141.734V142H107ZM103.266 138.859C103.932 138.859 104.547 138.714 105.109 138.422C105.672 138.12 106.089 137.719 106.359 137.219V134.312H104.672C102.411 134.312 101.208 135.094 101.062 136.656L101.047 136.922C101.047 137.484 101.245 137.948 101.641 138.312C102.036 138.677 102.578 138.859 103.266 138.859ZM109.766 122.938H106.531L104.047 120.844L101.547 122.938H98.3125L102.688 119.344H105.406L109.766 122.938ZM108.312 120.953L108.109 119.172C108.755 119.141 109.219 119.062 109.5 118.938C109.792 118.802 109.938 118.599 109.938 118.328C109.938 117.703 109.307 117.391 108.047 117.391L108.141 115.625C109.651 115.625 110.786 115.854 111.547 116.312C112.307 116.76 112.688 117.385 112.688 118.188C112.688 118.688 112.51 119.115 112.156 119.469C111.812 119.812 111.333 120.021 110.719 120.094L110.703 120.953H108.312ZM118.594 125.094L118.734 126.984C119.932 125.516 121.552 124.781 123.594 124.781C125.771 124.781 127.266 125.641 128.078 127.359C129.266 125.641 130.958 124.781 133.156 124.781C134.99 124.781 136.354 125.318 137.25 126.391C138.146 127.453 138.594 129.057 138.594 131.203V142H134.062V131.219C134.062 130.26 133.875 129.562 133.5 129.125C133.125 128.677 132.464 128.453 131.516 128.453C130.161 128.453 129.224 129.099 128.703 130.391L128.719 142H124.203V131.234C124.203 130.255 124.01 129.547 123.625 129.109C123.24 128.672 122.583 128.453 121.656 128.453C120.375 128.453 119.448 128.984 118.875 130.047V142H114.359V125.094H118.594ZM157.078 138.672C157.911 138.672 158.589 138.443 159.109 137.984C159.63 137.526 159.901 136.917 159.922 136.156H164.156C164.146 137.302 163.833 138.354 163.219 139.312C162.604 140.26 161.76 141 160.688 141.531C159.625 142.052 158.448 142.312 157.156 142.312C154.74 142.312 152.833 141.547 151.438 140.016C150.042 138.474 149.344 136.349 149.344 133.641V133.344C149.344 130.74 150.036 128.661 151.422 127.109C152.807 125.557 154.708 124.781 157.125 124.781C159.24 124.781 160.932 125.385 162.203 126.594C163.484 127.792 164.135 129.391 164.156 131.391H159.922C159.901 130.516 159.63 129.807 159.109 129.266C158.589 128.714 157.901 128.438 157.047 128.438C155.995 128.438 155.198 128.823 154.656 129.594C154.125 130.354 153.859 131.594 153.859 133.312V133.781C153.859 135.521 154.125 136.771 154.656 137.531C155.188 138.292 155.995 138.672 157.078 138.672ZM166.031 133.391C166.031 131.714 166.354 130.219 167 128.906C167.646 127.594 168.573 126.578 169.781 125.859C171 125.141 172.411 124.781 174.016 124.781C176.297 124.781 178.156 125.479 179.594 126.875C181.042 128.271 181.849 130.167 182.016 132.562L182.047 133.719C182.047 136.312 181.323 138.396 179.875 139.969C178.427 141.531 176.484 142.312 174.047 142.312C171.609 142.312 169.661 141.531 168.203 139.969C166.755 138.406 166.031 136.281 166.031 133.594V133.391ZM170.547 133.719C170.547 135.323 170.849 136.552 171.453 137.406C172.057 138.25 172.922 138.672 174.047 138.672C175.141 138.672 175.995 138.255 176.609 137.422C177.224 136.578 177.531 135.234 177.531 133.391C177.531 131.818 177.224 130.599 176.609 129.734C175.995 128.87 175.13 128.438 174.016 128.438C172.911 128.438 172.057 128.87 171.453 129.734C170.849 130.589 170.547 131.917 170.547 133.719ZM180 122.375V122.562H176.406L174 120.297L171.594 122.562H168.062V122.312L172.688 118H175.312L180 122.375ZM188.984 125.094L189.125 127.047C190.333 125.536 191.953 124.781 193.984 124.781C195.776 124.781 197.109 125.307 197.984 126.359C198.859 127.411 199.307 128.984 199.328 131.078V142H194.812V131.188C194.812 130.229 194.604 129.536 194.188 129.109C193.771 128.672 193.078 128.453 192.109 128.453C190.839 128.453 189.885 128.995 189.25 130.078V142H184.734V125.094H188.984ZM202.109 133.422C202.109 130.828 202.724 128.74 203.953 127.156C205.193 125.573 206.859 124.781 208.953 124.781C210.807 124.781 212.25 125.417 213.281 126.688L213.469 125.094H217.562V141.438C217.562 142.917 217.224 144.203 216.547 145.297C215.88 146.391 214.938 147.224 213.719 147.797C212.5 148.37 211.073 148.656 209.438 148.656C208.198 148.656 206.99 148.406 205.812 147.906C204.635 147.417 203.745 146.781 203.141 146L205.141 143.25C206.266 144.51 207.63 145.141 209.234 145.141C210.432 145.141 211.365 144.818 212.031 144.172C212.698 143.536 213.031 142.63 213.031 141.453V140.547C211.99 141.724 210.62 142.312 208.922 142.312C206.891 142.312 205.245 141.521 203.984 139.938C202.734 138.344 202.109 136.234 202.109 133.609V133.422ZM206.625 133.75C206.625 135.281 206.932 136.484 207.547 137.359C208.161 138.224 209.005 138.656 210.078 138.656C211.453 138.656 212.438 138.141 213.031 137.109V130C212.427 128.969 211.453 128.453 210.109 128.453C209.026 128.453 208.172 128.896 207.547 129.781C206.932 130.667 206.625 131.99 206.625 133.75ZM233.172 125.094L233.312 127.047C234.521 125.536 236.141 124.781 238.172 124.781C239.964 124.781 241.297 125.307 242.172 126.359C243.047 127.411 243.495 128.984 243.516 131.078V142H239V131.188C239 130.229 238.792 129.536 238.375 129.109C237.958 128.672 237.266 128.453 236.297 128.453C235.026 128.453 234.073 128.995 233.438 130.078V142H228.922V125.094H233.172ZM246.297 133.422C246.297 130.828 246.911 128.74 248.141 127.156C249.38 125.573 251.047 124.781 253.141 124.781C254.995 124.781 256.438 125.417 257.469 126.688L257.656 125.094H261.75V141.438C261.75 142.917 261.411 144.203 260.734 145.297C260.068 146.391 259.125 147.224 257.906 147.797C256.688 148.37 255.26 148.656 253.625 148.656C252.385 148.656 251.177 148.406 250 147.906C248.823 147.417 247.932 146.781 247.328 146L249.328 143.25C250.453 144.51 251.818 145.141 253.422 145.141C254.62 145.141 255.552 144.818 256.219 144.172C256.885 143.536 257.219 142.63 257.219 141.453V140.547C256.177 141.724 254.807 142.312 253.109 142.312C251.078 142.312 249.432 141.521 248.172 139.938C246.922 138.344 246.297 136.234 246.297 133.609V133.422ZM250.812 133.75C250.812 135.281 251.12 136.484 251.734 137.359C252.349 138.224 253.193 138.656 254.266 138.656C255.641 138.656 256.625 138.141 257.219 137.109V130C256.615 128.969 255.641 128.453 254.297 128.453C253.214 128.453 252.359 128.896 251.734 129.781C251.12 130.667 250.812 131.99 250.812 133.75ZM269.641 126.938C270.839 125.5 272.344 124.781 274.156 124.781C277.823 124.781 279.682 126.911 279.734 131.172V142H275.219V131.297C275.219 130.328 275.01 129.615 274.594 129.156C274.177 128.688 273.484 128.453 272.516 128.453C271.193 128.453 270.234 128.964 269.641 129.984V142H265.125V118H269.641V126.938ZM290.922 142.312C288.443 142.312 286.422 141.552 284.859 140.031C283.307 138.51 282.531 136.484 282.531 133.953V133.516C282.531 131.818 282.859 130.302 283.516 128.969C284.172 127.625 285.099 126.594 286.297 125.875C287.505 125.146 288.88 124.781 290.422 124.781C292.734 124.781 294.552 125.51 295.875 126.969C297.208 128.427 297.875 130.495 297.875 133.172V135.016H287.109C287.255 136.12 287.693 137.005 288.422 137.672C289.161 138.339 290.094 138.672 291.219 138.672C292.958 138.672 294.318 138.042 295.297 136.781L297.516 139.266C296.839 140.224 295.922 140.974 294.766 141.516C293.609 142.047 292.328 142.312 290.922 142.312ZM290.406 128.438C289.51 128.438 288.781 128.74 288.219 129.344C287.667 129.948 287.312 130.812 287.156 131.938H293.438V131.578C293.417 130.578 293.146 129.807 292.625 129.266C292.104 128.714 291.365 128.438 290.406 128.438ZM295.906 122.375V122.562H292.312L289.906 120.297L287.5 122.562H283.969V122.312L288.594 118H291.219L295.906 122.375ZM287.766 145.656C287.766 145.031 288 144.516 288.469 144.109C288.938 143.703 289.542 143.5 290.281 143.5C291.031 143.5 291.641 143.703 292.109 144.109C292.578 144.516 292.812 145.031 292.812 145.656C292.812 146.271 292.578 146.786 292.109 147.203C291.651 147.62 291.042 147.828 290.281 147.828C289.521 147.828 288.911 147.62 288.453 147.203C287.995 146.786 287.766 146.271 287.766 145.656Z" fill="black"/>
</svg>
