<svg width="562" height="221" viewBox="0 0 562 221" fill="none" xmlns="http://www.w3.org/2000/svg">
<path d="M220.95 106.521C221.545 105.878 222.1 105.2 222.61 104.488C223.12 103.777 223.675 103.098 224.27 102.455C229.89 95.7967 235.467 89.2045 241 82.6784C246.533 76.1524 252.06 69.5668 257.58 62.9218C265.633 53.3541 273.65 43.8759 281.63 34.4868C289.61 25.0977 297.373 15.5102 304.92 5.72442C305.42 5.11853 306.136 4.72755 306.92 4.63334C307.82 2.34557 307.317 0.851234 305.41 0.150359C305.051 -0.00622683 304.65 -0.041757 304.269 0.0496283C303.888 0.141014 303.547 0.354024 303.3 0.655947L300.58 3.63136C293.653 11.7179 286.72 19.7681 279.78 27.7819C272.84 35.7957 265.903 43.8954 258.97 52.0812C258.215 52.9858 257.144 53.5741 255.97 53.7277C250.837 54.1443 245.81 54.6004 240.89 55.0963C235.97 55.5922 230.947 56.0452 225.82 56.4552C225.516 56.5136 225.203 56.493 224.91 56.3956C225.057 56.2469 225.185 56.0802 225.29 55.8997C225.349 55.7854 225.427 55.6814 225.52 55.5922C229.23 51.4365 232.95 47.2117 236.67 42.9568C240.39 38.702 244.16 34.4769 247.98 30.3113C248.119 30.1595 248.246 29.9968 248.36 29.8251C248.447 29.6761 248.575 29.5554 248.73 29.4779C249.94 28.6646 250.24 27.782 249.64 26.8497C249.282 26.3529 248.877 25.8911 248.43 25.4709C247.63 24.856 246.77 24.9953 245.86 25.8879C245.16 26.4532 244.48 27.0484 243.86 27.6633C243.24 28.2782 242.58 28.9129 241.97 29.5675L217.55 56.2469C216.716 56.9391 215.74 57.4431 214.69 57.7245C206.023 58.789 197.43 59.9527 188.91 61.2156C180.39 62.4785 171.797 63.9861 163.13 65.7383C162.835 65.7654 162.549 65.8511 162.287 65.9897C162.026 66.1282 161.796 66.3169 161.609 66.5451C161.423 66.7734 161.285 67.0364 161.202 67.3185C161.12 67.6007 161.095 67.8966 161.13 68.1883C161.199 68.8733 161.378 69.5429 161.66 70.1719C161.9 70.6976 162.54 70.9057 163.54 70.7966L166.03 70.5487C166.867 70.468 167.699 70.3356 168.52 70.1521L188.52 67.2362C195.16 66.2444 201.84 65.3518 208.58 64.4889C209.081 64.4295 209.588 64.4295 210.09 64.4889C204.757 70.7108 199.477 76.9724 194.25 83.2736C189.023 89.5749 184.05 96.1043 179.33 102.862C179.087 103.129 178.941 103.469 178.914 103.828C178.886 104.187 178.98 104.545 179.18 104.845C179.434 105.301 179.804 105.684 180.253 105.953C180.702 106.223 181.215 106.371 181.74 106.382C182.065 106.435 182.398 106.411 182.713 106.313C183.027 106.215 183.314 106.045 183.55 105.817C183.824 105.658 184.056 105.438 184.23 105.175C184.403 104.912 184.513 104.612 184.55 104.3C184.527 103.893 184.636 103.49 184.86 103.149C185.06 102.882 185.26 102.633 185.46 102.415C186.87 100.769 188.22 99.1821 189.53 97.5952C190.84 96.0083 192.19 94.4117 193.6 92.7752C197.6 88.0873 201.6 83.4257 205.6 78.7906C209.6 74.1556 213.543 69.4476 217.43 64.6671C218.159 63.8242 219.186 63.2915 220.3 63.1794L251.5 59.5991L252.56 59.4998C252.071 60.0081 251.616 60.5485 251.2 61.1168C249.2 63.5269 247.2 65.9172 245.2 68.3074C243.2 70.6977 241.2 73.1078 239.2 75.498C235.487 79.9612 231.82 84.4141 228.2 88.8574C224.58 93.3007 221.163 97.9291 217.95 102.743C217.723 103.092 217.469 103.424 217.19 103.734C216.881 104.066 216.628 104.444 216.44 104.855C216.249 105.234 216.146 105.651 216.14 106.075C216.226 106.351 216.372 106.605 216.567 106.819C216.762 107.033 217.002 107.202 217.27 107.315C217.784 107.541 218.312 107.736 218.85 107.9C219.6 107.91 220.31 107.484 220.95 106.521Z" fill="#D0A452"/>
<path d="M297.8 46.1696C298.164 45.7559 298.634 45.4476 299.16 45.2771C299.425 45.1582 299.642 44.9553 299.778 44.7003C299.914 44.4454 299.96 44.1529 299.91 43.8688C299.764 43.3951 299.507 42.9626 299.159 42.6073C298.811 42.252 298.383 41.984 297.91 41.8257C297.68 41.6208 297.429 41.4412 297.16 41.2901L296.25 40.7845C295.866 40.4942 295.404 40.3223 294.922 40.2905C294.44 40.2588 293.959 40.3684 293.54 40.6058C290.829 41.9739 288.21 43.5143 285.7 45.2176C282.736 47.1941 279.916 49.3749 277.26 51.7437C274.643 54.0562 272.267 56.6248 270.17 59.4102C268.369 61.6536 267.129 64.2874 266.55 67.0967C266.533 67.4931 266.587 67.8895 266.71 68.2672C266.858 69.0248 267.188 69.7356 267.672 70.3399C268.156 70.9442 268.779 71.4241 269.49 71.7385C270.238 72.0649 271.047 72.2334 271.865 72.2334C272.683 72.2334 273.491 72.0649 274.24 71.7385C276.263 70.8275 278.142 69.6316 279.82 68.1878C281.757 66.5704 283.594 64.8382 285.32 63.0007C287.06 61.1582 288.696 59.2211 290.22 57.1986C291.727 55.215 292.983 53.4196 293.99 51.8129C294.59 50.8211 295.2 49.9287 295.8 49.0162C296.4 48.1038 297.09 47.1416 297.8 46.1696ZM287.17 53.658C285.441 55.8993 283.578 58.0353 281.59 60.0548C279.777 61.9211 277.839 63.6643 275.79 65.2719C274.353 66.4855 272.724 67.457 270.97 68.148C271.596 66.0637 272.648 64.1294 274.06 62.4651C275.69 60.4279 277.479 58.5211 279.41 56.7622C281.41 54.9175 283.47 53.1915 285.59 51.5848C287.7 49.9682 289.59 48.6095 291.17 47.4292C290.058 49.6373 288.717 51.7249 287.17 53.658Z" fill="#D0A452"/>
<path d="M343.32 54.8286C340.513 56.5543 337.727 58.1083 334.96 59.4902C332.855 60.587 330.661 61.5061 328.4 62.2376C327.712 62.5039 327.007 62.7258 326.29 62.902C325.549 63.0751 324.78 63.0985 324.03 62.9712C324.219 61.7128 324.472 60.4648 324.79 59.2321C325.09 58.0618 325.44 56.8519 325.84 55.6121C325.99 55.168 326.027 54.6942 325.948 54.2324C325.87 53.7707 325.678 53.3351 325.39 52.9641C323.98 51.1194 322.07 50.7526 319.66 51.9031C319.466 52.011 319.266 52.1071 319.06 52.1907C318.847 52.2604 318.642 52.3533 318.45 52.4682L310.99 56.5047C308.52 57.8634 305.99 59.2024 303.52 60.5513C303.33 60.664 303.129 60.7573 302.92 60.8293C302.649 60.944 302.396 61.0977 302.17 61.2855C304.99 57.8415 308.29 54.8123 311.97 52.2895C315.573 49.7328 319.47 47.6122 323.58 45.9721C324.08 45.8266 324.53 45.7073 324.93 45.6147C325.383 45.5297 325.85 45.557 326.29 45.6941C326.29 46.309 326.29 46.9044 326.21 47.4995C326.13 48.0946 326.09 48.7591 325.99 49.4831C325.795 50.1735 325.874 50.9112 326.211 51.5457C326.548 52.1801 327.116 52.663 327.8 52.8949C328.5 53.2122 329.01 52.9643 329.31 52.1311C329.61 51.298 329.68 50.6829 329.83 49.9093C329.98 49.1357 330.11 48.3619 330.21 47.5586C330.244 46.6868 330.046 45.8219 329.635 45.0505C329.224 44.2791 328.615 43.6287 327.87 43.1652C326.444 42.1625 324.727 41.6502 322.98 41.7071C320.217 42.0796 317.554 42.9826 315.14 44.3653C312.133 45.9604 309.278 47.8225 306.61 49.9291C303.914 52.0365 301.396 54.3584 299.08 56.8717C297.135 58.8803 295.531 61.1881 294.33 63.7054C294.143 64.2369 294.092 64.8057 294.18 65.3616C294.334 65.8486 294.592 66.2966 294.938 66.675C295.283 67.0534 295.707 67.3532 296.18 67.5535C296.684 67.7948 297.232 67.9308 297.791 67.953C298.351 67.9752 298.908 67.883 299.43 67.6823C299.93 67.4244 300.43 67.2063 300.78 67.0179L302.14 66.3631C304.947 64.8754 307.71 63.401 310.43 61.9397C313.15 60.4785 315.917 59.004 318.73 57.5163C318.922 57.29 319.181 57.1303 319.47 57.0601C319.844 56.9517 320.201 56.7915 320.53 56.5841C320.43 57.0899 320.36 57.4965 320.31 57.804C320.26 58.1114 320.18 58.4686 320.08 58.8752C319.58 61.1167 319.933 62.8258 321.14 64.0027C321.88 64.8736 322.806 65.5714 323.85 66.0459C324.998 66.5085 326.259 66.6189 327.47 66.3631C329.981 65.9607 332.403 65.1322 334.63 63.9136C337.525 62.4591 340.342 60.857 343.07 59.1135C343.59 58.7862 344.07 58.449 344.58 58.1217L343.75 59.1924C343.531 59.3997 343.362 59.6539 343.257 59.9353C343.151 60.2167 343.111 60.5182 343.14 60.8172C343.169 61.1161 343.266 61.4044 343.423 61.6608C343.581 61.9171 343.795 62.1349 344.05 62.2971C345.16 63.4774 346.26 63.6656 347.37 62.8623C347.77 62.6143 348.12 62.4161 348.37 62.2376C348.62 62.059 348.97 61.8506 349.27 61.6225C352.89 58.9546 356.71 56.3164 360.73 53.6881C364.75 51.0598 368.73 48.6796 372.64 46.577C372.44 47.4993 372.22 48.3424 371.97 49.116C371.72 49.8896 371.49 50.683 371.28 51.4963C370.94 52.6122 370.978 53.8077 371.388 54.9003C371.798 55.9928 372.557 56.9223 373.55 57.5463C373.909 57.8868 374.335 58.1506 374.801 58.3212C375.267 58.4918 375.764 58.5656 376.26 58.5381C377.278 58.4789 378.285 58.299 379.26 58.0025C380.974 57.4292 382.645 56.7367 384.26 55.9298C386.26 54.9876 388.2 53.9461 390.26 52.7956C391.18 52.2699 392.09 51.7345 392.98 51.1989C392.945 51.5174 392.997 51.8394 393.13 52.1311C393.236 52.576 393.43 52.9951 393.702 53.3646C393.973 53.7341 394.316 54.0466 394.71 54.2833C395.112 54.5606 395.567 54.7521 396.047 54.846C396.528 54.9399 397.022 54.9339 397.5 54.8286C398.31 54.6501 399.06 54.4817 399.76 54.3031C400.478 54.1315 401.184 53.9095 401.87 53.6387C404.18 52.8056 406.45 51.9822 408.65 51.1689L415.29 48.7092C415.595 48.6819 415.896 48.6255 416.19 48.5407C416.588 48.444 416.992 48.3775 417.4 48.3422C417 49.5918 416.62 50.7426 416.27 51.8236C415.853 52.979 415.02 53.9399 413.93 54.5211C410.01 57.1196 406.07 59.6486 402.1 62.148C398.13 64.6473 394.23 67.1666 390.42 69.7453C388.813 70.8032 387.053 72.0496 385.14 73.4844C383.23 74.9325 381.37 76.4105 379.56 77.9379C377.75 79.4652 376.02 81.0818 374.36 82.7976C372.819 84.3551 371.382 86.0117 370.06 87.7566C369.668 88.2286 369.479 88.8351 369.535 89.4443C369.591 90.0535 369.888 90.6159 370.36 91.0095C371.47 92.4972 373.07 92.8842 375.18 92.18C379.207 90.8013 383.036 88.9073 386.57 86.5464C390.951 83.7422 395.156 80.6754 399.16 77.3625C403.134 74.0979 406.907 70.6004 410.46 66.889C413.314 64.0045 415.892 60.8636 418.16 57.5066C418.77 56.7544 419.48 56.0872 420.27 55.523C423.404 53.0959 426.673 50.844 430.06 48.7785C433.98 46.3387 437.5 43.9653 440.62 41.6577C441.342 41.1973 441.917 40.5441 442.28 39.7733C442.37 39.1511 442.316 38.5165 442.12 37.9185C442.03 37.8293 441.5 38.077 440.54 38.6721C439.58 39.2672 438.76 39.7531 438.06 40.1201C435.44 41.7764 432.78 43.3735 430.06 44.881C427.34 46.3886 424.68 47.9456 422.06 49.4928C421.892 49.6029 421.714 49.6991 421.53 49.7805C421.349 49.8599 421.172 49.9493 421 50.0483C420.901 49.8727 420.849 49.6744 420.85 49.4729C420.744 48.6498 420.459 47.8593 420.015 47.1557C419.571 46.452 418.98 45.8522 418.28 45.3968C417.513 45.0048 416.67 44.7792 415.808 44.7348C414.946 44.6903 414.084 44.8277 413.28 45.1387C412.48 45.4263 411.67 45.6842 410.87 45.9024C410.07 46.1206 409.26 46.3985 408.46 46.6762L404.84 47.9358C403.63 48.3623 402.32 48.8381 400.92 49.3737C402.167 48.0421 403.559 46.8512 405.07 45.8229C406.745 44.6405 408.481 43.5452 410.27 42.5405C412.08 41.4991 413.88 40.5566 415.69 39.7433C417.309 38.9881 418.98 38.3488 420.69 37.8294C421.231 37.5727 421.838 37.4862 422.43 37.5815C422.752 37.6674 423.049 37.8269 423.297 38.0474C423.546 38.2679 423.739 38.543 423.86 38.8508C424.108 39.1771 424.417 39.453 424.77 39.6639C425.17 39.7363 425.58 39.7363 425.98 39.6639C426 39.0186 425.946 38.3732 425.82 37.7398C425.326 36.4005 424.433 35.2416 423.26 34.4172C422.555 33.9629 421.76 33.6636 420.929 33.5387C420.098 33.4139 419.249 33.4663 418.44 33.6932C416.209 34.1256 414.05 34.8703 412.03 35.9049C409.503 37.1414 407.058 38.536 404.71 40.0804C402.592 41.4764 400.552 42.9863 398.6 44.603C397.4 45.3304 396.097 46.0543 394.69 46.775C392.63 47.8263 390.49 48.8579 388.28 49.8894C386.07 50.9209 383.81 51.8731 381.5 52.736C379.19 53.5989 376.97 54.3526 374.86 54.9676C374.945 54.5957 374.998 54.2174 375.02 53.8368C375.026 53.5506 375.074 53.2667 375.16 52.9936C375.47 52.1705 375.74 51.3672 375.99 50.5936C376.24 49.82 376.52 49.0266 376.83 48.1935C376.93 47.7868 377.02 47.3805 377.13 46.9639C377.24 46.5473 377.32 46.1407 377.43 45.744C377.551 45.1038 377.479 44.442 377.223 43.8422C376.967 43.2425 376.538 42.7309 375.99 42.3715C375.444 41.9663 374.793 41.7234 374.114 41.6707C373.434 41.6181 372.753 41.758 372.15 42.0741C371.65 42.332 371.15 42.6098 370.57 42.9173C369.99 43.2247 369.48 43.5025 368.99 43.7405C367.177 44.9175 365.367 46.0746 363.56 47.2118C361.75 48.3425 359.94 49.4331 358.13 50.5141C357.929 50.6281 357.75 50.7762 357.6 50.951C357.45 51.1096 357.23 51.1096 356.93 50.951C358.73 48.8682 360.537 46.7917 362.35 44.7222C364.16 42.6493 365.92 40.517 367.63 38.3549C368.33 37.492 368.33 36.7479 367.63 36.1132C367.32 35.5387 366.847 35.0669 366.27 34.7548C366.077 34.6299 365.86 34.5445 365.633 34.5044C365.406 34.4642 365.173 34.47 364.948 34.5208C364.724 34.5717 364.511 34.6669 364.324 34.8008C364.137 34.9346 363.98 35.1044 363.86 35.3001C363.377 35.8208 362.923 36.367 362.5 36.9364C362.078 37.5006 361.627 38.0436 361.15 38.5631C359.34 40.7451 357.47 42.8677 355.56 44.9604C354.46 46.1572 353.38 47.3771 352.32 48.6201L350.9 49.6812C348.66 51.3937 346.133 53.1095 343.32 54.8286ZM400.47 69.9536C397.95 72.2016 395.183 74.496 392.17 76.8366C389.157 79.1773 386.193 81.3461 383.28 83.3429C381.246 84.8524 379.016 86.0834 376.65 87.0026C377.477 86.016 378.384 85.0973 379.36 84.2553C380.66 83.0849 382.2 81.7559 383.96 80.2881C385.72 78.8202 387.6 77.3131 389.61 75.7659C391.62 74.2187 393.61 72.7903 395.61 71.3522C397.61 69.914 399.4 68.7042 401.11 67.5835C402.454 66.6675 403.864 65.8515 405.33 65.1432C403.855 66.8846 402.229 68.4943 400.47 69.9536Z" fill="#D0A452"/>
<path d="M143.35 69.08C143.845 68.3381 144.299 67.5702 144.71 66.7792C145.11 65.9759 145.51 65.1723 145.91 64.3293C146.623 62.868 146.29 61.5094 144.91 60.2531C144.605 59.917 144.234 59.6457 143.819 59.4565C143.405 59.2672 142.956 59.164 142.5 59.1523C141.914 59.2577 141.352 59.4655 140.84 59.7669C140.1 60.1538 139.394 60.6018 138.73 61.1059C138.02 61.6217 137.34 62.0975 136.73 62.643C136.223 63.0309 135.745 63.4555 135.3 63.9128C123.44 74.3663 111.907 85.1205 100.7 96.1758C89.4933 107.231 78.5133 118.574 67.76 130.204C62.9333 135.494 58.1333 140.784 53.36 146.073C48.5867 151.363 43.7866 156.652 38.96 161.942C38.76 162.16 38.56 162.408 38.36 162.666C38.16 162.924 37.95 163.182 37.76 163.4C37.65 163.4 37.6 163.4 37.6 163.341C37.6 163.281 37.6 163.271 37.46 163.281C37.6021 162.789 37.8035 162.317 38.0599 161.873C41.2733 155.479 44.4633 149.128 47.63 142.82C50.7967 136.512 53.9399 130.115 57.0599 123.629C57.3562 123.102 57.6071 122.551 57.8099 121.982C58.0099 121.417 58.2099 120.872 58.4099 120.356C58.5734 119.891 58.6178 119.393 58.5393 118.906C58.4608 118.42 58.2617 117.96 57.96 117.569C56.45 116.22 55.0899 115.585 53.8899 115.734C53.1245 115.853 52.4001 116.157 51.7799 116.617C50.9699 117.143 50.12 117.758 49.22 118.442C48.32 119.126 47.48 119.811 46.73 120.485C45.98 121.159 45.4 121.665 44.99 122.002C37.0212 129.522 29.4733 137.468 22.38 145.805C15.4533 153.978 8.51996 162.352 1.57996 170.928C1.10634 171.401 0.788966 172.007 0.669922 172.663C0.669922 173.06 1.07 173.516 1.88 174.032L2.47998 174.27C2.67998 174.363 2.87996 174.442 3.07996 174.508C3.50732 174.715 3.9927 174.773 4.4574 174.673C4.92209 174.572 5.33878 174.318 5.63989 173.953C6.34989 173.09 7.05 172.296 7.75 171.572C8.49536 170.817 9.19967 170.022 9.85999 169.192C16.2 161.582 22.6866 154.176 29.3199 146.976C35.9533 139.775 42.7366 132.592 49.6699 125.424C49.8948 125.219 50.1472 125.045 50.4199 124.908C49.6199 126.892 48.76 128.786 47.86 130.611C46.96 132.436 46.0499 134.261 45.1399 136.046C42.8332 140.966 40.4733 145.815 38.0599 150.596C35.6466 155.376 33.2333 160.177 30.8199 164.997C30.059 166.438 29.4331 167.945 28.95 169.5C28.5652 170.248 28.4865 171.115 28.73 171.92C29.1316 172.657 29.7301 173.272 30.46 173.695C31.1284 174.136 31.917 174.365 32.72 174.35C33.5796 174.248 34.3776 173.855 34.98 173.239C35.7505 172.584 36.4817 171.885 37.1699 171.146C37.8199 170.432 38.55 169.688 39.35 168.904C41.5633 166.491 43.7499 164.078 45.9099 161.664C48.0699 159.251 50.2566 156.792 52.47 154.286C61.41 144.407 70.38 134.684 79.38 125.117C88.38 115.549 97.6533 106.147 107.2 96.9099C111.72 92.5526 116.167 88.3176 120.54 84.2049C124.913 80.0923 129.36 75.9067 133.88 71.6486C134.31 71.3517 134.715 71.02 135.09 70.6568C134.919 71.2161 134.667 71.7478 134.34 72.2341L99.96 120.098C88.6266 135.887 77.2933 151.604 65.96 167.248C54.6266 182.892 43.04 198.43 31.2 213.863C30.9212 214.359 30.5856 214.822 30.2 215.241C29.8151 215.655 29.4795 216.111 29.2 216.6C28.8667 216.973 28.6542 217.436 28.59 217.929C28.6418 218.394 28.8579 218.827 29.2 219.149C29.5 219.407 29.82 219.704 30.2 220.022C30.57 220.341 31.0073 220.575 31.48 220.706C31.8652 220.942 32.3238 221.03 32.7699 220.954C33.2744 220.76 33.7167 220.435 34.0499 220.012L37.37 216.382C37.6049 216.179 37.7635 215.902 37.8199 215.598C37.8122 215.117 37.971 214.648 38.2699 214.27C38.5699 213.893 38.8699 213.496 39.1799 213.059C57.6733 189.772 75.4867 166.028 92.62 141.829C109.753 117.629 126.663 93.3791 143.35 69.08Z" fill="#D0A452"/>
<path d="M167.47 132.218C167.789 132.036 168.093 131.83 168.38 131.603C170.09 130.046 171.74 128.548 173.38 127.15C175.02 125.751 176.65 124.303 178.38 122.826C178.17 120.961 177.27 120.108 175.67 120.267C174.998 120.321 174.362 120.593 173.86 121.041C173.524 121.226 173.217 121.46 172.95 121.735L169.03 125.414C167.73 126.654 166.41 127.874 165.11 129.104C164.962 129.171 164.839 129.283 164.758 129.424C164.677 129.564 164.643 129.726 164.66 129.887C164.724 130.391 164.932 130.866 165.26 131.256C165.613 131.605 166.022 131.893 166.47 132.108C166.609 132.219 166.777 132.288 166.954 132.307C167.131 132.326 167.31 132.295 167.47 132.218Z" fill="#D0A452"/>
<path d="M181.19 141.463C180.761 141.757 180.359 142.089 179.99 142.455C175.004 146.615 169.507 150.13 163.63 152.918C157.878 155.66 151.843 157.771 145.63 159.217C145.997 157.852 146.585 156.556 147.37 155.378C148.22 154.039 149.18 152.701 150.23 151.352C151.28 150.003 152.37 148.743 153.47 147.583C154.57 146.422 155.58 145.45 156.47 144.667C156.87 144.32 157.27 144.012 157.67 143.675C157.868 143.538 158.102 143.461 158.343 143.452C158.584 143.443 158.822 143.504 159.03 143.625C159.463 142.927 159.698 142.124 159.71 141.304C159.564 140.538 159.167 139.84 158.58 139.321C157.67 138.329 156.58 138.329 155.41 139.182C154.24 140.035 152.9 141.165 151.49 142.504C150.069 143.797 148.733 145.178 147.49 146.641C147.14 147.047 146.81 147.454 146.49 147.87L145.92 148.297C143.613 149.976 141.05 151.675 138.23 153.395C135.42 155.13 132.62 156.688 129.86 158.056C127.757 159.16 125.562 160.082 123.3 160.814C122.61 161.074 121.906 161.292 121.19 161.468C120.449 161.641 119.68 161.665 118.93 161.538C119.119 160.279 119.372 159.031 119.69 157.799C119.99 156.628 120.34 155.428 120.69 154.178C120.84 153.736 120.877 153.263 120.798 152.803C120.72 152.343 120.528 151.909 120.24 151.54C118.83 149.695 116.92 149.328 114.51 150.469C114.319 150.583 114.118 150.679 113.91 150.757C113.697 150.83 113.492 150.927 113.3 151.044C110.79 152.383 108.3 153.732 105.84 155.071C103.38 156.41 100.84 157.778 98.37 159.117C98.1813 159.235 97.98 159.332 97.7699 159.405C97.5007 159.52 97.2484 159.67 97.0199 159.852C99.8378 156.408 103.138 153.382 106.82 150.866C110.424 148.308 114.321 146.184 118.43 144.538C118.93 144.392 119.38 144.274 119.78 144.181C120.233 144.094 120.702 144.125 121.14 144.27C121.14 144.875 121.14 145.47 121.07 146.075C121 146.68 120.94 147.325 120.84 148.059C120.648 148.748 120.729 149.483 121.065 150.115C121.401 150.748 121.968 151.229 122.65 151.461C123.35 151.778 123.86 151.54 124.16 150.707C124.46 149.874 124.53 149.249 124.69 148.485C124.85 147.722 124.96 146.938 125.06 146.135C125.096 145.261 124.898 144.394 124.487 143.621C124.076 142.847 123.467 142.195 122.72 141.731C121.292 140.733 119.576 140.222 117.83 140.273C115.068 140.654 112.406 141.56 109.99 142.941C106.98 144.527 104.128 146.39 101.47 148.505C98.7661 150.607 96.2439 152.929 93.9299 155.448C91.9858 157.453 90.3817 159.758 89.1799 162.272C88.9933 162.803 88.9418 163.372 89.0299 163.928C89.1848 164.415 89.4436 164.865 89.7887 165.245C90.1337 165.624 90.557 165.926 91.0299 166.13C91.5344 166.37 92.0833 166.504 92.6424 166.525C93.2015 166.545 93.7589 166.451 94.2799 166.249C94.7799 165.991 95.23 165.773 95.63 165.594L96.9899 164.93C99.8033 163.442 102.567 161.968 105.28 160.506C107.993 159.045 110.76 157.571 113.58 156.083C113.777 155.861 114.039 155.704 114.33 155.636C114.684 155.521 115.021 155.358 115.33 155.15C115.23 155.656 115.16 156.073 115.11 156.38C115.06 156.688 114.98 157.035 114.88 157.451C114.38 159.686 114.733 161.392 115.94 162.569C116.678 163.442 117.604 164.141 118.65 164.612C119.797 165.075 121.058 165.186 122.27 164.93C124.783 164.538 127.207 163.709 129.43 162.48C132.327 161.029 135.144 159.427 137.87 157.68C139.34 156.737 140.73 155.795 142.06 154.853C141.94 155.17 141.82 155.488 141.71 155.795C141.409 156.623 141.328 157.514 141.473 158.382C141.618 159.25 141.986 160.067 142.54 160.754C143.063 161.462 143.761 162.024 144.567 162.387C145.372 162.75 146.258 162.902 147.14 162.827C149.817 162.53 152.449 161.918 154.98 161.002C157.852 159.995 160.649 158.789 163.35 157.392C165.998 156.038 168.565 154.534 171.04 152.889C173.044 151.583 174.934 150.113 176.69 148.495C177.19 147.959 177.8 147.325 178.5 146.601C179.2 145.877 179.86 145.173 180.5 144.458C181.015 143.867 181.492 143.244 181.93 142.594C182.29 142.068 182.41 141.761 182.31 141.662C181.95 141.374 181.49 141.275 181.19 141.463Z" fill="#D0A452"/>
<path d="M288.95 151.788C288.638 151.62 288.3 151.506 287.95 151.45C287.804 151.411 287.65 151.412 287.504 151.453C287.358 151.493 287.225 151.57 287.12 151.678C287.025 151.78 286.955 151.901 286.915 152.034C286.876 152.166 286.867 152.306 286.89 152.442C286.945 152.786 286.971 153.135 286.97 153.484C278.674 158.635 270.038 163.228 261.12 167.23C252.344 171.187 243.236 174.376 233.9 176.761C232.657 177.075 231.399 177.327 230.13 177.515C228.884 177.681 227.625 177.73 226.37 177.664C225.76 177.664 225.37 177.545 225.31 177.396C225.121 177.053 224.97 176.691 224.86 176.315C224.781 174.729 224.984 173.141 225.46 171.624C226.76 167.419 229.5 162.608 233.68 157.193C238.34 151.241 243.376 145.589 248.76 140.272C254.633 134.401 261.04 128.526 267.98 122.648C274.92 116.77 281.753 111.325 288.48 106.313C295.213 101.295 301.547 96.9436 307.48 93.2607C312.134 90.2359 317.022 87.5827 322.1 85.3262L322.4 85.5843C321.919 85.9447 321.467 86.3424 321.05 86.7742C320.14 87.6669 319.24 88.6094 318.33 89.5913C317.426 90.585 316.468 91.5283 315.46 92.4176C311.65 95.8889 307.87 99.3606 304.16 102.753C300.45 106.145 296.67 109.566 292.85 112.928C289.937 115.619 287.023 118.331 284.11 121.061C281.197 123.792 278.433 126.635 275.82 129.591C275.3 130.157 274.819 130.756 274.38 131.386C273.93 132.031 273.45 132.675 272.95 133.369C272.603 133.767 272.425 134.283 272.452 134.808C272.48 135.333 272.713 135.827 273.1 136.187L274.46 137.396C274.894 137.599 275.375 137.681 275.852 137.634C276.33 137.587 276.785 137.412 277.17 137.128C277.174 136.852 277.15 136.577 277.1 136.305C277.04 136.067 276.97 135.75 276.87 135.313C279.18 133.102 281.44 130.9 283.66 128.738C285.88 126.576 288.13 124.424 290.44 122.301C294.26 118.731 298.153 115.223 302.12 111.778C306.087 108.333 310.033 104.822 313.96 101.245C316.467 98.9904 318.977 96.6761 321.49 94.3024C323.991 91.9268 326.31 89.3709 328.43 86.6556C329.067 85.7549 329.383 84.6694 329.33 83.5707C329.246 82.8635 329.007 82.1833 328.631 81.5769C328.254 80.9705 327.749 80.4526 327.15 80.0597C326.559 79.6349 325.881 79.3439 325.164 79.2068C324.447 79.0698 323.708 79.0901 323 79.2664C318.88 80.2847 313.547 82.6912 307 86.4866C299.79 90.7257 292.797 95.3206 286.05 100.253C278.61 105.642 271.07 111.556 263.43 117.996C255.79 124.437 248.79 130.874 242.43 137.307C236.688 143.033 231.343 149.136 226.43 155.576C222.103 161.349 219.54 166.268 218.74 170.334C217.927 174.5 219.08 177.674 222.2 179.856C223.792 181.024 225.663 181.763 227.63 181.998C228.896 182.255 230.19 182.351 231.48 182.286C232.776 182.201 234.061 181.998 235.32 181.68C239.87 180.75 244.335 179.45 248.67 177.793C253.337 176.027 258.003 174.014 262.67 171.753C267.337 169.491 271.913 167.137 276.4 164.691C280.86 162.244 284.953 159.93 288.68 157.748C289.074 157.512 289.451 157.251 289.81 156.965L290.94 156.023C291.282 155.76 291.505 155.373 291.561 154.948C291.618 154.523 291.502 154.093 291.24 153.751C291.024 153.28 290.707 152.859 290.312 152.52C289.917 152.181 289.452 151.932 288.95 151.788Z" fill="#D0A452"/>
<path d="M560.95 151.557C560.782 151.206 560.528 150.901 560.213 150.671C559.897 150.441 559.528 150.292 559.14 150.238C556.354 149.703 553.527 149.408 550.69 149.355C547.77 149.355 544.91 149.176 542.1 148.958C530.04 148.475 518.003 148.36 505.99 148.611C493.977 148.862 481.89 149.193 469.73 149.603C471.063 147.778 472.347 145.88 473.58 143.91C474.849 141.916 476.004 139.853 477.04 137.731C478.07 135.647 478.93 133.485 479.61 131.265C480.263 129.146 480.6 126.944 480.61 124.728C480.62 123.019 480.258 121.328 479.55 119.769C478.861 118.303 478.503 116.706 478.5 115.088C478.493 114.416 478.595 113.746 478.8 113.105C479.009 112.417 479.11 111.701 479.1 110.982C479.149 109.25 478.648 107.547 477.67 106.112C476.71 104.757 475.177 104.188 473.07 104.407C470.82 104.838 468.658 105.636 466.67 106.767C463.683 108.266 460.809 109.977 458.07 111.885C455.486 113.658 453.039 115.621 450.75 117.756C449.75 118.322 448.75 118.877 447.67 119.442C445.61 120.493 443.47 121.525 441.26 122.556C439.05 123.588 436.78 124.54 434.47 125.403C432.16 126.266 429.95 127.02 427.84 127.634C427.923 127.263 427.973 126.884 427.99 126.504C427.995 126.217 428.046 125.932 428.14 125.661C428.44 124.837 428.72 124.034 428.97 123.26C429.22 122.487 429.5 121.693 429.8 120.86L430.1 119.631C430.2 119.224 430.3 118.808 430.4 118.411C430.524 117.772 430.455 117.11 430.201 116.51C429.946 115.909 429.518 115.397 428.97 115.038C428.424 114.634 427.773 114.392 427.093 114.34C426.414 114.287 425.733 114.426 425.13 114.741C424.63 114.999 424.13 115.267 423.55 115.584C422.97 115.902 422.46 116.169 421.96 116.407C420.153 117.584 418.343 118.741 416.53 119.879C414.72 121.009 412.91 122.1 411.11 123.181C410.908 123.293 410.728 123.441 410.58 123.618C410.43 123.777 410.2 123.777 409.9 123.618L415.33 117.389C417.143 115.306 418.9 113.184 420.6 111.022C421.31 110.159 421.31 109.415 420.6 108.78C420.293 108.206 419.824 107.734 419.25 107.422C419.056 107.297 418.839 107.211 418.611 107.171C418.383 107.131 418.149 107.136 417.924 107.187C417.698 107.238 417.485 107.333 417.297 107.467C417.109 107.601 416.95 107.771 416.83 107.967C416.35 108.488 415.9 109.034 415.48 109.603C415.07 110.139 414.63 110.685 414.12 111.23C412.31 113.412 410.45 115.535 408.54 117.627C407.37 118.897 406.23 120.196 405.1 121.505C405 121.584 404.87 121.664 404.77 121.733C400.95 124.014 397.13 126.269 393.31 128.497C389.49 130.726 385.623 132.931 381.71 135.113C379.6 136.432 377.36 137.672 375 138.852C372.748 139.995 370.407 140.956 368 141.728C368.8 140.26 369.6 138.822 370.41 137.453C371.22 136.084 372.07 134.696 372.97 133.307C373.58 132.315 374.2 131.413 374.86 130.501C375.52 129.588 376.14 128.656 376.74 127.694C377.42 126.891 377.795 125.876 377.8 124.828C377.553 123.881 376.962 123.058 376.14 122.517C375.63 122.077 375.002 121.794 374.332 121.703C373.663 121.611 372.981 121.714 372.37 122.001L371.16 122.715L369.96 123.449L357.74 130.867C353.74 133.307 349.62 135.741 345.38 138.167C344.64 138.704 343.829 139.138 342.97 139.457C342.975 139.417 342.97 139.376 342.956 139.338C342.942 139.3 342.92 139.266 342.89 139.239C342.862 139.21 342.841 139.175 342.829 139.137C342.817 139.1 342.814 139.06 342.82 139.02C343.827 137.698 345.26 136.045 347.12 134.061C348.98 132.018 350.91 129.985 352.92 127.932C354.93 125.879 356.92 124.074 358.73 122.497C360.002 121.298 361.448 120.295 363.02 119.521C364.12 119.105 364.53 118.42 364.23 117.458C364.053 116.866 363.723 116.33 363.272 115.903C362.821 115.477 362.265 115.175 361.66 115.029C361.456 114.9 361.217 114.837 360.975 114.848C360.734 114.858 360.502 114.942 360.31 115.088C359.9 115.376 359.51 115.644 359.1 115.882C357.187 117.263 355.153 118.837 353 120.603C350.847 122.368 348.76 124.246 346.74 126.236C346.12 126.861 345.51 127.486 344.92 128.13C342.349 130.175 339.547 131.916 336.57 133.317C332.982 135.115 329.148 136.381 325.19 137.076C325.29 136.471 325.36 135.916 325.41 135.41C325.46 134.904 325.54 134.418 325.64 133.893C325.74 133.367 325.84 132.822 325.94 132.217C326.04 131.617 326.09 131.01 326.09 130.402C326.163 129.716 326.038 129.024 325.73 128.406C325.422 127.788 324.944 127.269 324.35 126.91C323.744 126.51 323.041 126.276 322.314 126.232C321.586 126.188 320.861 126.337 320.21 126.663L318.93 127.307L317.65 127.962L313.43 130.481L309.2 133C309 133.109 308.78 133.248 308.53 133.367C308.269 133.49 307.988 133.567 307.7 133.595C309 132.177 310.28 130.798 311.54 129.479C312.8 128.16 314.13 126.871 315.54 125.631C319.66 121.73 323.757 117.806 327.83 113.858C331.903 109.911 335.997 105.987 340.11 102.085C340.409 101.763 340.744 101.477 341.11 101.233C341.301 101.119 341.514 101.049 341.735 101.026C341.957 101.004 342.18 101.031 342.39 101.104C342.789 100.205 342.818 99.187 342.47 98.2674C342.308 97.8516 342.055 97.4771 341.727 97.1715C341.4 96.866 341.008 96.6369 340.58 96.5018C340.305 96.3796 340 96.3447 339.704 96.4015C339.409 96.4583 339.138 96.6044 338.93 96.8195C338.473 97.1141 338.042 97.4459 337.64 97.8113C337.29 98.1485 336.91 98.4758 336.51 98.8031C328.977 105.732 321.513 112.711 314.12 119.74C306.736 126.763 299.815 134.25 293.4 142.155C292.981 142.67 292.718 143.292 292.64 143.95C292.681 144.245 292.783 144.528 292.939 144.783C293.096 145.037 293.304 145.256 293.55 145.427C293.833 145.79 294.17 146.108 294.55 146.37C294.914 146.672 295.379 146.828 295.853 146.806C296.328 146.784 296.776 146.586 297.11 146.251C301.03 143.573 305 140.908 309.02 138.257C313.04 135.605 317.163 133.175 321.39 130.967C321.39 131.661 321.39 132.286 321.31 132.841C321.23 133.397 321.24 133.962 321.24 134.577C321.235 135.462 321.441 136.335 321.84 137.126C322.236 137.928 322.802 138.635 323.5 139.199C324.222 139.786 325.076 140.191 325.99 140.379C326.96 140.577 327.96 140.577 328.93 140.379C332.353 139.401 335.638 138.001 338.71 136.213C338.206 137.095 337.755 138.006 337.36 138.941C337.161 139.446 337.086 139.99 337.14 140.53C337.194 141.069 337.375 141.588 337.67 142.045C339.07 144.396 341.18 145.021 344 143.959C344.7 143.692 345.4 143.384 346.11 143.077C346.82 142.769 347.51 142.412 348.22 142.035C351.64 140.303 354.973 138.422 358.22 136.392C361.467 134.362 364.71 132.345 367.95 130.342C368.136 130.123 368.368 129.948 368.63 129.826C368.88 129.697 369.2 129.509 369.63 129.271C368.92 130.441 368.27 131.503 367.63 132.465C366.99 133.427 366.43 134.448 365.83 135.44C365.076 136.725 364.469 138.088 364.02 139.506C363.748 140.259 363.702 141.074 363.888 141.853C364.075 142.631 364.485 143.339 365.07 143.89C366.88 145.804 369.07 146.171 371.71 145.02C378.076 142.337 384.139 138.996 389.8 135.053C393.05 132.822 396.17 130.61 399.19 128.408C398.3 129.538 397.43 130.67 396.58 131.76C396.361 131.968 396.192 132.221 396.086 132.503C395.981 132.784 395.941 133.086 395.97 133.385C395.999 133.684 396.096 133.972 396.253 134.228C396.411 134.485 396.625 134.702 396.88 134.865C397.987 136.048 399.093 136.237 400.2 135.43C400.6 135.182 400.96 134.984 401.26 134.805C401.56 134.627 401.86 134.418 402.16 134.19C405.78 131.522 409.59 128.884 413.62 126.256C417.65 123.627 421.62 121.247 425.53 119.145C425.32 120.067 425.1 120.91 424.85 121.684C424.6 122.457 424.37 123.251 424.17 124.064C423.829 125.179 423.865 126.374 424.274 127.466C424.682 128.558 425.439 129.488 426.43 130.114C426.791 130.454 427.219 130.718 427.687 130.888C428.154 131.059 428.652 131.133 429.15 131.106C430.168 131.047 431.175 130.867 432.15 130.57C433.865 130 435.536 129.308 437.15 128.497C439.15 127.506 441.15 126.514 443.15 125.363C444.56 124.56 445.91 123.736 447.25 122.913C447.25 123.022 447.25 123.122 447.25 123.231C447.296 124.37 447.663 125.473 448.31 126.415C448.554 126.909 448.944 127.319 449.428 127.59C449.911 127.861 450.467 127.98 451.02 127.932C452.85 127.689 454.63 127.157 456.29 126.355C458.29 125.462 460.37 124.48 462.48 123.429C464.59 122.378 466.7 121.366 468.81 120.454C470.674 119.613 472.657 119.061 474.69 118.817C475.99 118.688 476.69 119.313 476.69 120.712C476.656 123.291 476.169 125.845 475.25 128.259C474.272 130.948 473.064 133.55 471.64 136.035C470.187 138.557 468.549 140.971 466.74 143.255C465.105 145.329 463.342 147.3 461.46 149.157C460.96 149.712 459.15 150.218 456.03 150.674L444.5 152.429C439.93 153.143 434.88 154.016 429.35 155.077C423.782 156.142 418.29 157.566 412.91 159.342C407.626 161.074 402.506 163.264 397.61 165.888C393.123 168.277 389.159 171.527 385.95 175.449C384.995 176.698 384.466 178.216 384.44 179.783C384.384 180.796 384.531 181.81 384.875 182.765C385.218 183.72 385.75 184.598 386.44 185.347C387.809 186.69 389.492 187.676 391.34 188.214C393.392 188.831 395.525 189.145 397.67 189.146C399.709 189.18 401.749 189.1 403.78 188.908C408.687 188.389 413.503 187.225 418.1 185.446C422.901 183.643 427.578 181.529 432.1 179.119C436.444 176.803 440.644 174.233 444.68 171.422C448.613 168.698 452.06 166.209 455.02 163.954C457.98 161.7 460.363 159.815 462.17 158.301C463.09 157.43 464.095 156.653 465.17 155.98C470.903 155.405 476.57 155.008 482.17 154.79C487.77 154.572 493.437 154.426 499.17 154.353C506.11 154.155 513.02 154.01 519.9 153.917C526.78 153.825 533.69 153.878 540.63 154.076C541.84 154.165 543.37 154.255 545.23 154.364C547.09 154.473 548.97 154.641 550.88 154.849C552.79 155.058 554.6 155.197 556.31 155.276C557.615 155.36 558.925 155.36 560.23 155.276C560.43 155.27 560.627 155.221 560.808 155.134C560.988 155.047 561.148 154.923 561.276 154.77C561.405 154.618 561.499 154.44 561.553 154.248C561.607 154.057 561.62 153.856 561.59 153.659C561.555 152.916 561.335 152.194 560.95 151.557ZM475.76 113.601C474.592 113.246 473.367 113.118 472.15 113.223C470.397 113.401 468.686 113.871 467.09 114.612C465.44 115.376 463.75 116.11 462.04 116.764C462.818 115.968 463.68 115.257 464.61 114.642C465.74 113.872 466.923 113.183 468.15 112.579C469.347 111.981 470.579 111.454 471.84 111.002C472.864 110.625 473.927 110.366 475.01 110.229C475.185 110.192 475.365 110.192 475.54 110.229C475.716 110.254 475.894 110.254 476.07 110.229L475.76 113.601ZM440.86 165.928C436.554 168.816 432.101 171.484 427.52 173.922C423.026 176.324 418.368 178.412 413.58 180.17C409.287 181.803 404.8 182.884 400.23 183.383C396.434 183.811 392.591 183.474 388.93 182.392C390.183 179.591 392.22 177.205 394.8 175.518C398 173.266 401.409 171.32 404.98 169.706C409.083 167.844 413.313 166.274 417.64 165.006C422.22 163.644 426.697 162.447 431.07 161.415C435.443 160.384 439.487 159.551 443.2 158.916C446.92 158.301 449.98 157.815 452.39 157.477C448.99 160.241 445.15 163.058 440.87 165.928H440.86Z" fill="#D0A452"/>
<path d="M318.66 32.8604C322.497 33.7313 326.407 34.2457 330.34 34.3974C336.546 34.6619 342.764 34.4197 348.93 33.6734C350.56 33.4949 351.16 33.0189 349.3 32.9296C338.08 32.3445 315.59 29.7862 312.66 23.925C312.34 23.2804 311.31 23.8354 311.31 23.8354C311.31 23.8354 308.41 25.6702 308.46 26.662C308.6 29.657 314.74 31.829 318.66 32.8604Z" fill="#D0A452"/>
</svg>
