<svg width="276" height="60" viewBox="0 0 276 60" fill="none" xmlns="http://www.w3.org/2000/svg">
<g clip-path="url(#clip0_862:543)">
<path d="M112.343 30.6548L106.69 24.0416V34.1016H101.249V17.248H106.664L113.701 25.8752L120.739 17.248H126.154V34.1016H120.739V24.0416L115.085 30.6548H112.343Z" fill="white"/>
<path d="M143.351 30.5687C141.67 30.8135 139.974 30.9441 138.274 30.9595C134.269 30.9595 133.667 30.0526 133.577 28.6197C135.106 28.9528 136.673 29.1043 138.242 29.0706C145.76 29.0706 146.484 27.312 146.484 25.2978V25.0473C146.484 22.8328 145.068 21.0391 138.21 21.0391H137.37C130.629 21.0391 128.764 23.8599 128.764 27.332V28.3341C128.764 31.8063 130.629 34.6271 137.37 34.6271C137.37 34.6271 143.182 34.4016 145.295 34.0008L143.351 30.5687ZM138.231 24.1655C141.481 24.1655 141.66 24.872 141.66 25.3479C141.66 25.8239 141.449 26.3049 137.93 26.3049C136.511 26.3332 135.092 26.2054 133.704 25.9241C134.031 24.7918 135.061 24.1655 138.231 24.1655Z" fill="white"/>
<path d="M163.353 30.5737C161.687 30.8144 160.004 30.9433 158.318 30.9595C154.319 30.9595 153.717 30.0526 153.627 28.6197C155.156 28.9531 156.723 29.1046 158.292 29.0706C165.81 29.0706 166.534 27.312 166.534 25.2978V25.0473C166.534 22.8328 165.118 21.0391 158.26 21.0391H157.42C150.679 21.0391 148.814 23.8599 148.814 27.332V28.3341C148.814 31.8063 150.679 34.6271 157.42 34.6271H157.991C160.432 34.6249 162.869 34.417 165.271 34.0058L163.353 30.5737ZM158.308 24.1655C161.557 24.1655 161.737 24.872 161.737 25.3479C161.737 25.8239 161.525 26.3049 158.007 26.3049C156.587 26.3334 155.169 26.2056 153.78 25.9241C154.081 24.7918 155.101 24.1655 158.308 24.1655Z" fill="white"/>
<path d="M179.388 35.4891C177.803 38.43 176.382 40.3939 172.382 40.3939C171.531 40.4014 170.682 40.3156 169.852 40.1384V36.5662C170.618 36.6875 171.394 36.7479 172.171 36.7466C174.152 36.7466 174.543 36.0903 175.177 34.9831L175.389 34.5572L168.198 22.5332V21.5312H172.71L177.465 30.2086L181.692 21.5312H186.209V22.5332L179.388 35.4891Z" fill="white"/>
<path d="M196.347 34.1016V17.248H201.763V30.0786H214.12V34.0866L196.347 34.1016Z" fill="white"/>
<path d="M234.514 34.1018H233.33L231.703 33.3252C229.529 34.2411 227.165 34.6796 224.787 34.6078C218.289 34.6078 216.424 32.6037 216.424 30.3791V30.1286C216.424 28.0143 218.437 26.2807 224.697 26.2807C226.387 26.2566 228.074 26.4248 229.722 26.7817C229.658 25.449 229.236 24.6924 225.268 24.6924C222.849 24.6934 220.438 24.9471 218.077 25.449V21.6762C220.498 21.2561 222.955 21.0448 225.416 21.0449C232.126 21.0449 234.535 22.9839 234.535 26.5813L234.514 34.1018ZM229.7 30.9353V29.7428C228.15 29.4149 226.565 29.2619 224.977 29.2869C221.395 29.2869 221.216 29.8931 221.216 30.3941C221.216 31.0004 221.453 31.4513 225.278 31.4513C226.77 31.4684 228.258 31.2948 229.7 30.9353Z" fill="white"/>
<path d="M238.487 21.5265L240.109 22.3281C242.199 21.4111 244.484 20.9636 246.787 21.0204C253.523 21.0204 255.388 23.8413 255.388 27.3134V34.1024H250.575V27.8144C250.575 26.1811 250.575 24.668 246.517 24.668C245.023 24.6591 243.535 24.8463 242.095 25.2241V34.1024H237.282V21.5265H238.487Z" fill="white"/>
<path d="M275.755 34.1015H274.54L272.912 33.325C270.816 34.2224 268.534 34.6607 266.234 34.6075C259.498 34.6075 257.633 31.7869 257.633 28.315V27.313C257.633 23.841 259.498 21.0204 266.234 21.0204C267.821 21.0054 269.402 21.201 270.931 21.6016V15.4844H272.13L275.744 17.2479L275.755 34.1015ZM270.942 30.4292V25.2338C269.501 24.8604 268.013 24.6733 266.52 24.6777C262.457 24.6777 262.457 26.1807 262.457 27.824C262.457 29.4673 262.457 30.9703 266.52 30.9703C268.013 30.9793 269.5 30.7972 270.942 30.4292Z" fill="white"/>
<path d="M126.355 51.5511C125.726 51.6906 125.083 51.7679 124.437 51.7815C122.899 51.7815 121.885 51.075 121.885 48.6949C121.885 46.3148 122.942 45.6133 124.458 45.6133C125.099 45.6292 125.736 45.7081 126.36 45.8488L126.196 46.7257C125.66 46.6034 125.114 46.528 124.564 46.5002C123.57 46.5002 123.063 46.9762 123.063 48.6949C123.063 50.4136 123.592 50.8997 124.564 50.8997C125.112 50.8722 125.657 50.7967 126.191 50.6742L126.355 51.5511Z" fill="white"/>
<path d="M132.309 49.0055C132.309 50.7543 132.097 51.7915 129.82 51.7915C127.543 51.7915 127.337 50.7543 127.337 49.0055V45.6934H128.51V49.0055C128.51 50.634 128.595 50.9046 129.82 50.9046C131.046 50.9046 131.131 50.634 131.131 49.0055V45.6934H132.309V49.0055Z" fill="white"/>
<path d="M137.486 51.7121L134.665 47.5933V51.7121H133.477V45.6992H134.676L137.497 49.818V45.6992H138.67V51.7121H137.486Z" fill="white"/>
<path d="M144.756 51.2263C143.987 51.558 143.159 51.75 142.315 51.7925C140.921 51.7925 139.753 51.0709 139.753 48.7058C139.753 46.3407 140.81 45.6191 142.395 45.6191C143.171 45.6441 143.942 45.762 144.688 45.9699L144.466 46.8318C143.817 46.6565 143.152 46.5456 142.479 46.5011C141.47 46.5011 140.936 47.0021 140.936 48.7058C140.936 50.4947 141.592 50.9056 142.326 50.9056C142.757 50.8876 143.183 50.8065 143.589 50.6651V49.0816H142.263V48.1947H144.762L144.756 51.2263Z" fill="white"/>
<path d="M152.66 51.7121L149.839 47.5933V51.7121H148.666V45.6992H149.855L152.676 49.818V45.6992H153.849V51.7121H152.66Z" fill="white"/>
<path d="M158.794 51.7121V49.0464H156.274V51.7121H155.096V45.6992H156.274V48.1695H158.794V45.6992H159.967V51.7121H158.794Z" fill="white"/>
<path d="M165.467 51.7121L165.007 50.4294H162.534L162.08 51.7121H160.812L163.121 45.6992H164.415L166.719 51.7121H165.467ZM164.732 49.5424L163.776 46.8918L162.82 49.5424H164.732Z" fill="white"/>
<path d="M172.213 49.0055C172.213 50.7543 172.002 51.7915 169.725 51.7915C167.448 51.7915 167.242 50.7543 167.242 49.0055V45.6934H168.415V49.0055C168.415 50.634 168.499 50.9046 169.725 50.9046C170.951 50.9046 171.035 50.634 171.035 49.0055V45.6934H172.213V49.0055Z" fill="white"/>
<path d="M181.301 51.7121H180.017L178.352 49.0163L177.328 50.1838V51.7121H176.149V45.6992H177.328V48.7057L179.874 45.6992H181.264L179.082 48.2046L181.301 51.7121Z" fill="white"/>
<path d="M185.924 51.7121V49.0464H183.409V51.7121H182.231V45.6992H183.409V48.1695H185.924V45.6992H187.102V51.7121H185.924Z" fill="white"/>
<path d="M192.596 51.7121L192.142 50.4294H189.68L189.225 51.7121H187.958L190.266 45.6992H191.561L193.864 51.7121H192.596ZM191.867 49.5424L190.911 46.8918L189.955 49.5424H191.867Z" fill="white"/>
<path d="M194.704 51.7121V45.6992H195.877V51.7121H194.704Z" fill="white"/>
<path d="M202.418 46.5753V51.7113H201.245V46.5753H199.412V45.6934H204.272V46.5753H202.418Z" fill="white"/>
<path d="M208.805 51.7121V49.0464H206.285V51.7121H205.112V45.6992H206.285V48.1695H208.805V45.6992H209.978V51.7121H208.805Z" fill="white"/>
<path d="M215.478 51.7121L215.018 50.4294H212.556L212.102 51.7121H210.839L213.143 45.6992H214.437L216.741 51.7121H215.478ZM214.744 49.5424L213.787 46.8918L212.831 49.5424H214.744Z" fill="white"/>
<path d="M221.512 51.5511C220.881 51.6903 220.236 51.7676 219.588 51.7815C218.051 51.7815 217.037 51.075 217.037 48.6949C217.037 46.3148 218.093 45.6133 219.61 45.6133C220.251 45.6289 220.888 45.7078 221.512 45.8488L221.348 46.7257C220.812 46.6034 220.266 46.528 219.715 46.5002C218.722 46.5002 218.215 46.9762 218.215 48.6949C218.215 50.4136 218.743 50.8997 219.715 50.8997C220.264 50.8722 220.809 50.7967 221.343 50.6742L221.512 51.5511Z" fill="white"/>
<path d="M230.044 51.2263C229.275 51.558 228.447 51.75 227.603 51.7925C226.208 51.7925 225.041 51.0709 225.041 48.7058C225.041 46.3407 226.097 45.6191 227.682 45.6191C228.459 45.6441 229.23 45.762 229.975 45.9699L229.753 46.8318C229.105 46.6561 228.439 46.5452 227.767 46.5011C226.758 46.5011 226.224 47.0021 226.224 48.7058C226.224 50.4947 226.879 50.9056 227.614 50.9056C228.045 50.8876 228.471 50.8065 228.876 50.6651V49.0816H227.55V48.1947H230.049L230.044 51.2263Z" fill="white"/>
<path d="M231.259 51.7121V45.6992H232.432V51.7121H231.259Z" fill="white"/>
<path d="M237.884 51.7121L237.425 50.4294H234.963L234.508 51.7121H233.246L235.549 45.6992H236.844L239.147 51.7121H237.884ZM237.15 49.5424L236.194 46.8918L235.238 49.5424H237.15Z" fill="white"/>
<path d="M245.318 46.5753V51.7113H244.14V46.5753H242.312V45.6934H247.146V46.5753H245.318Z" fill="white"/>
<path d="M250.844 45.6945C251.948 45.6945 252.672 46.3759 252.672 47.5384C252.672 48.4304 252.271 48.9815 251.616 49.197L252.973 51.7024H251.711L250.453 49.3824H249.18V51.7024H248.002V45.6895L250.844 45.6945ZM249.191 48.5055H250.659C251.156 48.5055 251.499 48.2149 251.499 47.5384C251.499 46.862 251.166 46.5714 250.659 46.5714H249.18L249.191 48.5055Z" fill="white"/>
<path d="M253.935 51.7121V45.6992H255.108V51.7121H253.935Z" fill="white"/>
<path d="M129.641 45.5033L128.584 44.1816H129.562L130.497 45.5033H129.641Z" fill="white"/>
<path d="M213.83 45.2812L214.76 43.9648H215.742L214.712 45.2812H213.83Z" fill="white"/>
<path d="M235.972 45.2812L236.902 43.9648H237.884L236.854 45.2812H235.972Z" fill="white"/>
<path d="M254.849 52.2715H254.236C254.081 52.2715 253.956 52.3954 253.956 52.5483V53.1543C253.956 53.3072 254.081 53.4312 254.236 53.4312H254.849C255.004 53.4312 255.129 53.3072 255.129 53.1543V52.5483C255.129 52.3954 255.004 52.2715 254.849 52.2715Z" fill="white"/>
<path d="M92.3991 5.17832H91.7017V6.36604H90.7138V3.10742H92.6157C93.6724 3.10742 94.2588 3.45257 94.2588 4.12256C94.2682 4.34045 94.196 4.55437 94.0555 4.72565C93.9151 4.89693 93.7154 5.01428 93.4927 5.05649L94.5494 6.36604H93.4927L92.5471 5.17832H92.3991ZM92.6157 4.64536C93.1441 4.64536 93.2603 4.50324 93.2603 4.13779C93.2603 3.77234 93.1229 3.65561 92.6157 3.65561H91.7017V4.67075L92.6157 4.64536Z" fill="white"/>
<path d="M92.378 1.24934C93.0937 1.24934 93.7935 1.45064 94.3886 1.8278C94.9838 2.20496 95.4476 2.74103 95.7215 3.36822C95.9955 3.99541 96.0671 4.68555 95.9275 5.35138C95.7878 6.0172 95.4432 6.62878 94.9371 7.10881C94.4309 7.58885 93.7861 7.91575 93.084 8.04819C92.382 8.18063 91.6543 8.11266 90.993 7.85287C90.3318 7.59308 89.7665 7.15314 89.3689 6.58868C88.9712 6.02422 88.7589 5.36061 88.7589 4.68175C88.7603 3.77183 89.1421 2.89955 89.8205 2.25614C90.4989 1.61272 91.4186 1.25067 92.378 1.24934ZM92.378 0.472656C91.5002 0.472656 90.6422 0.719527 89.9124 1.18203C89.1826 1.64453 88.6138 2.3019 88.2779 3.071C87.942 3.84011 87.8541 4.68641 88.0253 5.50289C88.1966 6.31937 88.6192 7.06937 89.2399 7.65802C89.8605 8.24667 90.6513 8.64754 91.5122 8.80995C92.3731 8.97236 93.2654 8.88901 94.0763 8.57043C94.8873 8.25186 95.5804 7.71236 96.068 7.02018C96.5556 6.328 96.8159 5.51423 96.8159 4.68175C96.8159 3.56543 96.3483 2.49484 95.5161 1.70548C94.6838 0.916124 93.555 0.472656 92.378 0.472656Z" fill="white"/>
<path d="M87.143 25.9792L73.0155 3.14867C72.5114 2.33287 71.7909 1.65632 70.9257 1.1862C70.0605 0.71608 69.0807 0.46875 68.0836 0.46875C67.0864 0.46875 66.1066 0.71608 65.2414 1.1862C64.3762 1.65632 63.6558 2.33287 63.1517 3.14867L51.4123 22.1215L47.2596 28.8299H40.6766L38.9173 25.9792L24.7899 3.14867C24.2857 2.33287 23.5652 1.65632 22.7 1.1862C21.8349 0.71608 20.855 0.46875 19.8579 0.46875C18.8607 0.46875 17.881 0.71608 17.0158 1.1862C16.1506 1.65632 15.4302 2.33287 14.926 3.14867L0.798529 25.9792C0.288464 26.8026 0.0168444 27.7393 0.0111983 28.6943C0.0055521 29.6493 0.266051 30.5887 0.766347 31.4175C1.26664 32.2464 1.989 32.9352 2.86024 33.4142C3.73148 33.8932 4.72069 34.1455 5.72779 34.1455H25.5559L39.6358 56.8958C40.08 57.6117 40.7136 58.2051 41.4739 58.6174C42.2342 59.0297 43.0949 59.2466 43.9707 59.2466C44.8466 59.2466 45.7073 59.0297 46.4676 58.6174C47.2279 58.2051 47.8615 57.6117 48.3057 56.8958L62.3803 34.1455H82.2295C83.2353 34.1429 84.2225 33.8887 85.0915 33.4086C85.9606 32.9285 86.6806 32.2394 87.179 31.4111C87.6775 30.5827 87.9366 29.6442 87.9303 28.6905C87.9239 27.7368 87.6524 26.8015 87.143 25.9792Z" fill="white"/>
</g>
<defs>
<clipPath id="clip0_862:543">
<rect width="275.755" height="58.7772" fill="white" transform="translate(0 0.46875)"/>
</clipPath>
</defs>
</svg>
