<svg width="236" height="103" viewBox="0 0 236 103" fill="none" xmlns="http://www.w3.org/2000/svg">
<path d="M11.4298 44.54L12.2738 43.2999L12.2738 43.2999L11.4298 44.54ZM4.82984 36.68L3.45981 37.2907L3.46427 37.3007L3.46888 37.3107L4.82984 36.68ZM4.82984 14.96L3.46888 14.3293L3.4657 14.3362L3.46259 14.3431L4.82984 14.96ZM11.4298 7.1L12.2738 8.34007L12.2738 8.34007L11.4298 7.1ZM33.7498 8.36L34.7517 7.24363L34.7517 7.24363L33.7498 8.36ZM39.8698 19.4V20.9H41.7185L41.3377 19.091L39.8698 19.4ZM31.8298 19.4L30.3717 19.752L30.6488 20.9H31.8298V19.4ZM28.2898 13.7L27.3094 14.8352L27.3232 14.8471L27.3372 14.8586L28.2898 13.7ZM13.9498 15.38L15.1892 16.225L15.1892 16.225L13.9498 15.38ZM13.9498 36.26L12.7105 37.105L12.7105 37.105L13.9498 36.26ZM28.1098 38.12L29.0701 39.2723L29.0781 39.2657L29.086 39.2589L28.1098 38.12ZM31.5898 32.78V31.28H30.4758L30.1539 32.3465L31.5898 32.78ZM39.6298 32.78L41.0941 33.1054L41.4998 31.28H39.6298V32.78ZM33.5698 43.4L34.5628 44.5244L34.5709 44.5171L33.5698 43.4ZM21.7498 45.98C18.0049 45.98 14.8694 45.0664 12.2738 43.2999L10.5859 45.7801C13.7503 47.9336 17.4948 48.98 21.7498 48.98V45.98ZM12.2738 43.2999C9.62675 41.4985 7.60125 39.0929 6.19081 36.0493L3.46888 37.3107C5.09844 40.8271 7.47294 43.6615 10.5859 45.7801L12.2738 43.2999ZM6.19988 36.0693C4.81212 32.9562 4.10984 29.5463 4.10984 25.82H1.10984C1.10984 29.9337 1.88757 33.7638 3.45981 37.2907L6.19988 36.0693ZM4.10984 25.82C4.10984 22.0512 4.81305 18.6443 6.1971 15.5769L3.46259 14.3431C1.88664 17.8357 1.10984 21.6688 1.10984 25.82H4.10984ZM6.19081 15.5907C7.60125 12.5471 9.62675 10.1415 12.2738 8.34007L10.5859 5.85993C7.47294 7.97848 5.09844 10.8129 3.46888 14.3293L6.19081 15.5907ZM12.2738 8.34007C14.8694 6.57358 18.0049 5.66 21.7498 5.66V2.66C17.4948 2.66 13.7503 3.70642 10.5859 5.85993L12.2738 8.34007ZM21.7498 5.66C26.3245 5.66 29.9477 6.96331 32.748 9.47636L34.7517 7.24363C31.312 4.15668 26.9352 2.66 21.7498 2.66V5.66ZM32.748 9.47636C35.6045 12.0399 37.5 15.4243 38.402 19.709L41.3377 19.091C40.3197 14.2557 38.1352 10.2801 34.7517 7.24363L32.748 9.47636ZM39.8698 17.9H31.8298V20.9H39.8698V17.9ZM33.288 19.048C32.6535 16.4196 31.3006 14.2336 29.2425 12.5414L27.3372 14.8586C28.8791 16.1264 29.8862 17.7404 30.3717 19.752L33.288 19.048ZM29.2703 12.5648C27.2142 10.7891 24.7173 9.92 21.8698 9.92V12.92C24.0624 12.92 25.8455 13.5709 27.3094 14.8352L29.2703 12.5648ZM21.8698 9.92C17.9459 9.92 14.818 11.444 12.7105 14.535L15.1892 16.225C16.6817 14.036 18.8338 12.92 21.8698 12.92V9.92ZM12.7105 14.535C10.6904 17.4979 9.74984 21.3023 9.74984 25.82H12.7498C12.7498 21.6977 13.6093 18.5421 15.1892 16.225L12.7105 14.535ZM9.74984 25.82C9.74984 30.3377 10.6904 34.1421 12.7105 37.105L15.1892 35.415C13.6093 33.0979 12.7498 29.9423 12.7498 25.82H9.74984ZM12.7105 37.105C14.818 40.196 17.9459 41.72 21.8698 41.72V38.72C18.8338 38.72 16.6817 37.604 15.1892 35.415L12.7105 37.105ZM21.8698 41.72C24.6509 41.72 27.0846 40.927 29.0701 39.2723L27.1496 36.9677C25.7751 38.113 24.0488 38.72 21.8698 38.72V41.72ZM29.086 39.2589C30.9837 37.6323 32.3031 35.6075 33.0258 33.2135L30.1539 32.3465C29.5966 34.1925 28.596 35.7277 27.1337 36.9811L29.086 39.2589ZM31.5898 34.28H39.6298V31.28H31.5898V34.28ZM38.1656 32.4546C37.2685 36.4915 35.3988 39.7469 32.5688 42.2829L34.5709 44.5171C37.9009 41.5331 40.0712 37.7085 41.0941 33.1054L38.1656 32.4546ZM32.5769 42.2757C29.8162 44.7137 26.2493 45.98 21.7498 45.98V48.98C26.8504 48.98 31.1635 47.5263 34.5628 44.5243L32.5769 42.2757ZM74.563 16.94L73.5423 15.8408L73.5323 15.8501L73.5225 15.8595L74.563 16.94ZM70.483 18.86L70.2658 17.3758L67.407 17.7942L69.394 19.8916L70.483 18.86ZM73.723 24.32L72.3026 24.8024L72.3055 24.8107L73.723 24.32ZM73.123 39.2L74.49 39.8174L74.4937 39.8092L73.123 39.2ZM68.023 45.2L68.855 46.4481L68.855 46.4481L68.023 45.2ZM51.223 45.26L50.3807 46.5012L50.3934 46.5098L50.4063 46.5182L51.223 45.26ZM46.183 39.26L47.55 38.6426L47.55 38.6426L46.183 39.26ZM46.123 22.94L44.7522 22.3308L44.7477 22.3411L46.123 22.94ZM51.223 16.88L50.3909 15.6319L50.3909 15.6319L51.223 16.88ZM64.663 15.32L64.2113 16.7504L64.4318 16.82H64.663V15.32ZM69.463 14.6L68.5259 13.4287L68.5259 13.4287L69.463 14.6ZM70.363 9.02V7.52H68.863V9.02H70.363ZM76.243 9.02H77.743V7.52H76.243V9.02ZM64.843 38L63.5786 37.1929L63.5741 37.2L64.843 38ZM64.843 24.08L63.5741 24.8799L63.5843 24.8961L63.5949 24.912L64.843 24.08ZM54.403 24.08L55.6638 24.8926L55.6679 24.8863L55.6719 24.8799L54.403 24.08ZM54.403 38L53.1264 38.7877L53.1363 38.8037L53.1466 38.8194L54.403 38ZM74.743 12.26C74.743 14.0791 74.2584 15.1758 73.5423 15.8408L75.5836 18.0392C77.1075 16.6242 77.743 14.6009 77.743 12.26H74.743ZM73.5225 15.8595C72.6918 16.6595 71.6302 17.1761 70.2658 17.3758L70.7002 20.3442C72.6158 20.0639 74.2742 19.3005 75.6034 18.0205L73.5225 15.8595ZM69.394 19.8916C70.6751 21.2439 71.6473 22.8728 72.3026 24.8024L75.1433 23.8376C74.3586 21.5272 73.1708 19.5161 71.5719 17.8284L69.394 19.8916ZM72.3055 24.8107C72.967 26.7218 73.303 28.7749 73.303 30.98H76.303C76.303 28.4651 75.9189 26.0782 75.1404 23.8293L72.3055 24.8107ZM73.303 30.98C73.303 33.7457 72.7809 36.2764 71.7523 38.5908L74.4937 39.8092C75.7051 37.0836 76.303 34.1343 76.303 30.98H73.303ZM71.7559 38.5826C70.7525 40.8045 69.2387 42.5867 67.1909 43.9519L68.855 46.4481C71.3672 44.7733 73.2535 42.5555 74.49 39.8174L71.7559 38.5826ZM67.1909 43.9519C65.2053 45.2757 62.7102 45.98 59.623 45.98V48.98C63.1757 48.98 66.2807 48.1643 68.855 46.4481L67.1909 43.9519ZM59.623 45.98C56.5283 45.98 54.0275 45.2922 52.0397 44.0018L50.4063 46.5182C52.9784 48.1878 56.0777 48.98 59.623 48.98V45.98ZM52.0652 44.0188C50.0557 42.6552 48.5567 40.8716 47.55 38.6426L44.8159 39.8774C46.0493 42.6084 47.9103 44.8248 50.3807 46.5012L52.0652 44.0188ZM47.55 38.6426C46.5251 36.3732 46.003 33.866 46.003 31.1H43.003C43.003 34.254 43.6008 37.1868 44.8159 39.8774L47.55 38.6426ZM46.003 31.1C46.003 28.3265 46.508 25.8128 47.4982 23.5389L44.7477 22.3411C43.578 25.0272 43.003 27.9535 43.003 31.1H46.003ZM47.4937 23.5492C48.4991 21.2871 50.0131 19.4894 52.055 18.1281L50.3909 15.6319C47.8729 17.3106 45.9869 19.5529 44.7523 22.3308L47.4937 23.5492ZM52.055 18.1281C54.0407 16.8043 56.5357 16.1 59.623 16.1V13.1C56.0702 13.1 52.9653 13.9157 50.3909 15.6319L52.055 18.1281ZM59.623 16.1C61.3329 16.1 62.8579 16.323 64.2113 16.7504L65.1147 13.8896C63.428 13.357 61.5931 13.1 59.623 13.1V16.1ZM64.663 16.82H66.643V13.82H64.663V16.82ZM66.643 16.82C68.0555 16.82 69.4076 16.5652 70.4 15.7713L68.5259 13.4287C68.3183 13.5948 67.7904 13.82 66.643 13.82V16.82ZM70.4 15.7713C71.0419 15.2578 71.39 14.525 71.5851 13.8097C71.7831 13.0836 71.863 12.233 71.863 11.3H68.863C68.863 12.087 68.7928 12.6464 68.6908 13.0203C68.5859 13.405 68.4841 13.4622 68.5259 13.4287L70.4 15.7713ZM71.863 11.3V9.02H68.863V11.3H71.863ZM70.363 10.52H76.243V7.52H70.363V10.52ZM74.743 9.02V12.26H77.743V9.02H74.743ZM59.623 42.26C62.4168 42.26 64.6558 41.1095 66.1119 38.8L63.5741 37.2C62.7101 38.5705 61.4691 39.26 59.623 39.26V42.26ZM66.1074 38.8071C67.4962 36.6312 68.143 33.9932 68.143 30.98H65.143C65.143 33.5668 64.5898 35.6088 63.5786 37.1929L66.1074 38.8071ZM68.143 30.98C68.143 27.9702 67.4974 25.3575 66.091 23.2479L63.5949 24.912C64.5885 26.4025 65.143 28.3898 65.143 30.98H68.143ZM66.1119 23.28C64.6558 20.9705 62.4168 19.82 59.623 19.82V22.82C61.4691 22.82 62.7101 23.5095 63.5741 24.8799L66.1119 23.28ZM59.623 19.82C56.8291 19.82 54.5901 20.9705 53.1341 23.28L55.6719 24.8799C56.5358 23.5095 57.7768 22.82 59.623 22.82V19.82ZM53.1421 23.2674C51.7847 25.3738 51.163 27.979 51.163 30.98H54.163C54.163 28.381 54.7013 26.3862 55.6638 24.8926L53.1421 23.2674ZM51.163 30.98C51.163 33.9846 51.786 36.6152 53.1264 38.7877L55.6795 37.2123C54.7 35.6248 54.163 33.5754 54.163 30.98H51.163ZM53.1466 38.8194C54.6359 41.103 56.8592 42.26 59.623 42.26V39.26C57.8267 39.26 56.5701 38.577 55.6594 37.1806L53.1466 38.8194ZM95.9122 2.42V0.919998H94.4122V2.42H95.9122ZM104.312 2.42H105.812V0.919998H104.312V2.42ZM104.312 20.18H102.812V21.68H104.312V20.18ZM104.732 20.18V21.68H105.692L106.094 20.8086L104.732 20.18ZM108.212 16.22L109.051 17.4633L109.062 17.4561L109.072 17.4488L108.212 16.22ZM122.732 18.5L121.467 19.3053L121.471 19.3121L121.475 19.3188L122.732 18.5ZM125.312 47V48.5H126.812V47H125.312ZM117.032 47H115.532V48.5H117.032V47ZM115.352 23.42L114.191 24.3699L114.2 24.3802L114.208 24.3905L115.352 23.42ZM105.992 23.48L104.834 22.5264L104.834 22.5264L105.992 23.48ZM104.312 47V48.5H105.812V47H104.312ZM95.9122 47H94.4122V48.5H95.9122V47ZM95.9122 3.92H104.312V0.919998H95.9122V3.92ZM102.812 2.42V20.18H105.812V2.42H102.812ZM104.312 21.68H104.732V18.68H104.312V21.68ZM106.094 20.8086C106.686 19.5271 107.65 18.4094 109.051 17.4633L107.373 14.9767C105.575 16.1906 104.219 17.7129 103.37 19.5514L106.094 20.8086ZM109.072 17.4488C110.38 16.5335 112.007 16.04 114.032 16.04V13.04C111.497 13.04 109.244 13.6665 107.352 14.9912L109.072 17.4488ZM114.032 16.04C117.822 16.04 120.147 17.2322 121.467 19.3053L123.998 17.6947C121.957 14.4878 118.483 13.04 114.032 13.04V16.04ZM121.475 19.3188C123.026 21.6988 123.812 24.4105 123.812 27.5H126.812C126.812 23.8695 125.878 20.5812 123.989 17.6812L121.475 19.3188ZM123.812 27.5V47H126.812V27.5H123.812ZM125.312 45.5H117.032V48.5H125.312V45.5ZM118.532 47V28.88H115.532V47H118.532ZM118.532 28.88C118.532 26.3263 117.914 24.1209 116.496 22.4495L114.208 24.3905C115.03 25.3591 115.532 26.7937 115.532 28.88H118.532ZM116.513 22.4701C115.092 20.7327 113.064 19.94 110.672 19.94V22.94C112.36 22.94 113.453 23.4672 114.191 24.3699L116.513 22.4701ZM110.672 19.94C108.292 19.94 106.28 20.7711 104.834 22.5264L107.15 24.4336C107.944 23.4689 109.052 22.94 110.672 22.94V19.94ZM104.834 22.5264C103.439 24.2211 102.812 26.3885 102.812 28.88H105.812C105.812 26.8915 106.306 25.4589 107.15 24.4336L104.834 22.5264ZM102.812 28.88V47H105.812V28.88H102.812ZM104.312 45.5H95.9122V48.5H104.312V45.5ZM97.4122 47V2.42H94.4122V47H97.4122ZM137.825 45.26L136.982 46.5012L136.995 46.5098L137.008 46.5182L137.825 45.26ZM132.785 39.26L134.152 38.6426L134.152 38.6426L132.785 39.26ZM132.725 22.94L131.354 22.3308L131.349 22.3411L132.725 22.94ZM137.825 16.88L136.992 15.6319L136.992 15.6319L137.825 16.88ZM154.625 16.88L153.792 18.1281L153.8 18.1332L153.808 18.1382L154.625 16.88ZM159.725 39.2L161.092 39.8174L161.095 39.8092L159.725 39.2ZM154.625 45.2L155.457 46.4481L155.457 46.4481L154.625 45.2ZM151.445 38L150.18 37.1929L150.176 37.2L151.445 38ZM151.445 24.08L150.176 24.8799L150.186 24.8961L150.196 24.912L151.445 24.08ZM141.005 24.08L142.265 24.8926L142.269 24.8863L142.273 24.8799L141.005 24.08ZM141.005 38L139.728 38.7877L139.738 38.8037L139.748 38.8194L141.005 38ZM143.105 60.38L142.018 61.4145L142.031 61.4277L142.044 61.4407L143.105 60.38ZM143.105 54.14L142.044 53.0793L142.031 53.0923L142.018 53.1055L143.105 54.14ZM149.405 60.32L148.344 59.2593L148.332 59.2717L148.319 59.2843L149.405 60.32ZM143.225 2V0.499996H142.559L142.112 0.993442L143.225 2ZM149.345 2L150.453 0.989591L150.007 0.499996H149.345V2ZM157.985 11.48V12.98H161.381L159.093 10.4696L157.985 11.48ZM150.365 11.48L149.259 12.4943L149.705 12.98H150.365V11.48ZM146.345 7.1L147.45 6.08573L147.004 5.6H146.345V7.1ZM146.105 7.1V5.6H145.432L144.984 6.1025L146.105 7.1ZM142.205 11.48V12.98H142.877L143.325 12.4775L142.205 11.48ZM134.645 11.48L133.532 10.4734L131.264 12.98H134.645V11.48ZM146.225 45.98C143.13 45.98 140.629 45.2922 138.641 44.0018L137.008 46.5182C139.58 48.1878 142.679 48.98 146.225 48.98V45.98ZM138.667 44.0188C136.657 42.6552 135.158 40.8716 134.152 38.6426L131.417 39.8774C132.651 42.6084 134.512 44.8248 136.982 46.5012L138.667 44.0188ZM134.152 38.6426C133.127 36.3732 132.605 33.866 132.605 31.1H129.605C129.605 34.254 130.202 37.1868 131.417 39.8774L134.152 38.6426ZM132.605 31.1C132.605 28.3265 133.11 25.8128 134.1 23.5389L131.349 22.3411C130.18 25.0272 129.605 27.9535 129.605 31.1H132.605ZM134.095 23.5492C135.101 21.2871 136.615 19.4894 138.657 18.1281L136.992 15.6319C134.474 17.3106 132.588 19.5529 131.354 22.3308L134.095 23.5492ZM138.657 18.1281C140.642 16.8043 143.137 16.1 146.225 16.1V13.1C142.672 13.1 139.567 13.9157 136.992 15.6319L138.657 18.1281ZM146.225 16.1C149.312 16.1 151.807 16.8043 153.792 18.1281L155.457 15.6319C152.882 13.9157 149.777 13.1 146.225 13.1V16.1ZM153.808 18.1382C155.847 19.4615 157.356 21.219 158.357 23.4374L161.092 22.2026C159.853 19.461 157.963 17.2585 155.441 15.6218L153.808 18.1382ZM158.357 23.4374C159.382 25.7068 159.905 28.214 159.905 30.98H162.905C162.905 27.826 162.307 24.8932 161.092 22.2026L158.357 23.4374ZM159.905 30.98C159.905 33.7457 159.382 36.2764 158.354 38.5908L161.095 39.8092C162.307 37.0836 162.905 34.1343 162.905 30.98H159.905ZM158.357 38.5826C157.354 40.8045 155.84 42.5867 153.792 43.9519L155.457 46.4481C157.969 44.7733 159.855 42.5555 161.092 39.8174L158.357 38.5826ZM153.792 43.9519C151.807 45.2757 149.312 45.98 146.225 45.98V48.98C149.777 48.98 152.882 48.1643 155.457 46.4481L153.792 43.9519ZM146.225 42.26C149.018 42.26 151.257 41.1095 152.713 38.8L150.176 37.2C149.312 38.5705 148.071 39.26 146.225 39.26V42.26ZM152.709 38.8071C154.098 36.6312 154.745 33.9932 154.745 30.98H151.745C151.745 33.5668 151.191 35.6088 150.18 37.1929L152.709 38.8071ZM154.745 30.98C154.745 27.9702 154.099 25.3575 152.693 23.2479L150.196 24.912C151.19 26.4025 151.745 28.3898 151.745 30.98H154.745ZM152.713 23.28C151.257 20.9705 149.018 19.82 146.225 19.82V22.82C148.071 22.82 149.312 23.5095 150.176 24.8799L152.713 23.28ZM146.225 19.82C143.431 19.82 141.192 20.9705 139.736 23.28L142.273 24.8799C143.137 23.5095 144.378 22.82 146.225 22.82V19.82ZM139.744 23.2674C138.386 25.3738 137.765 27.979 137.765 30.98H140.765C140.765 28.381 141.303 26.3862 142.265 24.8926L139.744 23.2674ZM137.765 30.98C137.765 33.9846 138.388 36.6152 139.728 38.7877L142.281 37.2123C141.302 35.6248 140.765 33.5754 140.765 30.98H137.765ZM139.748 38.8194C141.237 41.103 143.461 42.26 146.225 42.26V39.26C144.428 39.26 143.172 38.577 142.261 37.1806L139.748 38.8194ZM146.285 60.14C145.368 60.14 144.701 59.8548 144.165 59.3193L142.044 61.4407C143.188 62.5852 144.641 63.14 146.285 63.14V60.14ZM144.191 59.3455C143.676 58.8049 143.405 58.144 143.405 57.26H140.405C140.405 58.856 140.933 60.2751 142.018 61.4145L144.191 59.3455ZM143.405 57.26C143.405 56.376 143.676 55.7151 144.191 55.1745L142.018 53.1055C140.933 54.2449 140.405 55.664 140.405 57.26H143.405ZM144.165 55.2007C144.701 54.6652 145.368 54.38 146.285 54.38V51.38C144.641 51.38 143.188 51.9348 142.044 53.0793L144.165 55.2007ZM146.285 54.38C147.146 54.38 147.799 54.6554 148.344 55.2007L150.465 53.0793C149.33 51.9446 147.903 51.38 146.285 51.38V54.38ZM148.344 55.2007C148.889 55.7459 149.165 56.3984 149.165 57.26H152.165C152.165 55.6416 151.6 54.2141 150.465 53.0793L148.344 55.2007ZM149.165 57.26C149.165 58.0667 148.899 58.7038 148.344 59.2593L150.465 61.3807C151.59 60.2562 152.165 58.8533 152.165 57.26H149.165ZM148.319 59.2843C147.769 59.8614 147.124 60.14 146.285 60.14V63.14C147.926 63.14 149.36 62.5386 150.49 61.3557L148.319 59.2843ZM143.225 3.5H149.345V0.499996H143.225V3.5ZM148.236 3.0104L156.876 12.4904L159.093 10.4696L150.453 0.989591L148.236 3.0104ZM157.985 9.98H150.365V12.98H157.985V9.98ZM151.47 10.4657L147.45 6.08573L145.239 8.11427L149.259 12.4943L151.47 10.4657ZM146.345 5.6H146.105V8.6H146.345V5.6ZM144.984 6.1025L141.084 10.4825L143.325 12.4775L147.225 8.0975L144.984 6.1025ZM142.205 9.98H134.645V12.98H142.205V9.98ZM135.757 12.4866L144.337 3.00655L142.112 0.993442L133.532 10.4734L135.757 12.4866ZM168.239 15.32V13.82H166.739V15.32H168.239ZM176.519 15.32H178.019V13.82H176.519V15.32ZM176.519 47V48.5H178.019V47H176.519ZM168.239 47H166.739V48.5H168.239V47ZM169.019 8.54L167.935 9.57683L167.947 9.58887L167.959 9.60066L169.019 8.54ZM175.619 2L174.535 3.03683L174.547 3.04887L174.559 3.06066L175.619 2ZM175.619 8.54L176.68 9.60066L176.692 9.58887L176.703 9.57683L175.619 8.54ZM168.239 16.82H176.519V13.82H168.239V16.82ZM175.019 15.32V47H178.019V15.32H175.019ZM176.519 45.5H168.239V48.5H176.519V45.5ZM169.739 47V15.32H166.739V47H169.739ZM172.319 8.36C171.37 8.36 170.66 8.05965 170.08 7.47934L167.959 9.60066C169.138 10.7804 170.628 11.36 172.319 11.36V8.36ZM170.103 7.50316C169.492 6.864 169.199 6.13605 169.199 5.24H166.199C166.199 6.90395 166.787 8.376 167.935 9.57683L170.103 7.50316ZM169.199 5.24C169.199 4.29104 169.5 3.58096 170.08 3.00066L167.959 0.879337C166.779 2.05903 166.199 3.54896 166.199 5.24H169.199ZM170.08 3.00066C170.66 2.42035 171.37 2.12 172.319 2.12V-0.880004C170.628 -0.880004 169.138 -0.300357 167.959 0.879337L170.08 3.00066ZM172.319 2.12C173.247 2.12 173.95 2.4247 174.535 3.03683L176.703 0.963163C175.529 -0.264712 174.032 -0.880004 172.319 -0.880004V2.12ZM174.559 3.06066C175.149 3.6505 175.439 4.34513 175.439 5.24H178.439C178.439 3.57487 177.85 2.10949 176.68 0.939337L174.559 3.06066ZM175.439 5.24C175.439 6.13605 175.147 6.864 174.535 7.50316L176.703 9.57683C177.852 8.376 178.439 6.90395 178.439 5.24H175.439ZM174.559 7.47934C173.978 8.05965 173.268 8.36 172.319 8.36V11.36C174.01 11.36 175.5 10.7804 176.68 9.60066L174.559 7.47934Z" fill="#D0A452"/>
<path d="M78.3516 68.416C80.1094 66.2025 82.3555 65.0957 85.0898 65.0957C88.0033 65.0957 90.2005 65.9583 91.6816 67.6836C93.1628 69.4089 93.9196 71.9561 93.9521 75.3252V92H85.7002V75.5205C85.7002 74.1208 85.4154 73.0954 84.8457 72.4443C84.276 71.777 83.3076 71.4434 81.9404 71.4434C80.2477 71.4434 79.0514 71.9805 78.3516 73.0547V92H70.124V54.5H78.3516V68.416ZM97.4434 78.5479C97.4434 75.9111 97.9561 73.5674 98.9814 71.5166C100.007 69.4495 101.472 67.8626 103.376 66.7559C105.297 65.6491 107.559 65.0957 110.163 65.0957C114.167 65.0957 117.3 66.3327 119.562 68.8066C120.572 67.8626 121.076 66.0153 121.076 63.2646H125.568C125.568 67.4964 124.226 70.3366 121.54 71.7852C122.468 73.8034 122.932 76.2285 122.932 79.0605C122.932 83.1784 121.784 86.4499 119.489 88.875C117.211 91.2839 114.118 92.4883 110.212 92.4883C106.436 92.4883 103.409 91.3652 101.13 89.1191C98.8675 86.8568 97.6468 83.7969 97.4678 79.9395L97.4434 78.5479ZM105.671 79.0605C105.671 81.502 106.053 83.2923 106.818 84.4316C107.583 85.571 108.715 86.1406 110.212 86.1406C113.142 86.1406 114.639 83.8864 114.704 79.3779V78.5479C114.704 73.8115 113.19 71.4434 110.163 71.4434C107.412 71.4434 105.923 73.486 105.695 77.5713L105.671 79.0605ZM105.72 97.835C105.72 96.777 106.151 95.9062 107.014 95.2227C107.893 94.5391 108.983 94.1973 110.285 94.1973C111.587 94.1973 112.67 94.5391 113.532 95.2227C114.411 95.9062 114.851 96.777 114.851 97.835C114.851 98.8929 114.411 99.7637 113.532 100.447C112.67 101.131 111.587 101.473 110.285 101.473C108.983 101.473 107.893 101.131 107.014 100.447C106.151 99.7637 105.72 98.8929 105.72 97.835ZM152.302 78.9873C152.302 83.0889 151.374 86.3685 149.519 88.8262C147.679 91.2676 145.189 92.4883 142.048 92.4883C139.623 92.4883 137.629 91.6012 136.066 89.8271V102.156H127.839V65.584H135.529L135.773 68.0254C137.352 66.0723 139.427 65.0957 141.999 65.0957C145.254 65.0957 147.785 66.3001 149.592 68.709C151.398 71.1016 152.302 74.3975 152.302 78.5967V78.9873ZM144.074 78.4746C144.074 73.7871 142.707 71.4434 139.973 71.4434C138.02 71.4434 136.717 72.1432 136.066 73.543V83.9434C136.783 85.4082 138.101 86.1406 140.021 86.1406C142.642 86.1406 143.993 83.8783 144.074 79.3535V78.4746ZM177.985 59.0166V65.584H182.331V71.2969H177.985V83.3818C177.985 84.3747 178.164 85.0664 178.522 85.457C178.881 85.8477 179.589 86.043 180.646 86.043C181.46 86.043 182.144 85.9941 182.697 85.8965V91.7803C181.216 92.2523 179.67 92.4883 178.059 92.4883C175.227 92.4883 173.135 91.821 171.784 90.4863C170.433 89.1517 169.758 87.1253 169.758 84.4072V71.2969H166.389V65.584H169.758V59.0166H177.985ZM200.471 92C200.178 91.4629 199.917 90.6735 199.689 89.6318C198.176 91.5361 196.06 92.4883 193.342 92.4883C190.852 92.4883 188.736 91.7396 186.994 90.2422C185.253 88.7285 184.382 86.8324 184.382 84.5537C184.382 81.6891 185.44 79.5244 187.556 78.0596C189.672 76.5947 192.748 75.8623 196.784 75.8623H199.323V74.4707C199.323 72.0456 198.273 70.833 196.174 70.833C194.221 70.833 193.244 71.7933 193.244 73.7139H185.017C185.017 71.1585 186.099 69.0833 188.264 67.4883C190.445 65.8932 193.22 65.0957 196.589 65.0957C199.958 65.0957 202.619 65.9176 204.572 67.5615C206.525 69.2054 207.526 71.4596 207.575 74.3242V86.0186C207.608 88.4437 207.982 90.2992 208.698 91.585V92H200.471ZM195.319 86.6289C196.345 86.6289 197.191 86.4092 197.858 85.9697C198.542 85.5303 199.03 85.0339 199.323 84.4805V80.2568H196.931C194.066 80.2568 192.634 81.5426 192.634 84.1143C192.634 84.863 192.886 85.4733 193.391 85.9453C193.895 86.401 194.538 86.6289 195.319 86.6289ZM197.37 54.5H206.062L199.274 62.166H192.561L197.37 54.5ZM223.322 86.1406C224.478 86.1406 225.373 85.8314 226.008 85.2129C226.643 84.5781 226.952 83.6992 226.936 82.5762H234.65C234.65 85.4733 233.609 87.8496 231.525 89.7051C229.458 91.5605 226.789 92.4883 223.518 92.4883C219.676 92.4883 216.649 91.2839 214.436 88.875C212.222 86.4661 211.115 83.1296 211.115 78.8652V78.5234C211.115 75.8542 211.604 73.5023 212.58 71.4678C213.573 69.417 214.997 67.8464 216.853 66.7559C218.708 65.6491 220.905 65.0957 223.444 65.0957C226.879 65.0957 229.605 66.0479 231.623 67.9521C233.641 69.8564 234.65 72.4362 234.65 75.6914H226.936C226.936 74.3242 226.602 73.2744 225.935 72.542C225.267 71.8096 224.372 71.4434 223.249 71.4434C221.117 71.4434 219.872 72.8024 219.514 75.5205C219.4 76.3831 219.343 77.5713 219.343 79.085C219.343 81.738 219.66 83.5771 220.295 84.6025C220.93 85.6279 221.939 86.1406 223.322 86.1406Z" fill="#323232"/>
</svg>
