<svg width="199" height="274" viewBox="0 0 199 274" fill="none" xmlns="http://www.w3.org/2000/svg">
<path d="M99.9691 273.238C89.7056 273.238 81.2963 269.845 74.9466 263.188C68.5969 256.53 65.3673 248.373 65.3673 238.934C65.3673 229.494 68.5832 221.337 74.9466 214.673C81.31 208.009 89.7192 204.622 99.9691 204.622C109.733 204.622 118.026 208.016 124.602 214.666C130.976 221.161 134.543 229.867 134.543 238.93C134.543 247.994 130.976 256.7 124.602 263.195C118.033 269.859 109.733 273.238 99.9691 273.238ZM99.9691 205.98C90.1093 205.98 82.0216 209.217 75.9319 215.603C69.8422 221.989 66.7426 229.854 66.7426 238.934C66.7426 248.014 69.8353 255.866 75.9319 262.258C82.0284 268.651 90.1093 271.888 99.9691 271.888C109.357 271.888 117.321 268.644 123.651 262.251C129.771 256.008 133.196 247.642 133.196 238.934C133.196 230.225 129.771 221.86 123.651 215.616C117.321 209.217 109.371 205.98 99.9691 205.98ZM134.92 186.299H65.381V174.532C65.381 164.204 67.5294 155.239 71.7786 147.903C75.9349 140.687 81.2163 134.168 87.427 128.589C93.5852 123.119 99.6954 118.05 105.689 113.53C111.251 109.401 116.355 104.697 120.914 99.4965C125.019 94.7461 127.072 89.4256 127.072 83.6573C127.072 77.2104 124.478 71.605 119.36 66.9836C114.242 62.3622 107.215 60.0005 98.5322 60.0005C90.5815 59.9063 82.8866 62.7845 76.9787 68.0625C70.9096 73.3897 67.8305 82.0083 67.8305 93.6738V94.3525H0.802734V93.6738C0.802734 72.4057 5.64028 54.6393 15.1717 40.8767C24.4391 27.3521 37.3507 16.6815 52.4352 10.0808C67.7439 3.36369 84.3105 -0.0705294 101.05 0.00311289C118.84 0.00311289 135.262 3.45061 149.864 10.264C164.465 17.0774 176.255 26.7275 184.938 38.9292C193.62 51.1309 198.047 65.606 198.047 81.893C198.047 93.6332 195.899 103.724 191.664 111.902C187.658 119.745 182.296 126.83 175.824 132.837C169.841 138.343 163.49 143.442 156.815 148.1C151.192 151.91 145.911 156.195 141.03 160.905C136.979 164.93 134.92 169.524 134.92 174.559V186.299ZM66.7426 184.942H133.558V174.525C133.558 169.096 135.748 164.203 140.072 159.915C145.006 155.147 150.347 150.812 156.035 146.96C162.658 142.335 168.96 137.274 174.9 131.813C181.258 125.912 186.522 118.95 190.452 111.244C194.558 103.27 196.686 93.3821 196.686 81.859C196.686 65.857 192.361 51.667 183.822 39.6689C175.283 27.6708 163.651 18.17 149.282 11.4516C134.913 4.73321 118.662 1.31977 101.05 1.31977C84.5015 1.24846 68.1241 4.64319 52.9894 11.282C38.1374 17.7909 25.429 28.3092 16.3144 41.6369C7.03613 55.0329 2.28754 72.3039 2.1849 93.002H66.5031C66.6194 81.2686 69.8558 72.5415 76.0824 67.0514C82.2355 61.5483 90.2543 58.5485 98.539 58.6501C107.571 58.6501 114.885 61.1135 120.284 65.9793C125.683 70.845 128.44 76.8371 128.44 83.6573C128.44 89.765 126.264 95.3841 121.967 100.372C117.347 105.655 112.17 110.433 106.524 114.623C100.564 119.122 94.4473 124.164 88.3576 129.614C82.2472 135.099 77.0552 141.513 72.976 148.615C68.8706 155.748 66.7563 164.482 66.7563 174.573L66.7426 184.942Z" fill="#CCCCCC"/>
</svg>
