<svg width="1275" height="544" viewBox="0 0 1275 544" fill="none" xmlns="http://www.w3.org/2000/svg">
<g opacity="0.3" clip-path="url(#clip0_810:40)">
<path d="M63.3123 149.135C54.6938 149.212 46.1141 148.017 37.8729 145.593C30.1708 143.267 23.2284 139.062 17.7234 133.388C12.142 127.685 7.74752 119.982 4.64438 110.488C1.54124 100.994 0.00012207 89.0486 0.00012207 74.7824C0.00012207 60.3562 1.56206 48.2409 4.64438 38.7668C7.72669 29.2927 12.173 21.4793 17.8274 15.7568C23.4076 10.0883 30.4325 5.91888 38.2062 3.66159C46.4936 1.3102 55.0985 0.153774 63.7394 0.230109C71.4069 0.255474 79.0628 0.807081 86.6485 1.88079C94.6354 2.99127 102.956 4.44191 111.38 6.20267L112.525 6.44277L106.996 36.816L105.767 36.5859L84.2117 32.4741C78.6772 31.3441 73.0415 30.7343 67.384 30.6533C63.3139 30.592 59.2685 31.2709 55.4609 32.6542C52.0242 34.0236 49.1138 36.3828 47.1304 39.4071C44.8811 42.6985 43.1421 47.2305 41.9238 52.8629C39.5357 67.2383 39.5357 81.8865 41.9238 96.2618C43.09 101.824 44.8186 106.266 47.1304 109.608C49.1048 112.637 52.0184 114.995 55.4609 116.351C59.266 117.742 63.3132 118.421 67.384 118.351C73.041 118.272 78.6766 117.666 84.2117 116.541C90.6193 115.3 97.8044 113.933 105.767 112.439L107.006 112.199L112.307 143.042L111.172 143.272C102.55 145.053 94.198 146.494 86.3256 147.564C78.702 148.602 71.0121 149.127 63.3123 149.135V149.135ZM63.7394 2.56108C55.3385 2.48668 46.9724 3.60939 38.9142 5.89254C31.5446 8.03518 24.8858 11.9909 19.5976 17.3676C14.2036 22.8199 9.95511 30.2531 6.97693 39.4571C3.99875 48.6611 2.43665 60.5963 2.43665 74.7824C2.43665 88.9686 3.96751 100.594 6.97693 109.798C9.98635 119.002 14.1829 126.365 19.4728 131.807C24.6897 137.192 31.2745 141.181 38.5809 143.382C46.582 145.739 54.913 146.9 63.2813 146.824C70.8643 146.788 78.4353 146.246 85.9402 145.203C93.3961 144.203 101.31 142.832 109.464 141.201L104.955 114.96C97.4781 116.374 90.706 117.664 84.6386 118.832C78.9459 119.988 73.1499 120.612 67.3319 120.692C62.9525 120.772 58.5976 120.046 54.5028 118.551C50.6296 117.004 47.3541 114.336 45.1309 110.918C42.3862 106.566 40.5175 101.757 39.6222 96.742C37.1647 82.0632 37.1647 67.1015 39.6222 52.4228C40.851 46.4902 42.7462 41.6881 45.1309 38.1366C47.3598 34.7214 50.6333 32.0517 54.5028 30.4932C58.6007 29.0111 62.9539 28.2881 67.3319 28.3623C73.15 28.4413 78.9462 29.0645 84.6386 30.2231C90.706 31.397 97.4816 32.6875 104.965 34.0948L109.662 8.30362C101.685 6.66291 93.8127 5.30232 86.2527 4.30188C78.7998 3.22072 71.2765 2.64902 63.7394 2.59112V2.56108Z" fill="white"/>
<path d="M187.813 148.715C173.349 148.715 161.634 146.714 152.991 142.762C144.348 138.81 137.548 133.348 132.893 126.565C128.103 119.386 125.02 111.28 123.865 102.825C122.458 93.3978 121.762 83.8855 121.783 74.3623C121.76 64.8755 122.456 55.3997 123.865 46.01C125.045 37.5608 128.126 29.4597 132.893 22.2696C137.882 15.1428 144.843 9.49527 152.991 5.96257C161.644 1.96083 173.359 -0.0400391 187.813 -0.0400391C202.266 -0.0400391 213.981 1.96083 222.624 5.96257C231.267 9.96431 238.077 15.4167 242.722 22.2696C247.492 29.4583 250.573 37.56 251.75 46.01C253.158 55.3999 253.854 64.8755 253.833 74.3623C253.851 83.8855 253.155 93.3976 251.75 102.825C250.598 111.28 247.515 119.387 242.722 126.565C238.077 133.338 231.267 138.79 222.624 142.762C213.981 146.734 202.277 148.715 187.813 148.715ZM187.813 2.35101C173.724 2.35101 162.363 4.28183 154.043 8.08348C146.292 11.4434 139.674 16.8179 134.934 23.6002C130.365 30.5081 127.412 38.2876 126.281 46.4001C124.906 55.6784 124.234 65.0405 124.271 74.4123C124.237 83.8206 124.909 93.219 126.281 102.535C127.387 110.65 130.342 118.431 134.934 125.324C139.339 131.737 145.764 136.909 154.043 140.691C162.321 144.473 173.713 146.414 187.813 146.414C201.912 146.414 213.273 144.493 221.583 140.691C229.893 136.889 236.286 131.687 240.681 125.324C245.278 118.433 248.233 110.651 249.334 102.535C250.704 93.2188 251.376 83.8205 251.344 74.4123C251.379 65.0405 250.707 55.6786 249.334 46.4001C248.214 38.288 245.269 30.5076 240.702 23.6002C235.956 16.8389 229.343 11.4827 221.604 8.13349C213.252 4.28182 201.891 2.35101 187.813 2.35101ZM187.813 120.222C181.69 120.222 176.671 119.512 172.911 118.111C169.074 116.704 165.889 114.02 163.935 110.548C161.926 107.086 160.624 102.334 160.03 96.4119C159.458 90.6494 159.176 83.2362 159.176 74.4023C159.176 65.5685 159.458 58.1153 160.03 52.3928C160.614 46.4802 161.926 41.7181 163.925 38.2566C165.879 34.7811 169.068 32.0966 172.911 30.6933C176.691 29.2827 181.7 28.5724 187.813 28.5724C193.925 28.5724 198.924 29.2827 202.714 30.6933C206.553 32.1002 209.738 34.784 211.69 38.2566C213.69 41.7181 215.002 46.4802 215.585 52.3928C216.168 58.3053 216.449 65.5885 216.449 74.4023C216.449 83.2162 216.158 90.6594 215.585 96.4119C215.012 102.164 213.69 107.086 211.69 110.548C209.732 114.016 206.549 116.698 202.714 118.111C198.945 119.512 193.936 120.222 187.813 120.222V120.222ZM187.813 30.8434C182.002 30.8434 177.285 31.5137 173.797 32.8442C170.491 34.0538 167.748 36.3655 166.07 39.3571C164.227 42.5385 163.019 46.9804 162.467 52.5728C161.915 58.1653 161.613 65.5785 161.613 74.3923C161.613 83.2061 161.905 90.5293 162.467 96.2218C163.03 101.914 164.227 106.226 166.07 109.438C167.748 112.429 170.491 114.741 173.797 115.95C177.275 117.251 181.992 117.951 187.813 117.951C193.634 117.951 198.341 117.291 201.829 115.95C205.133 114.738 207.875 112.427 209.556 109.438C211.388 106.266 212.596 101.814 213.159 96.2218C213.721 90.6294 214.013 83.1561 214.013 74.3923C214.013 65.6285 213.721 58.2853 213.159 52.5728C212.596 46.8604 211.388 42.5685 209.556 39.3571C207.875 36.3672 205.133 34.0561 201.829 32.8442C198.33 31.5137 193.613 30.8434 187.813 30.8434V30.8434Z" fill="white"/>
<path d="M440.698 147.284H400.492V64.4978L367.618 129.446H343.417L310.543 64.4978V147.284H270.765V1.44043H317.978L355.83 75.9828L393.474 1.44043H440.698V147.284ZM402.929 144.933H438.261V3.79149H395.005L355.841 81.3451L316.447 3.79149H273.201V144.933H308.106V54.3034L344.948 127.105H366.087L402.929 54.3034V144.933Z" fill="white"/>
<path d="M631.02 147.284H590.815V64.4978L557.94 129.446H533.74L500.876 64.4978V147.284H461.087V1.44043H508.321L546.184 75.9828L583.828 1.44043H631.041L631.02 147.284ZM593.262 144.933H628.584V3.79149H585.379L546.205 81.3451L506.822 3.79149H463.545V144.933H498.439V54.3034L535.281 127.105H556.42L593.273 54.3034L593.262 144.933Z" fill="white"/>
<path d="M714.191 148.925C700.175 148.925 688.939 147.274 680.868 144.022C672.798 140.771 666.29 136.019 662.125 130.016C657.711 123.551 654.943 116.18 654.044 108.497C652.845 99.4025 652.271 90.242 652.326 81.075V1.44043H692.104V80.995C692.104 89.9989 692.281 97.0019 692.635 102.004C692.989 107.006 693.895 110.528 695.374 112.959C696.008 114.061 696.889 115.014 697.953 115.75C699.018 116.485 700.239 116.984 701.528 117.211C709.963 118.398 718.533 118.398 726.968 117.211C728.258 116.983 729.48 116.483 730.546 115.748C731.612 115.013 732.495 114.061 733.132 112.959C734.601 110.528 735.517 106.846 735.861 102.014C736.215 97.012 736.392 89.9289 736.392 81.005V1.44043H776.17V81.1251C776.223 90.2917 775.653 99.4518 774.463 108.547C773.559 116.229 770.792 123.6 766.382 130.066C762.133 136.069 755.792 140.731 747.513 144.072C739.235 147.414 728.04 148.925 714.191 148.925ZM654.711 3.79149V81.1251C654.656 90.188 655.219 99.2446 656.397 108.237C657.247 115.558 659.88 122.584 664.082 128.746C668.039 134.328 673.985 138.75 681.785 141.851C689.584 144.953 700.529 146.573 714.222 146.573C727.915 146.573 738.641 144.993 746.555 141.851C754.469 138.71 760.363 134.338 764.331 128.746C768.522 122.58 771.15 115.555 772.005 108.237C773.187 99.2449 773.754 90.1882 773.702 81.1251V3.79149H738.808V80.995C738.808 89.9989 738.62 97.082 738.266 102.144C737.891 107.426 736.891 111.338 735.205 114.149C734.396 115.534 733.281 116.731 731.939 117.658C730.597 118.584 729.06 119.217 727.436 119.512C718.676 120.779 709.768 120.779 701.008 119.512C699.382 119.218 697.843 118.586 696.499 117.66C695.155 116.733 694.039 115.535 693.229 114.149C691.542 111.368 690.542 107.456 690.167 102.144C689.813 97.142 689.637 89.9989 689.637 80.995V3.79149H654.711Z" fill="white"/>
<path d="M926.933 147.284H887.363L887.008 146.744L835.619 68.9698V147.284H795.622V1.44043H835.297L887.175 79.7745V1.44043H926.933V147.284ZM888.696 144.933H924.486V3.79149H889.591V87.828L833.932 3.79149H798.048V144.933H833.214V60.8963L888.696 144.933Z" fill="white"/>
<path d="M987.548 147.284H947.759V1.44043H987.538L987.548 147.284ZM950.217 144.933H985.112V3.79149H950.217V144.933Z" fill="white"/>
<path d="M1081.05 147.284H1041.26V32.2338H1000.72V1.44043H1121.37V32.2838H1081.05V147.284ZM1043.71 144.933H1078.6V29.9429H1118.93V3.79149H1003.13V29.9429H1043.67L1043.71 144.933Z" fill="white"/>
<path d="M1220.12 147.284H1180.34V98.6328L1125.74 1.43066H1169.97L1200.23 63.1975L1230.5 1.43066H1274.73L1220.12 98.6328V147.284ZM1182.79 144.933H1217.68V98.0526L1217.83 97.7925L1270.62 3.75162H1232.09L1200.27 68.6798L1168.46 3.75162H1129.88L1182.83 98.0126L1182.79 144.933Z" fill="white"/>
<path d="M172.495 344.389H132.29V261.603L99.4151 326.551H75.2148L42.3402 261.603V344.389H2.56177V198.546H49.7751L87.6273 273.088L125.271 198.546H172.495V344.389ZM134.726 342.048H170.058V200.897H126.802L87.6273 278.461L48.234 200.897H4.98788V342.048H39.893V251.409L76.7351 324.21H97.874L134.716 251.409L134.726 342.048Z" fill="white"/>
<path d="M336.014 344.389H292.841L284.51 318.378H236.609L228.279 344.389H185.324L239.316 198.546H282.011L336.014 344.389ZM294.642 342.048H332.557L280.272 200.897H241.024L188.771 342.048H226.467L234.797 316.037H286.311L294.642 342.048ZM278.335 289.866H242.586L260.487 234.512L278.335 289.866ZM245.908 287.515H275.065L260.487 242.425L245.908 287.515Z" fill="white"/>
<path d="M406.188 344.389H348.853V198.546L406.407 198.756C420.6 198.756 432.253 200.657 441.031 204.398C449.809 208.14 456.818 213.402 461.701 219.945C466.724 226.894 470.075 234.829 471.511 243.175C474.805 262.052 474.805 281.323 471.511 300.2C470.08 308.548 466.729 316.484 461.701 323.43C456.828 329.993 449.83 335.195 440.875 338.897C431.92 342.598 420.361 344.389 406.188 344.389ZM351.3 342.048H406.188C420.028 342.048 431.389 340.247 439.959 336.716C448.529 333.184 455.099 328.252 459.744 322.04C464.548 315.372 467.749 307.762 469.116 299.76C472.365 281.165 472.365 262.18 469.116 243.585C467.743 235.585 464.542 227.976 459.744 221.306C455.12 215.093 448.508 210.121 440.083 206.539C431.659 202.958 420.298 201.107 406.438 201.107L351.342 200.897L351.3 342.048ZM406.407 315.907H386.622V227.248H406.407C411.6 227.101 416.782 227.777 421.746 229.249C425.721 230.526 429.09 233.127 431.243 236.582C433.377 239.984 434.835 244.586 435.564 250.308C436.349 257.402 436.697 264.534 436.605 271.668C436.699 278.768 436.351 285.867 435.564 292.927C434.835 298.569 433.388 303.151 431.243 306.543C429.082 309.994 425.717 312.596 421.746 313.886C416.782 315.361 411.601 316.044 406.407 315.907ZM389.069 313.556H406.407C411.324 313.698 416.232 313.063 420.934 311.675C424.37 310.571 427.283 308.326 429.15 305.342C431.118 302.231 432.461 297.959 433.138 292.647C433.921 285.67 434.269 278.654 434.179 271.638C434.265 264.598 433.917 257.559 433.138 250.558C432.461 245.186 431.118 240.884 429.15 237.773C427.288 234.787 424.379 232.538 420.944 231.43C416.224 230.044 411.299 229.412 406.366 229.559H389.027L389.069 313.556Z" fill="white"/>
<path d="M599.229 344.389H491.973V198.546H598.115V229.189L531.751 229.389V252.699H594.054V283.513H531.751V313.526H599.177L599.229 344.389ZM494.461 342.048H596.834V315.907H529.356V281.162H591.627V255.02H529.356V227.008L595.72 226.808V200.897H494.461V342.048Z" fill="white"/>
<path d="M43.4024 541.495H3.6239V395.662H72.4864C79.266 395.583 86.0014 396.723 92.3445 399.024C98.1408 401.147 103.386 404.459 107.714 408.728C112.057 413.111 115.417 418.303 117.586 423.984C119.987 430.399 121.168 437.177 121.075 443.993C121.192 451.082 119.967 458.133 117.461 464.802C115.294 470.522 111.878 475.731 107.444 480.079C103.047 484.242 97.7447 487.416 91.9176 489.373C85.5615 491.512 78.8671 492.575 72.1325 492.514H43.3919L43.4024 541.495ZM6.07086 539.154H40.9656V490.133H72.1427C78.5895 490.189 84.998 489.174 91.0845 487.132C96.5754 485.283 101.574 482.294 105.725 478.378C109.91 474.263 113.133 469.338 115.181 463.932C117.584 457.518 118.752 450.738 118.627 443.923C118.725 437.393 117.596 430.9 115.295 424.755C113.238 419.369 110.048 414.447 105.923 410.298C101.841 406.272 96.8944 403.148 91.428 401.144C85.366 398.953 78.9316 397.867 72.4551 397.943H6.03959L6.07086 539.154ZM66.2072 464.012H41.3927V424.154H66.2072C71.5388 424.154 75.8499 425.825 79.0155 429.157C82.1811 432.488 83.7327 437.46 83.7327 444.163C83.7327 450.866 82.1084 456.048 78.8907 459.25C77.2367 460.846 75.2546 462.094 73.0709 462.914C70.8872 463.734 68.5496 464.108 66.2072 464.012V464.012ZM43.8396 461.661H66.2072C68.2275 461.752 70.2452 461.432 72.1277 460.722C74.0102 460.011 75.7151 458.927 77.1307 457.539C79.8902 454.788 81.296 450.266 81.296 444.083C81.296 437.9 79.9215 433.529 77.2141 430.707C74.5066 427.886 70.8932 426.495 66.2072 426.495H43.8917L43.8396 461.661Z" fill="white"/>
<path d="M262.455 541.495H219.511L191.697 489.472H174.619V541.495H134.841V395.661L204.339 395.451C210.974 395.371 217.566 396.477 223.78 398.713C229.432 400.773 234.56 403.973 238.817 408.097C243.072 412.319 246.363 417.349 248.48 422.863C250.82 429.107 251.967 435.706 251.864 442.342C251.864 452.196 249.907 460.59 246.043 467.353C242.487 473.581 237.241 478.767 230.861 482.359L262.455 541.495ZM221.01 539.154H258.498L227.654 481.419L228.695 480.868C235.135 477.468 240.428 472.368 243.951 466.172C247.606 459.809 249.469 451.796 249.469 442.342C249.568 435.986 248.471 429.665 246.231 423.684C244.233 418.476 241.126 413.726 237.109 409.738C233.097 405.853 228.264 402.841 222.937 400.904C217.005 398.773 210.713 397.721 204.38 397.802L137.329 398.002V539.154H172.224V487.131H193.238L221.01 539.154ZM197.643 460.52H171.745L171.974 423.954H197.862C202.766 423.954 206.713 425.484 209.597 428.506C212.482 431.527 213.887 436.119 213.887 442.242C213.887 448.644 212.388 453.346 209.451 456.248C206.515 459.149 202.547 460.52 197.643 460.52V460.52ZM174.203 458.179H197.643C201.923 458.179 205.213 456.998 207.713 454.557C210.212 452.116 211.44 448.004 211.44 442.242C211.44 436.719 210.212 432.638 207.796 430.086C205.38 427.535 202.11 426.295 197.862 426.295H174.401L174.203 458.179Z" fill="white"/>
<path d="M338.659 542.926C324.195 542.926 312.48 540.925 303.837 536.974C295.194 533.022 288.394 527.56 283.739 520.777C278.951 513.597 275.868 505.491 274.711 497.036C273.326 487.608 272.648 478.096 272.68 468.574C272.646 459.089 273.324 449.613 274.711 440.222C275.893 431.773 278.974 423.672 283.739 416.481C288.725 409.354 295.686 403.709 303.837 400.184C312.49 396.183 324.205 394.182 338.659 394.182C353.112 394.182 364.827 396.183 373.47 400.184C381.621 403.709 388.582 409.354 393.568 416.481C398.336 423.671 401.417 431.772 402.596 440.222C404.003 449.611 404.699 459.087 404.678 468.574C404.697 478.097 404.001 487.609 402.596 497.036C401.444 505.492 398.361 513.599 393.568 520.777C388.923 527.56 382.113 533.002 373.47 536.974C364.827 540.945 353.164 542.926 338.659 542.926ZM338.659 396.563C324.57 396.563 313.209 398.493 304.888 402.295C297.146 405.644 290.53 411 285.78 417.762C281.209 424.673 278.256 432.456 277.127 440.572C275.751 449.85 275.079 459.212 275.117 468.584C275.083 477.992 275.755 487.391 277.127 496.706C278.231 504.822 281.186 512.603 285.78 519.496C290.185 525.909 296.61 531.081 304.888 534.863C313.167 538.644 324.559 540.595 338.659 540.595C352.758 540.595 364.119 538.664 372.429 534.863C380.739 531.061 387.132 525.859 391.527 519.496C396.124 512.605 399.078 504.823 400.18 496.706C401.55 487.39 402.222 477.992 402.19 468.584C402.225 459.212 401.553 449.85 400.18 440.572C399.05 432.459 396.098 424.679 391.527 417.772C386.782 411.01 380.168 405.654 372.429 402.305C364.109 398.494 352.737 396.563 338.659 396.563ZM338.659 514.444C332.536 514.444 327.517 513.734 323.757 512.323C319.918 510.918 316.731 508.234 314.781 504.76C312.782 501.298 311.47 496.546 310.876 490.623C310.314 484.871 310.022 477.448 310.022 468.614C310.022 459.78 310.314 452.327 310.876 446.604C311.47 440.692 312.771 435.94 314.781 432.468C316.734 428.996 319.919 426.312 323.757 424.905C327.537 423.504 332.546 422.784 338.659 422.784C344.771 422.784 349.78 423.504 353.56 424.905C357.396 426.315 360.581 428.998 362.536 432.468C364.536 435.94 365.848 440.692 366.431 446.604C367.014 452.517 367.295 459.81 367.295 468.614C367.295 477.418 367.003 484.871 366.431 490.623C365.858 496.376 364.536 501.298 362.536 504.76C360.581 508.23 357.396 510.913 353.56 512.323C349.79 513.734 344.834 514.444 338.659 514.444V514.444ZM338.659 425.065C332.848 425.065 328.141 425.725 324.643 427.066C321.337 428.275 318.594 430.587 316.916 433.579C315.073 436.76 313.865 441.212 313.313 446.794C312.761 452.377 312.459 459.8 312.459 468.614C312.459 477.428 312.751 484.761 313.313 490.443C313.875 496.126 315.073 500.448 316.916 503.659C318.597 506.651 321.338 508.965 324.643 510.182C328.121 511.473 332.838 512.183 338.659 512.183C344.48 512.183 349.197 511.523 352.675 510.182C355.978 508.963 358.718 506.649 360.401 503.659C362.234 500.488 363.452 496.036 364.004 490.443C364.556 484.851 364.858 477.378 364.858 468.614C364.858 459.85 364.567 452.517 364.004 446.804C363.442 441.092 362.234 436.8 360.401 433.579C358.721 430.589 355.979 428.278 352.675 427.066C349.176 425.775 344.459 425.065 338.659 425.065Z" fill="white"/>
<path d="M482.674 543.346C474.36 543.393 466.096 542.122 458.213 539.584C450.5 537.053 443.559 532.726 438.011 526.989C432.294 521.126 427.765 513.353 424.537 503.899C421.309 494.445 419.694 482.65 419.694 468.784C419.694 454.918 421.288 442.912 424.432 433.478C427.577 424.044 432.086 416.221 437.803 410.368C443.491 404.537 450.634 400.199 458.557 397.763C467.049 395.199 475.907 393.933 484.808 394.011C494.032 394.075 503.231 394.949 512.289 396.622C521.942 398.343 532.011 400.624 542.216 403.355L543.351 403.655L535.76 433.668L534.573 433.378C524.816 431.067 515.902 429.036 508.103 427.376C501.39 425.827 494.522 424.982 487.62 424.855C483.417 424.775 479.238 425.475 475.312 426.915C471.773 428.331 468.771 430.754 466.71 433.858C464.079 437.978 462.264 442.53 461.358 447.284C459.971 454.367 459.34 461.568 459.473 468.774C459.473 477.948 460.139 485.481 461.472 491.163C462.805 496.846 464.596 501.268 466.679 504.409C468.442 507.163 471 509.367 474.041 510.752C476.928 511.917 480.032 512.506 483.163 512.483C486.807 512.481 490.44 512.112 494.003 511.382C497.367 510.692 500.699 509.851 503.917 508.891V483.48H478.31V452.637H543.726L543.945 528.57L543.216 528.88C533.417 533.121 523.28 536.604 512.903 539.294C503.055 541.91 492.891 543.273 482.674 543.346V543.346ZM484.808 396.362C476.161 396.279 467.554 397.508 459.306 400.004C451.773 402.323 444.984 406.456 439.584 412.009C434.127 417.601 429.806 425.075 426.755 434.219C423.703 443.363 422.131 455.068 422.131 468.814C422.131 482.56 423.724 494.005 426.859 503.199C429.993 512.393 434.325 519.806 439.792 525.408C445.061 530.878 451.663 535.003 459.004 537.413C466.633 539.867 474.629 541.097 482.674 541.055C492.685 540.975 502.642 539.629 512.289 537.053C522.288 534.452 532.06 531.107 541.519 527.049L541.31 455.018H480.81V481.169H506.405V510.642L505.562 510.902C502.001 512.002 498.273 512.903 494.566 513.723C490.834 514.485 487.03 514.871 483.215 514.874C479.75 514.895 476.317 514.238 473.125 512.943C469.647 511.385 466.719 508.885 464.7 505.75C462.347 502.368 460.462 497.646 459.088 491.744C457.713 485.841 457.005 478.188 457.005 468.844C456.871 461.463 457.52 454.089 458.942 446.834C459.914 441.79 461.852 436.962 464.659 432.598C466.983 429.095 470.376 426.366 474.374 424.785C478.59 423.224 483.082 422.463 487.599 422.544C494.684 422.671 501.733 423.537 508.623 425.125C516.121 426.765 524.639 428.706 533.948 430.907L540.405 405.336C530.647 402.745 521.046 400.604 511.82 398.953C502.917 397.303 493.875 396.435 484.808 396.362Z" fill="white"/>
<path d="M691.959 541.495H649.015L621.201 489.472H604.123V541.495H564.345V395.661L633.842 395.451C640.474 395.372 647.063 396.478 653.273 398.713C658.93 400.771 664.061 403.971 668.32 408.097C672.576 412.317 675.864 417.348 677.973 422.863C680.317 429.106 681.468 435.705 681.368 442.342C681.368 452.196 679.411 460.59 675.547 467.353C671.991 473.581 666.744 478.767 660.365 482.359L691.959 541.495ZM650.514 539.154H688.002L657.157 481.419L658.199 480.868C664.639 477.471 669.93 472.371 673.444 466.172C677.109 459.809 678.963 451.796 678.963 442.342C679.065 435.986 677.971 429.666 675.735 423.684C673.73 418.486 670.62 413.746 666.602 409.768C662.59 405.883 657.757 402.871 652.43 400.934C646.498 398.803 640.206 397.751 633.874 397.832L566.823 398.032V539.184H601.717V487.161H622.721L650.514 539.154ZM627.147 460.52H601.249L601.478 423.954H627.365C632.27 423.954 636.217 425.484 639.101 428.506C641.986 431.527 643.381 436.119 643.381 442.242C643.381 448.644 641.892 453.346 638.955 456.248C636.019 459.149 632.051 460.52 627.147 460.52V460.52ZM603.707 458.179H627.147C631.427 458.179 634.717 456.998 637.216 454.557C639.715 452.116 640.944 448.004 640.944 442.242C640.944 436.719 639.715 432.638 637.289 430.086C634.863 427.535 631.614 426.295 627.365 426.295H603.904L603.707 458.179Z" fill="white"/>
<path d="M812.804 541.496H705.548V395.662H811.679V426.295L745.326 426.495V449.786H807.628V480.619H745.326V510.632H812.752L812.804 541.496ZM708.037 539.154H810.357V513.013H742.931V478.268H805.233V452.127H742.931V424.114L809.295 423.914V397.963H708.037V539.154Z" fill="white"/>
<path d="M877.991 543.956C868.41 543.945 858.84 543.327 849.344 542.105C839.972 540.905 831.163 539.654 823.165 538.403L821.936 538.213L828.184 506.12L829.424 506.38C835.765 507.74 843.169 509.011 851.416 510.161C859.236 511.278 867.128 511.857 875.033 511.892C878.614 511.902 882.192 511.668 885.738 511.192C888.707 510.803 891.616 510.071 894.402 509.011C896.579 508.199 898.507 506.871 900.004 505.149C901.368 503.429 902.064 501.306 901.972 499.146C902.063 497.246 901.512 495.368 900.4 493.794C899.061 492.182 897.345 490.896 895.391 490.042C892.579 488.758 889.651 487.72 886.644 486.941C883.097 485.994 878.976 484.907 874.284 483.68C865.555 481.24 856.984 478.306 848.615 474.896C842.764 472.586 837.373 469.32 832.683 465.242C828.897 461.823 826.102 457.517 824.571 452.746C823.005 447.294 822.269 441.653 822.384 435.999C822.384 427.995 824.186 421.263 827.726 415.9C831.294 410.531 836.197 406.1 841.992 403.005C848.358 399.651 855.252 397.322 862.402 396.112C870.301 394.705 878.319 394.009 886.353 394.031C894.808 394.024 903.252 394.619 911.615 395.812C919.852 396.992 928.276 398.563 936.607 400.464L937.721 400.724L931.952 431.737L930.703 431.447C924.194 429.956 916.718 428.446 908.47 427.065C900.766 425.692 892.949 424.979 885.113 424.934C882.058 424.928 879.005 425.095 875.971 425.434C873.447 425.694 870.974 426.287 868.619 427.195C866.804 427.864 865.168 428.914 863.829 430.266C862.734 431.459 862.16 433.01 862.225 434.598C862.144 435.948 862.446 437.293 863.1 438.49C863.506 439.1 864.558 440.111 867.265 441.431C870.606 442.923 874.063 444.161 877.605 445.133C881.968 446.444 887.883 448.134 896.203 450.455C904.524 452.776 911.688 455.317 917.509 457.658C922.834 459.695 927.7 462.701 931.837 466.512C935.625 470.224 938.369 474.799 939.814 479.808C941.397 485.01 942.209 491.693 942.209 499.677C942.209 508.45 940.345 515.784 936.68 521.466C933.098 527.087 928.112 531.76 922.174 535.062C915.841 538.54 908.917 540.911 901.723 542.065C893.886 543.369 885.944 544.001 877.991 543.956V543.956ZM824.789 536.283C832.433 537.463 840.795 538.644 849.667 539.774C859.055 540.989 868.518 541.601 877.991 541.605C885.786 541.627 893.567 540.984 901.244 539.684C908.154 538.578 914.807 536.305 920.893 532.971C926.48 529.855 931.175 525.455 934.555 520.166C937.971 514.853 939.71 507.94 939.71 499.607C939.71 491.853 938.939 485.38 937.419 480.398C936.089 475.769 933.56 471.539 930.067 468.103C926.152 464.513 921.557 461.677 916.53 459.749C910.792 457.448 903.701 455.047 895.475 452.636C887.248 450.225 881.229 448.635 876.856 447.314C873.186 446.297 869.604 445.009 866.141 443.462C863.496 442.192 861.809 440.941 860.934 439.661C860.03 438.095 859.597 436.317 859.684 434.528C859.622 432.361 860.419 430.251 861.913 428.626C863.502 427.018 865.439 425.765 867.588 424.954C870.15 423.966 872.841 423.32 875.585 423.033C878.717 422.682 881.867 422.508 885.02 422.513C892.999 422.561 900.958 423.287 908.804 424.684C916.572 426.015 923.663 427.405 929.911 428.816L934.816 402.474C926.933 400.694 918.987 399.233 911.188 398.113C902.945 396.941 894.623 396.355 886.29 396.362C878.415 396.33 870.554 396.999 862.808 398.363C855.926 399.532 849.289 401.772 843.159 404.996C837.712 407.904 833.103 412.067 829.746 417.111C826.456 422.113 824.789 428.426 824.789 435.949C824.677 441.373 825.379 446.784 826.872 452.016C828.289 456.401 830.865 460.358 834.349 463.501C838.829 467.39 843.976 470.504 849.563 472.705C857.83 476.069 866.297 478.961 874.919 481.369C879.584 482.589 883.718 483.68 887.269 484.64C890.427 485.454 893.501 486.542 896.453 487.891C898.745 488.915 900.757 490.44 902.327 492.344C903.766 494.317 904.497 496.688 904.409 499.096C904.506 501.803 903.615 504.458 901.889 506.6C900.133 508.62 897.877 510.185 895.329 511.152C892.355 512.282 889.25 513.064 886.082 513.483C882.418 513.975 878.722 514.216 875.023 514.203C867.006 514.165 859.003 513.58 851.072 512.452C843.294 511.362 836.255 510.171 830.132 508.901L824.789 536.283Z" fill="white"/>
<path d="M1006.8 543.956C997.221 543.945 987.652 543.327 978.155 542.105C968.783 540.905 959.984 539.654 951.987 538.403L950.748 538.213L956.996 506.119L958.225 506.379C964.577 507.74 971.98 509.011 980.217 510.161C988.037 511.278 995.929 511.856 1003.83 511.892C1007.42 511.902 1010.99 511.668 1014.54 511.192C1017.51 510.804 1020.42 510.072 1023.21 509.011C1025.39 508.197 1027.31 506.868 1028.81 505.149C1030.17 503.43 1030.87 501.307 1030.78 499.146C1030.87 497.246 1030.32 495.368 1029.21 493.794C1027.87 492.184 1026.15 490.899 1024.2 490.042C1021.39 488.759 1018.46 487.721 1015.46 486.941C1011.91 485.994 1007.78 484.907 1003.08 483.68C994.356 481.238 985.786 478.305 977.416 474.896C971.568 472.586 966.181 469.32 961.494 465.242C957.705 461.825 954.909 457.518 953.382 452.746C951.812 447.295 951.075 441.654 951.196 435.999C951.196 427.995 952.987 421.263 956.538 415.9C960.103 410.529 965.006 406.097 970.804 403.005C977.165 399.651 984.057 397.322 991.203 396.112C999.102 394.706 1007.12 394.009 1015.15 394.031C1023.61 394.024 1032.05 394.62 1040.41 395.812C1048.65 396.992 1057.07 398.563 1065.4 400.463L1066.52 400.724L1060.75 431.737L1059.49 431.447C1053 429.956 1045.52 428.446 1037.27 427.065C1029.56 425.692 1021.74 424.978 1013.9 424.934C1010.85 424.928 1007.8 425.095 1004.77 425.434C1002.25 425.693 999.774 426.285 997.42 427.195C995.604 427.867 993.965 428.916 992.62 430.266C991.529 431.461 990.955 433.011 991.016 434.598C990.937 435.949 991.243 437.294 991.901 438.49C992.296 439.1 993.348 440.111 996.066 441.431C999.408 442.921 1002.86 444.159 1006.41 445.133C1010.78 446.443 1016.68 448.134 1025.01 450.455C1033.35 452.776 1040.5 455.317 1046.32 457.658C1051.64 459.697 1056.51 462.704 1060.65 466.512C1064.43 470.227 1067.18 474.801 1068.63 479.808C1070.21 485.01 1071.01 491.693 1071.01 499.677C1071.01 508.45 1069.16 515.784 1065.49 521.466C1061.91 527.085 1056.92 531.758 1050.99 535.062C1044.65 538.537 1037.73 540.908 1030.53 542.065C1022.7 543.368 1014.76 544.001 1006.8 543.956V543.956ZM953.612 536.282C961.255 537.463 969.617 538.644 978.478 539.774C987.867 540.989 997.329 541.6 1006.8 541.605C1014.6 541.628 1022.38 540.985 1030.05 539.684C1036.97 538.579 1043.63 536.306 1049.72 532.971C1055.3 529.855 1060 525.455 1063.38 520.166C1066.79 514.853 1068.53 507.94 1068.53 499.607C1068.53 491.853 1067.76 485.38 1066.23 480.398C1064.91 475.766 1062.38 471.534 1058.88 468.103C1054.97 464.509 1050.37 461.673 1045.34 459.749C1039.6 457.448 1032.51 455.047 1024.29 452.636C1016.06 450.225 1010.04 448.634 1005.66 447.314C1001.99 446.295 998.406 445.008 994.942 443.462C992.307 442.192 990.61 440.941 989.735 439.661C988.831 438.094 988.398 436.317 988.485 434.528C988.424 432.361 989.22 430.251 990.714 428.626C992.299 427.018 994.233 425.765 996.379 424.954C998.944 423.967 1001.64 423.32 1004.39 423.033C1007.51 422.682 1010.66 422.508 1013.81 422.513C1021.79 422.56 1029.76 423.287 1037.6 424.684C1045.37 426.015 1052.46 427.405 1058.71 428.816L1063.62 402.474C1055.73 400.694 1047.79 399.233 1039.99 398.112C1031.75 396.94 1023.42 396.355 1015.09 396.362C1007.22 396.329 999.355 396.999 991.609 398.363C984.724 399.53 978.083 401.771 971.949 404.995C966.504 407.901 961.898 412.065 958.547 417.111C955.257 422.113 953.58 428.426 953.58 435.949C953.463 441.373 954.164 446.785 955.663 452.016C957.076 456.4 959.648 460.357 963.129 463.501C967.615 467.388 972.765 470.502 978.353 472.705C986.62 476.07 995.087 478.963 1003.71 481.369C1008.37 482.589 1012.51 483.68 1016.06 484.64C1019.21 485.454 1022.28 486.542 1025.23 487.891C1027.53 488.912 1029.55 490.437 1031.12 492.343C1032.56 494.317 1033.29 496.688 1033.2 499.096C1033.3 501.802 1032.41 504.457 1030.69 506.6C1028.93 508.62 1026.68 510.185 1024.13 511.152C1021.15 512.283 1018.04 513.065 1014.87 513.483C1011.21 513.975 1007.51 514.216 1003.81 514.203C995.797 514.165 987.794 513.58 979.863 512.452C972.085 511.362 965.045 510.171 958.922 508.901L953.612 536.282Z" fill="white"/>
</g>
<defs>
<clipPath id="clip0_810:40">
<rect width="1274.72" height="543.946" fill="white"/>
</clipPath>
</defs>
</svg>
