<svg width="199" height="157" viewBox="0 0 199 157" fill="none" xmlns="http://www.w3.org/2000/svg">
<path opacity="0.05" d="M89.8332 1.04614L45.8768 75.0432C55.3972 75.7738 64.2709 80.3505 70.616 87.8027C77.3216 95.4757 80.6744 104.835 80.6744 115.882C80.6744 128.214 76.7091 137.997 68.7785 145.23C61.1425 152.326 51.2428 156.182 41.0246 156.04C29.6232 156.04 19.954 152.423 12.017 145.19C4.08001 137.957 0.114721 127.751 0.121101 114.572C0.121101 102.232 4.49792 88.406 13.2516 73.0933C22.0052 57.7806 35.9459 35.8747 55.0738 7.37584L59.3422 0.996094L89.8332 1.04614ZM198.533 1.04614L154.576 75.0432C164.091 75.7737 172.959 80.3509 179.296 87.8027C186.008 95.4757 189.364 104.835 189.364 115.882C189.364 128.214 185.396 137.997 177.459 145.23C169.828 152.34 159.928 156.21 149.705 156.08C138.297 156.08 128.628 152.463 120.697 145.23C112.767 137.997 108.798 127.791 108.792 114.612C108.792 102.272 113.166 88.446 121.913 73.1332C130.66 57.8205 144.607 35.9147 163.754 7.41588L168.023 1.03613L198.533 1.04614Z" fill="#000B90"/>
</svg>
