<svg width="371" height="129" viewBox="0 0 371 129" fill="none" xmlns="http://www.w3.org/2000/svg">
<path d="M268.076 87C267.162 86.997 266.249 86.9363 265.342 86.8183V79.9888C266.035 80.0494 266.688 80.0797 267.294 80.0797C268.268 80.1043 269.24 79.9819 270.181 79.7164C270.995 79.4413 271.703 78.899 272.201 78.1695L264 54H272.158L276.587 68.567L280.839 54H289L281.232 76.5317C280.567 78.5924 279.631 80.5456 278.451 82.335C277.426 83.8603 276.031 85.0707 274.41 85.8405C272.757 86.6034 270.645 86.9899 268.076 87Z" fill="#D0A452"/>
<path d="M294.746 121C290.427 121 286.888 119.498 284.215 116.55C281.543 113.602 280.184 109.99 280.184 105.811C280.184 101.631 281.537 98.0189 284.215 95.0681C286.893 92.1174 290.432 90.6179 294.746 90.6179C298.855 90.6179 302.346 92.1203 305.113 95.065C307.794 97.9416 309.294 101.796 309.294 105.809C309.294 109.822 307.794 113.676 305.113 116.553C302.348 119.504 298.855 121 294.746 121ZM294.746 91.2189C290.597 91.2189 287.193 92.6523 284.63 95.4798C282.067 98.3074 280.763 101.79 280.763 105.811C280.763 109.831 282.064 113.308 284.63 116.138C287.196 118.969 290.597 120.402 294.746 120.402C298.697 120.402 302.049 118.966 304.713 116.135C307.289 113.37 308.73 109.667 308.73 105.811C308.73 101.954 307.289 98.2505 304.713 95.4858C302.049 92.6523 298.694 91.2189 294.746 91.2189ZM309.455 82.5048H280.19V77.2944C280.19 72.721 281.097 68.7515 282.882 65.5033C284.631 62.308 286.854 59.4217 289.468 56.9515C292.06 54.5295 294.631 52.285 297.154 50.2808C299.495 48.4542 301.643 46.3719 303.561 44.0696C305.289 41.9662 306.152 39.6104 306.152 37.0563C306.152 34.2017 305.061 31.7197 302.907 29.6734C300.753 27.6271 297.796 26.5814 294.141 26.5814C290.795 26.5397 287.557 27.8141 285.071 30.1511C282.516 32.5099 281.221 36.3262 281.221 41.4915V41.792H253V41.4915C253 32.0743 255.036 24.2075 259.047 18.1136C262.946 12.1207 268.38 7.39161 274.73 4.4656C281.168 1.4925 288.135 -0.029035 295.175 0.000419611C302.662 0.000419611 309.573 1.52986 315.719 4.54674C321.864 7.56362 326.825 11.8334 330.48 17.2392C334.134 22.6449 336 29.0513 336 36.263C336 41.4614 335.093 45.9297 333.31 49.5505C331.626 53.0231 329.37 56.1607 326.647 58.8205C324.128 61.2577 321.454 63.5154 318.644 65.5784C316.278 67.2649 314.056 69.1621 312.004 71.2486C310.296 73.0305 309.43 75.0648 309.43 77.2944L309.455 82.5048ZM280.763 81.9038H308.882V77.2913C308.882 74.8874 309.804 72.721 311.624 70.8219C313.7 68.7109 315.948 66.7917 318.342 65.0857C321.13 63.0386 323.782 60.7978 326.281 58.3788C328.956 55.7655 331.172 52.6829 332.827 49.271C334.554 45.7403 335.45 41.3623 335.45 36.26C335.45 29.1746 333.63 22.8914 330.039 17.5788C326.448 12.2663 321.55 8.05943 315.5 5.08462C309.45 2.10981 302.613 0.59831 295.201 0.59831C288.237 0.566734 281.344 2.06994 274.975 5.0095C268.722 7.88978 263.372 12.5461 259.534 18.4471C255.629 24.3787 253.631 32.0262 253.587 41.188H280.656C280.708 35.9956 282.067 32.1313 284.688 29.7004C287.277 27.2637 290.652 25.9354 294.139 25.9804C297.94 25.9804 301.018 27.0711 303.29 29.2256C305.562 31.3801 306.723 34.0335 306.723 37.0534C306.723 39.7577 305.807 42.2457 303.999 44.4543C302.054 46.7936 299.875 48.9091 297.499 50.7645C294.991 52.7567 292.417 54.9893 289.854 57.4022C287.282 59.8309 285.097 62.6709 283.38 65.8158C281.652 68.9739 280.763 72.8412 280.763 77.3094V81.9038Z" fill="#CCCCCC"/>
<path d="M11.9155 79C10.2529 79 8.88673 78.7707 7.83374 78.306C6.89217 77.9308 6.04825 77.318 5.37305 76.5191C4.81593 75.8324 4.39114 75.0338 4.12331 74.1693C3.888 73.4064 3.73459 72.6168 3.66609 71.8164C3.61067 71.0877 3.58296 70.4832 3.58296 70.0027V61.5385H0V54.8195H3.58296V49H11.4998V54.8195H15.7894V61.5385H11.4998V69.687C11.4688 70.4251 11.6906 71.15 12.1233 71.7242C12.5417 72.2484 13.3038 72.5075 14.415 72.5075C14.9493 72.4952 15.4808 72.4203 16 72.2841V78.5533C14.652 78.8205 13.286 78.9699 11.9155 79Z" fill="#D0A452"/>
<path d="M21 77.9672V44H29.1157V57.6322H29.3317C29.6871 57.0355 30.0942 56.4742 30.5479 55.9556C31.1124 55.3297 31.788 54.8249 32.5371 54.4693C33.5213 54.0195 34.5894 53.8062 35.6629 53.8451C37.5118 53.8451 38.9715 54.2841 40.0419 55.162C41.0864 56.0148 41.8753 57.1629 42.3152 58.4704C42.7646 59.7521 42.9964 61.1062 43 62.4714V77.9791H34.8843V64.1687C34.8878 63.3291 34.6663 62.5053 34.2449 61.7907C33.8158 61.0594 33.077 60.6938 32.0227 60.6938C30.9117 60.6938 30.1501 61.0683 29.7352 61.8114C29.3287 62.5317 29.1148 63.353 29.1157 64.1895V78L21 77.9672Z" fill="#D0A452"/>
<path d="M56.9449 54.0028C57.9395 53.9781 58.9303 54.1399 59.87 54.4804C60.5753 54.74 61.2432 55.0989 61.8549 55.5474C62.4158 55.995 62.9208 56.514 63.3581 57.092H63.7121V54.4562H72V78.5437H63.7121V75.908H63.361C62.9237 76.4861 62.4187 77.005 61.8578 77.4526C61.2468 77.9022 60.5787 78.2612 59.8729 78.5195C58.9332 78.86 57.9424 79.0218 56.9478 78.9971C55.4227 79.0368 53.9133 78.6695 52.563 77.9302C51.3378 77.23 50.2796 76.2516 49.4666 75.0677C48.6273 73.8499 47.9997 72.4882 47.6123 71.0445C46.7959 68.0745 46.7959 64.9255 47.6123 61.9554C47.9997 60.5117 48.6273 59.15 49.4666 57.9323C50.2812 56.7498 51.3391 55.7719 52.563 55.0699C53.9124 54.3311 55.4208 53.9637 56.9449 54.0028ZM59.693 60.8643C58.8219 60.834 57.9697 61.1323 57.2931 61.7045C56.6417 62.2757 56.1421 63.0116 55.8422 63.8416C55.2039 65.5516 55.2039 67.4485 55.8422 69.1584C56.1421 69.9884 56.6417 70.7242 57.2931 71.2954C57.9837 71.8406 58.8264 72.1358 59.693 72.1358C60.5595 72.1358 61.4023 71.8406 62.0929 71.2954C62.7441 70.7241 63.2436 69.9883 63.5438 69.1584C64.1821 67.4485 64.1821 65.5516 63.5438 63.8416C63.2436 63.0118 62.7441 62.2759 62.0929 61.7045C61.4168 61.1314 60.5642 60.8329 59.693 60.8643Z" fill="#D0A452"/>
<path d="M77 77.997V54.4457H85.0955V57.5134H85.3505C85.9292 56.4937 86.7325 55.6326 87.6939 55.0013C88.6875 54.3373 89.9371 54.0044 91.4427 54.0024C93.1428 54.0024 94.4775 54.4093 95.4465 55.223C96.3675 55.9753 97.0867 56.9627 97.5349 58.0897H97.6624C98.0743 57.4407 98.549 56.8377 99.0792 56.29C99.7358 55.6122 100.504 55.0627 101.346 54.6674C102.366 54.2006 103.472 53.9736 104.585 54.0024C106.117 54.0024 107.352 54.358 108.291 55.0693C109.191 55.7416 109.899 56.6557 110.34 57.7144C110.77 58.7137 110.995 59.7959 111 60.8914V78H102.904V63.6045C102.922 62.8935 102.711 62.1966 102.307 61.6243C101.91 61.0776 101.284 60.8028 100.434 60.8028C99.5835 60.8028 99.0168 61.0776 98.623 61.6243C98.2326 62.2025 98.0337 62.8977 98.0563 63.6045V78H89.9522V63.6045C89.9709 62.8933 89.7604 62.196 89.3544 61.6243C88.9577 61.0776 88.3314 60.8028 87.4814 60.8028C86.6313 60.8028 86.0646 61.0776 85.6707 61.6243C85.2804 62.2025 85.0814 62.8977 85.104 63.6045V78L77 77.997Z" fill="#D0A452"/>
<path d="M138.525 88C136.263 88 134.401 87.714 132.938 87.1419C131.668 86.6884 130.5 85.9741 129.502 85.0417C128.757 84.3291 128.145 83.4797 127.698 82.5363C127.289 81.5859 126.998 80.5859 126.83 79.56H134.788C135.083 80.1666 135.524 80.6836 136.069 81.0601C136.578 81.3902 137.35 81.5552 138.383 81.5552C139.715 81.5552 140.775 81.15 141.564 80.3399C142.352 79.5298 142.744 78.3297 142.738 76.7395V74.3033H142.391C141.818 75.1984 141.07 75.9588 140.196 76.5355C139.167 77.2736 137.797 77.6416 136.087 77.6396C134.561 77.6754 133.049 77.3362 131.674 76.6495C130.442 76.0121 129.364 75.0941 128.522 73.9641C127.674 72.8235 127.033 71.5324 126.63 70.1537C125.79 67.3322 125.79 64.3131 126.63 61.4916C127.033 60.112 127.674 58.8198 128.522 57.6781C129.363 56.5482 130.441 55.6311 131.674 54.9958C133.048 54.3066 134.561 53.9662 136.087 54.0026C137.795 54.0026 139.171 54.3786 140.216 55.1307C141.261 55.8828 141.986 56.619 142.391 57.3391H142.738V54.4527H151V76.7395C150.998 78.1332 150.755 79.5152 150.283 80.82C149.794 82.1774 149.039 83.4148 148.065 84.4536C146.972 85.5989 145.651 86.4834 144.195 87.0458C142.618 87.6819 140.728 88 138.525 88ZM138.655 71.0358C139.533 71.0699 140.398 70.8009 141.113 70.2708C141.76 69.758 142.26 69.071 142.559 68.2845C143.198 66.6739 143.198 64.8663 142.559 63.2558C142.26 62.4818 141.759 61.8096 141.113 61.3146C140.393 60.7972 139.53 60.5361 138.655 60.5705C137.794 60.5405 136.948 60.8017 136.243 61.3146C135.589 61.8104 135.077 62.4813 134.762 63.2558C134.432 64.0498 134.262 64.9055 134.262 65.7702C134.262 66.6349 134.432 67.4905 134.762 68.2845C135.077 69.0711 135.588 69.7567 136.243 70.2708C136.943 70.7969 137.791 71.066 138.655 71.0358Z" fill="#D0A452"/>
<path d="M159.481 52.1654C158.887 52.1869 158.294 52.0782 157.74 51.8461C157.187 51.6139 156.683 51.2632 156.261 50.8156C155.861 50.3904 155.544 49.8852 155.328 49.3289C155.111 48.7726 155 48.1761 155 47.5737C155 46.9714 155.111 46.375 155.328 45.8187C155.544 45.2624 155.861 44.7571 156.261 44.3319C156.686 43.8899 157.19 43.5443 157.744 43.3159C158.297 43.0875 158.888 42.981 159.481 43.0028C160.076 42.9823 160.67 43.0893 161.225 43.3176C161.781 43.5459 162.289 43.8908 162.718 44.3319C163.123 44.7534 163.446 45.2576 163.666 45.8144C163.887 46.3712 164 46.9693 164 47.5737C164 48.1781 163.887 48.7764 163.666 49.3332C163.446 49.89 163.123 50.394 162.718 50.8156C162.292 51.2623 161.785 51.6123 161.229 51.8443C160.673 52.0763 160.078 52.1855 159.481 52.1654ZM155.535 78V54.5143H163.425V78H155.535Z" fill="#D0A452"/>
<path d="M177.944 54.0028C178.938 53.978 179.928 54.1398 180.867 54.4804C181.573 54.7386 182.241 55.0976 182.853 55.5473C183.414 55.9956 183.92 56.5145 184.359 57.092H184.707V54.4562H193V78.5436H184.707V75.9079H184.368C183.929 76.4854 183.423 77.0042 182.861 77.4525C182.251 77.9033 181.582 78.2624 180.876 78.5194C179.937 78.86 178.947 79.0217 177.953 78.997C176.428 79.0373 174.918 78.6701 173.567 77.9301C172.341 77.23 171.281 76.2516 170.467 75.0676C169.628 73.8499 169 72.4881 168.612 71.0444C167.796 68.0744 167.796 64.9254 168.612 61.9554C169 60.5116 169.628 59.1499 170.467 57.9322C171.283 56.7497 172.342 55.7718 173.567 55.0699C174.915 54.3314 176.422 53.964 177.944 54.0028ZM180.693 60.8642C179.822 60.8328 178.969 61.1313 178.293 61.7045C177.64 62.2744 177.14 63.0107 176.841 63.8416C176.199 65.5507 176.199 67.4492 176.841 69.1584C177.14 69.9892 177.64 70.7254 178.293 71.2953C178.983 71.8406 179.826 72.1357 180.693 72.1357C181.56 72.1357 182.403 71.8406 183.093 71.2953C183.745 70.7242 184.245 69.9884 184.545 69.1584C185.183 67.4484 185.183 65.5515 184.545 63.8416C184.245 63.0116 183.745 62.2756 183.093 61.7045C182.417 61.1318 181.564 60.8334 180.693 60.8642Z" fill="#D0A452"/>
<path d="M224.052 78.9971C223.059 79.0221 222.069 78.8603 221.13 78.5194C220.424 78.2624 219.755 77.9033 219.145 77.4524C218.583 77.0057 218.077 76.4867 217.639 75.9077H217.291V78.5436H209V44H217.291V57.0896H217.639C218.077 56.5106 218.583 55.9915 219.145 55.5448C219.756 55.095 220.424 54.736 221.13 54.4777C222.069 54.1369 223.059 53.975 224.052 54.0001C225.577 53.9604 227.087 54.3278 228.437 55.0673C229.661 55.7701 230.72 56.7479 231.536 57.9299C232.373 59.1492 233.001 60.5106 233.391 61.9535C234.203 64.9245 234.203 68.0727 233.391 71.0436C233.001 72.4865 232.373 73.848 231.536 75.0672C230.722 76.2508 229.663 77.2291 228.437 77.93C227.087 78.6695 225.577 79.0368 224.052 78.9971ZM221.304 72.135C222.183 72.1739 223.044 71.8747 223.724 71.2945C224.362 70.7173 224.85 69.9824 225.143 69.1573C225.782 67.4472 225.782 65.5501 225.143 63.84C224.85 63.0149 224.362 62.2798 223.724 61.7026C223.03 61.1574 222.184 60.8626 221.314 60.8626C220.445 60.8626 219.599 61.1574 218.904 61.7026C218.252 62.2726 217.752 63.009 217.453 63.84C216.811 65.5493 216.811 67.448 217.453 69.1573C217.752 69.9883 218.252 70.7245 218.904 71.2945C219.58 71.8678 220.433 72.1664 221.304 72.135Z" fill="#D0A452"/>
<path d="M245.939 53.8757C246.933 53.8509 247.923 54.0135 248.863 54.3559C249.567 54.6168 250.235 54.9776 250.846 55.4285C251.407 55.8792 251.913 56.4008 252.352 56.9814H252.7V54.3315H261V78.5474H252.714V75.8976H252.366C251.923 76.4768 251.414 76.9963 250.849 77.4443C250.238 77.8963 249.571 78.2573 248.865 78.5169C247.926 78.8593 246.936 79.0219 245.942 78.9971C244.418 79.037 242.909 78.6678 241.56 77.9245C240.336 77.2197 239.278 76.2363 238.465 75.0467C237.626 73.8225 236.999 72.4535 236.612 71.0021C235.796 68.0162 235.796 64.8505 236.612 61.8646C236.999 60.4132 237.626 59.0442 238.465 57.82C239.284 56.6364 240.344 55.6586 241.568 54.9575C242.914 54.2131 244.418 53.8407 245.939 53.8757ZM239.573 51.6361L245.461 43H251.87L257.758 51.6361H251.609L248.689 46.9747L245.722 51.6361H239.573ZM248.689 60.7738C247.818 60.7422 246.966 61.0422 246.29 61.6185C245.638 62.1914 245.138 62.9317 244.84 63.767C244.198 65.4852 244.198 67.3938 244.84 69.1121C245.138 69.9474 245.638 70.6874 246.29 71.2604C246.98 71.8086 247.823 72.1053 248.689 72.1053C249.555 72.1053 250.397 71.8086 251.087 71.2604C251.737 70.6854 252.236 69.9459 252.537 69.1121C253.175 67.393 253.175 65.486 252.537 63.767C252.236 62.9331 251.737 62.1935 251.087 61.6185C250.411 61.0432 249.559 60.7433 248.689 60.7738Z" fill="#D0A452"/>
<path d="M314.523 88C312.266 88 310.404 87.714 308.937 87.1419C307.668 86.6891 306.5 85.9747 305.505 85.0417C304.759 84.3291 304.148 83.4797 303.7 82.5363C303.291 81.5864 302.999 80.5862 302.833 79.5599H310.787C311.083 80.1668 311.525 80.6837 312.071 81.0601C312.578 81.3902 313.349 81.5552 314.384 81.5552C315.718 81.5552 316.779 81.15 317.565 80.3399C318.351 79.5298 318.743 78.3297 318.739 76.7395V74.3033H318.392C317.818 75.1984 317.069 75.9588 316.194 76.5355C315.165 77.2736 313.795 77.6416 312.086 77.6396C310.56 77.6751 309.048 77.3359 307.673 76.6495C306.442 76.0113 305.364 75.0934 304.521 73.9641C303.674 72.8235 303.033 71.5324 302.63 70.1537C301.79 67.3322 301.79 64.3131 302.63 61.4915C303.033 60.1119 303.673 58.8198 304.521 57.6781C305.364 56.5488 306.441 55.6318 307.673 54.9957C309.047 54.3069 310.56 53.9665 312.086 54.0026C313.797 54.0026 315.175 54.3786 316.218 55.1307C317.26 55.8828 317.985 56.619 318.392 57.3391H318.739V54.4527H327V76.7395C326.998 78.1332 326.755 79.5152 326.283 80.82C325.793 82.177 325.038 83.4142 324.065 84.4536C322.972 85.5989 321.652 86.4834 320.196 87.0458C318.621 87.6819 316.73 88 314.523 88ZM314.656 71.0358C315.533 71.0697 316.397 70.8006 317.111 70.2708C317.758 69.7577 318.258 69.0709 318.557 68.2845C319.193 66.6733 319.193 64.8669 318.557 63.2557C318.257 62.4822 317.757 61.8102 317.111 61.3146C316.392 60.7978 315.53 60.5367 314.656 60.5705C313.795 60.5409 312.948 60.802 312.242 61.3146C311.589 61.8113 311.079 62.482 310.764 63.2557C310.434 64.0498 310.264 64.9055 310.264 65.7702C310.264 66.6349 310.434 67.4905 310.764 68.2845C311.078 69.0708 311.588 69.7563 312.242 70.2708C312.944 70.7977 313.796 71.0669 314.662 71.0358H314.656Z" fill="#D0A452"/>
<path d="M336.48 52.1654C335.885 52.1868 335.294 52.0782 334.74 51.846C334.187 51.6139 333.685 51.2631 333.263 50.8156C332.863 50.3907 332.545 49.8857 332.328 49.3293C332.112 48.773 332 48.1763 332 47.5737C332 46.9711 332.112 46.3746 332.328 45.8182C332.545 45.2619 332.863 44.7567 333.263 44.3319C333.688 43.89 334.191 43.5445 334.744 43.316C335.297 43.0876 335.887 42.981 336.48 43.0028C337.075 42.9826 337.668 43.0896 338.225 43.3179C338.781 43.5462 339.288 43.8909 339.718 44.3319C340.124 44.7534 340.446 45.2575 340.666 45.8143C340.887 46.3711 341 46.9693 341 47.5737C341 48.1781 340.887 48.7764 340.666 49.3332C340.446 49.89 340.124 50.394 339.718 50.8156C339.292 51.2627 338.785 51.6129 338.228 51.8449C337.672 52.0769 337.077 52.1859 336.48 52.1654ZM332.537 78V54.5143H340.422V78H332.537Z" fill="#D0A452"/>
<path d="M357.587 79C354.945 79 352.681 78.4224 350.794 77.2672C348.977 76.1883 347.483 74.6005 346.48 72.6819C345.508 70.7636 345 68.6251 345 66.4533C345 64.2816 345.508 62.1429 346.48 60.2246C347.484 58.3066 348.978 56.7189 350.794 55.6393C352.679 54.4841 354.943 53.9065 357.587 53.9065H362.86C364.018 53.9065 364.598 53.2996 364.598 52.0857V48.5231H371V52.4923C371 55.6241 369.679 57.4035 367.037 57.8304C368.053 58.9624 368.841 60.2967 369.355 61.7541C369.895 63.2563 370.168 64.8496 370.16 66.4548C370.179 68.6285 369.67 70.7715 368.68 72.6819C367.681 74.5961 366.196 76.1832 364.389 77.2672C362.535 78.4224 360.268 79 357.587 79ZM354.757 51.2147L349.791 43H357.196L360.551 51.1693L354.757 51.2147ZM357.587 72.0658C358.2 72.0889 358.809 71.9532 359.36 71.6705C359.911 71.3878 360.386 70.9669 360.745 70.4453C361.498 69.2637 361.901 67.8745 361.901 66.4533C361.901 65.0322 361.498 63.6428 360.745 62.4612C360.371 61.9565 359.893 61.548 359.345 61.267C358.798 60.986 358.197 60.8398 357.587 60.8398C356.978 60.8398 356.376 60.986 355.829 61.267C355.281 61.548 354.803 61.9565 354.429 62.4612C353.678 63.6436 353.276 65.0326 353.276 66.4533C353.276 67.874 353.678 69.2629 354.429 70.4453C354.788 70.9667 355.264 71.3873 355.814 71.67C356.365 71.9527 356.974 72.0886 357.587 72.0658Z" fill="#D0A452"/>
<path d="M54.3545 24.6416H47.9531V42H42.8115V24.6416H36.5273V20.6719H54.3545V24.6416ZM62.7773 42C62.6016 41.6777 62.4453 41.2041 62.3086 40.5791C61.4004 41.7217 60.1309 42.293 58.5 42.293C57.0059 42.293 55.7363 41.8438 54.6914 40.9453C53.6465 40.0371 53.124 38.8994 53.124 37.5322C53.124 35.8135 53.7588 34.5146 55.0283 33.6357C56.2979 32.7568 58.1436 32.3174 60.5654 32.3174H62.0889V31.4824C62.0889 30.0273 61.459 29.2998 60.1992 29.2998C59.0273 29.2998 58.4414 29.876 58.4414 31.0283H53.5049C53.5049 29.4951 54.1543 28.25 55.4531 27.293C56.7617 26.3359 58.4268 25.8574 60.4482 25.8574C62.4697 25.8574 64.0664 26.3506 65.2383 27.3369C66.4102 28.3232 67.0107 29.6758 67.04 31.3945V38.4111C67.0596 39.8662 67.2842 40.9795 67.7139 41.751V42H62.7773ZM59.6865 38.7773C60.3018 38.7773 60.8096 38.6455 61.21 38.3818C61.6201 38.1182 61.9131 37.8203 62.0889 37.4883V34.9541H60.6533C58.9346 34.9541 58.0752 35.7256 58.0752 37.2686C58.0752 37.7178 58.2266 38.084 58.5293 38.3672C58.832 38.6406 59.2178 38.7773 59.6865 38.7773ZM56.5078 45.0469C56.5078 44.4121 56.7666 43.8896 57.2842 43.4795C57.8115 43.0693 58.4658 42.8643 59.2471 42.8643C60.0283 42.8643 60.6777 43.0693 61.1953 43.4795C61.7227 43.8896 61.9863 44.4121 61.9863 45.0469C61.9863 45.6816 61.7227 46.2041 61.1953 46.6143C60.6777 47.0244 60.0283 47.2295 59.2471 47.2295C58.4658 47.2295 57.8115 47.0244 57.2842 46.6143C56.7666 46.2041 56.5078 45.6816 56.5078 45.0469ZM74.9941 42H70.043V26.1504H74.9941V42ZM69.75 22.0635C69.75 21.3604 70.0039 20.7842 70.5117 20.335C71.0195 19.8857 71.6787 19.6611 72.4893 19.6611C73.2998 19.6611 73.959 19.8857 74.4668 20.335C74.9746 20.7842 75.2285 21.3604 75.2285 22.0635C75.2285 22.7666 74.9746 23.3428 74.4668 23.792C73.959 24.2412 73.2998 24.4658 72.4893 24.4658C71.6787 24.4658 71.0195 24.2412 70.5117 23.792C70.0039 23.3428 69.75 22.7666 69.75 22.0635ZM93.8174 37.5469C93.8174 37.127 93.5977 36.79 93.1582 36.5361C92.7188 36.2822 91.8838 36.0186 90.6533 35.7451C89.4229 35.4717 88.4072 35.1152 87.6064 34.6758C86.8057 34.2266 86.1953 33.6846 85.7754 33.0498C85.3555 32.415 85.1455 31.6875 85.1455 30.8672C85.1455 29.4121 85.7461 28.2158 86.9473 27.2783C88.1484 26.3311 89.7207 25.8574 91.6641 25.8574C93.7539 25.8574 95.4336 26.3311 96.7031 27.2783C97.9727 28.2256 98.6074 29.4707 98.6074 31.0137H93.6562C93.6562 29.7441 92.9873 29.1094 91.6494 29.1094C91.1318 29.1094 90.6973 29.2559 90.3457 29.5488C89.9941 29.832 89.8184 30.1885 89.8184 30.6182C89.8184 31.0576 90.0332 31.4141 90.4629 31.6875C90.8926 31.9609 91.5762 32.1855 92.5137 32.3613C93.4609 32.5371 94.291 32.7471 95.0039 32.9912C97.3867 33.8115 98.5781 35.2812 98.5781 37.4004C98.5781 38.8457 97.9336 40.0225 96.6445 40.9307C95.3652 41.8389 93.7051 42.293 91.6641 42.293C90.3066 42.293 89.0957 42.0488 88.0312 41.5605C86.9668 41.0723 86.1367 40.4082 85.541 39.5684C84.9453 38.7285 84.6475 37.8447 84.6475 36.917H89.2617C89.2812 37.6494 89.5254 38.1865 89.9941 38.5283C90.4629 38.8604 91.0635 39.0264 91.7959 39.0264C92.4697 39.0264 92.9727 38.8896 93.3047 38.6162C93.6465 38.3428 93.8174 37.9863 93.8174 37.5469ZM109.828 42C109.652 41.6777 109.496 41.2041 109.359 40.5791C108.451 41.7217 107.182 42.293 105.551 42.293C104.057 42.293 102.787 41.8438 101.742 40.9453C100.697 40.0371 100.175 38.8994 100.175 37.5322C100.175 35.8135 100.81 34.5146 102.079 33.6357C103.349 32.7568 105.194 32.3174 107.616 32.3174H109.14V31.4824C109.14 30.0273 108.51 29.2998 107.25 29.2998C106.078 29.2998 105.492 29.876 105.492 31.0283H100.556C100.556 29.4951 101.205 28.25 102.504 27.293C103.812 26.3359 105.478 25.8574 107.499 25.8574C109.521 25.8574 111.117 26.3506 112.289 27.3369C113.461 28.3232 114.062 29.6758 114.091 31.3945V38.4111C114.11 39.8662 114.335 40.9795 114.765 41.751V42H109.828ZM106.737 38.7773C107.353 38.7773 107.86 38.6455 108.261 38.3818C108.671 38.1182 108.964 37.8203 109.14 37.4883V34.9541H107.704C105.985 34.9541 105.126 35.7256 105.126 37.2686C105.126 37.7178 105.277 38.084 105.58 38.3672C105.883 38.6406 106.269 38.7773 106.737 38.7773ZM116.215 33.9287C116.215 32.3467 116.522 30.9404 117.138 29.71C117.753 28.4697 118.637 27.5176 119.789 26.8535C120.941 26.1895 122.294 25.8574 123.847 25.8574C126.22 25.8574 128.09 26.5947 129.457 28.0693C130.824 29.5342 131.508 31.5312 131.508 34.0605V34.2363C131.508 36.707 130.819 38.6699 129.442 40.125C128.075 41.5703 126.22 42.293 123.876 42.293C121.62 42.293 119.809 41.6191 118.441 40.2715C117.074 38.9141 116.337 37.0781 116.229 34.7637L116.215 33.9287ZM121.151 34.2363C121.151 35.7012 121.381 36.7754 121.84 37.459C122.299 38.1426 122.978 38.4844 123.876 38.4844C125.634 38.4844 126.532 37.1318 126.571 34.4268V33.9287C126.571 31.0869 125.663 29.666 123.847 29.666C122.196 29.666 121.303 30.8916 121.166 33.3428L121.151 34.2363Z" fill="black"/>
<path d="M161.592 115H156.641V92.5H161.592V115ZM173.574 115C173.398 114.678 173.242 114.204 173.105 113.579C172.197 114.722 170.928 115.293 169.297 115.293C167.803 115.293 166.533 114.844 165.488 113.945C164.443 113.037 163.921 111.899 163.921 110.532C163.921 108.813 164.556 107.515 165.825 106.636C167.095 105.757 168.94 105.317 171.362 105.317H172.886V104.482C172.886 103.027 172.256 102.3 170.996 102.3C169.824 102.3 169.238 102.876 169.238 104.028H164.302C164.302 102.495 164.951 101.25 166.25 100.293C167.559 99.3359 169.224 98.8574 171.245 98.8574C173.267 98.8574 174.863 99.3506 176.035 100.337C177.207 101.323 177.808 102.676 177.837 104.395V111.411C177.856 112.866 178.081 113.979 178.511 114.751V115H173.574ZM170.483 111.777C171.099 111.777 171.606 111.646 172.007 111.382C172.417 111.118 172.71 110.82 172.886 110.488V107.954H171.45C169.731 107.954 168.872 108.726 168.872 110.269C168.872 110.718 169.023 111.084 169.326 111.367C169.629 111.641 170.015 111.777 170.483 111.777ZM167.305 118.047C167.305 117.412 167.563 116.89 168.081 116.479C168.608 116.069 169.263 115.864 170.044 115.864C170.825 115.864 171.475 116.069 171.992 116.479C172.52 116.89 172.783 117.412 172.783 118.047C172.783 118.682 172.52 119.204 171.992 119.614C171.475 120.024 170.825 120.229 170.044 120.229C169.263 120.229 168.608 120.024 168.081 119.614C167.563 119.204 167.305 118.682 167.305 118.047ZM185.791 115H180.84V99.1504H185.791V115ZM180.547 95.0635C180.547 94.3604 180.801 93.7842 181.309 93.335C181.816 92.8857 182.476 92.6611 183.286 92.6611C184.097 92.6611 184.756 92.8857 185.264 93.335C185.771 93.7842 186.025 94.3604 186.025 95.0635C186.025 95.7666 185.771 96.3428 185.264 96.792C184.756 97.2412 184.097 97.4658 183.286 97.4658C182.476 97.4658 181.816 97.2412 181.309 96.792C180.801 96.3428 180.547 95.7666 180.547 95.0635ZM203.018 111.484C203.711 111.484 204.248 111.299 204.629 110.928C205.01 110.547 205.195 110.02 205.186 109.346H209.814C209.814 111.084 209.189 112.51 207.939 113.623C206.699 114.736 205.098 115.293 203.135 115.293C200.83 115.293 199.014 114.57 197.686 113.125C196.357 111.68 195.693 109.678 195.693 107.119V106.914C195.693 105.312 195.986 103.901 196.572 102.681C197.168 101.45 198.022 100.508 199.136 99.8535C200.249 99.1895 201.567 98.8574 203.091 98.8574C205.151 98.8574 206.787 99.4287 207.998 100.571C209.209 101.714 209.814 103.262 209.814 105.215H205.186C205.186 104.395 204.985 103.765 204.585 103.325C204.185 102.886 203.647 102.666 202.974 102.666C201.694 102.666 200.947 103.481 200.732 105.112C200.664 105.63 200.63 106.343 200.63 107.251C200.63 108.843 200.82 109.946 201.201 110.562C201.582 111.177 202.188 111.484 203.018 111.484ZM211.279 106.929C211.279 105.347 211.587 103.94 212.202 102.71C212.817 101.47 213.701 100.518 214.854 99.8535C216.006 99.1895 217.358 98.8574 218.911 98.8574C221.284 98.8574 223.154 99.5947 224.521 101.069C225.889 102.534 226.572 104.531 226.572 107.061V107.236C226.572 109.707 225.884 111.67 224.507 113.125C223.14 114.57 221.284 115.293 218.94 115.293C216.685 115.293 214.873 114.619 213.506 113.271C212.139 111.914 211.401 110.078 211.294 107.764L211.279 106.929ZM216.216 107.236C216.216 108.701 216.445 109.775 216.904 110.459C217.363 111.143 218.042 111.484 218.94 111.484C220.698 111.484 221.597 110.132 221.636 107.427V106.929C221.636 104.087 220.728 102.666 218.911 102.666C217.261 102.666 216.367 103.892 216.23 106.343L216.216 107.236ZM219.585 92.5H224.8L220.728 97.0996H216.699L219.585 92.5ZM241.426 115H236.475V92.5H241.426V115ZM243.828 106.929C243.828 105.347 244.136 103.94 244.751 102.71C245.366 101.47 246.245 100.518 247.388 99.8535C248.54 99.1895 249.897 98.8574 251.46 98.8574C253.862 98.8574 255.742 99.5996 257.1 101.084C257.705 100.518 258.008 99.4092 258.008 97.7588H260.703C260.703 100.298 259.897 102.002 258.286 102.871C258.843 104.082 259.121 105.537 259.121 107.236C259.121 109.707 258.433 111.67 257.056 113.125C255.688 114.57 253.833 115.293 251.489 115.293C249.224 115.293 247.407 114.619 246.04 113.271C244.683 111.914 243.95 110.078 243.843 107.764L243.828 106.929ZM248.765 107.236C248.765 108.701 248.994 109.775 249.453 110.459C249.912 111.143 250.591 111.484 251.489 111.484C253.247 111.484 254.146 110.132 254.185 107.427V106.929C254.185 104.087 253.276 102.666 251.46 102.666C249.81 102.666 248.916 103.892 248.779 106.343L248.765 107.236ZM248.794 118.501C248.794 117.866 249.053 117.344 249.57 116.934C250.098 116.523 250.752 116.318 251.533 116.318C252.314 116.318 252.964 116.523 253.481 116.934C254.009 117.344 254.272 117.866 254.272 118.501C254.272 119.136 254.009 119.658 253.481 120.068C252.964 120.479 252.314 120.684 251.533 120.684C250.752 120.684 250.098 120.479 249.57 120.068C249.053 119.658 248.794 119.136 248.794 118.501ZM267.236 115H262.285V99.1504H267.236V115ZM261.992 95.0635C261.992 94.3604 262.246 93.7842 262.754 93.335C263.262 92.8857 263.921 92.6611 264.731 92.6611C265.542 92.6611 266.201 92.8857 266.709 93.335C267.217 93.7842 267.471 94.3604 267.471 95.0635C267.471 95.7666 267.217 96.3428 266.709 96.792C266.201 97.2412 265.542 97.4658 264.731 97.4658C263.921 97.4658 263.262 97.2412 262.754 96.792C262.246 96.3428 261.992 95.7666 261.992 95.0635Z" fill="black"/>
</svg>
