<svg width="794" height="249" viewBox="0 0 794 249" fill="none" xmlns="http://www.w3.org/2000/svg">
<g id="Frame" clip-path="url(#clip0_942:130)">
<path id="Vector" d="M574.591 179.397C572.627 179.391 570.666 179.267 568.717 179.026V165.075C570.206 165.199 571.607 165.261 572.91 165.261C575.002 165.311 577.091 165.061 579.112 164.519C580.861 163.957 582.383 162.849 583.453 161.359L565.833 111.988H583.36L592.874 141.744L602.009 111.988H619.542L602.852 158.014C601.424 162.223 599.414 166.213 596.88 169.868C594.678 172.984 591.68 175.456 588.197 177.028C584.646 178.587 580.11 179.376 574.591 179.397Z" fill="#D0A452"/>
<path id="Vector_2" d="M630.866 249.007C621.563 249.007 613.941 245.915 608.186 239.849C602.431 233.782 599.503 226.35 599.503 217.748C599.503 209.147 602.418 201.714 608.186 195.641C613.954 189.569 621.576 186.483 630.866 186.483C639.716 186.483 647.233 189.575 653.193 195.635C658.968 201.555 662.199 209.487 662.199 217.745C662.199 226.003 658.968 233.935 653.193 239.855C647.239 245.927 639.716 249.007 630.866 249.007ZM630.866 187.72C621.929 187.72 614.599 190.67 609.079 196.489C603.559 202.308 600.75 209.474 600.75 217.748C600.75 226.022 603.553 233.177 609.079 239.002C614.605 244.827 621.929 247.776 630.866 247.776C639.375 247.776 646.594 244.82 652.331 238.995C657.879 233.306 660.983 225.684 660.983 217.748C660.983 209.813 657.879 202.19 652.331 196.501C646.594 190.67 639.369 187.72 630.866 187.72ZM662.545 169.787H599.516V159.065C599.516 149.653 601.469 141.484 605.314 134.8C609.082 128.224 613.869 122.284 619.498 117.201C625.08 112.217 630.618 107.598 636.051 103.473C641.094 99.7142 645.72 95.4291 649.85 90.6911C653.571 86.3625 655.432 81.5146 655.432 76.2584C655.432 70.3839 653.081 65.2762 648.442 61.0651C643.803 56.854 637.434 54.7021 629.564 54.7021C622.357 54.6162 615.383 57.2389 610.028 62.0482C604.527 66.9025 601.736 74.7559 601.736 85.3858V86.0041H540.958V85.3858C540.958 66.006 545.342 49.8168 553.982 37.2762C562.378 24.9433 574.081 15.2112 587.757 9.18979C601.623 3.07142 616.628 -0.0597513 631.79 0.000863521C647.915 0.000863521 662.8 3.14831 676.034 9.35676C689.269 15.5652 699.955 24.3521 707.825 35.4767C715.695 46.6012 719.714 59.7849 719.714 74.6258C719.714 85.3237 717.761 94.519 713.922 101.97C710.293 109.117 705.436 115.573 699.57 121.047C694.144 126.063 688.386 130.709 682.335 134.954C677.239 138.425 672.454 142.329 668.034 146.623C664.356 150.29 662.489 154.476 662.489 159.065L662.545 169.787ZM600.75 168.551H661.311V159.058C661.311 154.111 663.296 149.653 667.215 145.745C671.687 141.401 676.528 137.451 681.684 133.94C687.688 129.728 693.4 125.116 698.783 120.138C704.545 114.76 709.316 108.416 712.88 101.395C716.601 94.1293 718.53 85.1198 718.53 74.6198C718.53 60.0386 714.61 47.1085 706.876 36.1756C699.142 25.2428 688.593 16.5856 675.563 10.4637C662.533 4.34179 647.81 1.23127 631.846 1.23127C616.846 1.16629 602.002 4.25976 588.284 10.3091C574.819 16.2364 563.295 25.8187 555.03 37.9625C546.62 50.1692 542.316 65.9069 542.223 84.7611H600.52C600.632 74.0756 603.559 66.1233 609.203 61.1207C614.78 56.1063 622.048 53.3727 629.558 53.4653C637.744 53.4653 644.374 55.7099 649.267 60.1436C654.16 64.5773 656.66 70.0377 656.66 76.2524C656.66 81.8177 654.688 86.9378 650.793 91.4828C646.605 96.2969 641.912 100.65 636.795 104.469C631.393 108.568 625.849 113.163 620.329 118.128C614.791 123.126 610.085 128.971 606.387 135.443C602.666 141.942 600.75 149.9 600.75 159.096V168.551Z" fill="#CCCCCC"/>
<path id="Vector_3" d="M26.668 162.162C22.9469 162.162 19.8894 161.685 17.5327 160.721C15.4253 159.942 13.5366 158.669 12.0254 157.011C10.7785 155.585 9.82781 153.927 9.22838 152.132C8.70172 150.548 8.35839 148.908 8.20506 147.246C8.08103 145.734 8.01902 144.478 8.01902 143.481V125.907H0V111.956H8.01902V99.873H25.7377V111.956H35.3382V125.907H25.7377V142.825C25.6682 144.358 26.1647 145.863 27.1332 147.055C28.0696 148.143 29.7752 148.681 32.2621 148.681C33.458 148.656 34.6475 148.5 35.8096 148.217V161.234C32.7925 161.789 29.7353 162.099 26.668 162.162Z" fill="#D0A452"/>
<path id="Vector_4" d="M44.6658 161.234V90.5723H62.3783V118.931H62.8496C63.6253 117.69 64.5138 116.522 65.504 115.443C66.736 114.141 68.2105 113.091 69.8453 112.351C71.9935 111.416 74.3246 110.972 76.6674 111.053C80.7027 111.053 83.8884 111.966 86.2245 113.792C88.5041 115.566 90.226 117.955 91.186 120.675C92.1669 123.341 92.6727 126.158 92.6806 128.998V161.258H74.9681V132.529C74.9758 130.782 74.4924 129.068 73.5727 127.582C72.6362 126.061 71.0237 125.3 68.7228 125.3C66.2979 125.3 64.6358 126.079 63.7303 127.625C62.8432 129.123 62.3762 130.832 62.3783 132.572V161.302L44.6658 161.234Z" fill="#D0A452"/>
<path id="Vector_5" d="M121.873 111.029C123.999 110.979 126.116 111.31 128.124 112.006C129.632 112.537 131.059 113.272 132.367 114.189C133.565 115.105 134.644 116.166 135.579 117.349H136.336V111.957H154.048V161.235H136.336V155.843H135.585C134.651 157.025 133.571 158.087 132.373 159.003C131.067 159.922 129.639 160.657 128.131 161.185C126.122 161.882 124.005 162.213 121.879 162.162C118.62 162.244 115.394 161.492 112.508 159.98C109.89 158.547 107.628 156.546 105.891 154.124C104.097 151.632 102.756 148.847 101.928 145.893C100.183 139.817 100.183 133.375 101.928 127.299C102.756 124.345 104.097 121.559 105.891 119.068C107.632 116.649 109.892 114.648 112.508 113.212C115.392 111.701 118.616 110.949 121.873 111.029V111.029ZM127.746 125.066C125.885 125.004 124.063 125.615 122.617 126.785C121.225 127.954 120.157 129.459 119.516 131.157C118.152 134.656 118.152 138.536 119.516 142.035C120.157 143.733 121.225 145.238 122.617 146.406C124.093 147.522 125.894 148.126 127.746 148.126C129.598 148.126 131.399 147.522 132.875 146.406C134.267 145.237 135.334 143.732 135.976 142.035C137.34 138.536 137.34 134.656 135.976 131.157C135.334 129.46 134.267 127.954 132.875 126.785C131.43 125.613 129.608 125.002 127.746 125.066V125.066Z" fill="#D0A452"/>
<path id="Vector_6" d="M163.835 161.234V111.956H181.553V118.375H182.112C183.378 116.241 185.136 114.439 187.241 113.119C189.415 111.729 192.15 111.033 195.446 111.029C199.167 111.029 202.088 111.88 204.209 113.582C206.224 115.156 207.799 117.223 208.78 119.581H209.059C209.96 118.223 210.999 116.961 212.16 115.815C213.597 114.397 215.277 113.247 217.121 112.42C219.353 111.443 221.773 110.968 224.21 111.029C227.563 111.029 230.267 111.773 232.322 113.261C234.291 114.667 235.841 116.58 236.806 118.795C237.748 120.886 238.24 123.151 238.251 125.443V161.24H220.532V131.12C220.57 129.632 220.11 128.174 219.224 126.976C218.355 125.832 216.985 125.257 215.124 125.257C213.264 125.257 212.023 125.832 211.161 126.976C210.307 128.186 209.871 129.641 209.921 131.12V161.24H192.183V131.12C192.224 129.631 191.764 128.173 190.875 126.976C190.007 125.832 188.636 125.257 186.775 125.257C184.915 125.257 183.674 125.832 182.812 126.976C181.958 128.186 181.523 129.641 181.572 131.12V161.24L163.835 161.234Z" fill="#D0A452"/>
<path id="Vector_7" d="M295.407 181.134C290.557 181.134 286.563 180.544 283.425 179.365C280.703 178.431 278.197 176.958 276.057 175.037C274.459 173.568 273.147 171.818 272.187 169.873C271.312 167.914 270.686 165.854 270.327 163.739H287.394C288.026 164.989 288.973 166.055 290.142 166.831C291.233 167.511 292.887 167.851 295.103 167.851C297.96 167.851 300.234 167.016 301.925 165.347C303.616 163.677 304.456 161.203 304.443 157.926V152.905H303.699C302.47 154.75 300.866 156.317 298.992 157.506C296.784 159.027 293.846 159.785 290.179 159.781C286.907 159.855 283.664 159.156 280.715 157.741C278.072 156.427 275.762 154.535 273.955 152.206C272.136 149.855 270.762 147.194 269.899 144.353C268.096 138.538 268.096 132.316 269.899 126.501C270.762 123.657 272.136 120.994 273.955 118.641C275.76 116.312 278.071 114.422 280.715 113.113C283.662 111.693 286.906 110.991 290.179 111.066C293.842 111.066 296.794 111.841 299.035 113.391C301.276 114.941 302.831 116.458 303.699 117.942H304.443V111.994H322.162V157.926C322.157 160.798 321.636 163.647 320.624 166.336C319.575 169.134 317.955 171.684 315.867 173.825C313.523 176.185 310.691 178.008 307.569 179.167C304.187 180.478 300.133 181.134 295.407 181.134ZM295.686 146.171C297.57 146.241 299.424 145.687 300.958 144.594C302.347 143.537 303.419 142.122 304.059 140.501C305.43 137.181 305.43 133.456 304.059 130.136C303.418 128.541 302.345 127.156 300.958 126.136C299.413 125.069 297.564 124.531 295.686 124.602C293.841 124.54 292.025 125.079 290.514 126.136C289.111 127.158 288.013 128.54 287.339 130.136C286.631 131.773 286.266 133.537 286.266 135.319C286.266 137.101 286.631 138.864 287.339 140.501C288.014 142.122 289.11 143.535 290.514 144.594C292.014 145.679 293.834 146.233 295.686 146.171Z" fill="#D0A452"/>
<path id="Vector_8" d="M341.568 107.047C340.232 107.092 338.902 106.864 337.658 106.377C336.415 105.89 335.284 105.154 334.336 104.215C333.439 103.323 332.726 102.263 332.24 101.096C331.754 99.9286 331.504 98.6769 331.504 97.4131C331.504 96.1492 331.754 94.8979 332.24 93.7306C332.726 92.5633 333.439 91.5031 334.336 90.611C335.291 89.6836 336.423 88.9586 337.666 88.4793C338.909 88 340.236 87.7765 341.568 87.8222C342.905 87.7793 344.237 88.0039 345.485 88.4829C346.734 88.9619 347.873 89.6854 348.836 90.611C349.748 91.4954 350.472 92.5532 350.967 93.7215C351.462 94.8898 351.716 96.1449 351.716 97.4131C351.716 98.6812 351.462 99.9366 350.967 101.105C350.472 102.273 349.748 103.331 348.836 104.215C347.88 105.153 346.742 105.887 345.493 106.374C344.244 106.86 342.908 107.09 341.568 107.047V107.047ZM332.705 161.254V111.976H350.424V161.254H332.705Z" fill="#D0A452"/>
<path id="Vector_9" d="M381.849 111.029C383.973 110.978 386.088 111.309 388.094 112.006C389.603 112.534 391.03 113.269 392.336 114.189C393.536 115.106 394.617 116.168 395.555 117.349H396.299V111.957H414.018V161.235H396.299V155.843H395.574C394.635 157.024 393.554 158.085 392.355 159.003C391.051 159.925 389.622 160.659 388.113 161.185C386.107 161.882 383.991 162.213 381.868 162.162C378.608 162.245 375.382 161.493 372.497 159.98C369.876 158.547 367.613 156.546 365.873 154.123C364.079 151.632 362.738 148.846 361.91 145.893C360.165 139.817 360.165 133.375 361.91 127.299C362.738 124.345 364.079 121.559 365.873 119.068C367.616 116.649 369.879 114.648 372.497 113.212C375.376 111.701 378.596 110.95 381.849 111.029V111.029ZM387.722 125.066C385.86 125.002 384.038 125.613 382.593 126.785C381.198 127.951 380.13 129.458 379.492 131.157C378.12 134.654 378.12 138.538 379.492 142.034C380.13 143.734 381.198 145.24 382.593 146.406C384.069 147.522 385.87 148.125 387.722 148.125C389.574 148.125 391.375 147.522 392.851 146.406C394.243 145.238 395.311 143.732 395.952 142.034C397.316 138.536 397.316 134.655 395.952 131.157C395.311 129.459 394.243 127.954 392.851 126.785C391.406 125.614 389.584 125.003 387.722 125.066V125.066Z" fill="#D0A452"/>
<path id="Vector_10" d="M477.891 162.161C475.767 162.212 473.652 161.881 471.646 161.184C470.136 160.658 468.708 159.924 467.404 159.001C466.201 158.088 465.12 157.026 464.185 155.842H463.441V161.234H445.722V90.5723H463.441V117.348H464.185C465.12 116.164 466.201 115.102 467.404 114.188C468.709 113.268 470.137 112.533 471.646 112.005C473.652 111.308 475.767 110.977 477.891 111.028C481.15 110.947 484.376 111.699 487.262 113.211C489.878 114.649 492.141 116.649 493.886 119.067C495.675 121.561 497.016 124.346 497.849 127.297C499.585 133.375 499.585 139.815 497.849 145.892C497.016 148.843 495.675 151.628 493.886 154.122C492.144 156.543 489.881 158.545 487.262 159.979C484.376 161.491 481.15 162.242 477.891 162.161V162.161ZM472.018 148.124C473.895 148.204 475.736 147.592 477.19 146.405C478.553 145.224 479.596 143.721 480.223 142.033C481.587 138.535 481.587 134.654 480.223 131.156C479.596 129.469 478.553 127.965 477.19 126.784C475.706 125.669 473.898 125.066 472.04 125.066C470.181 125.066 468.373 125.669 466.889 126.784C465.494 127.95 464.426 129.457 463.788 131.156C462.415 134.653 462.415 138.537 463.788 142.033C464.426 143.733 465.494 145.239 466.889 146.405C468.334 147.578 470.156 148.189 472.018 148.124V148.124Z" fill="#D0A452"/>
<path id="Vector_11" d="M528.337 111.028C530.463 110.977 532.58 111.308 534.588 112.005C536.096 112.536 537.523 113.27 538.83 114.188C540.03 115.105 541.111 116.167 542.049 117.348H542.793V111.956H560.543V161.234H542.824V155.842H542.08C541.133 157.02 540.044 158.077 538.837 158.989C537.531 159.909 536.103 160.643 534.595 161.172C532.586 161.868 530.469 162.199 528.343 162.149C525.084 162.23 521.858 161.479 518.972 159.966C516.355 158.532 514.094 156.531 512.355 154.11C510.561 151.619 509.219 148.833 508.392 145.879C506.647 139.803 506.647 133.361 508.392 127.285C509.219 124.332 510.561 121.546 512.355 119.055C514.106 116.646 516.373 114.656 518.991 113.23C521.867 111.715 525.084 110.957 528.337 111.028V111.028ZM514.724 106.471L527.314 88.8965H541.02L553.609 106.471H540.461L534.216 96.9848L527.872 106.471H514.724ZM534.216 125.065C532.354 125.001 530.532 125.612 529.087 126.784C527.692 127.95 526.624 129.457 525.986 131.156C524.614 134.653 524.614 138.537 525.986 142.033C526.624 143.733 527.692 145.239 529.087 146.405C530.563 147.521 532.364 148.124 534.216 148.124C536.068 148.124 537.869 147.521 539.345 146.405C540.735 145.235 541.803 143.73 542.446 142.033C543.81 138.535 543.81 134.654 542.446 131.156C541.803 129.459 540.735 127.954 539.345 126.784C537.899 125.614 536.078 125.003 534.216 125.065Z" fill="#D0A452"/>
<path id="Vector_12" d="M673.417 181.134C668.575 181.134 664.581 180.544 661.435 179.365C658.714 178.432 656.209 176.96 654.073 175.037C652.475 173.568 651.163 171.817 650.203 169.873C649.325 167.915 648.699 165.854 648.343 163.739H665.404C666.038 164.99 666.987 166.055 668.158 166.831C669.245 167.511 670.899 167.851 673.119 167.851C675.98 167.851 678.254 167.016 679.941 165.346C681.628 163.677 682.468 161.203 682.459 157.926V152.905H681.715C680.483 154.75 678.878 156.317 677.002 157.506C674.794 159.027 671.856 159.785 668.189 159.781C664.917 159.854 661.674 159.155 658.725 157.741C656.083 156.425 653.773 154.534 651.965 152.206C650.146 149.855 648.772 147.194 647.909 144.353C646.106 138.538 646.106 132.316 647.909 126.5C648.772 123.657 650.146 120.994 651.965 118.641C653.771 116.314 656.082 114.424 658.725 113.113C661.672 111.693 664.916 110.992 668.189 111.066C671.86 111.066 674.814 111.841 677.051 113.391C679.288 114.941 680.843 116.458 681.715 117.942H682.459V111.993H700.178V157.926C700.173 160.798 699.652 163.647 698.64 166.336C697.59 169.133 695.97 171.682 693.883 173.825C691.539 176.185 688.707 178.008 685.585 179.167C682.207 180.478 678.151 181.134 673.417 181.134ZM673.702 146.171C675.584 146.241 677.436 145.686 678.968 144.594C680.356 143.537 681.428 142.121 682.069 140.5C683.433 137.18 683.433 133.457 682.069 130.136C681.426 128.542 680.353 127.157 678.968 126.136C677.425 125.071 675.577 124.533 673.702 124.602C671.855 124.541 670.038 125.079 668.524 126.136C667.124 127.159 666.029 128.542 665.355 130.136C664.647 131.773 664.282 133.536 664.282 135.319C664.282 137.101 664.647 138.864 665.355 140.5C666.028 142.121 667.122 143.534 668.524 144.594C670.03 145.68 671.857 146.235 673.715 146.171H673.702Z" fill="#D0A452"/>
<path id="Vector_13" d="M719.59 107.047C718.256 107.092 716.926 106.864 715.683 106.377C714.441 105.89 713.311 105.154 712.365 104.215C711.466 103.324 710.752 102.264 710.265 101.097C709.778 99.9293 709.527 98.6774 709.527 97.413C709.527 96.1487 709.778 94.897 710.265 93.7297C710.752 92.5623 711.466 91.5023 712.365 90.6109C713.318 89.6838 714.45 88.9588 715.691 88.4795C716.933 88.0002 718.259 87.7766 719.59 87.8222C720.928 87.7798 722.261 88.0045 723.51 88.4835C724.759 88.9624 725.9 89.6858 726.865 90.6109C727.776 91.4954 728.501 92.5532 728.995 93.7215C729.49 94.8898 729.745 96.1449 729.745 97.413C729.745 98.6812 729.49 99.9365 728.995 101.105C728.501 102.273 727.776 103.331 726.865 104.215C725.907 105.153 724.769 105.888 723.519 106.375C722.268 106.862 720.932 107.09 719.59 107.047ZM710.734 161.254V111.976H728.446V161.254H710.734Z" fill="#D0A452"/>
<path id="Vector_14" d="M765.279 162.162C759.623 162.162 754.775 160.985 750.736 158.631C746.847 156.433 743.649 153.197 741.501 149.288C739.42 145.379 738.332 141.021 738.332 136.596C738.332 132.17 739.42 127.812 741.501 123.903C743.65 119.995 746.848 116.76 750.736 114.56C754.771 112.206 759.619 111.029 765.279 111.029H776.566C779.047 111.029 780.288 109.792 780.288 107.319V100.059H793.994V108.147C793.994 114.529 791.166 118.155 785.51 119.025C787.684 121.331 789.371 124.05 790.471 127.02C791.627 130.081 792.212 133.328 792.195 136.599C792.236 141.028 791.145 145.395 789.026 149.288C786.889 153.188 783.709 156.422 779.841 158.631C775.872 160.985 771.018 162.162 765.279 162.162ZM759.22 105.544L748.59 88.8047H764.442L771.624 105.451L759.22 105.544ZM765.279 148.032C766.591 148.079 767.895 147.803 769.074 147.227C770.254 146.651 771.272 145.793 772.039 144.73C773.653 142.322 774.514 139.492 774.514 136.596C774.514 133.7 773.653 130.869 772.039 128.461C771.24 127.432 770.215 126.6 769.043 126.028C767.872 125.455 766.584 125.157 765.279 125.157C763.974 125.157 762.687 125.455 761.515 126.028C760.343 126.6 759.318 127.432 758.519 128.461C756.909 130.87 756.051 133.701 756.051 136.596C756.051 139.491 756.909 142.321 758.519 144.73C759.286 145.793 760.305 146.65 761.484 147.226C762.663 147.802 763.967 148.079 765.279 148.032V148.032Z" fill="#D0A452"/>
<g id="join-btn">
<g id="Rectangle 19" filter="url(#filter0_d_942:130)">
<rect x="44" y="184" width="225" height="50" rx="25" fill="url(#paint0_linear_942:130)"/>
</g>
<g id="T&#195;&#180;i mu&#225;&#187;&#145;n tham gia" filter="url(#filter1_d_942:130)">
<path d="M95.914 215V203.516H91.774V201.68H102.142V203.516H98.002V215H95.914ZM104.038 204.146L106.27 201.05H107.962L110.194 204.146H108.448L107.098 202.238L105.784 204.146H104.038ZM107.116 215.18C106.084 215.18 105.208 214.946 104.488 214.478C103.78 214.01 103.24 213.398 102.868 212.642C102.496 211.886 102.31 211.082 102.31 210.23C102.31 209.378 102.496 208.574 102.868 207.818C103.24 207.062 103.78 206.45 104.488 205.982C105.208 205.514 106.084 205.28 107.116 205.28C108.148 205.28 109.018 205.514 109.726 205.982C110.446 206.45 110.992 207.062 111.364 207.818C111.736 208.574 111.922 209.378 111.922 210.23C111.922 211.082 111.736 211.886 111.364 212.642C110.992 213.398 110.446 214.01 109.726 214.478C109.018 214.946 108.148 215.18 107.116 215.18ZM107.116 213.434C107.704 213.434 108.196 213.284 108.592 212.984C109 212.684 109.306 212.288 109.51 211.796C109.726 211.304 109.834 210.782 109.834 210.23C109.834 209.666 109.726 209.144 109.51 208.664C109.306 208.172 109 207.776 108.592 207.476C108.196 207.176 107.704 207.026 107.116 207.026C106.528 207.026 106.03 207.176 105.622 207.476C105.226 207.776 104.92 208.172 104.704 208.664C104.5 209.144 104.398 209.666 104.398 210.23C104.398 210.782 104.5 211.304 104.704 211.796C104.92 212.288 105.226 212.684 105.622 212.984C106.03 213.284 106.528 213.434 107.116 213.434ZM115.474 203.822C115.102 203.822 114.796 203.696 114.556 203.444C114.316 203.192 114.196 202.898 114.196 202.562C114.196 202.214 114.316 201.92 114.556 201.68C114.796 201.428 115.102 201.302 115.474 201.302C115.846 201.302 116.152 201.428 116.392 201.68C116.644 201.92 116.77 202.214 116.77 202.562C116.77 202.91 116.644 203.21 116.392 203.462C116.152 203.702 115.846 203.822 115.474 203.822ZM114.466 215V205.46H116.518V215H114.466ZM123.301 215V205.46H125.353V206.81H125.425C125.533 206.618 125.689 206.402 125.893 206.162C126.109 205.922 126.391 205.718 126.739 205.55C127.087 205.37 127.525 205.28 128.053 205.28C128.761 205.28 129.349 205.448 129.817 205.784C130.285 206.12 130.633 206.564 130.861 207.116H130.897C131.149 206.636 131.515 206.21 131.995 205.838C132.475 205.466 133.111 205.28 133.903 205.28C134.575 205.28 135.145 205.442 135.613 205.766C136.081 206.078 136.429 206.504 136.657 207.044C136.897 207.572 137.017 208.172 137.017 208.844V215H134.965V209.132C134.965 208.508 134.815 207.998 134.515 207.602C134.215 207.206 133.771 207.008 133.183 207.008C132.703 207.008 132.313 207.14 132.013 207.404C131.725 207.668 131.515 207.998 131.383 208.394C131.251 208.778 131.185 209.168 131.185 209.564V215H129.133V209.132C129.133 208.508 128.983 207.998 128.683 207.602C128.383 207.206 127.939 207.008 127.351 207.008C126.871 207.008 126.481 207.14 126.181 207.404C125.893 207.668 125.683 207.998 125.551 208.394C125.419 208.778 125.353 209.168 125.353 209.564V215H123.301ZM142.445 215.18C141.485 215.18 140.735 214.88 140.195 214.28C139.655 213.68 139.385 212.882 139.385 211.886V205.46H141.437V211.634C141.437 212.21 141.587 212.66 141.887 212.984C142.199 213.296 142.619 213.452 143.147 213.452C143.663 213.452 144.077 213.32 144.389 213.056C144.701 212.792 144.923 212.456 145.055 212.048C145.199 211.628 145.271 211.196 145.271 210.752V205.46H147.323V215H145.271V213.632H145.163C145.067 213.812 144.911 214.028 144.695 214.28C144.491 214.52 144.203 214.73 143.831 214.91C143.471 215.09 143.009 215.18 142.445 215.18ZM158.146 201.824L156.49 201.806L158.02 198.566H160.036L158.146 201.824ZM151.324 204.146L153.538 201.446H155.248L157.462 204.146H155.716L154.384 202.526L153.07 204.146H151.324ZM154.402 215.18C153.37 215.18 152.494 214.946 151.774 214.478C151.066 214.01 150.526 213.398 150.154 212.642C149.782 211.886 149.596 211.082 149.596 210.23C149.596 209.378 149.782 208.574 150.154 207.818C150.526 207.062 151.066 206.45 151.774 205.982C152.494 205.514 153.37 205.28 154.402 205.28C155.434 205.28 156.304 205.514 157.012 205.982C157.732 206.45 158.278 207.062 158.65 207.818C159.022 208.574 159.208 209.378 159.208 210.23C159.208 211.082 159.022 211.886 158.65 212.642C158.278 213.398 157.732 214.01 157.012 214.478C156.304 214.946 155.434 215.18 154.402 215.18ZM154.402 213.434C154.99 213.434 155.482 213.284 155.878 212.984C156.286 212.684 156.592 212.288 156.796 211.796C157.012 211.304 157.12 210.782 157.12 210.23C157.12 209.666 157.012 209.144 156.796 208.664C156.592 208.172 156.286 207.776 155.878 207.476C155.482 207.176 154.99 207.026 154.402 207.026C153.814 207.026 153.316 207.176 152.908 207.476C152.512 207.776 152.206 208.172 151.99 208.664C151.786 209.144 151.684 209.666 151.684 210.23C151.684 210.782 151.786 211.304 151.99 211.796C152.206 212.288 152.512 212.684 152.908 212.984C153.316 213.284 153.814 213.434 154.402 213.434ZM161.446 215V205.46H163.498V206.846H163.606C163.69 206.678 163.834 206.474 164.038 206.234C164.242 205.982 164.524 205.76 164.884 205.568C165.256 205.376 165.724 205.28 166.288 205.28C166.996 205.28 167.59 205.442 168.07 205.766C168.55 206.09 168.91 206.522 169.15 207.062C169.402 207.602 169.528 208.196 169.528 208.844V215H167.476V209.06C167.476 208.484 167.314 207.998 166.99 207.602C166.678 207.206 166.21 207.008 165.586 207.008C165.094 207.008 164.692 207.134 164.38 207.386C164.08 207.626 163.858 207.944 163.714 208.34C163.57 208.724 163.498 209.138 163.498 209.582V215H161.446ZM180.229 215.18C179.473 215.18 178.867 215.042 178.411 214.766C177.955 214.49 177.625 214.124 177.421 213.668C177.229 213.2 177.133 212.696 177.133 212.156V207.116H175.459V205.46H177.133V203.084H179.185V205.46H181.417V207.116H179.185V212.12C179.185 213.02 179.683 213.47 180.679 213.47C180.931 213.47 181.165 213.452 181.381 213.416C181.597 213.38 181.705 213.362 181.705 213.362V215.036C181.705 215.036 181.555 215.06 181.255 215.108C180.967 215.156 180.625 215.18 180.229 215.18ZM183.985 215V201.32H186.037V206.846H186.145C186.229 206.678 186.373 206.474 186.577 206.234C186.781 205.982 187.063 205.76 187.423 205.568C187.795 205.376 188.263 205.28 188.827 205.28C189.535 205.28 190.129 205.442 190.609 205.766C191.089 206.09 191.449 206.522 191.689 207.062C191.941 207.602 192.067 208.196 192.067 208.844V215H190.015V209.06C190.015 208.484 189.853 207.998 189.529 207.602C189.217 207.206 188.749 207.008 188.125 207.008C187.633 207.008 187.231 207.134 186.919 207.386C186.619 207.626 186.397 207.944 186.253 208.34C186.109 208.724 186.037 209.138 186.037 209.582V215H183.985ZM198.527 205.28C199.127 205.28 199.625 205.376 200.021 205.568C200.429 205.76 200.753 205.982 200.993 206.234C201.233 206.486 201.407 206.702 201.515 206.882H201.623V205.46H203.675V215H201.623V213.578H201.515C201.407 213.758 201.233 213.974 200.993 214.226C200.753 214.478 200.429 214.7 200.021 214.892C199.625 215.084 199.127 215.18 198.527 215.18C197.807 215.18 197.177 215.042 196.637 214.766C196.109 214.478 195.665 214.1 195.305 213.632C194.945 213.152 194.675 212.618 194.495 212.03C194.327 211.442 194.243 210.842 194.243 210.23C194.243 209.618 194.327 209.018 194.495 208.43C194.675 207.842 194.945 207.314 195.305 206.846C195.665 206.366 196.109 205.988 196.637 205.712C197.177 205.424 197.807 205.28 198.527 205.28ZM198.977 206.99C198.389 206.99 197.897 207.152 197.501 207.476C197.105 207.788 196.805 208.19 196.601 208.682C196.409 209.174 196.313 209.69 196.313 210.23C196.313 210.77 196.409 211.286 196.601 211.778C196.805 212.27 197.105 212.678 197.501 213.002C197.897 213.314 198.389 213.47 198.977 213.47C199.565 213.47 200.051 213.314 200.435 213.002C200.831 212.678 201.125 212.27 201.317 211.778C201.521 211.286 201.623 210.77 201.623 210.23C201.623 209.69 201.521 209.174 201.317 208.682C201.125 208.19 200.831 207.788 200.435 207.476C200.051 207.152 199.565 206.99 198.977 206.99ZM206.077 215V205.46H208.129V206.81H208.201C208.309 206.618 208.465 206.402 208.669 206.162C208.885 205.922 209.167 205.718 209.515 205.55C209.863 205.37 210.301 205.28 210.829 205.28C211.537 205.28 212.125 205.448 212.593 205.784C213.061 206.12 213.409 206.564 213.637 207.116H213.673C213.925 206.636 214.291 206.21 214.771 205.838C215.251 205.466 215.887 205.28 216.679 205.28C217.351 205.28 217.921 205.442 218.389 205.766C218.857 206.078 219.205 206.504 219.433 207.044C219.673 207.572 219.793 208.172 219.793 208.844V215H217.741V209.132C217.741 208.508 217.591 207.998 217.291 207.602C216.991 207.206 216.547 207.008 215.959 207.008C215.479 207.008 215.089 207.14 214.789 207.404C214.501 207.668 214.291 207.998 214.159 208.394C214.027 208.778 213.961 209.168 213.961 209.564V215H211.909V209.132C211.909 208.508 211.759 207.998 211.459 207.602C211.159 207.206 210.715 207.008 210.127 207.008C209.647 207.008 209.257 207.14 208.957 207.404C208.669 207.668 208.459 207.998 208.327 208.394C208.195 208.778 208.129 209.168 208.129 209.564V215H206.077ZM231.007 218.798C230.179 218.798 229.495 218.69 228.955 218.474C228.415 218.258 227.983 217.988 227.659 217.664C227.335 217.352 227.095 217.034 226.939 216.71C226.783 216.398 226.681 216.134 226.633 215.918C226.585 215.702 226.561 215.594 226.561 215.594H228.595C228.595 215.594 228.619 215.666 228.667 215.81C228.715 215.966 228.817 216.14 228.973 216.332C229.141 216.536 229.387 216.71 229.711 216.854C230.035 217.01 230.461 217.088 230.989 217.088C231.613 217.088 232.111 216.962 232.483 216.71C232.867 216.47 233.137 216.146 233.293 215.738C233.461 215.342 233.545 214.91 233.545 214.442V213.362H233.455C233.323 213.566 233.131 213.794 232.879 214.046C232.639 214.286 232.315 214.496 231.907 214.676C231.499 214.856 231.007 214.946 230.431 214.946C229.711 214.946 229.081 214.808 228.541 214.532C228.013 214.256 227.569 213.89 227.209 213.434C226.861 212.966 226.597 212.444 226.417 211.868C226.237 211.292 226.147 210.704 226.147 210.104C226.147 209.504 226.237 208.922 226.417 208.358C226.597 207.782 226.861 207.266 227.209 206.81C227.569 206.342 228.013 205.97 228.541 205.694C229.081 205.418 229.711 205.28 230.431 205.28C231.007 205.28 231.499 205.37 231.907 205.55C232.315 205.718 232.645 205.928 232.897 206.18C233.149 206.42 233.335 206.648 233.455 206.864H233.545V205.46H235.597V214.424C235.597 215.276 235.423 216.032 235.075 216.692C234.727 217.352 234.211 217.868 233.527 218.24C232.843 218.612 232.003 218.798 231.007 218.798ZM230.899 213.254C231.487 213.254 231.979 213.104 232.375 212.804C232.771 212.492 233.065 212.096 233.257 211.616C233.449 211.136 233.545 210.632 233.545 210.104C233.545 209.576 233.449 209.072 233.257 208.592C233.065 208.112 232.771 207.722 232.375 207.422C231.979 207.122 231.487 206.972 230.899 206.972C230.299 206.972 229.801 207.122 229.405 207.422C229.009 207.722 228.715 208.112 228.523 208.592C228.331 209.072 228.235 209.576 228.235 210.104C228.235 210.632 228.331 211.136 228.523 211.616C228.715 212.096 229.009 212.492 229.405 212.804C229.801 213.104 230.299 213.254 230.899 213.254ZM239.259 203.822C238.887 203.822 238.581 203.696 238.341 203.444C238.101 203.192 237.981 202.898 237.981 202.562C237.981 202.214 238.101 201.92 238.341 201.68C238.581 201.428 238.887 201.302 239.259 201.302C239.631 201.302 239.937 201.428 240.177 201.68C240.429 201.92 240.555 202.214 240.555 202.562C240.555 202.91 240.429 203.21 240.177 203.462C239.937 203.702 239.631 203.822 239.259 203.822ZM238.251 215V205.46H240.303V215H238.251ZM247.06 205.28C247.66 205.28 248.158 205.376 248.554 205.568C248.962 205.76 249.286 205.982 249.526 206.234C249.766 206.486 249.94 206.702 250.048 206.882H250.156V205.46H252.208V215H250.156V213.578H250.048C249.94 213.758 249.766 213.974 249.526 214.226C249.286 214.478 248.962 214.7 248.554 214.892C248.158 215.084 247.66 215.18 247.06 215.18C246.34 215.18 245.71 215.042 245.17 214.766C244.642 214.478 244.198 214.1 243.838 213.632C243.478 213.152 243.208 212.618 243.028 212.03C242.86 211.442 242.776 210.842 242.776 210.23C242.776 209.618 242.86 209.018 243.028 208.43C243.208 207.842 243.478 207.314 243.838 206.846C244.198 206.366 244.642 205.988 245.17 205.712C245.71 205.424 246.34 205.28 247.06 205.28ZM247.51 206.99C246.922 206.99 246.43 207.152 246.034 207.476C245.638 207.788 245.338 208.19 245.134 208.682C244.942 209.174 244.846 209.69 244.846 210.23C244.846 210.77 244.942 211.286 245.134 211.778C245.338 212.27 245.638 212.678 246.034 213.002C246.43 213.314 246.922 213.47 247.51 213.47C248.098 213.47 248.584 213.314 248.968 213.002C249.364 212.678 249.658 212.27 249.85 211.778C250.054 211.286 250.156 210.77 250.156 210.23C250.156 209.69 250.054 209.174 249.85 208.682C249.658 208.19 249.364 207.788 248.968 207.476C248.584 207.152 248.098 206.99 247.51 206.99Z" fill="white"/>
</g>
<g id="join-btn-icon">
<g id="icon-park-outline:click-tap" filter="url(#filter2_d_942:130)">
<g id="Group">
<g id="Group_2">
<path id="Vector_15" d="M64.25 210.5V202.25C64.25 201.653 64.4871 201.081 64.909 200.659C65.331 200.237 65.9033 200 66.5 200C67.0967 200 67.669 200.237 68.091 200.659C68.5129 201.081 68.75 201.653 68.75 202.25V210.5" stroke="white" stroke-width="3" stroke-linecap="round" stroke-linejoin="round"/>
<path id="Vector_16" d="M82.25 209.75V214.625C82.25 219.388 78.3882 223.25 73.625 223.25H72.875C68.1118 223.25 64.25 219.388 64.25 214.625V209.75" stroke="white" stroke-width="3" stroke-linecap="round" stroke-linejoin="round"/>
<path id="Vector_17" d="M68.75 212.75V209C68.75 208.403 68.9871 207.831 69.409 207.409C69.831 206.987 70.4033 206.75 71 206.75C71.5967 206.75 72.169 206.987 72.591 207.409C73.0129 207.831 73.25 208.403 73.25 209V212.75" stroke="white" stroke-width="3" stroke-linecap="round" stroke-linejoin="round"/>
<path id="Vector_18" d="M73.25 212.75V209C73.25 208.403 73.4871 207.831 73.909 207.409C74.331 206.987 74.9033 206.75 75.5 206.75C76.0967 206.75 76.669 206.987 77.091 207.409C77.5129 207.831 77.75 208.403 77.75 209V212.75" stroke="white" stroke-width="3" stroke-linecap="round" stroke-linejoin="round"/>
<path id="Vector_19" d="M77.75 212.75V209C77.75 208.403 77.9871 207.831 78.409 207.409C78.831 206.987 79.4033 206.75 80 206.75C80.5967 206.75 81.169 206.987 81.591 207.409C82.0129 207.831 82.25 208.403 82.25 209V212.75" stroke="white" stroke-width="3" stroke-linecap="round" stroke-linejoin="round"/>
</g>
<path id="Vector_20" d="M74 202.25C74.0019 200.645 73.487 199.081 72.5315 197.791C71.8346 196.847 70.9257 196.08 69.8781 195.552C68.8304 195.024 67.6733 194.749 66.5 194.75C65.3267 194.749 64.1696 195.024 63.1219 195.552C62.0743 196.08 61.1654 196.847 60.4685 197.791C59.513 199.081 58.9981 200.645 59 202.25" stroke="white" stroke-width="3" stroke-linecap="round"/>
</g>
</g>
</g>
</g>
<path id="T&#225;&#186;&#161;i sao" d="M109.65 58.1763H97.9141V90H88.4878V58.1763H76.9668V50.8984H109.65V58.1763ZM125.092 90C124.77 89.4092 124.483 88.5409 124.232 87.395C122.567 89.4897 120.24 90.5371 117.25 90.5371C114.511 90.5371 112.183 89.7135 110.268 88.0664C108.352 86.4014 107.394 84.3156 107.394 81.8091C107.394 78.658 108.558 76.2769 110.885 74.6655C113.213 73.0542 116.597 72.2485 121.037 72.2485H123.83V70.7178C123.83 68.0501 122.675 66.7163 120.365 66.7163C118.217 66.7163 117.143 67.7726 117.143 69.8853H108.092C108.092 67.0744 109.283 64.7917 111.664 63.0371C114.063 61.2826 117.116 60.4053 120.822 60.4053C124.528 60.4053 127.455 61.3094 129.604 63.1177C131.752 64.9259 132.853 67.4056 132.907 70.5566V83.4204C132.943 86.0881 133.354 88.1291 134.142 89.5435V90H125.092ZM119.425 84.0918C120.553 84.0918 121.484 83.8501 122.218 83.3667C122.97 82.8833 123.507 82.3372 123.83 81.7285V77.0825H121.198C118.047 77.0825 116.471 78.4969 116.471 81.3257C116.471 82.1493 116.749 82.8206 117.304 83.3398C117.859 83.8411 118.566 84.0918 119.425 84.0918ZM113.598 95.5859C113.598 94.4222 114.072 93.4644 115.021 92.7124C115.988 91.9604 117.187 91.5845 118.62 91.5845C120.052 91.5845 121.243 91.9604 122.191 92.7124C123.158 93.4644 123.642 94.4222 123.642 95.5859C123.642 96.7497 123.158 97.7075 122.191 98.4595C121.243 99.2114 120.052 99.5874 118.62 99.5874C117.187 99.5874 115.988 99.2114 115.021 98.4595C114.072 97.7075 113.598 96.7497 113.598 95.5859ZM147.489 90H138.412V60.9424H147.489V90ZM137.875 53.4497C137.875 52.1606 138.34 51.1043 139.271 50.2808C140.202 49.4572 141.411 49.0454 142.897 49.0454C144.383 49.0454 145.591 49.4572 146.522 50.2808C147.453 51.1043 147.919 52.1606 147.919 53.4497C147.919 54.7388 147.453 55.7951 146.522 56.6187C145.591 57.4422 144.383 57.854 142.897 57.854C141.411 57.854 140.202 57.4422 139.271 56.6187C138.34 55.7951 137.875 54.7388 137.875 53.4497ZM181.999 81.8359C181.999 81.0661 181.596 80.4484 180.79 79.9829C179.984 79.5174 178.454 79.034 176.198 78.5327C173.942 78.0314 172.08 77.3779 170.612 76.5723C169.144 75.7487 168.025 74.755 167.255 73.5913C166.485 72.4276 166.1 71.0938 166.1 69.5898C166.1 66.9222 167.201 64.729 169.403 63.0103C171.605 61.2736 174.488 60.4053 178.051 60.4053C181.882 60.4053 184.962 61.2736 187.289 63.0103C189.617 64.7469 190.78 67.0296 190.78 69.8584H181.703C181.703 67.5309 180.477 66.3672 178.024 66.3672C177.075 66.3672 176.278 66.6357 175.634 67.1729C174.989 67.6921 174.667 68.3455 174.667 69.1333C174.667 69.939 175.061 70.5924 175.849 71.0938C176.636 71.5951 177.89 72.0068 179.608 72.3291C181.345 72.6514 182.867 73.0363 184.174 73.4839C188.542 74.9878 190.727 77.6823 190.727 81.5674C190.727 84.2171 189.545 86.3745 187.182 88.0396C184.836 89.7046 181.793 90.5371 178.051 90.5371C175.562 90.5371 173.342 90.0895 171.391 89.1943C169.439 88.2992 167.917 87.0817 166.825 85.542C165.733 84.0023 165.187 82.382 165.187 80.6812H173.646C173.682 82.0239 174.13 83.0086 174.989 83.6353C175.849 84.244 176.95 84.5483 178.292 84.5483C179.528 84.5483 180.45 84.2977 181.059 83.7964C181.685 83.2951 181.999 82.6416 181.999 81.8359ZM211.352 90C211.029 89.4092 210.743 88.5409 210.492 87.395C208.827 89.4897 206.5 90.5371 203.51 90.5371C200.771 90.5371 198.443 89.7135 196.527 88.0664C194.612 86.4014 193.654 84.3156 193.654 81.8091C193.654 78.658 194.818 76.2769 197.145 74.6655C199.472 73.0542 202.856 72.2485 207.296 72.2485H210.089V70.7178C210.089 68.0501 208.935 66.7163 206.625 66.7163C204.477 66.7163 203.402 67.7726 203.402 69.8853H194.352C194.352 67.0744 195.543 64.7917 197.924 63.0371C200.323 61.2826 203.375 60.4053 207.082 60.4053C210.788 60.4053 213.715 61.3094 215.863 63.1177C218.012 64.9259 219.113 67.4056 219.167 70.5566V83.4204C219.202 86.0881 219.614 88.1291 220.402 89.5435V90H211.352ZM205.685 84.0918C206.813 84.0918 207.744 83.8501 208.478 83.3667C209.23 82.8833 209.767 82.3372 210.089 81.7285V77.0825H207.458C204.306 77.0825 202.731 78.4969 202.731 81.3257C202.731 82.1493 203.008 82.8206 203.563 83.3398C204.118 83.8411 204.826 84.0918 205.685 84.0918ZM223.061 75.2026C223.061 72.3022 223.625 69.7241 224.752 67.4683C225.88 65.1945 227.501 63.4489 229.613 62.2314C231.726 61.014 234.206 60.4053 237.052 60.4053C241.403 60.4053 244.831 61.757 247.338 64.4604C249.844 67.146 251.098 70.8073 251.098 75.4443V75.7666C251.098 80.2962 249.835 83.8949 247.311 86.5625C244.805 89.2122 241.403 90.5371 237.106 90.5371C232.97 90.5371 229.649 89.3018 227.143 86.8311C224.636 84.3424 223.284 80.9766 223.087 76.7334L223.061 75.2026ZM232.111 75.7666C232.111 78.4521 232.532 80.4215 233.373 81.6748C234.215 82.9281 235.459 83.5547 237.106 83.5547C240.329 83.5547 241.976 81.075 242.047 76.1157V75.2026C242.047 69.9927 240.382 67.3877 237.052 67.3877C234.027 67.3877 232.388 69.6346 232.138 74.1284L232.111 75.7666Z" fill="black"/>
<path id="l&#225;&#186;&#161;i c&#195;&#179; l&#225;&#187;&#163;i" d="M344.085 235H335.008V193.75H344.085V235ZM366.053 235C365.73 234.409 365.444 233.541 365.193 232.395C363.528 234.49 361.201 235.537 358.211 235.537C355.472 235.537 353.144 234.714 351.229 233.066C349.313 231.401 348.355 229.316 348.355 226.809C348.355 223.658 349.519 221.277 351.846 219.666C354.174 218.054 357.557 217.249 361.998 217.249H364.791V215.718C364.791 213.05 363.636 211.716 361.326 211.716C359.178 211.716 358.104 212.773 358.104 214.885H349.053C349.053 212.074 350.244 209.792 352.625 208.037C355.024 206.283 358.077 205.405 361.783 205.405C365.489 205.405 368.416 206.309 370.564 208.118C372.713 209.926 373.814 212.406 373.868 215.557V228.42C373.903 231.088 374.315 233.129 375.103 234.543V235H366.053ZM360.386 229.092C361.514 229.092 362.445 228.85 363.179 228.367C363.931 227.883 364.468 227.337 364.791 226.729V222.083H362.159C359.008 222.083 357.432 223.497 357.432 226.326C357.432 227.149 357.71 227.821 358.265 228.34C358.82 228.841 359.527 229.092 360.386 229.092ZM354.559 240.586C354.559 239.422 355.033 238.464 355.982 237.712C356.949 236.96 358.148 236.584 359.581 236.584C361.013 236.584 362.203 236.96 363.152 237.712C364.119 238.464 364.603 239.422 364.603 240.586C364.603 241.75 364.119 242.708 363.152 243.459C362.203 244.211 361.013 244.587 359.581 244.587C358.148 244.587 356.949 244.211 355.982 243.459C355.033 242.708 354.559 241.75 354.559 240.586ZM388.45 235H379.373V205.942H388.45V235ZM378.836 198.45C378.836 197.161 379.301 196.104 380.232 195.281C381.163 194.457 382.372 194.045 383.858 194.045C385.344 194.045 386.552 194.457 387.483 195.281C388.414 196.104 388.88 197.161 388.88 198.45C388.88 199.739 388.414 200.795 387.483 201.619C386.552 202.442 385.344 202.854 383.858 202.854C382.372 202.854 381.163 202.442 380.232 201.619C379.301 200.795 378.836 199.739 378.836 198.45ZM420.032 228.555C421.303 228.555 422.288 228.215 422.986 227.534C423.685 226.836 424.025 225.869 424.007 224.634H432.493C432.493 227.821 431.347 230.435 429.056 232.476C426.782 234.517 423.846 235.537 420.247 235.537C416.022 235.537 412.692 234.212 410.257 231.562C407.822 228.913 406.604 225.243 406.604 220.552V220.176C406.604 217.24 407.142 214.653 408.216 212.415C409.308 210.159 410.875 208.431 412.916 207.231C414.957 206.014 417.374 205.405 420.167 205.405C423.944 205.405 426.943 206.453 429.163 208.547C431.383 210.642 432.493 213.48 432.493 217.061H424.007C424.007 215.557 423.64 214.402 422.906 213.596C422.172 212.791 421.187 212.388 419.952 212.388C417.606 212.388 416.237 213.883 415.843 216.873C415.717 217.821 415.655 219.128 415.655 220.793C415.655 223.712 416.004 225.735 416.702 226.863C417.4 227.991 418.51 228.555 420.032 228.555ZM435.179 220.203C435.179 217.302 435.743 214.724 436.871 212.468C437.999 210.194 439.619 208.449 441.731 207.231C443.844 206.014 446.324 205.405 449.17 205.405C453.521 205.405 456.95 206.757 459.456 209.46C461.963 212.146 463.216 215.807 463.216 220.444V220.767C463.216 225.296 461.954 228.895 459.429 231.562C456.923 234.212 453.521 235.537 449.224 235.537C445.088 235.537 441.767 234.302 439.261 231.831C436.754 229.342 435.403 225.977 435.206 221.733L435.179 220.203ZM444.229 220.767C444.229 223.452 444.65 225.422 445.491 226.675C446.333 227.928 447.577 228.555 449.224 228.555C452.447 228.555 454.094 226.075 454.166 221.116V220.203C454.166 214.993 452.5 212.388 449.17 212.388C446.145 212.388 444.507 214.635 444.256 219.128L444.229 220.767ZM450.406 193.75H459.966L452.5 202.183H445.115L450.406 193.75ZM490.447 235H481.37V193.75H490.447V235ZM494.852 220.203C494.852 217.302 495.416 214.724 496.543 212.468C497.671 210.194 499.283 208.449 501.377 207.231C503.49 206.014 505.979 205.405 508.843 205.405C513.248 205.405 516.694 206.766 519.183 209.487C520.293 208.449 520.848 206.417 520.848 203.391H525.789C525.789 208.046 524.312 211.17 521.358 212.764C522.378 214.984 522.889 217.651 522.889 220.767C522.889 225.296 521.626 228.895 519.102 231.562C516.596 234.212 513.194 235.537 508.897 235.537C504.743 235.537 501.413 234.302 498.907 231.831C496.418 229.342 495.075 225.977 494.878 221.733L494.852 220.203ZM503.902 220.767C503.902 223.452 504.323 225.422 505.164 226.675C506.006 227.928 507.25 228.555 508.897 228.555C512.12 228.555 513.767 226.075 513.838 221.116V220.203C513.838 214.993 512.173 212.388 508.843 212.388C505.818 212.388 504.179 214.635 503.929 219.128L503.902 220.767ZM503.956 241.418C503.956 240.255 504.43 239.297 505.379 238.545C506.346 237.793 507.545 237.417 508.978 237.417C510.41 237.417 511.6 237.793 512.549 238.545C513.516 239.297 514 240.255 514 241.418C514 242.582 513.516 243.54 512.549 244.292C511.6 245.044 510.41 245.42 508.978 245.42C507.545 245.42 506.346 245.044 505.379 244.292C504.43 243.54 503.956 242.582 503.956 241.418ZM537.767 235H528.689V205.942H537.767V235ZM528.152 198.45C528.152 197.161 528.618 196.104 529.549 195.281C530.48 194.457 531.688 194.045 533.174 194.045C534.66 194.045 535.869 194.457 536.8 195.281C537.731 196.104 538.196 197.161 538.196 198.45C538.196 199.739 537.731 200.795 536.8 201.619C535.869 202.442 534.66 202.854 533.174 202.854C531.688 202.854 530.48 202.442 529.549 201.619C528.618 200.795 528.152 199.739 528.152 198.45Z" fill="black"/>
</g>
<defs>
<filter id="filter0_d_942:130" x="24" y="168" width="265" height="90" filterUnits="userSpaceOnUse" color-interpolation-filters="sRGB">
<feFlood flood-opacity="0" result="BackgroundImageFix"/>
<feColorMatrix in="SourceAlpha" type="matrix" values="0 0 0 0 0 0 0 0 0 0 0 0 0 0 0 0 0 0 127 0" result="hardAlpha"/>
<feOffset dy="4"/>
<feGaussianBlur stdDeviation="10"/>
<feColorMatrix type="matrix" values="0 0 0 0 1 0 0 0 0 1 0 0 0 0 1 0 0 0 0.5 0"/>
<feBlend mode="normal" in2="BackgroundImageFix" result="effect1_dropShadow_942:130"/>
<feBlend mode="normal" in="SourceGraphic" in2="effect1_dropShadow_942:130" result="shape"/>
</filter>
<filter id="filter1_d_942:130" x="87.7739" y="198.566" width="168.434" height="28.2324" filterUnits="userSpaceOnUse" color-interpolation-filters="sRGB">
<feFlood flood-opacity="0" result="BackgroundImageFix"/>
<feColorMatrix in="SourceAlpha" type="matrix" values="0 0 0 0 0 0 0 0 0 0 0 0 0 0 0 0 0 0 127 0" result="hardAlpha"/>
<feOffset dy="4"/>
<feGaussianBlur stdDeviation="2"/>
<feComposite in2="hardAlpha" operator="out"/>
<feColorMatrix type="matrix" values="0 0 0 0 0 0 0 0 0 0 0 0 0 0 0 0 0 0 0.25 0"/>
<feBlend mode="normal" in2="BackgroundImageFix" result="effect1_dropShadow_942:130"/>
<feBlend mode="normal" in="SourceGraphic" in2="effect1_dropShadow_942:130" result="shape"/>
</filter>
<filter id="filter2_d_942:130" x="46" y="184" width="50" height="50" filterUnits="userSpaceOnUse" color-interpolation-filters="sRGB">
<feFlood flood-opacity="0" result="BackgroundImageFix"/>
<feColorMatrix in="SourceAlpha" type="matrix" values="0 0 0 0 0 0 0 0 0 0 0 0 0 0 0 0 0 0 127 0" result="hardAlpha"/>
<feOffset/>
<feGaussianBlur stdDeviation="3.5"/>
<feColorMatrix type="matrix" values="0 0 0 0 1 0 0 0 0 1 0 0 0 0 1 0 0 0 1 0"/>
<feBlend mode="normal" in2="BackgroundImageFix" result="effect1_dropShadow_942:130"/>
<feBlend mode="normal" in="SourceGraphic" in2="effect1_dropShadow_942:130" result="shape"/>
</filter>
<linearGradient id="paint0_linear_942:130" x1="257.3" y1="234" x2="57.9528" y2="188.942" gradientUnits="userSpaceOnUse">
<stop stop-color="#2A40CC"/>
<stop offset="1" stop-color="#071F91"/>
</linearGradient>
<clipPath id="clip0_942:130">
<rect width="794" height="249" fill="white"/>
</clipPath>
</defs>
</svg>
