<svg width="30" height="31" viewBox="0 0 30 31" fill="none" xmlns="http://www.w3.org/2000/svg">
<path d="M20.7125 28.1316C21.0445 28.1335 21.3736 28.0698 21.6805 27.9442C21.9874 27.8186 22.266 27.6337 22.5 27.4002L25.8875 24.0404C26.1204 23.8081 26.251 23.4939 26.251 23.1664C26.251 22.8389 26.1204 22.5247 25.8875 22.2924L20.8875 17.3334C20.6533 17.1025 20.3365 16.9729 20.0063 16.9729C19.6761 16.9729 19.3592 17.1025 19.125 17.3334L17.125 19.3046C15.7404 18.9384 14.4579 18.2643 13.375 17.3334C12.4389 16.2577 11.7596 14.9863 11.3875 13.6141L13.375 11.6305C13.6079 11.3982 13.7385 11.084 13.7385 10.7565C13.7385 10.429 13.6079 10.1148 13.375 9.88247L8.37504 4.92346C8.14084 4.69256 7.82402 4.56295 7.49379 4.56295C7.16356 4.56295 6.84674 4.69256 6.61254 4.92346L3.23754 8.29559C3.00208 8.52772 2.8156 8.80404 2.68897 9.10843C2.56235 9.41281 2.49812 9.73916 2.50004 10.0684C2.61345 14.8319 4.53263 19.3781 7.87504 22.8007C11.3259 26.1157 15.9097 28.0191 20.7125 28.1316V28.1316ZM7.50004 7.56413L10.7375 10.7751L9.12504 12.3744C8.97232 12.5163 8.85795 12.6939 8.79243 12.891C8.72691 13.0881 8.71234 13.2984 8.75004 13.5025C9.21725 15.5734 10.2064 17.4929 11.625 19.0814C13.2255 20.4902 15.1613 21.4715 17.25 21.9329C17.4528 21.9749 17.6628 21.9663 17.8614 21.9079C18.0599 21.8494 18.2407 21.743 18.3875 21.5981L20 19.9616L23.2375 23.1726L20.7375 25.6521C16.5922 25.5462 12.6369 23.9055 9.65004 21.0526C6.76618 18.089 5.10705 14.161 5.00004 10.0436L7.50004 7.56413ZM25 14.4943H27.5C27.5325 13.0203 27.2636 11.555 26.7097 10.1867C26.1558 8.81846 25.3284 7.57559 24.2772 6.53303C23.226 5.49046 21.9728 4.66977 20.5933 4.12042C19.2137 3.57107 17.7363 3.30443 16.25 3.33658V5.81608C17.4099 5.77629 18.5657 5.97355 19.6454 6.39559C20.7252 6.81763 21.7058 7.45543 22.5265 8.26935C23.3471 9.08328 23.9902 10.0559 24.4157 11.1268C24.8413 12.1977 25.0402 13.344 25 14.4943Z" fill="white"/>
<path d="M16.25 10.7754C18.875 10.7754 20 11.8912 20 14.4947H22.5C22.5 10.5027 20.275 8.2959 16.25 8.2959V10.7754Z" fill="white"/>
</svg>
