<svg width="30" height="30" viewBox="0 0 30 30" fill="none" xmlns="http://www.w3.org/2000/svg">
<path d="M20.7125 27.2861C21.0445 27.288 21.3735 27.2243 21.6804 27.0987C21.9873 26.9731 22.2659 26.7881 22.5 26.5546L25.8875 23.1949C26.1203 22.9626 26.251 22.6484 26.251 22.3208C26.251 21.9933 26.1203 21.6791 25.8875 21.4468L20.8875 16.4878C20.6533 16.2569 20.3365 16.1273 20.0062 16.1273C19.676 16.1273 19.3592 16.2569 19.125 16.4878L17.125 18.459C15.7403 18.0928 14.4579 17.4187 13.375 16.4878C12.4389 15.412 11.7595 14.1407 11.3875 12.7685L13.375 10.7849C13.6078 10.5526 13.7385 10.2384 13.7385 9.91084C13.7385 9.58331 13.6078 9.26909 13.375 9.03681L8.37499 4.07777C8.14079 3.84686 7.82397 3.71726 7.49374 3.71726C7.16351 3.71726 6.8467 3.84686 6.61249 4.07777L3.23749 7.44992C3.00203 7.68205 2.81555 7.95838 2.68893 8.26276C2.5623 8.56715 2.49807 8.8935 2.49999 9.22277C2.6134 13.9863 4.53259 18.5325 7.87499 21.9551C11.3259 25.2701 15.9096 27.1736 20.7125 27.2861V27.2861ZM7.49999 6.71846L10.7375 9.92944L9.12499 11.5287C8.97227 11.6706 8.8579 11.8483 8.79238 12.0454C8.72686 12.2425 8.71229 12.4528 8.74999 12.6569C9.2172 14.7278 10.2064 16.6473 11.625 18.2358C13.2254 19.6446 15.1613 20.626 17.25 21.0873C17.4527 21.1293 17.6628 21.1207 17.8613 21.0623C18.0599 21.0039 18.2407 20.8974 18.3875 20.7525L20 19.1161L23.2375 22.327L20.7375 24.8066C16.5922 24.7007 12.6369 23.0599 9.64999 20.207C6.76613 17.2434 5.107 13.3154 4.99999 9.19798L7.49999 6.71846ZM25 13.6487H27.5C27.5324 12.1746 27.2636 10.7093 26.7097 9.34105C26.1558 7.97279 25.3283 6.72992 24.2771 5.68734C23.2259 4.64477 21.9728 3.82407 20.5932 3.27472C19.2137 2.72537 17.7362 2.45873 16.25 2.49088V4.9704C17.4099 4.9306 18.5656 5.12786 19.6454 5.5499C20.7251 5.97195 21.7058 6.60976 22.5264 7.42368C23.3471 8.23761 23.9902 9.21026 24.4157 10.2812C24.8412 11.3521 25.0401 12.4983 25 13.6487Z" fill="#D0A452"/>
<path d="M16.25 9.93069C18.875 9.93069 20 11.0465 20 13.65H22.5C22.5 9.65794 20.275 7.45117 16.25 7.45117V9.93069Z" fill="#D0A452"/>
</svg>
