<svg width="36" height="37" viewBox="0 0 36 37" fill="none" xmlns="http://www.w3.org/2000/svg">
<path d="M30 6.83301H9C7.3455 6.83301 6 8.16748 6 9.80841V17.2469H9V12.7838L18.6 19.9248C18.8597 20.1177 19.1755 20.2219 19.5 20.2219C19.8245 20.2219 20.1403 20.1177 20.4 19.9248L30 12.7838V26.1731H18V29.1485H30C31.6545 29.1485 33 27.8141 33 26.1731V9.80841C33 8.16748 31.6545 6.83301 30 6.83301ZM19.5 16.875L9.999 9.80841H29.001L19.5 16.875Z" fill="white"/>
<path d="M3 18.7344H13.5V21.7098H3V18.7344ZM6 23.1975H15V26.1729H6V23.1975ZM10.5 27.6606H16.5V30.636H10.5V27.6606Z" fill="white"/>
</svg>
