<svg width="36" height="36" viewBox="0 0 36 36" fill="none" xmlns="http://www.w3.org/2000/svg">
<path d="M30 5.98828H9C7.3455 5.98828 6 7.32276 6 8.9637V16.4023H9V11.9391L18.6 19.0801C18.8597 19.2731 19.1755 19.3773 19.5 19.3773C19.8245 19.3773 20.1403 19.2731 20.4 19.0801L30 11.9391V25.3285H18V28.304H30C31.6545 28.304 33 26.9695 33 25.3285V8.9637C33 7.32276 31.6545 5.98828 30 5.98828ZM19.5 16.0303L9.999 8.9637H29.001L19.5 16.0303Z" fill="#D0A452"/>
<path d="M3 17.8906H13.5V20.866H3V17.8906ZM6 22.3538H15V25.3292H6V22.3538ZM10.5 26.8169H16.5V29.7923H10.5V26.8169Z" fill="#D0A452"/>
</svg>
