<svg width="30" height="30" viewBox="0 0 30 30" fill="none" xmlns="http://www.w3.org/2000/svg">
<path d="M2.16667 9.94141C1.93592 9.94141 1.71036 10.0098 1.5185 10.138C1.32664 10.2662 1.17711 10.4484 1.08881 10.6616C1.00051 10.8748 0.977402 11.1094 1.02242 11.3357C1.06743 11.562 1.17855 11.7699 1.34171 11.933C1.50487 12.0962 1.71275 12.2073 1.93906 12.2523C2.16537 12.2973 2.39995 12.2742 2.61313 12.1859C2.82631 12.0976 3.00852 11.9481 3.13672 11.7562C3.26491 11.5644 3.33333 11.3388 3.33333 11.1081C3.33333 10.7987 3.21042 10.5019 2.99163 10.2831C2.77283 10.0643 2.47609 9.94141 2.16667 9.94141Z" fill="#CEAC6D"/>
<path d="M28.1917 12.2659C28.8314 12.2659 29.35 11.7473 29.35 11.1076C29.35 10.4678 28.8314 9.94922 28.1917 9.94922C27.5519 9.94922 27.0333 10.4678 27.0333 11.1076C27.0333 11.7473 27.5519 12.2659 28.1917 12.2659Z" fill="#CEAC6D"/>
<path d="M15.1834 5.32445C15.4128 5.3261 15.6376 5.25957 15.8291 5.1333C16.0207 5.00703 16.1705 4.8267 16.2594 4.6152C16.3484 4.40369 16.3725 4.17053 16.3288 3.94529C16.285 3.72005 16.1754 3.51287 16.0137 3.35004C15.852 3.18721 15.6457 3.07606 15.4208 3.03069C15.1958 2.98531 14.9625 3.00776 14.7504 3.09518C14.5382 3.1826 14.3568 3.33106 14.2292 3.52172C14.1015 3.71239 14.0334 3.93667 14.0334 4.16612C14.0333 4.47189 14.1542 4.76526 14.3697 4.98225C14.5851 5.19924 14.8776 5.32225 15.1834 5.32445Z" fill="#CEAC6D"/>
<path d="M26.3583 13.4168C25.3171 13.6561 24.3034 14.0024 23.3333 14.4501C22.1498 15.018 21.032 15.7138 20 16.5251C19.2688 15.6267 18.6373 14.6515 18.1167 13.6168C17.2858 11.8419 16.584 10.0093 16.0167 8.13344C15.9632 7.9563 15.8522 7.80199 15.7013 7.69486C15.5505 7.58774 15.3682 7.53387 15.1833 7.54178C14.9984 7.53387 14.8162 7.58774 14.6653 7.69486C14.5144 7.80199 14.4035 7.9563 14.35 8.13344C13.7841 10.0098 13.0822 11.8424 12.25 13.6168C11.7318 14.6504 11.1001 15.623 10.3667 16.5168C9.32978 15.7148 8.21273 15.0222 7.03333 14.4501C6.08684 14.0083 5.0986 13.6622 4.08333 13.4168C3.93259 13.3806 3.77475 13.3871 3.62753 13.4357C3.48032 13.4843 3.34957 13.573 3.24999 13.6918C3.14866 13.8145 3.08461 13.9637 3.06541 14.1218C3.04621 14.2798 3.07267 14.44 3.14166 14.5834C4.72249 18.178 5.84249 21.9579 6.47499 25.8334C6.50873 26.0291 6.61121 26.2063 6.76399 26.3331C6.91677 26.4599 7.1098 26.528 7.30833 26.5251H23.1417C23.3402 26.528 23.5332 26.4599 23.686 26.3331C23.8388 26.2063 23.9413 26.0291 23.975 25.8334C24.6075 21.9579 25.7275 18.178 27.3083 14.5834C27.3773 14.44 27.4038 14.2798 27.3846 14.1218C27.3654 13.9637 27.3013 13.8145 27.2 13.6918C27.0997 13.5715 26.9676 13.4819 26.8187 13.4332C26.6698 13.3846 26.5103 13.3789 26.3583 13.4168V13.4168ZM9.23333 23.7918C9.05003 23.7934 8.87038 23.7406 8.71717 23.64C8.56397 23.5393 8.44411 23.3954 8.37282 23.2266C8.30153 23.0577 8.28202 22.8715 8.31676 22.6915C8.35151 22.5115 8.43894 22.3459 8.56797 22.2157C8.69699 22.0855 8.86179 21.9966 9.04145 21.9602C9.22111 21.9238 9.40752 21.9417 9.57702 22.0114C9.74653 22.0812 9.89149 22.1997 9.99351 22.352C10.0955 22.5043 10.15 22.6835 10.15 22.8668C10.15 23.1107 10.0537 23.3447 9.88202 23.5179C9.71035 23.6912 9.47721 23.7896 9.23333 23.7918ZM15.1917 23.7918C14.9626 23.77 14.7498 23.6635 14.595 23.4932C14.4402 23.323 14.3544 23.1011 14.3544 22.8709C14.3544 22.6408 14.4402 22.4189 14.595 22.2486C14.7498 22.0784 14.9626 21.9719 15.1917 21.9501C15.4208 21.9719 15.6335 22.0784 15.7883 22.2486C15.9432 22.4189 16.029 22.6408 16.029 22.8709C16.029 23.1011 15.9432 23.323 15.7883 23.4932C15.6335 23.6635 15.4208 23.77 15.1917 23.7918ZM21.1583 23.7918C20.975 23.7934 20.7954 23.7406 20.6422 23.64C20.489 23.5393 20.3691 23.3954 20.2978 23.2266C20.2265 23.0577 20.207 22.8715 20.2418 22.6915C20.2765 22.5115 20.3639 22.3459 20.493 22.2157C20.622 22.0855 20.7868 21.9966 20.9664 21.9602C21.1461 21.9238 21.3325 21.9417 21.502 22.0114C21.6715 22.0812 21.8165 22.1997 21.9185 22.352C22.0205 22.5043 22.075 22.6835 22.075 22.8668C22.075 23.1107 21.9787 23.3447 21.807 23.5179C21.6353 23.6912 21.4022 23.7896 21.1583 23.7918Z" fill="#CEAC6D"/>
</svg>
