<svg width="36" height="36" viewBox="0 0 36 36" fill="none" xmlns="http://www.w3.org/2000/svg">
<path d="M11.25 19.5V11.25C11.25 10.6533 11.4871 10.081 11.909 9.65901C12.331 9.23705 12.9033 9 13.5 9C14.0967 9 14.669 9.23705 15.091 9.65901C15.5129 10.081 15.75 10.6533 15.75 11.25V19.5" stroke="white" stroke-width="3" stroke-linecap="round" stroke-linejoin="round"/>
<path d="M29.25 18.75V23.625C29.25 28.3882 25.3882 32.25 20.625 32.25H19.875C15.1118 32.25 11.25 28.3882 11.25 23.625V18.75" stroke="white" stroke-width="3" stroke-linecap="round" stroke-linejoin="round"/>
<path d="M15.75 21.75V18C15.75 17.4033 15.9871 16.831 16.409 16.409C16.831 15.9871 17.4033 15.75 18 15.75C18.5967 15.75 19.169 15.9871 19.591 16.409C20.0129 16.831 20.25 17.4033 20.25 18V21.75" stroke="white" stroke-width="3" stroke-linecap="round" stroke-linejoin="round"/>
<path d="M20.25 21.75V18C20.25 17.4033 20.4871 16.831 20.909 16.409C21.331 15.9871 21.9033 15.75 22.5 15.75C23.0967 15.75 23.669 15.9871 24.091 16.409C24.5129 16.831 24.75 17.4033 24.75 18V21.75" stroke="white" stroke-width="3" stroke-linecap="round" stroke-linejoin="round"/>
<path d="M24.75 21.75V18C24.75 17.4033 24.9871 16.831 25.409 16.409C25.831 15.9871 26.4033 15.75 27 15.75C27.5967 15.75 28.169 15.9871 28.591 16.409C29.0129 16.831 29.25 17.4033 29.25 18V21.75" stroke="white" stroke-width="3" stroke-linecap="round" stroke-linejoin="round"/>
<path d="M21 11.25C21.0019 9.64463 20.487 8.08128 19.5315 6.79125C18.8346 5.84731 17.9257 5.08029 16.8781 4.55204C15.8304 4.02378 14.6733 3.74905 13.5 3.75C12.3267 3.74905 11.1696 4.02378 10.1219 4.55204C9.07426 5.08029 8.16537 5.84731 7.46851 6.79125C6.51297 8.08128 5.99808 9.64463 6.00001 11.25" stroke="white" stroke-width="3" stroke-linecap="round"/>
</svg>
