<svg width="140" height="133" viewBox="0 0 140 133" fill="none" xmlns="http://www.w3.org/2000/svg">
<path d="M134.017 86.7548C131.028 83.7415 127.219 81.8946 123.074 81.4572C122.351 74.8959 118.108 69.2094 111.89 66.6335C110.829 66.1961 109.576 66.7307 109.142 67.8C108.708 68.8692 109.238 70.1329 110.299 70.5703C114.927 72.4658 118.108 76.5969 118.831 81.4086C117.048 81.0197 115.168 81.1169 113.384 81.7002C112.275 82.089 111.697 83.2554 112.034 84.3733C112.42 85.4911 113.577 86.0744 114.686 85.7341C116.951 85.0051 119.506 85.5883 121.145 87.338C122.929 89.1849 123.411 91.9066 122.351 94.2881C121.869 95.3574 122.351 96.621 123.411 97.107C123.7 97.2528 123.99 97.3015 124.279 97.3015C125.098 97.3015 125.821 96.864 126.207 96.0864C127.653 92.9273 127.461 89.3307 125.725 86.4632C127.702 87.1436 129.533 88.3101 131.028 89.8167C133.679 92.4898 135.077 96.0378 135.029 99.8288C134.884 107.362 128.521 113.535 120.856 113.535H114.348C113.191 113.535 112.227 114.458 112.227 115.624C112.227 116.791 113.191 117.714 114.348 117.714H120.856C130.835 117.714 139.127 109.695 139.271 99.8774C139.319 94.8713 137.488 90.2541 134.017 86.7548Z" fill="#D0A452"/>
<path d="M51.1028 26.4882C51.1028 27.6546 52.0669 28.578 53.2239 28.578C53.2239 28.578 53.2239 28.578 53.2721 28.578C54.4291 28.578 55.3932 27.606 55.345 26.4396L55.2968 24.1067C55.2968 21.7251 56.743 19.5867 58.9123 18.6146L63.0581 16.7677C64.8418 18.566 67.3003 19.6839 70.0481 19.6839C72.7959 19.6839 75.3027 18.5174 77.1345 16.6705L81.5214 18.6146C83.6907 19.5867 85.0887 21.7251 85.1369 24.1067L85.0887 26.4396C85.0887 27.606 86.0046 28.578 87.1616 28.578C87.1616 28.578 87.1616 28.578 87.2098 28.578C88.3667 28.578 89.3309 27.6546 89.3309 26.4882L89.3791 24.1553C89.3791 24.1553 89.3791 24.1553 89.3791 24.1067C89.3791 20.0727 86.9687 16.3789 83.2568 14.775L79.4002 13.074C79.7377 12.0533 79.9305 10.9841 79.9305 9.86623C79.9305 4.42279 75.4955 0 70.0963 0C64.6971 0 60.2621 4.42279 60.2621 9.86623C60.2621 11.0327 60.5031 12.1505 60.8406 13.2198L57.2733 14.775C53.4649 16.3789 51.0546 20.0727 51.0546 24.1067C51.0546 24.1067 51.0546 24.1066 51.0546 24.1553L51.1028 26.4882ZM69.9999 4.22838C73.0851 4.22838 75.6401 6.75569 75.6401 9.86623C75.6401 12.9768 73.1333 15.5041 69.9999 15.5041C68.1198 15.5041 66.4326 14.532 65.372 13.1226C65.3238 13.074 65.3238 13.0254 65.2756 12.9768C64.6971 12.1019 64.3597 11.0327 64.3597 9.86623C64.4079 6.75569 66.9147 4.22838 69.9999 4.22838Z" fill="#D0A452"/>
<path d="M96.0799 65.3203H92.2233C88.2221 65.3203 84.8477 62.5013 83.9799 58.759H84.9923L104.516 58.6132C108.517 58.6132 111.747 55.3568 111.747 51.3714C111.747 47.3861 108.517 44.1297 104.516 44.1297H93.9588C92.8018 44.1297 91.8377 45.0532 91.8377 46.2196C91.8377 47.3861 92.8018 48.3095 93.9588 48.3095H104.516C106.203 48.3095 107.553 49.6704 107.553 51.3228C107.553 52.9753 106.203 54.3362 104.516 54.3362L87.4026 54.482L90.1504 34.5065C90.2468 33.9233 90.054 33.2915 89.6684 32.854C89.2827 32.4166 88.7042 32.125 88.0775 32.125H51.9706C51.3439 32.125 50.7654 32.368 50.3797 32.854C49.9941 33.2915 49.8013 33.9233 49.8977 34.5065L52.6455 54.482L35.8213 54.3362C34.134 54.3362 32.7842 52.9753 32.7842 51.3228C32.7842 49.6704 34.134 48.3095 35.8213 48.3095H46.3786C47.5355 48.3095 48.4997 47.3861 48.4997 46.2196C48.4997 45.0532 47.5355 44.1297 46.3786 44.1297H35.8213C31.8201 44.1297 28.5902 47.3861 28.5902 51.3714C28.5902 55.3568 31.8201 58.6132 35.8213 58.6132L39.5332 58.6618C37.5567 60.7517 36.7372 63.1818 36.2069 65.4175C35.532 65.3203 34.8571 65.3203 34.1822 65.3203C24.8301 65.3203 17.117 72.4162 16.1528 81.4562C12.007 81.8936 8.19871 83.7405 5.20988 86.7538C1.78719 90.2532 -0.0928801 94.8704 0.00353365 99.7792C0.148154 109.597 8.43974 117.616 18.4186 117.616H36.5444V123.254C36.5444 128.26 40.6419 132.343 45.6555 132.343H99.6954C104.709 132.343 108.806 128.26 108.806 123.254V77.9568C108.71 71.0067 103.022 65.3203 96.0799 65.3203ZM85.6672 36.3534L83.1604 54.5306H56.8877L54.3809 36.3534H85.6672ZM38.5691 106.729C37.4121 106.729 36.4479 105.757 36.4479 104.591C36.4479 103.424 37.4121 102.452 38.5691 102.452C39.726 102.452 40.6902 103.424 40.6902 104.591C40.7384 105.757 39.7742 106.729 38.5691 106.729ZM54.863 93.2179C53.706 93.2179 52.7419 92.2458 52.7419 91.0794C52.7419 89.9129 53.706 88.9409 54.863 88.9409C56.02 88.9409 56.9841 89.9129 56.9841 91.0794C56.9841 92.2458 56.02 93.2179 54.863 93.2179ZM84.4138 98.2725C83.2568 98.2725 82.2927 97.3005 82.2927 96.134C82.2927 94.9676 83.2568 93.9955 84.4138 93.9955C85.5708 93.9955 86.5349 94.9676 86.5349 96.134C86.5349 97.3005 85.5708 98.2725 84.4138 98.2725ZM104.516 113.436H92.7054C91.5484 113.436 90.5843 114.36 90.5843 115.526C90.5843 116.693 91.5484 117.616 92.7054 117.616H104.516V123.254C104.516 125.927 102.347 128.114 99.6472 128.114H86.5349V102.063C88.9935 101.189 90.7771 98.8557 90.7771 96.0854C90.7771 92.5861 87.9329 89.7185 84.4138 89.7185C80.8947 89.7185 78.0505 92.5861 78.0505 96.0854C78.0505 98.8557 79.8342 101.189 82.2927 102.063V113.339H74.3868C72.8924 113.339 71.6872 112.124 71.6872 110.666V77.7624C71.6872 76.5959 70.7231 75.6725 69.5661 75.6725C68.4091 75.6725 67.445 76.5959 67.445 77.7624V110.715C67.445 112.221 66.2398 113.388 64.7454 113.388H62.8653C61.7084 113.388 60.7442 114.311 60.7442 115.478C60.7442 116.644 61.7084 117.568 62.8653 117.568H64.7454C66.6255 117.568 68.3127 116.839 69.5661 115.623C70.8195 116.839 72.5067 117.568 74.3868 117.568H82.2927V128.066H56.9841V96.9602C59.4426 96.0854 61.2263 93.7525 61.2263 90.9822C61.2263 87.4828 58.3821 84.6153 54.863 84.6153C51.3439 84.6153 48.4997 87.4828 48.4997 90.9822C48.4997 93.7525 50.2833 96.0854 52.7419 96.9602V113.291H47.1017C45.9447 113.291 44.9806 114.214 44.9806 115.38C44.9806 116.547 45.9447 117.47 47.1017 117.47H52.7419V127.968H45.5591C42.8595 127.968 40.6902 125.781 40.6902 123.108V110.374C43.1487 109.5 44.9324 107.167 44.9324 104.396C44.9324 100.897 42.0882 98.0295 38.5691 98.0295C35.0499 98.0295 32.2057 100.897 32.2057 104.396C32.2057 107.167 33.9894 109.5 36.4479 110.374V113.242H18.3704C10.6573 113.242 4.29395 107.118 4.19753 99.5362C4.14933 95.7452 5.54733 92.1972 8.19871 89.5241C10.8019 86.851 14.321 85.3929 18.0329 85.3443C18.8042 85.4415 23.7695 86.2678 25.8424 91.1766C23.3357 93.8011 22.3233 97.4949 23.2393 101.091C23.4803 102.063 24.348 102.647 25.2639 102.647C25.4568 102.647 25.6014 102.647 25.7942 102.598C26.903 102.306 27.5779 101.14 27.2886 100.022C26.6137 97.4949 27.5779 94.9189 29.6508 93.3637C31.5791 91.9542 34.1822 91.7598 36.3033 92.8777C37.3157 93.4123 38.6173 93.0235 39.1475 92.0028C39.6778 90.9822 39.2922 89.7185 38.2798 89.1353C35.4838 87.6286 32.2057 87.5314 29.3133 88.6979C26.9994 83.9835 22.7572 82.1366 20.2504 81.4562C21.1664 74.8463 27.0476 69.5 34.134 69.5C35.1946 69.5 36.2551 69.6458 37.3157 69.8889C37.6531 69.9861 41.5579 71.2497 43.8718 74.9921C42.522 76.3043 41.5097 77.9568 40.9794 79.9009C40.6902 81.0187 41.3651 82.1852 42.4738 82.4768C42.6666 82.5254 42.8595 82.5254 43.0041 82.5254C43.92 82.5254 44.7877 81.8936 45.0288 80.9701C45.7037 78.4914 47.7766 76.6446 50.3797 76.3529C52.7419 76.0613 55.104 77.2278 56.4056 79.2205C57.0323 80.1925 58.3339 80.4841 59.298 79.9009C60.2622 79.2691 60.5996 77.9568 59.9729 76.9848C57.8518 73.5826 53.8988 71.6871 49.8977 72.1732C49.0299 72.2704 48.2104 72.4648 47.4391 72.7564C45.2698 69.3056 42.2328 67.4101 40.2563 66.5353C40.9794 63.3762 42.1364 60.7031 46.6678 58.7104L55.0076 58.8076H67.2522V69.1598C67.2522 70.3263 68.2163 71.2497 69.3733 71.2497C70.5302 71.2497 71.4944 70.3263 71.4944 69.1598V58.8076H79.6895C80.6055 64.9314 85.86 69.5972 92.1751 69.5972H96.0317C100.66 69.5972 104.468 73.3882 104.468 78.0054V113.436H104.516Z" fill="#D0A452"/>
</svg>
