<svg width="112" height="123" viewBox="0 0 112 123" fill="none" xmlns="http://www.w3.org/2000/svg">
<path fill-rule="evenodd" clip-rule="evenodd" d="M54.9609 37.1716C53.8974 37.1716 53.0273 36.301 53.0273 35.237V11.3442L41.3301 5.06311V11.8495L48.5802 15.3098C49.547 15.7451 49.9337 16.9059 49.4986 17.8732C49.0152 18.8405 47.9034 19.2274 46.9366 18.7922L41.3301 16.1258V20.8266L48.5318 24.0154C49.4986 24.4507 49.9337 25.5631 49.4986 26.5304C49.0636 27.4978 47.9034 27.9331 46.9366 27.4978L41.3301 25.0239V29.9841L48.4352 32.7215C49.4504 33.1085 49.9337 34.2209 49.547 35.1882C49.1603 36.1555 48.0485 36.6875 47.0334 36.3006L41.3301 34.13V37.2201C41.3301 38.2841 40.4599 39.1547 39.3965 39.1547C38.333 39.1547 37.4629 38.2841 37.4629 37.2201V33.6417L14.8397 38.1869C14.7962 38.1869 14.743 38.1967 14.6845 38.2074L14.6844 38.2074L14.6844 38.2074C14.6126 38.2206 14.5328 38.2353 14.453 38.2353C13.5345 38.2353 12.7611 37.6065 12.5677 36.6875C12.3744 35.6719 13.0511 34.6562 14.0663 34.4143L37.4629 29.6869V24.4379L14.8879 29.4324C14.8154 29.4324 14.7429 29.4445 14.6704 29.4566C14.5979 29.4687 14.5254 29.4808 14.4529 29.4808C13.5828 29.4808 12.761 28.852 12.5677 27.9814C12.326 26.9657 13.0027 25.9501 14.0178 25.7082L37.4629 20.5155V15.4485L14.8879 20.6784C14.7429 20.7268 14.5979 20.7268 14.4529 20.7268H14.4529C13.5828 20.7268 12.761 20.1464 12.5677 19.2274C12.326 18.2118 13.0027 17.1961 14.0178 16.9542L37.4629 11.5338V4.33114L8.31455 11.5861V118.185H27.602V45.4906C27.602 44.5232 28.3271 43.701 29.2939 43.6043L65.7873 38.8437C66.1669 38.6794 66.5819 38.6496 66.9969 38.7188L88.3627 43.5554C89.2328 43.7489 89.8612 44.5227 89.8612 45.4417V76.1058C89.8612 77.1698 88.9911 78.0404 87.9277 78.0404C86.8642 78.0404 85.9941 77.1698 85.9941 76.1058V62.1845L68.5934 58.4201V70.6072L81.3543 72.5266C82.4178 72.6717 83.1429 73.6874 82.9495 74.703C82.8045 75.6704 81.9827 76.3475 81.0643 76.3475H80.7743L68.5934 74.4816V86.3999L79.7098 87.085C80.7732 87.1333 81.595 88.0523 81.4983 89.1163C81.45 90.132 80.5799 90.9059 79.5648 90.9059H79.4681L68.5934 90.2357V101.842L74.8283 101.788C75.8917 101.788 76.7618 102.659 76.7618 103.675C76.7618 104.739 75.8917 105.609 74.8283 105.609L68.5934 105.663V118.185H109.826C110.89 118.185 111.76 119.056 111.76 120.12C111.76 121.184 110.89 122.054 109.826 122.054H1.93356C0.870101 122.054 0 121.184 0 120.12C0 119.056 0.870101 118.185 1.93356 118.185H4.44744V10.0867C4.44744 9.21612 5.0275 8.44226 5.8976 8.2488L38.633 0.156129C39.1604 -0.0644087 39.7853 -0.0585164 40.3142 0.21997L55.8793 8.53893C56.5077 8.87749 56.8944 9.50625 56.8944 10.2317V35.2854C56.8944 36.3011 56.0243 37.1716 54.9609 37.1716ZM85.9941 58.2721L68.5934 54.5077V43.0456L85.9941 46.9894V58.2721ZM43.6015 118.185H52.1088V105.806L43.6015 105.88V118.185ZM64.6283 118.185H55.976V105.773L64.6283 105.698V118.185ZM64.6283 101.877L55.976 101.952V90.3837L64.6283 90.0124V101.877ZM43.6015 90.9148L52.1088 90.5497V101.985L43.6015 102.059V90.9148ZM43.6015 87.0856L52.1088 86.7205V74.894L43.6015 75.5558V87.0856ZM64.6283 86.1831L55.976 86.5545V74.5932L64.6283 73.9201V86.1831ZM64.6283 70.0767L55.976 70.7497V58.93L64.6283 58.0133V70.0767ZM43.6015 60.2412L52.1088 59.3398V71.0506L43.6015 71.7124V60.2412ZM43.6015 56.3742L52.1088 55.4728V44.4296L43.6015 45.5447V56.3742ZM64.6283 54.1463L55.976 55.063V43.9227L64.6283 42.7886V54.1463ZM39.7343 118.185V105.913L31.4691 105.985V118.185H39.7343ZM39.7343 91.0808V102.092L31.4691 102.164V91.4355L39.7343 91.0808ZM39.7343 75.8567V87.2516L31.4691 87.6063V76.4996L39.7343 75.8567ZM39.7343 60.651V72.0132L31.4691 72.6562V61.5267L39.7343 60.651ZM39.7343 46.0516V56.784L31.4691 57.6597V47.135L39.7343 46.0516ZM86.6717 113.977C86.8167 114.026 86.9618 114.026 87.1068 114.026C87.9769 114.026 88.7503 113.445 89.0403 112.72C89.282 111.656 88.6053 110.64 87.5902 110.398C85.5116 109.915 84.0614 108.077 84.0614 105.949C84.0614 104.304 84.8832 102.853 86.285 102.031C86.7684 101.741 87.1068 101.257 87.2035 100.725C87.3001 100.145 87.1551 99.6128 86.8167 99.1775C86.285 98.5003 85.995 97.7265 85.995 96.8559C85.995 95.0664 87.2035 93.567 88.9437 93.1801C89.5721 93.035 90.1038 92.5997 90.3455 91.9709C90.5872 91.3422 90.4905 90.665 90.1038 90.133C89.8138 89.6977 89.6204 89.1657 89.6204 88.6337C89.6204 87.2311 90.7322 86.1186 92.134 86.1186C93.3908 86.1186 94.5026 87.086 94.6477 88.3435C94.7927 89.3592 95.6144 90.0363 96.6295 90.0363C98.6598 90.0363 100.352 91.7291 100.352 93.7605C100.352 94.5827 100.11 95.3565 99.5782 96.0337C99.1915 96.469 99.0948 97.0977 99.2399 97.6781C99.3849 98.2101 99.8199 98.6938 100.352 98.9356C101.898 99.5644 103.542 100.774 103.639 104.643C103.687 106.916 101.657 109.721 99.6749 110.108C98.6598 110.35 97.983 111.366 98.1764 112.381C98.3698 113.445 99.3849 114.074 100.448 113.881C104.267 113.107 107.554 108.754 107.457 104.594C107.361 100.87 106.104 98.1618 103.687 96.469C103.977 95.5984 104.17 94.6794 104.17 93.7605C104.17 90.0846 101.512 86.9892 98.0314 86.3121C97.1129 83.9422 94.7443 82.2977 92.0857 82.2977C88.5569 82.2977 85.7049 85.1513 85.7049 88.6337C85.7049 89.1657 85.7533 89.6977 85.8983 90.2297C83.578 91.5356 82.0795 94.0023 82.0795 96.7592C82.0795 97.7748 82.3212 98.8389 82.7563 99.8062C81.1127 101.354 80.1943 103.482 80.1943 105.804C80.1943 109.721 82.853 113.059 86.6717 113.977ZM14.4539 46.9898C13.5355 46.9898 12.7137 46.3127 12.5687 45.3937C12.3753 44.3297 13.1004 43.314 14.1639 43.1689L22.5749 41.863C23.6383 41.7179 24.6051 42.395 24.7984 43.4591C24.9435 44.4748 24.2184 45.4421 23.2033 45.6356L14.7439 46.9414C14.6956 46.9414 14.6473 46.9535 14.5989 46.9656C14.5506 46.9777 14.5023 46.9898 14.4539 46.9898ZM12.5676 54.0998C12.7126 55.0187 13.5344 55.6959 14.4529 55.6959H14.7912L23.2022 54.39C24.2173 54.2449 24.9424 53.2776 24.7974 52.2135C24.604 51.1495 23.6372 50.4723 22.5738 50.6174L14.1628 51.9233C13.1477 52.0684 12.4226 53.0357 12.5676 54.0998ZM14.4528 64.4497C13.486 64.4497 12.6643 63.7726 12.5676 62.8053C12.4226 61.7412 13.1477 60.7739 14.2111 60.6288L22.6221 59.468C23.6856 59.3229 24.6523 60.0484 24.7974 61.1125C24.9424 62.1765 24.2173 63.1439 23.1538 63.289L14.7429 64.4497H14.4528ZM12.5186 71.5121C12.6636 72.4794 13.4854 73.2049 14.4522 73.2049H14.6455L23.0565 72.3343C24.1199 72.2375 24.8934 71.3186 24.7967 70.2545C24.7 69.1905 23.7332 68.465 22.6698 68.5617L14.2588 69.4323C13.1953 69.529 12.4219 70.448 12.5186 71.5121ZM14.4522 82.2003C13.437 82.2003 12.6153 81.4264 12.5186 80.4591C12.4219 79.395 13.1953 78.4761 14.2588 78.3793L22.6698 77.6539C23.7332 77.5571 24.6517 78.331 24.7484 79.395C24.845 80.4591 24.0716 81.3781 23.0082 81.4748L14.6455 82.2003H14.4522ZM12.5189 89.1659C12.6156 90.1816 13.4373 90.9554 14.4524 90.9554H14.5491L22.9601 90.4234C24.0236 90.375 24.797 89.4561 24.7486 88.392C24.7003 87.328 23.7819 86.5541 22.7184 86.6025L14.3074 87.1345C13.244 87.1829 12.4706 88.1018 12.5189 89.1659ZM14.4523 100.242C13.4372 100.242 12.5671 99.4678 12.5188 98.4521C12.4704 97.388 13.2922 96.5174 14.3557 96.4207L22.7666 95.9854C23.8301 95.937 24.7485 96.7593 24.7969 97.7749C24.8452 98.839 24.0234 99.7096 22.96 99.8063L14.549 100.242H14.4523ZM14.4539 109.672H22.8649C23.9283 109.672 24.7984 108.802 24.7984 107.738C24.7984 106.674 23.9283 105.803 22.8649 105.803H14.4539C13.3904 105.803 12.5203 106.674 12.5203 107.738C12.5203 108.802 13.3904 109.672 14.4539 109.672Z" fill="#D0A452"/>
</svg>
