<svg width="140" height="129" viewBox="0 0 140 129" fill="none" xmlns="http://www.w3.org/2000/svg">
<path fill-rule="evenodd" clip-rule="evenodd" d="M120 54.0199C118.844 53.7733 117.736 54.5623 117.495 55.7458C117.254 56.9294 118.025 58.0636 119.181 58.2608C133.055 60.973 134.838 63.8332 135.03 64.2277C134.741 64.6715 132.381 67.3837 116.821 70.0959C116.146 68.8631 115.087 67.8275 113.882 67.1865C113.93 66.2002 113.979 65.2139 113.979 64.277C113.979 57.3239 112.437 50.7159 109.643 44.8477C114.027 39.4726 117.977 34.2947 121.349 29.5113C126.07 22.8048 129.394 17.1338 131.321 12.6956C133.633 7.2712 133.778 3.57272 131.658 1.50158C128.961 -1.25995 123.661 -0.224376 115.087 4.70692C113.882 3.72066 112.292 3.07959 110.606 3.07959C106.704 3.07959 103.477 6.33425 103.477 10.2793C103.477 10.9204 103.573 11.5614 103.718 12.1532C100.924 14.175 97.9368 16.4434 94.8537 18.9091C93.9384 19.6488 93.7939 20.9802 94.5165 21.9171C94.95 22.4596 95.5763 22.7555 96.2025 22.7555C96.6843 22.7555 97.1178 22.6075 97.5032 22.3117C100.49 19.9446 103.332 17.7749 106.03 15.8023C107.282 16.8872 108.872 17.5283 110.606 17.5283C114.508 17.5283 117.688 14.2736 117.688 10.3286C117.688 9.63822 117.592 8.94784 117.399 8.30677C125.203 3.8686 128.142 4.06585 128.623 4.55898C128.671 4.6083 131.177 8.0602 117.832 27.0457C114.798 31.3852 111.281 35.9713 107.379 40.804C105.934 38.3877 104.248 36.1193 102.369 34.0481C102.272 33.9002 102.128 33.7523 101.983 33.6536C93.9384 24.728 82.3767 19.1556 69.5626 19.1556C57.0374 19.1556 45.2349 24.58 36.9972 33.6043C36.9731 33.6536 36.937 33.6906 36.9009 33.7276C36.8648 33.7646 36.8286 33.8016 36.8045 33.8509C34.2032 36.711 31.939 39.9657 30.1566 43.5162C28.4705 41.6917 26.8808 39.9164 25.4838 38.2397C26.2545 37.0562 26.7363 35.6755 26.7363 34.1468C26.7363 30.1524 23.5568 26.9471 19.6548 26.9471C18.9803 26.9471 18.3059 27.0457 17.7278 27.2429C15.9936 23.9883 16.0417 22.4103 16.3308 22.0158C16.957 21.2268 21.3408 20.635 34.2995 27.1936C35.3593 27.7361 36.6118 27.2923 37.1418 26.2074C37.6717 25.1225 37.2381 23.8404 36.1783 23.2979C23.4605 16.8872 15.8972 15.6051 13.0068 19.4022C11.2726 21.6213 11.6579 24.9746 14.1148 29.61C13.1032 30.8428 12.4769 32.4208 12.4769 34.1468C12.4769 38.1411 15.6564 41.3465 19.6066 41.3465C20.4737 41.3465 21.3408 41.1985 22.1116 40.8533C27.9888 47.8558 36.0338 55.8938 45.2831 64.0797C45.4276 63.488 45.6685 62.9455 45.9575 62.4031L47.2582 60.1347C42.1036 55.5486 37.3826 51.0611 33.2397 46.7709C34.7812 43.5162 36.7082 40.5081 38.9724 37.7959C42.2481 39.1767 45.9575 40.3602 49.9077 41.1985C48.5107 45.8339 47.4991 51.0118 47.0655 56.4362C46.9692 57.3239 47.4509 58.1622 48.2217 58.5567L51.8347 52.2939C52.3646 48.6448 53.1354 45.1929 54.0988 42.0368C58.2899 42.7272 62.7219 43.1217 67.2984 43.2204V57.4718L69.2253 60.7758L71.5377 56.7321V43.2697C76.2105 43.171 80.7388 42.7765 84.9781 42.0862C86.0379 45.5381 86.905 49.3845 87.4349 53.5268C87.4831 53.7733 87.5313 53.9706 87.6276 54.1678L87.8203 54.4637C88.2539 55.1048 89.0247 55.4993 89.8436 55.3513C90.9998 55.2034 91.8187 54.1185 91.6742 52.935C91.1443 48.842 90.2772 44.897 89.2174 41.2971C93.2158 40.4095 96.877 39.2753 100.153 37.8946C101.839 39.8671 103.284 42.0368 104.585 44.3052C100.394 49.3352 95.8653 54.5623 90.9998 59.8388L92.4932 62.4524C92.734 62.8962 92.9267 63.3894 93.0712 63.8332C97.8886 58.606 102.417 53.4775 106.608 48.4475C108.39 52.7378 109.45 57.3732 109.691 62.2058H99.5747C98.4185 62.2058 97.455 63.1921 97.455 64.3756C97.455 65.5591 98.4185 66.5454 99.5747 66.5454H109.065C106.415 67.1371 104.344 69.2576 103.718 71.9205C98.9484 72.463 93.842 72.9068 88.5911 73.3013C87.4349 73.3999 86.5196 74.3862 86.616 75.5697C86.7123 76.7039 87.6276 77.5915 88.7356 77.5915H88.8801C94.1311 77.2463 99.2375 76.7532 104.055 76.2107C104.585 77.5915 105.548 78.775 106.801 79.6133C105.452 82.9666 103.621 86.172 101.453 89.0321C98.9484 87.8979 93.6012 85.9254 90.0363 84.7419C90.229 84.0515 90.4217 83.3611 90.6144 82.3748C90.8553 81.1913 90.1327 80.0571 89.0247 79.8106C87.8685 79.564 86.7605 80.3037 86.4715 81.4379C86.0861 83.1639 85.8934 83.8542 85.3635 85.4816V85.5309V85.5802V85.6295C85.3635 85.6788 85.3635 85.7281 85.3153 85.7774C85.3153 85.8021 85.3033 85.839 85.2913 85.8759L85.2912 85.876L85.2912 85.8761C85.2792 85.9131 85.2671 85.9501 85.2671 85.9747V86.172V86.3692C85.2671 86.3939 85.2792 86.4308 85.2912 86.4678C85.3033 86.5048 85.3153 86.5418 85.3153 86.5665C85.3153 86.5911 85.3273 86.628 85.3394 86.665L85.3394 86.6651C85.3514 86.7021 85.3635 86.7391 85.3635 86.7637C85.3635 86.813 85.4117 86.9116 85.4598 86.961C85.4839 86.9856 85.4959 87.0226 85.508 87.0596C85.52 87.0966 85.5321 87.1336 85.5562 87.1582C85.6043 87.2075 85.6525 87.2568 85.6525 87.3555C85.7007 87.4048 85.7489 87.4541 85.7489 87.5034L85.8934 87.6513L86.0379 87.7993C86.0861 87.8486 86.1343 87.8979 86.2306 87.8979C86.2788 87.9472 86.327 87.9965 86.4233 87.9965C86.4474 88.0212 86.4835 88.0335 86.5196 88.0458C86.5558 88.0582 86.5919 88.0705 86.616 88.0952C86.6401 88.0952 86.6642 88.1075 86.6882 88.1198C86.7123 88.1321 86.7364 88.1445 86.7605 88.1445H86.8087H86.8569C89.4582 88.8348 95.2872 90.9553 98.563 92.3361C98.5165 92.3837 98.47 92.4364 98.4219 92.491C98.3205 92.6059 98.212 92.7289 98.0813 92.8292C97.2623 93.6675 97.2623 95.0483 98.0813 95.8866C98.5149 96.2811 99.0448 96.5277 99.5747 96.5277C100.105 96.5277 100.683 96.3304 101.068 95.8866C105.307 91.5471 108.679 86.3199 110.895 80.6489C114.46 80.501 117.351 77.7394 117.736 74.1396C136.813 70.7863 139.318 66.9892 139.318 64.0797C139.27 59.8388 133.152 56.5842 120 54.0199ZM110.655 13.1394C109.065 13.1394 107.812 11.8573 107.812 10.23C107.812 8.65196 109.113 7.32051 110.655 7.32051C112.244 7.32051 113.497 8.60265 113.497 10.23C113.497 11.8573 112.196 13.1394 110.655 13.1394ZM19.6066 37.0562C18.0169 37.0562 16.7643 35.7741 16.7643 34.1468C16.7643 32.5688 18.065 31.2373 19.6066 31.2373C21.1963 31.2373 22.4488 32.5194 22.4488 34.1468C22.4488 35.7248 21.1963 37.0562 19.6066 37.0562ZM51.353 37.1549C48.029 36.4152 44.9459 35.5275 42.1518 34.492C46.7765 30.1031 52.3646 26.8978 58.4345 25.0732C56.9893 26.6512 55.5922 28.4758 54.3879 30.6455C53.2799 32.6181 52.2201 34.7878 51.353 37.1549ZM67.2984 38.9301C63.2518 38.8315 59.3498 38.4863 55.5922 37.8946C58.579 30.4976 62.7219 25.4677 67.2984 24.1855V38.9301ZM71.5377 38.9301V24.1362C76.1623 25.2704 80.4498 30.3497 83.5329 37.8946C79.7272 38.4863 75.6806 38.8808 71.5377 38.9301ZM87.8203 37.1549C86.7123 34.2947 85.4598 31.7304 84.0628 29.5113C83.003 27.8347 81.895 26.3553 80.6906 25.0732C86.8569 26.8978 92.3968 30.1524 96.9733 34.492C94.2274 35.5275 91.0961 36.4152 87.8203 37.1549ZM110.655 76.4573C109.065 76.4573 107.812 75.1752 107.812 73.5478C107.812 71.9698 109.113 70.6384 110.655 70.6384C112.244 70.6384 113.497 71.9205 113.497 73.5478C113.497 75.1752 112.196 76.4573 110.655 76.4573ZM69.2739 84.6926C71.4418 84.6926 73.4169 83.5584 74.5249 81.6352L79.9203 72.2164H85.123L81.2692 76.1615C79.8815 77.582 78.4722 78.9803 77.0703 80.3713L77.0699 80.3717L77.0696 80.3721L77.0692 80.3724L77.0688 80.3728C76.3785 81.0578 75.6899 81.741 75.0066 82.4242C85.2676 89.8705 95.1913 96.1332 103.67 100.571C109.258 103.481 114.075 105.453 117.592 106.341C121.157 107.229 122.65 106.785 122.939 106.39C123.228 105.996 123.276 104.467 121.59 101.163C119.904 97.9085 116.821 93.6676 112.678 88.8842C111.908 87.9966 112.004 86.6158 112.871 85.8268C113.738 85.0378 115.087 85.1364 115.858 86.0241C125.878 97.6126 129.25 105.158 126.263 109.053C125.203 110.483 123.469 111.174 121.06 111.174C116.773 111.174 110.414 108.905 101.743 104.418C92.879 99.7824 82.5698 93.2238 71.8753 85.4323C59.8801 97.0209 48.0776 107.229 37.8166 114.921C38.0093 115.612 38.1538 116.352 38.1538 117.141C38.1538 121.086 34.9744 124.34 31.0723 124.34C29.3381 124.34 27.7965 123.699 26.544 122.664C19.8961 126.757 15.0305 128.778 11.6102 128.778C9.92415 128.778 8.57529 128.285 7.61182 127.299C5.1068 124.784 5.73306 120.149 9.53876 112.752C12.7182 106.637 18.0655 98.6482 25.0506 89.6732C25.7732 88.7363 27.1221 88.5884 28.0374 89.328C28.9527 90.0677 29.0972 91.3992 28.3746 92.3361C21.534 101.114 16.3312 108.856 13.2963 114.724C9.92415 121.332 10.2132 123.847 10.5986 124.242C11.1767 124.833 14.6933 124.932 24.2317 119.064C24.0872 118.472 23.9908 117.831 23.9908 117.141C23.9908 113.196 27.2185 109.941 31.1205 109.941C32.7102 109.941 34.2036 110.483 35.408 111.42C44.9463 104.27 55.8335 94.9004 67.0098 84.2488C67.7324 84.5447 68.5032 84.6926 69.2739 84.6926ZM28.2301 117.19C28.2301 118.817 29.4826 120.099 31.0723 120.099C32.6621 120.099 33.9146 118.817 33.9146 117.19C33.9146 115.563 32.6621 114.28 31.0723 114.28C29.5308 114.28 28.2301 115.563 28.2301 117.19ZM55.6887 107.081C54.5807 106.736 53.9545 105.503 54.3398 104.369C54.6771 103.235 55.8814 102.594 57.0376 103.037L58.4828 103.481L58.4346 103.432C57.6156 102.544 57.6638 101.213 58.5309 100.375C59.3499 99.5856 60.6988 99.5856 61.5177 100.473C63.3965 102.495 65.3716 103.777 67.3467 104.32V93.5694C67.3467 92.3859 68.3102 91.3996 69.4663 91.3996C70.6225 91.3996 71.586 92.3859 71.586 93.5694V104.369C74.8136 103.58 77.9931 100.818 80.6908 96.3802C81.317 95.394 82.6177 95.0488 83.6294 95.6899C84.5928 96.3309 84.93 97.6131 84.3038 98.6487C83.1958 100.473 81.9915 102.051 80.6908 103.432C83.4367 102.643 86.0862 101.558 88.5912 100.177C89.6511 99.6349 90.9036 100.029 91.4817 101.065C92.0116 102.101 91.6262 103.432 90.6145 103.974C84.2074 107.476 76.9332 109.35 69.6109 109.35C64.8417 109.35 60.1688 108.561 55.6887 107.081ZM60.2168 76.5552C58.3862 75.1252 56.6038 73.6951 54.8696 72.265H58.5789L61.7584 77.7881C61.2767 77.3442 60.7467 76.9497 60.2168 76.5552ZM15.8491 73.7451C19.0285 74.4848 22.6897 75.1259 26.64 75.7177C29.0005 84.8405 34.1069 93.0265 41.4774 99.1413C41.8628 99.4865 42.3445 99.6344 42.8263 99.6344C43.4525 99.6344 44.0306 99.3879 44.4642 98.8454C45.1868 97.9085 45.0904 96.577 44.1751 95.8373C43.1635 94.999 42.2 94.1114 41.2847 93.1744C44.127 91.9909 47.4028 91.0047 50.9194 90.265L51.4975 91.8923C51.8347 92.7306 52.6055 93.2238 53.4726 93.2238C53.7135 93.2238 54.0025 93.1744 54.2434 93.0758C55.3514 92.632 55.8331 91.3992 55.3996 90.265C55.3514 90.1417 55.3032 90.0061 55.2551 89.8705C55.2069 89.7349 55.1587 89.5993 55.1105 89.476C55.3514 89.4267 55.5923 89.3897 55.8331 89.3527C56.074 89.3157 56.3149 89.2787 56.5557 89.2294C57.7119 89.0815 58.5309 87.9966 58.3863 86.8131C58.2418 85.6296 57.1338 84.7912 55.9777 84.9885C55.5923 85.0378 55.2189 85.0994 54.8456 85.1611C54.4722 85.2227 54.0989 85.2844 53.7135 85.3337C53.3281 83.9529 52.9427 82.4735 52.6055 80.9941C52.3646 79.8106 51.2085 79.1202 50.1005 79.3668C48.9443 79.6134 48.2217 80.7476 48.4626 81.9311C48.7998 83.4105 49.137 84.7912 49.5224 86.172C45.3313 87.1089 41.5256 88.3418 38.2016 89.8212C35.0222 85.8268 32.6135 81.2407 31.1201 76.3587C37.4308 77.1477 44.4642 77.7395 51.8829 78.0847H51.9793C53.0872 78.0847 54.0507 77.197 54.0989 76.0135C54.1471 74.83 53.2318 73.7944 52.0756 73.7451C44.127 73.3506 36.6601 72.7096 30.0603 71.8712C29.7231 70.1453 29.5304 68.37 29.3859 66.5454H38.3461C39.5023 66.5454 40.4658 65.5592 40.4658 64.3757C40.4658 63.1922 39.5023 62.2059 38.3461 62.2059H29.4822C29.5786 60.0854 29.8676 57.965 30.253 55.8445C30.4939 54.661 29.7712 53.5268 28.6151 53.2803C27.4589 53.0337 26.3509 53.7734 26.1101 54.9569C25.4838 57.965 25.1948 61.0717 25.1948 64.1784C25.1948 66.5454 25.3875 68.8632 25.7247 71.1809C22.4489 70.6877 19.4621 70.096 16.8126 69.5042C5.01005 66.792 4.28745 64.2277 4.28745 64.1784C4.28745 64.1291 5.20274 61.121 20.0402 58.1622C21.1964 57.9157 21.919 56.7815 21.7263 55.6473C21.4854 54.4638 20.3774 53.7241 19.2212 53.9213C6.11804 56.5842 0 59.8389 0 64.2277C0 68.2221 5.01005 71.2795 15.8491 73.7451ZM82.6661 53.0833L89.2177 64.376C90.2294 66.2006 88.9768 68.4196 86.8572 68.4196H77.6561L71.1526 79.7123C70.2855 81.2903 68.0695 81.2903 67.1542 79.7123L60.6508 68.4196H51.4497C49.4264 68.4196 48.1739 66.1513 49.1855 64.376L55.7371 53.0833C56.7487 51.308 59.3019 51.308 60.3136 53.0833L66.8652 64.376L67.6841 65.8061H70.7191L72.646 62.5021L78.0896 53.0833C79.1013 51.308 81.6545 51.308 82.6661 53.0833Z" fill="#D0A452"/>
</svg>
