<svg width="56" height="56" viewBox="0 0 56 56" fill="none" xmlns="http://www.w3.org/2000/svg">
<circle cx="28" cy="28" r="28" fill="#071F91"/>
<path d="M20.3613 24.6708L22.8627 20.3018C23.2547 19.6168 24.218 19.6168 24.6067 20.3018L26.6829 23.9347L27.417 25.2195H28.583L28.8953 24.6742L31.3966 20.3052C31.7886 19.6202 32.752 19.6202 33.1406 20.3052L35.642 24.6742C36.0373 25.366 35.5523 26.2385 34.7684 26.2385H31.2571L28.7657 30.5938C28.4235 31.1936 27.5765 31.1936 27.231 30.5938L24.7396 26.2385H21.2317C20.451 26.2351 19.966 25.3626 20.3613 24.6708Z" fill="white"/>
<path d="M37.6883 22.6946H42.8007C41.6746 15.9571 36.2865 10.7191 29.5862 10V15.1698C33.5193 15.8071 36.6917 18.7993 37.6883 22.6946Z" fill="white"/>
<path d="M17.9961 25.3124C17.9961 20.2414 21.5804 16.0292 26.2909 15.1942V10.0176C18.8133 10.89 13 17.406 13 25.3124C13 28.9794 14.2524 32.3464 16.3385 34.991L19.9029 31.3342C18.7037 29.6439 17.9961 27.5651 17.9961 25.3124Z" fill="white"/>
<path d="M43 26.0723H37.9906C37.6119 31.3921 33.2901 35.5872 28.0083 35.5872C25.8624 35.5872 23.8759 34.892 22.2448 33.7129L18.6738 37.3696L18.6572 37.3866L28.0249 46.997L38.5919 36.2245C41.163 33.6072 42.8107 30.0357 43 26.0723Z" fill="white"/>
</svg>
