<svg width="56" height="56" viewBox="0 0 56 56" fill="none" xmlns="http://www.w3.org/2000/svg">
<circle cx="28" cy="28" r="28" fill="#071F91"/>
<path d="M27.9744 9C17.4962 9 9 17.4265 9 27.8188C9 31.7525 10.2185 35.4037 12.2976 38.4231L19.2053 19.4473H21.5791L16.1174 34.4541C15.6743 35.4449 15.425 36.5396 15.425 37.6932C15.425 41.0423 17.5021 43.9106 20.4495 45.0995C22.7561 46.0884 25.3 46.6377 27.9744 46.6377C38.4547 46.6377 46.9489 38.2112 46.9489 27.8188C46.9489 17.4265 38.4547 9 27.9744 9ZM19.8482 28.9627L23.3099 19.4473H34.9316L31.4698 28.9627H19.8482ZM38.245 34.4561H28.1881L32.7556 30.0417L34.5241 24.9407H41.7068L38.245 34.4561Z" fill="white"/>
<path d="M23.0866 24.1384L24.4219 21.8801C24.6316 21.527 25.1459 21.527 25.3556 21.8801L26.4653 23.7558L26.857 24.419H27.4801L27.6463 24.1364L28.9815 21.8782C29.1912 21.525 29.7055 21.525 29.9152 21.8782L31.2504 24.1364C31.4621 24.4935 31.203 24.9448 30.7836 24.9448H28.9083L27.577 27.1952C27.3931 27.5052 26.9401 27.5052 26.7581 27.1952L25.4268 24.9448H23.5515C23.1341 24.9468 22.875 24.4955 23.0866 24.1384Z" fill="white"/>
</svg>
