<svg width="56" height="56" viewBox="0 0 56 56" fill="none" xmlns="http://www.w3.org/2000/svg">
<circle cx="28" cy="28" r="28" fill="#071F91"/>
<path d="M9.11788 32.5625L36.3372 12.1107C36.7135 11.8247 37.2414 12.1786 37.1192 12.6343L28.3996 44.9673C28.3263 45.2436 27.9402 45.2582 27.8424 44.9867L23.8688 33.7162C23.5022 32.6788 22.4758 32.0147 21.3712 32.1068L9.31338 33.0812C9.02501 33.1006 8.88327 32.737 9.11788 32.5625Z" fill="white"/>
<path d="M16.9333 21.1414L22.1924 17.53C22.7398 17.1519 22.7202 16.3423 22.1533 15.9933L14.0984 11.0681C13.7563 10.8597 13.3262 11.1603 13.419 11.5529L15.5109 20.5936C15.6527 21.2238 16.3956 21.5098 16.9333 21.1414Z" fill="white"/>
<path d="M35.8729 32.7367L37.1486 26.7353C37.2854 26.0906 38.0235 25.7707 38.5953 26.11L46.6746 30.9382C47.1047 31.1951 46.9923 31.8399 46.5035 31.9417L37.0166 33.871C36.3324 34.0116 35.7263 33.4105 35.8729 32.7367Z" fill="white"/>
</svg>
