<svg width="56" height="56" viewBox="0 0 56 56" fill="none" xmlns="http://www.w3.org/2000/svg">
<circle cx="28" cy="28" r="28" fill="#071F91"/>
<path d="M35.1533 36.4815L36.9809 39.1993C33.5126 41.4868 30.8059 42.4379 27.5764 42.4379C24.9181 42.4379 22.4467 41.7714 20.1657 40.4385C15.5586 37.7727 12.7099 32.9132 12.7099 27.5781C12.7099 24.9122 13.378 22.4339 14.7071 20.1013C17.3654 15.5263 22.2563 12.6661 27.5764 12.6661C31.3285 12.6661 34.8902 14.0476 37.597 16.5711L37.8809 16.8106L38.2616 17.1925L39.4489 15.9533L38.7843 15.2868C35.7452 12.5724 31.7577 11 27.5764 11C24.5858 11 21.8306 11.715 19.3107 13.1903C14.2779 16.0956 11 21.6702 11 27.5746C11 30.4799 11.758 33.2429 13.2776 35.815C16.2682 40.9592 21.6367 44.1978 27.573 44.1978C31.3251 44.1978 34.461 43.0072 38.6874 40.1018L39.3519 39.6714L36.6382 35.5755L35.1533 36.4815Z" fill="white"/>
<path d="M36.6001 17.6677C36.2679 17.3345 35.8421 17.0498 35.3194 16.7166C33.0869 15.0019 30.4736 14.1445 27.5764 14.1445C24.0147 14.1445 20.7368 15.526 18.1235 18.0495C15.6071 20.7153 14.1844 24.0024 14.1844 27.5742C14.1844 31.1459 15.6071 34.5268 18.1269 37.0537C20.6468 39.5772 24.0181 41.0073 27.5799 41.0073C30.1447 41.0073 32.5192 40.2923 34.7518 38.8657L33.8034 37.4356C31.8546 38.7199 29.8124 39.3412 27.5799 39.3412C24.4923 39.3412 21.5467 38.102 19.3142 35.8632C17.0816 33.6243 15.8944 30.6704 15.8944 27.5742C15.8944 24.478 17.0816 21.5727 19.3142 19.3338C21.5433 17.0498 24.4889 15.8593 27.5764 15.8593C29.9059 15.8593 32.135 16.5743 34.3676 18.0495L34.7483 18.3827L36.029 19.4865L37.1228 18.1918L36.6001 17.6677Z" fill="white"/>
<path d="M33.3362 21.6294V20.4805H32.6059V21.5496C32.6508 21.5461 32.6993 21.5391 32.7443 21.5391C32.9485 21.5391 33.1493 21.5739 33.3362 21.6294Z" fill="white"/>
<path d="M43.6372 34.7427L40.8335 29.4874L40.162 29.7512L42.4188 34.0103H40.0824L37.5556 29.293C37.5176 29.3902 37.476 29.4839 37.4241 29.5741C37.3341 29.7303 37.2303 29.8692 37.1091 29.9907L39.6359 34.7427H43.6372Z" fill="white"/>
<path d="M35.3888 30.6123V34.0068H33.3362V30.6123H32.6058V34.7427H36.1399V30.5498C35.9772 30.5915 35.8111 30.6123 35.638 30.6123H35.3888Z" fill="white"/>
<path d="M34.52 22.5592L34.7173 22.8994V21.2124H37.5833C40.5289 21.2124 42.1939 22.5384 42.1939 24.9612C42.1939 27.1619 40.8716 28.5052 38.5767 28.7517L38.0298 28.8142L40.5705 33.521H41.4047L39.1894 29.3834C41.6262 28.9565 42.9277 27.4674 42.9277 24.9612C42.9277 24.1247 42.7442 23.3715 42.3981 22.6981C41.5847 21.2506 39.9197 20.4766 37.5833 20.4766H33.987V21.9518C34.1981 22.1149 34.3781 22.3197 34.52 22.5592Z" fill="white"/>
<path d="M34.7173 30.6123H33.9869V33.5005H34.7173V30.6123Z" fill="white"/>
<path d="M41.5258 25.0654C41.5258 27.1237 40.2762 28.0817 37.6525 28.1372C37.6075 27.9185 37.5314 27.7033 37.4137 27.5055L37.3687 27.4291H37.4206C39.7155 27.4291 40.792 26.6759 40.792 25.0654C40.792 23.5173 39.7362 22.6392 37.9294 22.6392H36.1192V23.3334H37.7044C38.7602 23.3334 39.4524 23.5763 39.7985 24.0866C39.982 24.3122 40.0616 24.5968 40.0616 24.9647C40.0616 26.1275 39.1063 26.7558 37.2995 26.7558H36.9776L36.5484 26.0199H37.2995C38.6598 26.0199 39.3313 25.6728 39.3313 24.9613C39.3313 24.3504 38.7809 24.0449 37.7044 24.0449H35.368V21.9033H37.9294C40.1447 21.9068 41.5258 23.0487 41.5258 25.0654Z" fill="white"/>
<path d="M36.6486 27.9536L33.755 23.0073C33.3015 22.2332 32.187 22.2332 31.7335 23.0073L29.3279 27.1171L28.4764 28.5715H27.1299L26.77 27.9536L23.8763 23.0108C23.4228 22.2367 22.3083 22.2367 21.8548 23.0108L18.9612 27.9571C18.5043 28.7416 19.065 29.7273 19.9719 29.7273H24.032L26.9153 34.6528C27.3134 35.3332 28.2929 35.3332 28.691 34.6528L31.5743 29.7273H35.6345C36.5448 29.7239 37.1055 28.7381 36.6486 27.9536Z" fill="white"/>
</svg>
