<svg width="20" height="21" viewBox="0 0 20 21" fill="none" xmlns="http://www.w3.org/2000/svg">
<path d="M16.6668 3.48828H5.00016C4.081 3.48828 3.3335 4.27319 3.3335 5.23836V9.61356H5.00016V6.98844L10.3335 11.1886C10.4778 11.3021 10.6532 11.3634 10.8335 11.3634C11.0138 11.3634 11.1892 11.3021 11.3335 11.1886L16.6668 6.98844V14.8638H10.0002V16.6139H16.6668C17.586 16.6139 18.3335 15.829 18.3335 14.8638V5.23836C18.3335 4.27319 17.586 3.48828 16.6668 3.48828ZM10.8335 9.3948L5.55516 5.23836H16.1118L10.8335 9.3948Z" fill="white"/>
<path d="M1.66675 10.4863H7.50008V12.2335H1.66675V10.4863ZM3.33341 13.1071H8.33341V14.8543H3.33341V13.1071ZM5.83341 15.728H9.16675V17.4752H5.83341V15.728Z" fill="white"/>
</svg>
