<svg width="116" height="138" viewBox="0 0 116 138" fill="none" xmlns="http://www.w3.org/2000/svg">
<path fill-rule="evenodd" clip-rule="evenodd" d="M62.0789 8.38335C62.3726 8.72503 62.8133 8.87146 63.2539 8.87146C63.7435 8.87146 64.1841 8.72503 64.5757 8.33453C65.2122 7.65118 65.2122 6.57733 64.5268 5.94278L58.8476 0.47591C58.1622 -0.158637 57.1341 -0.158637 56.4487 0.47591L50.7696 5.94278C50.0842 6.57733 50.0352 7.65118 50.7206 8.33453C51.406 9.01789 52.4831 9.01789 53.1685 8.38335L55.9103 5.73987V20.488C55.9103 21.4154 56.6937 22.1964 57.6239 22.1964C58.5541 22.1964 59.3374 21.4642 59.3374 20.488V5.74019L62.0789 8.38335ZM28.1509 45.5295C22.1781 45.5295 17.2822 40.6972 17.2822 34.791C17.2822 28.8848 22.1781 24.0525 28.1509 24.0525C34.1238 24.0525 39.0196 28.8848 39.0196 34.791C39.0196 40.6972 34.1238 45.5295 28.1509 45.5295ZM28.1509 27.4205C24.0385 27.4205 20.7093 30.7397 20.7093 34.7422C20.7093 38.7936 24.0385 42.0639 28.1509 42.0639C32.2634 42.0639 35.5926 38.7936 35.5926 34.7422C35.5436 30.7397 32.2145 27.4205 28.1509 27.4205ZM6.07073 85.0167C6.07073 88.4823 8.9103 91.3134 12.4353 91.3134C13.4714 91.3134 14.4554 91.0618 15.3236 90.6169V126.995H1.71353C0.78333 126.995 0 127.776 0 128.704C0 129.631 0.78333 130.363 1.71353 130.363H39.2154C39.6987 130.363 40.1424 130.166 40.4502 129.846C40.7453 129.543 40.929 129.127 40.929 128.655V100.491C40.929 99.5631 40.1457 98.7821 39.2154 98.7821C38.2852 98.7821 37.5019 99.5631 37.5019 100.491V126.946H29.8645V84.6756C29.8645 83.7482 29.0811 82.9672 28.1509 82.9672L28.1284 82.9674L28.1017 82.9672C27.1715 82.9672 26.3881 83.7481 26.3881 84.6756V126.946H18.7507V75.9383C18.7507 75.802 18.7337 75.6689 18.7019 75.5409V67.2494C18.7019 66.322 17.9186 65.541 16.9884 65.541C16.0582 65.541 15.2749 66.322 15.2749 67.2494V85.0167C15.2749 86.6275 14.0019 87.8966 12.3863 87.8966C10.8197 87.8966 9.4978 86.6275 9.4978 85.0167V59.8301C9.4978 55.1442 13.3655 51.3369 18.1144 51.3369H20.4644C21.3946 51.3369 22.1779 50.5559 22.1779 49.6285C22.1779 48.7011 21.3946 47.9201 20.4644 47.9201H18.1144C11.4561 47.9201 6.07073 53.2894 6.07073 59.8301V85.0167ZM35.6904 51.3369H34.2216C33.2914 51.3369 32.5081 50.5559 32.5081 49.6285C32.5081 48.7011 33.2914 47.9201 34.2216 47.9201H35.6904C36.6206 47.9201 37.4039 48.7011 37.4039 49.6285C37.4039 50.5559 36.6696 51.3369 35.6904 51.3369ZM46.5593 137.587H57.6238H68.6884C68.7037 137.587 68.719 137.587 68.7343 137.586H107.414C108.344 137.586 109.127 136.854 109.079 135.878C109.079 134.951 108.295 134.17 107.365 134.17H70.4019V93.2171C71.2679 93.6544 72.2492 93.9013 73.2903 93.9013C76.8153 93.9013 79.6549 91.0703 79.5569 87.6047V62.418C79.5569 55.8285 74.1716 50.508 67.5133 50.508H65.1633C64.2331 50.508 63.4497 51.289 63.4497 52.2164C63.4497 53.1439 64.2331 53.9248 65.1633 53.9248H67.5133C72.2622 53.9248 76.1299 57.7321 76.1299 62.418V87.6047C76.1299 89.2154 74.857 90.4845 73.2414 90.4845C71.8518 90.4845 70.6547 89.4861 70.4019 88.1363V78.5742C70.4019 78.4374 70.3849 78.3038 70.3528 78.1754V69.8373C70.3528 68.9099 69.5695 68.1289 68.6393 68.1289C67.7091 68.1289 66.9258 68.9099 66.9258 69.8373V87.6047C66.9258 87.8703 66.9425 88.1323 66.9749 88.3895V134.17H59.3374L59.3374 87.2626C59.3374 86.3932 58.6489 85.6524 57.7964 85.5632C57.7395 85.5573 57.682 85.5542 57.6238 85.5542C56.6936 85.5542 55.9103 86.3352 55.9103 87.2626V134.17H48.2728V78.5742C48.2728 78.3793 48.2382 78.1908 48.1749 78.0148V69.8373C48.1749 68.9099 47.3916 68.1289 46.4614 68.1289C45.5312 68.1289 44.7479 68.9099 44.7479 69.8373V87.6047C44.7479 89.2154 43.475 90.4845 41.8593 90.4845C40.2927 90.4845 38.9708 89.2154 38.9708 87.6047V62.418C38.9708 57.7321 42.8385 53.9248 47.5874 53.9248H49.9374C50.8676 53.9248 51.651 53.1439 51.651 52.2164C51.651 51.289 50.8676 50.508 49.9374 50.508H47.5874C40.9291 50.508 35.5438 55.8773 35.5438 62.418V87.6047C35.5438 91.0703 38.3833 93.9013 41.9083 93.9013C42.9641 93.9013 43.9656 93.6402 44.8458 93.1794V134.17H7.78426C6.85406 134.17 6.07073 134.951 6.07073 135.878C6.07073 136.805 6.85406 137.586 7.78426 137.586H46.5149L46.54 137.587L46.5593 137.587ZM46.7552 37.3774C46.7552 43.2836 51.651 48.1159 57.6239 48.1159C63.5968 48.1159 68.4926 43.2836 68.4926 37.3774C68.4926 31.4712 63.5968 26.6389 57.6239 26.6389C51.651 26.6389 46.7552 31.4712 46.7552 37.3774ZM50.1823 37.3286C50.1823 33.2772 53.5114 30.0069 57.6239 30.0069C61.6874 30.0069 65.0166 33.2772 65.0655 37.3286C65.0655 41.3799 61.7364 44.6503 57.6239 44.6503C53.5114 44.6503 50.1823 41.3799 50.1823 37.3286ZM88.2535 83.4267C87.9462 83.1424 87.5376 82.9663 87.0959 82.9663C86.1657 82.9663 85.3824 83.7473 85.3824 84.6747V126.946H77.7459V100.491C77.7459 99.5631 76.9625 98.7821 76.0323 98.7821C75.1021 98.7821 74.3188 99.5631 74.3188 100.491V128.654V128.655C74.3188 129.582 75.1021 130.363 76.0323 130.363H87.0969L87.1224 130.363L87.1433 130.362H113.485C114.415 130.362 115.199 129.63 115.199 128.654C115.199 127.727 114.415 126.946 113.485 126.946H99.874V90.6289C100.74 91.0664 101.722 91.3134 102.763 91.3134C106.288 91.3134 109.127 88.4823 109.029 85.0167V59.8301C109.029 53.2406 103.644 47.9201 96.9858 47.9201H94.6358C93.7056 47.9201 92.9222 48.7011 92.9222 49.6285C92.9222 50.5559 93.7056 51.3369 94.6358 51.3369H96.9858C101.735 51.3369 105.602 55.1442 105.602 59.8301V85.0167C105.602 86.6275 104.329 87.8966 102.714 87.8966C101.323 87.8966 100.126 86.897 99.874 85.546V75.9863C99.874 75.8502 99.8571 75.7171 99.8253 75.5893V67.2494C99.8253 66.322 99.042 65.541 98.1118 65.541C97.1816 65.541 96.3983 66.322 96.3983 67.2494V85.0167C96.3983 85.2812 96.4148 85.5419 96.4469 85.798V126.945H88.8104V84.6756C88.8104 84.1881 88.594 83.7411 88.2535 83.4267ZM80.9768 51.3369H79.0674C78.1372 51.3369 77.3539 50.5559 77.3539 49.6285C77.3539 48.7011 78.1372 47.9201 79.0674 47.9201H80.9768C81.907 47.9201 82.6903 48.7011 82.6903 49.6285C82.6903 50.5559 81.907 51.3369 80.9768 51.3369ZM87.0961 45.5295C81.1232 45.5295 76.2274 40.6972 76.2274 34.791C76.2274 28.8848 81.1232 24.0525 87.0961 24.0525C93.069 24.0525 97.9648 28.8848 97.9648 34.791C97.9648 40.6972 93.069 45.5295 87.0961 45.5295ZM87.0961 27.4205C82.9836 27.4205 79.6545 30.7397 79.6545 34.7422C79.6545 38.7936 82.9836 42.0639 87.0961 42.0639C91.2086 42.0639 94.5377 38.7936 94.5377 34.7422C94.4888 30.7397 91.1596 27.4205 87.0961 27.4205ZM104.525 36.791C103.595 36.791 102.812 36.0589 102.812 35.1315V15.7933L100.119 18.389C99.7278 18.6819 99.2872 18.8771 98.8466 18.8771C98.406 18.8771 97.9653 18.6819 97.6226 18.3402C96.9372 17.6568 96.9862 16.583 97.6716 15.9484L103.223 10.6046C103.54 10.2332 104.01 9.99362 104.525 9.99362C104.713 9.99362 104.895 10.0254 105.065 10.0837C105.312 10.1602 105.546 10.2928 105.75 10.4816L111.429 15.9484C112.114 16.583 112.114 17.6568 111.478 18.3402C110.792 19.0236 109.715 19.0236 109.03 18.389L106.239 15.6981V35.1315C106.239 36.0589 105.504 36.791 104.525 36.791ZM10.6729 36.7919C9.74265 36.7919 8.95932 36.0109 8.95932 35.0835V15.7278L6.16878 18.389C5.53232 19.0236 4.40628 19.0236 3.76983 18.3402C3.08442 17.6568 3.13337 16.583 3.76983 15.9484L9.36808 10.5594C9.68506 10.1865 10.1563 9.94563 10.6729 9.94563C11.2641 9.94563 11.7959 10.2611 12.1051 10.7291L17.5271 15.9484C18.2125 16.583 18.2125 17.6568 17.576 18.3402C17.2333 18.6819 16.7927 18.8771 16.3521 18.8771C15.9114 18.8771 15.4708 18.7307 15.1771 18.389L12.3864 15.7277V35.0835C12.3864 36.0597 11.6031 36.7919 10.6729 36.7919Z" fill="#D0A452"/>
</svg>
