<svg width="20" height="20" viewBox="0 0 20 20" fill="none" xmlns="http://www.w3.org/2000/svg">
<path d="M13.8084 18.1965C14.0298 18.1978 14.2491 18.1553 14.4537 18.0716C14.6583 17.9879 14.8441 17.8646 15.0001 17.7089L17.2584 15.469C17.4137 15.3141 17.5008 15.1046 17.5008 14.8862C17.5008 14.6679 17.4137 14.4584 17.2584 14.3035L13.9251 10.9974C13.769 10.8434 13.5578 10.757 13.3376 10.757C13.1175 10.757 12.9062 10.8434 12.7501 10.9974L11.4168 12.3116C10.4937 12.0675 9.6387 11.618 8.91678 10.9974C8.29271 10.2802 7.8398 9.43264 7.59178 8.51778L8.91678 7.19532C9.07199 7.04046 9.1591 6.83098 9.1591 6.61262C9.1591 6.39426 9.07199 6.18477 8.91678 6.02991L5.58344 2.72376C5.42731 2.56982 5.2161 2.48341 4.99594 2.48341C4.77579 2.48341 4.56458 2.56982 4.40844 2.72376L2.15844 4.97194C2.00147 5.1267 1.87715 5.31093 1.79273 5.51386C1.70832 5.71679 1.6655 5.93437 1.66678 6.15389C1.74238 9.32968 3.02184 12.3606 5.25011 14.6424C7.55071 16.8525 10.6065 18.1215 13.8084 18.1965ZM5.00011 4.48428L7.15844 6.62501L6.08344 7.69125C5.98163 7.78584 5.90538 7.90428 5.8617 8.03569C5.81802 8.1671 5.80831 8.30729 5.83344 8.44339C6.14492 9.82402 6.80437 11.1037 7.75011 12.1628C8.81707 13.102 10.1076 13.7563 11.5001 14.0638C11.6353 14.0919 11.7753 14.0861 11.9077 14.0472C12.04 14.0082 12.1606 13.9373 12.2584 13.8407L13.3334 12.7497L15.4918 14.8904L13.8251 16.5435C11.0616 16.4729 8.4247 15.379 6.43344 13.477C4.51087 11.5012 3.40478 8.88238 3.33344 6.13736L5.00011 4.48428ZM16.6668 9.10462H18.3334C18.3551 8.12187 18.1758 7.14495 17.8066 6.23275C17.4373 5.32054 16.8857 4.49193 16.1849 3.79685C15.4841 3.10177 14.6486 2.55462 13.7289 2.18837C12.8092 1.82213 11.8243 1.64436 10.8334 1.66579V3.31887C11.6067 3.29234 12.3772 3.42385 13.097 3.70522C13.8169 3.98659 14.4706 4.41181 15.0177 4.95445C15.5648 5.49709 15.9936 6.14554 16.2772 6.85951C16.5609 7.57347 16.6935 8.33768 16.6668 9.10462Z" fill="white"/>
<path d="M10.8333 6.59382C12.5833 6.59382 13.3333 7.33566 13.3333 9.06659H14.9999C14.9999 6.41249 13.5166 4.94531 10.8333 4.94531V6.59382Z" fill="white"/>
</svg>
