<svg width="80" height="80" viewBox="0 0 80 80" fill="none" xmlns="http://www.w3.org/2000/svg">
<path d="M0 64.8101V37.1095C0.146133 34.1779 2.5192 32.0612 5.12653 32.026H17.5336C21.08 29.3024 23.5934 25.5224 27.0113 22.7853C28.2175 21.8231 29.1509 20.7533 29.8115 19.5758C31.9591 15.3571 30.6578 10.4455 33.7102 7.08255C39.8441 4.45042 47.1923 8.13262 49.2621 13.9107C50.8891 18.6294 49.7989 23.3351 47.7759 27.5025C55.0996 27.4904 62.4232 27.5497 69.7467 27.5887C75.709 28.0339 79.9602 32.0481 79.9999 37.7556C79.9836 43.5073 75.025 47.6901 69.7467 47.7933H61.1307C60.8435 49.4877 60.2835 51.0243 59.4506 52.4029C59.9332 55.9459 58.8288 59.4193 56.6935 61.9237C55.5218 82.3737 28.7307 70.2411 18.6967 69.9365H5.12653C2.17447 69.7968 0.0352 67.4305 0 64.8101ZM18.4814 64.8101C26.5097 64.9828 53.942 77.1206 51.3085 59.7266C54.2116 58.1619 55.3286 53.9742 53.5487 51.3259C56.2531 48.6589 57.0233 45.3083 54.4104 42.6668C56.9951 42.6668 59.5513 42.6524 62.0786 42.6237C64.606 42.595 67.1621 42.5807 69.7469 42.5807C72.7049 42.5185 74.755 40.3482 74.7873 37.7557C74.7197 34.6907 72.393 32.7466 69.7469 32.7153C59.7212 32.7148 49.8381 32.6303 40.5385 32.6292C41.3755 25.9117 49.3897 16.7902 41.2063 11.4983C39.8961 10.8549 38.8485 10.5817 37.4799 10.8305C37.2501 10.9454 37.1209 11.0603 37.0921 11.1752C37.0634 11.2901 37.0204 11.4767 36.9629 11.7352C36.0933 17.0599 35.2815 22.3839 31.1471 25.9086C26.5963 29.3981 23.9129 34.8919 18.697 37.1095H18.4816L18.4814 64.8101Z" fill="white"/>
</svg>
