<svg width="36" height="36" viewBox="0 0 36 36" fill="none" xmlns="http://www.w3.org/2000/svg">
<path d="M18.735 15.3195V14.65H20.7555V24.0553H19.6005C19.3719 24.0557 19.1524 23.9662 18.9902 23.8064C18.828 23.6466 18.7362 23.4296 18.735 23.2028V23.2043C17.8916 23.8167 16.8732 24.146 15.828 24.1446C14.5221 24.1446 13.2696 23.6302 12.3459 22.7146C11.4221 21.799 10.9028 20.5571 10.902 19.2619C10.9028 17.9667 11.4221 16.7247 12.3459 15.8091C13.2696 14.8935 14.5221 14.3792 15.828 14.3792C16.8727 14.378 17.8905 14.7074 18.7335 15.3195H18.735V15.3195ZM10.3785 11.627V11.9319C10.3785 12.5002 10.302 12.9644 9.9285 13.5089L9.8835 13.5595C9.75906 13.6979 9.63803 13.8393 9.5205 13.9835L3.036 22.0558H10.3785V23.1984C10.3785 23.311 10.3561 23.4226 10.3126 23.5266C10.2691 23.6307 10.2053 23.7252 10.1249 23.8048C10.0445 23.8844 9.9491 23.9475 9.8441 23.9905C9.7391 24.0335 9.62659 24.0555 9.513 24.0553H0V23.5167C0 22.8577 0.165 22.5631 0.375 22.2567L7.2855 13.7693H0.288V11.627H10.38H10.3785ZM23.205 24.0553C23.014 24.0553 22.8309 23.9801 22.6959 23.8461C22.5609 23.7122 22.485 23.5306 22.485 23.3412V11.627H24.6465V24.0553H23.205V24.0553ZM31.0395 14.3197C31.6907 14.3195 32.3356 14.4465 32.9373 14.6935C33.5391 14.9405 34.0859 15.3026 34.5465 15.7592C35.0071 16.2158 35.3725 16.7579 35.6219 17.3545C35.8713 17.9512 35.9998 18.5907 36 19.2366C36.0002 19.8825 35.8721 20.5221 35.6231 21.1189C35.3741 21.7157 35.0089 22.258 34.5486 22.7148C34.0883 23.1717 33.5417 23.5342 32.9401 23.7815C32.3385 24.0289 31.6937 24.1563 31.0425 24.1565C29.7273 24.1569 28.4658 23.639 27.5355 22.717C26.6052 21.7949 26.0824 20.544 26.082 19.2396C26.0816 17.9351 26.6037 16.684 27.5334 15.7613C28.4631 14.8387 29.7243 14.3201 31.0395 14.3197V14.3197ZM15.8295 22.1347C16.2155 22.1434 16.5994 22.0755 16.9586 21.935C17.3178 21.7945 17.6451 21.5842 17.9212 21.3165C18.1973 21.0488 18.4167 20.7291 18.5665 20.3762C18.7163 20.0232 18.7934 19.6441 18.7934 19.2611C18.7934 18.8782 18.7163 18.4991 18.5665 18.1461C18.4167 17.7932 18.1973 17.4734 17.9212 17.2057C17.6451 16.9381 17.3178 16.7278 16.9586 16.5873C16.5994 16.4468 16.2155 16.3789 15.8295 16.3876C15.0725 16.4047 14.3523 16.715 13.8231 17.252C13.2938 17.789 12.9974 18.5102 12.9974 19.2611C12.9974 20.0121 13.2938 20.7333 13.8231 21.2703C14.3523 21.8073 15.0725 22.1176 15.8295 22.1347V22.1347ZM31.0395 22.1302C31.8133 22.1302 32.5553 21.8253 33.1025 21.2827C33.6496 20.74 33.957 20.004 33.957 19.2366C33.957 18.4692 33.6496 17.7332 33.1025 17.1905C32.5553 16.6479 31.8133 16.343 31.0395 16.343C30.2657 16.343 29.5237 16.6479 28.9765 17.1905C28.4294 17.7332 28.122 18.4692 28.122 19.2366C28.122 20.004 28.4294 20.74 28.9765 21.2827C29.5237 21.8253 30.2657 22.1302 31.0395 22.1302V22.1302Z" fill="#D0A452"/>
</svg>
