<svg width="36" height="37" viewBox="0 0 36 37" fill="none" xmlns="http://www.w3.org/2000/svg">
<path d="M18.735 16.1632V15.4937H20.7555V24.899H19.6005C19.3719 24.8994 19.1524 24.8099 18.9902 24.6501C18.828 24.4903 18.7362 24.2733 18.735 24.0465V24.048C17.8916 24.6603 16.8732 24.9897 15.828 24.9882C14.5221 24.9882 13.2696 24.4739 12.3459 23.5583C11.4221 22.6427 10.9028 21.4008 10.902 20.1056C10.9028 18.8104 11.4221 17.5684 12.3459 16.6529C13.2696 15.7373 14.5221 15.223 15.828 15.223C16.8727 15.2218 17.8905 15.5512 18.7335 16.1632H18.735V16.1632ZM10.3785 12.4707V12.7757C10.3785 13.344 10.302 13.8081 9.9285 14.3526L9.8835 14.4032C9.75906 14.5416 9.63803 14.683 9.5205 14.8272L3.036 22.8995H10.3785V24.042C10.3785 24.1547 10.3561 24.2663 10.3126 24.3703C10.2691 24.4744 10.2053 24.5689 10.1249 24.6485C10.0445 24.7281 9.9491 24.7912 9.8441 24.8342C9.7391 24.8771 9.62659 24.8992 9.513 24.899H0V24.3604C0 23.7014 0.165 23.4068 0.375 23.1003L7.2855 14.613H0.288V12.4707H10.38H10.3785ZM23.205 24.899C23.014 24.899 22.8309 24.8237 22.6959 24.6898C22.5609 24.5559 22.485 24.3743 22.485 24.1849V12.4707H24.6465V24.899H23.205V24.899ZM31.0395 15.1634C31.6907 15.1632 32.3356 15.2903 32.9373 15.5373C33.5391 15.7842 34.0859 16.1464 34.5465 16.6029C35.0071 17.0595 35.3725 17.6016 35.6219 18.1982C35.8713 18.7949 35.9998 19.4344 36 20.0803C36.0002 20.7262 35.8721 21.3658 35.6231 21.9626C35.3741 22.5594 35.0089 23.1017 34.5486 23.5585C34.0883 24.0154 33.5417 24.3778 32.9401 24.6252C32.3385 24.8725 31.6937 24.9999 31.0425 25.0001C29.7273 25.0005 28.4658 24.4827 27.5355 23.5606C26.6052 22.6385 26.0824 21.3877 26.082 20.0833C26.0816 18.7788 26.6037 17.5277 27.5334 16.605C28.4631 15.6824 29.7243 15.1638 31.0395 15.1634V15.1634ZM15.8295 22.9783C16.2155 22.987 16.5994 22.9192 16.9586 22.7787C17.3178 22.6382 17.6451 22.4279 17.9212 22.1602C18.1973 21.8925 18.4167 21.5728 18.5665 21.2199C18.7163 20.8669 18.7934 20.4878 18.7934 20.1048C18.7934 19.7219 18.7163 19.3428 18.5665 18.9898C18.4167 18.6369 18.1973 18.3172 17.9212 18.0495C17.6451 17.7818 17.3178 17.5715 16.9586 17.431C16.5994 17.2905 16.2155 17.2226 15.8295 17.2313C15.0725 17.2484 14.3523 17.5587 13.8231 18.0957C13.2938 18.6327 12.9974 19.3539 12.9974 20.1048C12.9974 20.8558 13.2938 21.577 13.8231 22.114C14.3523 22.651 15.0725 22.9613 15.8295 22.9783V22.9783ZM31.0395 22.9739C31.8133 22.9739 32.5553 22.669 33.1025 22.1264C33.6496 21.5837 33.957 20.8477 33.957 20.0803C33.957 19.3129 33.6496 18.5769 33.1025 18.0342C32.5553 17.4916 31.8133 17.1867 31.0395 17.1867C30.2657 17.1867 29.5237 17.4916 28.9765 18.0342C28.4294 18.5769 28.122 19.3129 28.122 20.0803C28.122 20.8477 28.4294 21.5837 28.9765 22.1264C29.5237 22.669 30.2657 22.9739 31.0395 22.9739V22.9739Z" fill="white"/>
</svg>
