<svg width="129" height="126" viewBox="0 0 129 126" fill="none" xmlns="http://www.w3.org/2000/svg">
<path fill-rule="evenodd" clip-rule="evenodd" d="M94.8967 5.27497C93.8647 5.27497 93.0784 4.48619 93.0784 3.45091V1.82405C93.0784 0.838079 93.9138 0 94.8967 0C95.9287 0 96.715 0.78878 96.715 1.82405V3.45091C96.715 4.43689 95.9287 5.27497 94.8967 5.27497ZM40.5926 12.0785V12.0784V12.0783C40.5926 6.80337 47.4236 2.66227 56.1712 2.66227C64.5105 2.66227 71.108 6.42579 71.7057 11.3474C71.798 11.5693 71.8485 11.816 71.8485 12.0785V30.4803L87.3326 22.2343C87.824 21.9878 88.4137 21.9385 88.9052 22.185L127.876 38.7987C128.515 39.0945 128.957 39.6861 128.957 40.3762C129.007 41.0664 128.613 41.7073 127.975 42.0524L62.7115 76.808C62.4658 76.9066 62.1709 77.0052 61.876 77.0052C61.6303 77.0052 61.3846 76.9559 61.1389 76.8573L22.1678 60.2437C21.9655 60.15 21.7829 60.0266 21.6278 59.8799C19.7752 60.3376 17.7336 60.5889 15.5786 60.5889C10.7303 60.5889 6.47073 59.3168 3.63664 57.2846V59.4056C3.63664 62.1171 8.55103 65.1736 15.5786 65.1736C16.6106 65.1736 17.3969 65.9624 17.3969 66.9976C17.4461 68.0329 16.6106 68.8217 15.5786 68.8217C10.7303 68.8217 6.47073 67.5496 3.63664 65.5174V67.6383C3.63664 70.3497 8.55103 73.4062 15.5786 73.4062C16.6106 73.4062 17.3969 74.195 17.3969 75.2303C17.3969 76.2655 16.6106 77.0543 15.5786 77.0543C10.7303 77.0543 6.47073 75.7822 3.63664 73.7501V75.8708C3.63664 78.5823 8.55103 81.6388 15.5786 81.6388C16.6106 81.6388 17.3969 82.4276 17.3969 83.4628C17.4461 84.4981 16.6106 85.2869 15.5786 85.2869C10.7303 85.2869 6.47073 84.0148 3.63664 81.9826V83.9065C3.63664 86.618 8.55103 89.6745 15.5786 89.6745C16.6106 89.6745 17.3969 90.4633 17.3969 91.4986C17.4461 92.4845 16.6106 93.3226 15.5786 93.3226C6.83099 93.3226 0 89.1815 0 83.9065V75.8708V67.6383V59.4056V51.2215L8.22512e-05 51.2045L0 51.1728C0 45.8979 6.83099 41.7568 15.5786 41.7568C17.2556 41.7568 18.8621 41.909 20.3635 42.1922C19.8097 41.2143 19.51 40.1568 19.51 39.0455C19.51 33.7706 26.341 29.6295 35.0886 29.6295C37.0364 29.6295 38.8892 29.8348 40.5926 30.2122V28.1491V20.0653V12.0785ZM68.2119 27.5693V26.1204C65.3733 28.1856 61.0645 29.4813 56.1712 29.4813C51.3229 29.4813 47.0634 28.2092 44.2293 26.177V28.1426L44.2293 28.1491C44.2293 30.8605 49.1437 33.917 56.1712 33.917C63.1988 33.917 68.1132 30.8605 68.1132 28.1491C68.1132 27.9477 68.1481 27.7525 68.2119 27.5693ZM68.2119 19.4855V18.1335C65.3733 20.1986 61.0645 21.4944 56.1712 21.4944C51.3229 21.4944 47.0634 20.2223 44.2293 18.1901V20.0587L44.2293 20.0653C44.2293 22.7767 49.1437 25.8332 56.1712 25.8332C63.1988 25.8332 68.1132 22.7767 68.1132 20.0653C68.1132 19.8639 68.1481 19.6686 68.2119 19.4855ZM42.3263 34.5073C41.9813 34.4904 41.6572 34.3708 41.3848 34.1791C39.61 33.6208 37.4925 33.2776 35.1378 33.2776C28.1102 33.2776 23.1958 36.3341 23.1958 39.0455C23.1958 41.757 28.1102 44.8135 35.1378 44.8135C42.1653 44.8135 47.0797 41.757 47.0797 39.0455C47.0797 37.4093 45.2901 35.6474 42.3263 34.5073ZM44.2293 12.0783C44.2293 9.3669 49.1437 6.31038 56.1712 6.31038C63.248 6.31038 68.1623 9.3669 68.1132 12.0783C68.1132 14.7898 63.1988 17.8463 56.1712 17.8463C49.1437 17.8463 44.2293 14.7898 44.2293 12.0783ZM50.2741 36.8916C50.5316 37.5815 50.6672 38.3022 50.6672 39.0455C50.6775 40.1603 50.3862 41.221 49.8388 42.2015L58.7808 37.4394C57.9339 37.5222 57.0623 37.5652 56.1712 37.5652C54.0726 37.5652 52.0842 37.3268 50.2741 36.8916ZM35.1378 48.4616C36.2844 48.4616 37.3981 48.3913 38.4677 48.2571L31.0795 52.1917C31.134 51.8575 31.1604 51.5176 31.1572 51.1728C31.1572 50.0625 30.8546 49.0025 30.2951 48.0207C31.8147 48.3077 33.4411 48.4616 35.1378 48.4616ZM61.7286 73.1599L27.0822 58.4196L88.2171 25.8824L122.864 40.6227L61.7286 73.1599ZM93.275 51.5677C93.5699 52.11 94.1104 52.4058 94.651 52.4058C94.8967 52.4058 95.1425 52.3565 95.339 52.2579L108.804 45.1096C109.345 44.8138 109.689 44.2715 109.64 43.6799C109.64 43.0884 109.247 42.5461 108.706 42.2996C108.313 42.1517 108.166 42.0038 108.067 41.9052C108.166 41.8066 108.411 41.5601 108.854 41.3136C109.394 41.0178 109.738 40.4755 109.689 39.8839C109.689 39.2924 109.296 38.7501 108.755 38.5036L91.7515 31.2567C91.3092 31.0595 90.8178 31.0595 90.3755 31.306C88.6063 32.2426 85.5594 32.4398 83.8394 31.7003C83.3971 31.5031 82.9056 31.5031 82.4633 31.7496L68.9979 38.898C68.2608 39.3417 67.9659 40.2783 68.3591 41.0178C68.8014 41.7573 69.7351 42.0531 70.4723 41.6094L83.2988 34.7569C85.6577 35.4471 88.8029 35.2992 91.1127 34.3132L105.315 40.3769C104.971 41.0178 104.922 41.6094 104.922 42.0038C104.971 42.4968 105.119 42.9405 105.364 43.3842L93.9139 49.4479C93.1767 49.8916 92.8818 50.8283 93.275 51.5677ZM59.4639 67.3915C59.2673 67.3915 59.0216 67.3422 58.825 67.2436L41.8212 59.9967C41.2807 59.7502 40.8875 59.2079 40.8875 58.6163C40.8384 58.0247 41.1824 57.4825 41.723 57.1867C42.1652 56.9402 42.411 56.6937 42.5093 56.5951C42.411 56.4965 42.2635 56.3486 41.8704 56.2007C41.3298 55.9542 40.9367 55.4119 40.9367 54.8203C40.8875 54.2287 41.2315 53.6865 41.7721 53.3907L55.2867 46.1931C56.0238 45.7987 57.0067 46.0945 57.3998 46.8339C57.793 47.5734 57.4981 48.5101 56.761 48.9538L45.2122 55.1161C45.4579 55.5598 45.6053 56.0035 45.6545 56.4965C45.6545 56.8909 45.6053 57.4825 45.2613 58.1233L59.4639 64.1871C61.7736 63.2011 64.9188 63.0532 67.2777 63.7434L80.1534 56.8909C80.8906 56.4965 81.8735 56.7923 82.2666 57.5318C82.6598 58.2712 82.3649 59.2079 81.6278 59.6516L68.1132 66.8492C67.6709 67.0957 67.1795 67.0957 66.7372 66.8985C65.0171 66.159 61.9702 66.3562 60.201 67.2929C59.9553 67.3422 59.7096 67.3915 59.4639 67.3915ZM69.8331 48.9052C70.6194 49.201 71.504 49.201 74.6492 48.4122C79.711 47.0812 82.0699 47.6727 83.6917 48.3629C85.854 49.2996 86.1488 50.8279 84.4288 52.3068L86.4929 53.1942C86.7877 53.3421 86.8369 53.5886 86.4929 53.7365L84.9694 54.5253C84.6254 54.6732 84.0848 54.7718 83.7408 54.6239L81.8242 53.8351C80.399 54.476 78.7281 54.969 77.3029 55.1661C76.9589 55.2154 76.6149 55.1168 76.4675 54.969L75.4355 53.983C75.3372 53.8844 75.3372 53.7365 75.4355 53.6379C75.5829 53.5393 75.7795 53.4407 76.0252 53.3914C77.5487 53.1449 79.023 52.7012 80.1041 52.1096C81.431 51.3701 81.6768 50.5814 80.5956 50.1377C79.8584 49.8419 78.8264 49.694 75.9269 50.4335C72.7817 51.2715 69.5382 51.8631 66.9336 50.7786C64.8204 49.8419 64.4764 48.4615 66.2456 46.9826L63.6901 45.898C63.3461 45.7501 63.2969 45.5036 63.6409 45.3557L65.1153 44.5669C65.4593 44.3697 65.9016 44.3204 66.1964 44.4683L68.6045 45.5036C69.7348 45.0106 71.0125 44.6162 72.3394 44.3697C72.7326 44.2711 73.1749 44.3697 73.3223 44.5176L74.3052 45.5036C74.4035 45.6022 74.4035 45.7501 74.3052 45.8487C74.2069 45.9473 74.0103 46.0459 73.7646 46.0952C73.1749 46.1938 71.7497 46.4403 70.3245 47.229C68.8502 48.0178 69.0959 48.6094 69.8331 48.9052ZM61.8717 85.0417C61.626 85.0417 61.3803 84.9924 61.1346 84.8938L22.1635 68.2801C21.2298 67.8857 20.7875 66.8011 21.1806 65.9137C21.5738 64.9771 22.655 64.5827 23.5887 64.9771L61.7735 81.2457L126.299 46.9337C127.184 46.4407 128.314 46.7858 128.757 47.6732C129.248 48.5606 128.904 49.6452 128.019 50.1381L62.7072 84.7952C62.4615 84.9431 62.1666 85.0417 61.8717 85.0417ZM61.1346 92.879C61.3803 92.9776 61.626 93.0269 61.8717 93.0269C62.1666 93.0269 62.4615 92.9776 62.7563 92.879L128.019 58.1233C128.904 57.6303 129.248 56.5458 128.757 55.6584C128.314 54.771 127.184 54.4259 126.299 54.9189L61.7735 89.2309L23.5887 72.9623C22.655 72.5679 21.5738 72.9623 21.1806 73.8989C20.7875 74.7863 21.2298 75.8709 22.1635 76.2653L61.1346 92.879ZM61.8717 101.063C61.626 101.063 61.3803 101.014 61.1346 100.915L22.1635 84.3017C21.2298 83.9073 20.7875 82.8228 21.1806 81.9354C21.5738 80.9987 22.655 80.6043 23.5887 80.9987L61.7734 97.2673L75.0423 90.2176C75.9269 89.7246 77.0572 90.0697 77.4995 90.9571C77.9909 91.8444 77.6469 92.929 76.7623 93.422L62.7072 100.915C62.6403 100.929 62.5699 100.946 62.4967 100.964L62.4948 100.964L62.4944 100.964C62.2993 101.011 62.0855 101.063 61.8717 101.063ZM111.015 73.1114C111.359 73.703 111.998 74.0481 112.637 74.0481C112.932 74.0481 113.227 73.9495 113.473 73.8509L127.97 66.1603C128.855 65.6673 129.199 64.5827 128.707 63.6953C128.265 62.808 127.135 62.4629 126.25 62.9558L111.753 70.6465C110.868 71.1394 110.524 72.224 111.015 73.1114ZM61.8717 109.099C61.626 109.099 61.3803 109.049 61.1346 108.951L22.1635 92.337C21.2298 91.9426 20.7875 90.8581 21.1806 89.9707C21.5738 89.034 22.655 88.6396 23.5887 89.034L61.7735 105.303L72.8308 99.3867C73.7154 98.8938 74.8457 99.2389 75.288 100.126C75.7794 101.014 75.4354 102.098 74.5508 102.591L62.7072 108.901C62.4615 109 62.1666 109.099 61.8717 109.099ZM119.174 76.7583C119.518 77.3499 120.156 77.695 120.795 77.695C121.09 77.695 121.385 77.6457 121.631 77.4978L127.97 74.1455C128.855 73.6525 129.199 72.5679 128.707 71.6805C128.265 70.7931 127.135 70.4481 126.25 70.941L119.911 74.2934C119.026 74.7863 118.682 75.8709 119.174 76.7583ZM3.63664 51.1728C3.63664 48.4614 8.55103 45.4049 15.5786 45.4049C22.6553 45.4049 27.5697 48.4614 27.5206 51.1728C27.5206 53.8843 22.6062 56.9408 15.5786 56.9408C8.55103 56.9408 3.63664 53.8843 3.63664 51.1728ZM93.0784 14.5432C93.0784 15.5785 93.8647 16.3673 94.8967 16.3673C95.9287 16.3673 96.715 15.5292 96.715 14.5432V12.9163C96.715 11.8811 95.9287 11.0923 94.8967 11.0923C93.9138 11.0923 93.0784 11.9304 93.0784 12.9163V14.5432ZM90.1296 10.0077H88.5079C87.4759 10.0077 86.6895 9.21896 86.6895 8.18368C86.6895 7.14841 87.525 6.35963 88.5079 6.35963H90.1296C91.1616 6.35963 91.9479 7.14841 91.9479 8.18368C91.9479 9.21896 91.1125 10.0077 90.1296 10.0077ZM99.6641 10.0077H101.286C102.318 10.0077 103.104 9.21896 103.104 8.18368C103.104 7.14841 102.318 6.35963 101.286 6.35963H99.6641C98.6812 6.35963 97.8457 7.14841 97.8457 8.18368C97.8457 9.21896 98.632 10.0077 99.6641 10.0077ZM8.89501 23.1208C7.86299 23.1208 7.07669 22.332 7.07669 21.2967V19.7192C7.07669 18.7332 7.91214 17.8951 8.89501 17.8951C9.87789 17.8951 10.7133 18.6839 10.7133 19.7192V21.346C10.7133 22.332 9.87789 23.1208 8.89501 23.1208ZM7.07669 32.4382C7.07669 33.4735 7.86299 34.2623 8.89501 34.2623C9.87789 34.2623 10.7133 33.4242 10.7133 32.4382V30.8114C10.7133 29.7761 9.87789 28.9873 8.89501 28.9873C7.91214 28.9873 7.07669 29.8254 7.07669 30.8114V32.4382ZM4.07871 27.8535H2.45696C1.42494 27.8535 0.638643 27.0648 0.638643 26.0295C0.638643 24.9942 1.47409 24.2547 2.45696 24.2547H4.07871C5.11073 24.2547 5.89703 25.0435 5.89703 26.0788C5.89703 27.1141 5.11073 27.8535 4.07871 27.8535ZM13.6618 27.8543H15.2835C16.2664 27.8543 17.1019 27.0656 17.1019 26.0303C17.1019 24.995 16.3156 24.2062 15.2835 24.2062H13.6618C12.6789 24.2062 11.8435 24.995 11.8435 26.0303C11.8435 27.0656 12.6298 27.8543 13.6618 27.8543ZM28.946 16.713C30.2217 16.713 31.2558 15.6756 31.2558 14.3959C31.2558 13.1162 30.2217 12.0789 28.946 12.0789C27.6704 12.0789 26.6363 13.1162 26.6363 14.3959C26.6363 15.6756 27.6704 16.713 28.946 16.713ZM114.456 20.065C114.456 21.3446 113.422 22.382 112.146 22.382C110.87 22.382 109.836 21.3446 109.836 20.065C109.836 18.7853 110.87 17.7479 112.146 17.7479C113.422 17.7479 114.456 18.7853 114.456 20.065ZM98.9756 111.661C98.4842 111.661 97.9928 111.464 97.5996 111.07L92.0464 105.548C91.26 104.809 91.26 103.576 92.0464 102.788C92.8327 102.048 94.0613 102.048 94.7984 102.788L98.9756 106.929L113.915 92.0897C114.702 91.3502 115.93 91.3502 116.667 92.0897C117.454 92.8292 117.454 94.0616 116.667 94.8504L100.352 111.07C99.9585 111.464 99.4671 111.661 98.9756 111.661ZM80.3011 101.604C80.3011 114.767 91.0636 125.514 104.332 125.514C117.601 125.514 128.364 114.767 128.364 101.604C128.364 88.4412 117.601 77.694 104.332 77.694C91.0636 77.694 80.3011 88.4412 80.3011 101.604ZM84.2326 101.604C84.2326 90.561 93.2259 81.5886 104.332 81.5886C115.439 81.5886 124.432 90.561 124.432 101.604C124.432 112.647 115.39 121.619 104.332 121.619C93.275 121.619 84.2326 112.647 84.2326 101.604Z" fill="#D0A452"/>
</svg>
