<svg width="30" height="30" viewBox="0 0 30 30" fill="none" xmlns="http://www.w3.org/2000/svg">
<path d="M15 0C6.71572 0 0 6.71572 0 15C0 23.2843 6.71572 30 15 30C23.2843 30 30 23.2843 30 15C30 6.71572 23.2843 0 15 0ZM11.4221 5.52245H21.2842V9.8236L21.9013 9.20837L24.961 12.2662L17.7356 19.4934L13.2056 20.9656L14.6759 16.4337L19.6271 11.4826V7.1704H12.6306V10.1385H9.5105V22.8296H19.6271V20.094L21.2842 18.4351V24.4776H7.85155V8.97032L11.4221 5.52245ZM15.4413 17.1973L14.7052 19.4641L16.9702 18.7281L15.4413 17.1973Z" fill="#2A40CC"/>
</svg>
